<svg xmlns="http://www.w3.org/2000/svg" xmlns:xlink="http://www.w3.org/1999/xlink" contentStyleType="text/css" data-diagram-type="STATE" height="761px" preserveAspectRatio="none" style="width:623px;height:761px;background:#FFFFFF;" version="1.1" viewBox="0 0 623 761" width="623px" zoomAndPan="magnify"><defs/><g><g id="in1"><rect fill="#F1F1F1" height="50" rx="12.5" ry="12.5" style="stroke:#181818;stroke-width:0.5;" width="182.0938" x="131" y="7"/><line style="stroke:#181818;stroke-width:0.5;" x1="131" x2="313.0938" y1="33.2969" y2="33.2969"/><text fill="#000000" font-family="sans-serif" font-size="14" lengthAdjust="spacing" textLength="162.0938" x="141" y="24.9951">RECORRIDOS_ABIERTO</text></g><path d="M19.5,118 L424.5,118 A12.5,12.5 0 0 1 437,130.5 L437,144.2969 L7,144.2969 L7,130.5 A12.5,12.5 0 0 1 19.5,118" fill="#F1F1F1"/><rect fill="none" height="492.2969" rx="12.5" ry="12.5" style="stroke:#181818;stroke-width:0.5;" width="430" x="7" y="118"/><line style="stroke:#181818;stroke-width:0.5;" x1="7" x2="437" y1="144.2969" y2="144.2969"/><text fill="#000000" font-family="sans-serif" font-size="14" lengthAdjust="spacing" textLength="135.5088" x="154.2456" y="135.9951">eliminarRecorrido()</text><g id="eliminarRecorrido.ConfirmandoEliminacion"><rect fill="#F1F1F1" height="50" rx="12.5" ry="12.5" style="stroke:#181818;stroke-width:0.5;" width="50" x="19" y="246.2969"/><line style="stroke:#181818;stroke-width:0.5;" x1="19" x2="69" y1="272.5938" y2="272.5938"/><text fill="#000000" font-family="sans-serif" font-size="14" lengthAdjust="spacing" textLength="4.4502" x="41.7749" y="264.292">&#160;</text></g><g id="eliminarRecorrido.EliminandoRecorrido"><rect fill="#F1F1F1" height="50" rx="12.5" ry="12.5" style="stroke:#181818;stroke-width:0.5;" width="50" x="19" y="457.2969"/><line style="stroke:#181818;stroke-width:0.5;" x1="19" x2="69" y1="483.5938" y2="483.5938"/><text fill="#000000" font-family="sans-serif" font-size="14" lengthAdjust="spacing" textLength="4.4502" x="41.7749" y="475.292">&#160;</text></g><ellipse cx="44" cy="165.2969" fill="#222222" rx="10" ry="10" style="stroke:#222222;stroke-width:1;"/><ellipse cx="44" cy="589.2969" fill="none" rx="11" ry="11" style="stroke:#222222;stroke-width:1;"/><ellipse cx="44" cy="589.2969" fill="#222222" rx="6" ry="6" style="stroke:#222222;stroke-width:1;"/><!--link *start*eliminarRecorrido to ConfirmandoEliminacion--><g class="link" data-entity-1=".start.eliminarRecorrido" data-entity-2="ConfirmandoEliminacion" data-source-line="11" data-uid="lnk4" id="link_.start.eliminarRecorrido_ConfirmandoEliminacion"><path d="M44,175.5269 C44,191.2369 44,217.6569 44,240.1669" fill="none" id="*start*eliminarRecorrido-to-ConfirmandoEliminacion" style="stroke:#008000;stroke-width:1;"/><polygon fill="#008000" points="44,246.1669,48,237.1669,44,241.1669,40,237.1669,44,246.1669" style="stroke:#008000;stroke-width:1;"/><path d="M49,198.2969 L49,223.2969 L345,223.2969 L345,208.2969 L335,198.2969 L49,198.2969" fill="#FEFFDD" style="stroke:#181818;stroke-width:0.5;"/><path d="M335,198.2969 L335,208.2969 L345,208.2969 L335,198.2969" fill="#FEFFDD" style="stroke:#181818;stroke-width:0.5;"/><text fill="#000000" font-family="sans-serif" font-size="13" font-weight="bold" lengthAdjust="spacing" textLength="104.8633" x="55" y="215.3638">Administrador</text><text fill="#000000" font-family="sans-serif" font-size="13" lengthAdjust="spacing" textLength="166.0356" x="163.9956" y="215.3638">solicita eliminar recorrido</text></g><!--link ConfirmandoEliminacion to EliminandoRecorrido--><g class="link" data-entity-1="ConfirmandoEliminacion" data-entity-2="EliminandoRecorrido" data-source-line="16" data-uid="lnk5" id="link_ConfirmandoEliminacion_EliminandoRecorrido"><path d="M44,296.6769 C44,336.9569 44,410.8969 44,451.0669" fill="none" id="ConfirmandoEliminacion-to-EliminandoRecorrido" style="stroke:#008000;stroke-width:1;"/><polygon fill="#008000" points="44,457.0669,48,448.0669,44,452.0669,40,448.0669,44,457.0669" style="stroke:#008000;stroke-width:1;"/><path d="M49,319.2969 L49,434.2969 L428,434.2969 L428,329.2969 L418,319.2969 L49,319.2969" fill="#FEFFDD" style="stroke:#181818;stroke-width:0.5;"/><path d="M418,319.2969 L418,329.2969 L428,329.2969 L418,319.2969" fill="#FEFFDD" style="stroke:#181818;stroke-width:0.5;"/><text fill="#000000" font-family="sans-serif" font-size="13" font-weight="bold" lengthAdjust="spacing" textLength="58.9063" x="55" y="336.3638">Sistema</text><text fill="#000000" font-family="sans-serif" font-size="13" lengthAdjust="spacing" textLength="295.4644" x="118.0386" y="336.3638">presenta informaci&#243;n del recorrido a eliminar</text><text fill="#000000" font-family="sans-serif" font-size="13" lengthAdjust="spacing" textLength="233.4097" x="55" y="351.4966">&#8226; Nombre del recorrido, descripci&#243;n</text><text fill="#000000" font-family="sans-serif" font-size="13" lengthAdjust="spacing" textLength="215.4458" x="55" y="366.6294">&#8226; Puntos de inter&#233;s (POI) y orden</text><text fill="#000000" font-family="sans-serif" font-size="13" lengthAdjust="spacing" textLength="193.7368" x="55" y="381.7622">&#8226; Punto de inicio y punto final</text><text fill="#000000" font-family="sans-serif" font-size="13" lengthAdjust="spacing" textLength="249.6724" x="55" y="396.895">&#8226; Presenta advertencia de eliminaci&#243;n</text><text fill="#000000" font-family="sans-serif" font-size="13" lengthAdjust="spacing" textLength="263.3706" x="55" y="412.0278">&#8226; Permite solicitar confirmar eliminaci&#243;n</text><text fill="#000000" font-family="sans-serif" font-size="13" lengthAdjust="spacing" textLength="255.9438" x="55" y="427.1606">&#8226; Permite solicitar cancelar eliminaci&#243;n</text></g><!--link EliminandoRecorrido to *end*eliminarRecorrido--><g class="link" data-entity-1="EliminandoRecorrido" data-entity-2=".end.eliminarRecorrido" data-source-line="27" data-uid="lnk7" id="link_EliminandoRecorrido_.end.eliminarRecorrido"><path d="M44,507.3869 C44,529.7869 44,556.0669 44,572.2469" fill="none" id="EliminandoRecorrido-to-*end*eliminarRecorrido" style="stroke:#008000;stroke-width:1;"/><polygon fill="#008000" points="44,578.2469,48,569.2469,44,573.2469,40,569.2469,44,578.2469" style="stroke:#008000;stroke-width:1;"/><path d="M49,530.2969 L49,555.2969 L370,555.2969 L370,540.2969 L360,530.2969 L49,530.2969" fill="#FEFFDD" style="stroke:#181818;stroke-width:0.5;"/><path d="M360,530.2969 L360,540.2969 L370,540.2969 L360,530.2969" fill="#FEFFDD" style="stroke:#181818;stroke-width:0.5;"/><text fill="#000000" font-family="sans-serif" font-size="13" font-weight="bold" lengthAdjust="spacing" textLength="104.8633" x="55" y="547.3638">Administrador</text><text fill="#000000" font-family="sans-serif" font-size="13" lengthAdjust="spacing" textLength="191.5405" x="163.9956" y="547.3638">solicita confirmar eliminaci&#243;n</text></g><g id="RECORRIDOS_ABIERTO"><rect fill="#F1F1F1" height="50" rx="12.5" ry="12.5" style="stroke:#181818;stroke-width:0.5;" width="182.0938" x="131" y="705"/><line style="stroke:#181818;stroke-width:0.5;" x1="131" x2="313.0938" y1="731.2969" y2="731.2969"/><text fill="#000000" font-family="sans-serif" font-size="14" lengthAdjust="spacing" textLength="162.0938" x="141" y="722.9951">RECORRIDOS_ABIERTO</text></g><!--link in1 to eliminarRecorrido--><g class="link" data-entity-1="in1" data-entity-2="eliminarRecorrido" data-source-line="4" data-uid="lnk2" id="link_in1_eliminarRecorrido"><path d="M222,57.27 C222,72.37 222,87.51 222,111.68" fill="none" id="in1-to-eliminarRecorrido" style="stroke:#008000;stroke-width:1;"/><polygon fill="#008000" points="222,117.68,226,108.68,222,112.68,218,108.68,222,117.68" style="stroke:#008000;stroke-width:1;"/></g><!--link eliminarRecorrido to RECORRIDOS_ABIERTO--><g class="link" data-entity-1="eliminarRecorrido" data-entity-2="RECORRIDOS_ABIERTO" data-source-line="33" data-uid="lnk9" id="link_eliminarRecorrido_RECORRIDOS_ABIERTO"><path d="M86.56,610.05 C76.39,628.43 70,640 70,640 C70,640 70,675 70,675 C70,675 107.8759,688.4623 148.3459,702.8323" fill="none" id="eliminarRecorrido-to-RECORRIDOS_ABIERTO" style="stroke:#008000;stroke-width:1;"/><polygon fill="#008000" points="154,704.84,146.8572,698.0591,149.2882,703.167,144.1803,705.5979,154,704.84" style="stroke:#008000;stroke-width:1;"/><path d="M75,645 L75,670 L324,670 L324,655 L314,645 L75,645" fill="#FEFFDD" style="stroke:#181818;stroke-width:0.5;"/><path d="M314,645 L314,655 L324,655 L314,645" fill="#FEFFDD" style="stroke:#181818;stroke-width:0.5;"/><text fill="#000000" font-family="sans-serif" font-size="13" lengthAdjust="spacing" textLength="228.8711" x="81" y="662.0669">abrirRecorridos() - lista actualizada</text></g><!--link eliminarRecorrido to RECORRIDOS_ABIERTO--><g class="link" data-entity-1="eliminarRecorrido" data-entity-2="RECORRIDOS_ABIERTO" data-source-line="38" data-uid="lnk10" id="link_eliminarRecorrido_RECORRIDOS_ABIERTO"><path d="M320.91,610.05 C328.33,628.43 333,640 333,640 C333,640 333,675 333,675 C333,675 306.6058,687.846 277.0558,702.216" fill="none" id="eliminarRecorrido-to-RECORRIDOS_ABIERTO-1" style="stroke:#0000FF;stroke-width:1;"/><polygon fill="#0000FF" points="271.66,704.84,281.503,704.5013,276.1565,702.6534,278.0044,697.3069,271.66,704.84" style="stroke:#0000FF;stroke-width:1;"/><path d="M338,645 L338,670 L616,670 L616,655 L606,645 L338,645" fill="#FEFFDD" style="stroke:#181818;stroke-width:0.5;"/><path d="M606,645 L606,655 L616,655 L606,645" fill="#FEFFDD" style="stroke:#181818;stroke-width:0.5;"/><text fill="#000000" font-family="sans-serif" font-size="13" lengthAdjust="spacing" textLength="257.2388" x="344" y="662.0669">abrirRecorridos() - cancelar eliminaci&#243;n</text></g><!--SRC=[dLF1QkCm4BthAuRqaYmRbjvBeDlD8PUck7ihPP6bIHagIsQaBAJBmdvBRptt4_ed_P8TExKTrsufbS4mcZVpdjv8yPPygLaNuCXZsfK8PN2xAb0g9fqGo1-3ZZ39bcVhB5lzM5_-Els-McO_rnDLvUPNHpUCwA_d2q171NdD6Ph0J3OqJGQ9kkLWTpgRm1-bGDQ-RYAV8C-2tn0NsjkmtDSO2dw8UqaAx411XRhwSjqJEjuGQgmFqb02CU6stZZ95wTMC1GJQnluv5k-W1WS6KgwFHfmIraLeRVxJh9K-tk3zr3Qs1dUadKfah3GjQ2ICQ8NGUGtGIWCFJrwiEWwOT2fhJiy_xk7yr3aZ7tSLmcZOIhh7YtqOkjJY98JYeJyz11XUh5UpM07WIs-0kvnub6GV5dlR8JPTQX6iBQ_aHDwGxegmiQO7ZToGM90Opk3UR6IFroWlK4tXczcrSrfP0Yz8Sbz-inTUKTpg-6lKiFNSiWzV8Yg9qFdJ5rfdCvWBebO6MtILZkwqrQhbc-SBNTR_2pPkD4DuNy0]--></g></svg>
