<svg xmlns="http://www.w3.org/2000/svg" xmlns:xlink="http://www.w3.org/1999/xlink" contentStyleType="text/css" data-diagram-type="STATE" height="878px" preserveAspectRatio="none" style="width:678px;height:878px;background:#FFFFFF;" version="1.1" viewBox="0 0 678 878" width="678px" zoomAndPan="magnify"><?plantuml 1.2026.5?><defs/><g><g class="entity" data-qualified-name="in1" data-source-line="3" id="ent0001"><rect fill="#F1F1F1" height="50" rx="12.5" ry="12.5" style="stroke:#181818;stroke-width:0.5;" width="161.2305" x="156.88" y="7"/><line style="stroke:#181818;stroke-width:0.5;" x1="156.88" x2="318.1105" y1="33.2969" y2="33.2969"/><text fill="#000000" font-family="sans-serif" font-size="14" lengthAdjust="spacing" textLength="141.2305" x="166.88" y="24.9951">REGIONES_ABIERTO</text></g><g class="entity" data-qualified-name="eliminarRegion" data-source-line="6" id="ent0002"><path d="M19.5,118 L455.5,118 A12.5,12.5 0 0 1 468,130.5 L468,144.2969 L7,144.2969 L7,130.5 A12.5,12.5 0 0 1 19.5,118" fill="#F1F1F1"/><rect fill="none" height="601.2969" rx="12.5" ry="12.5" style="stroke:#181818;stroke-width:0.5;" width="461" x="7" y="118"/><line style="stroke:#181818;stroke-width:0.5;" x1="7" x2="468" y1="144.2969" y2="144.2969"/><text fill="#000000" font-family="sans-serif" font-size="14" lengthAdjust="spacing" textLength="116.6074" x="179.1963" y="135.9951">eliminarRegion()</text><g class="entity" data-qualified-name="eliminarRegion.ConfirmandoEliminacion" data-source-line="8" id="ent0003"><rect fill="#F1F1F1" height="50" rx="12.5" ry="12.5" style="stroke:#181818;stroke-width:0.5;" width="50" x="19" y="246.2969"/><line style="stroke:#181818;stroke-width:0.5;" x1="19" x2="69" y1="272.5938" y2="272.5938"/><text fill="#000000" font-family="sans-serif" font-size="14" lengthAdjust="spacing" textLength="4.4502" x="41.7749" y="264.292">&#160;</text></g><g class="entity" data-qualified-name="eliminarRegion.SeleccionandoModo" data-source-line="9" id="ent0004"><rect fill="#F1F1F1" height="50" rx="12.5" ry="12.5" style="stroke:#181818;stroke-width:0.5;" width="50" x="19" y="442.2969"/><line style="stroke:#181818;stroke-width:0.5;" x1="19" x2="69" y1="468.5938" y2="468.5938"/><text fill="#000000" font-family="sans-serif" font-size="14" lengthAdjust="spacing" textLength="4.4502" x="41.7749" y="460.292">&#160;</text></g><g class="entity" data-qualified-name="eliminarRegion.EliminandoRegion" data-source-line="10" id="ent0005"><rect fill="#F1F1F1" height="50" rx="12.5" ry="12.5" style="stroke:#181818;stroke-width:0.5;" width="50" x="19" y="563.2969"/><line style="stroke:#181818;stroke-width:0.5;" x1="19" x2="69" y1="589.5938" y2="589.5938"/><text fill="#000000" font-family="sans-serif" font-size="14" lengthAdjust="spacing" textLength="4.4502" x="41.7749" y="581.292">&#160;</text></g><g class="start_entity" data-qualified-name="eliminarRegion..start.eliminarRegion" data-source-line="12" id="ent0007"><ellipse cx="44" cy="165.2969" fill="#222222" rx="10" ry="10" style="stroke:#222222;stroke-width:1;"/></g><g class="end_entity" data-qualified-name="eliminarRegion..end.eliminarRegion" data-source-line="32" id="ent0011"><ellipse cx="44" cy="695.2969" fill="none" rx="11" ry="11" style="stroke:#222222;stroke-width:1;"/><ellipse cx="44" cy="695.2969" fill="#222222" rx="6" ry="6" style="stroke:#222222;stroke-width:1;"/></g><!--link *start*eliminarRegion to ConfirmandoEliminacion--><g class="link" data-entity-1="ent0007" data-entity-2="ent0003" data-link-type="dependency" data-source-line="12" id="lnk8"><path d="M44,175.5269 C44,191.2369 44,218.6569 44,241.1669" fill="none" id="*start*eliminarRegion-to-ConfirmandoEliminacion" style="stroke:#008000;stroke-width:1;"/><polygon fill="#008000" points="44,246.1669,48,237.1669,44,241.1669,40,237.1669,44,246.1669" style="stroke:#008000;stroke-width:1;stroke-linejoin:miter;stroke-miterlimit:10;"/><path d="M49,198.2969 L49,223.2969 L327,223.2969 L327,208.2969 L317,198.2969 L49,198.2969" fill="#FEFFDD" style="stroke:#181818;stroke-width:0.5;"/><path d="M317,198.2969 L317,208.2969 L327,208.2969 L317,198.2969" fill="#FEFFDD" style="stroke:#181818;stroke-width:0.5;"/><text fill="#000000" font-family="sans-serif" font-size="13" font-weight="700" lengthAdjust="spacing" textLength="104.8633" x="55" y="215.3638">Administrador</text><text fill="#000000" font-family="sans-serif" font-size="13" lengthAdjust="spacing" textLength="148.4844" x="163.9956" y="215.3638">solicita eliminar regi&#243;n</text></g><!--link ConfirmandoEliminacion to SeleccionandoModo--><g class="link" data-entity-1="ent0003" data-entity-2="ent0004" data-link-type="dependency" data-source-line="17" id="lnk9"><path d="M44,296.4769 C44,333.6469 44,399.4569 44,436.8169" fill="none" id="ConfirmandoEliminacion-to-SeleccionandoModo" style="stroke:#008000;stroke-width:1;"/><polygon fill="#008000" points="44,441.8169,48,432.8169,44,436.8169,40,432.8169,44,441.8169" style="stroke:#008000;stroke-width:1;stroke-linejoin:miter;stroke-miterlimit:10;"/><path d="M49,319.2969 L49,419.2969 L429,419.2969 L429,329.2969 L419,319.2969 L49,319.2969" fill="#FEFFDD" style="stroke:#181818;stroke-width:0.5;"/><path d="M419,319.2969 L419,329.2969 L429,329.2969 L419,319.2969" fill="#FEFFDD" style="stroke:#181818;stroke-width:0.5;"/><text fill="#000000" font-family="sans-serif" font-size="13" font-weight="700" lengthAdjust="spacing" textLength="58.9063" x="55" y="336.3638">Sistema</text><text fill="#000000" font-family="sans-serif" font-size="13" lengthAdjust="spacing" textLength="290.0117" x="118.0386" y="336.3638">presenta informaci&#243;n de la regi&#243;n a eliminar</text><text fill="#000000" font-family="sans-serif" font-size="13" lengthAdjust="spacing" textLength="249.6724" x="55" y="351.4966">&#8226; Presenta advertencia de eliminaci&#243;n</text><text fill="#000000" font-family="sans-serif" font-size="13" lengthAdjust="spacing" textLength="359.8296" x="55" y="366.6294">&#8226; Pregunta si desea eliminar en cascada (plantas hijas)</text><text fill="#000000" font-family="sans-serif" font-size="13" lengthAdjust="spacing" textLength="209.6567" x="63.2646" y="381.7622">o dejar los elementos hu&#233;rfanos</text><text fill="#000000" font-family="sans-serif" font-size="13" lengthAdjust="spacing" textLength="263.3706" x="55" y="396.895">&#8226; Permite solicitar confirmar eliminaci&#243;n</text><text fill="#000000" font-family="sans-serif" font-size="13" lengthAdjust="spacing" textLength="255.9438" x="55" y="412.0278">&#8226; Permite solicitar cancelar eliminaci&#243;n</text></g><!--link SeleccionandoModo to EliminandoRegion--><g class="link" data-entity-1="ent0004" data-entity-2="ent0005" data-link-type="dependency" data-source-line="27" id="lnk10"><path d="M44,492.6669 C44,513.1969 44,537.4369 44,557.9569" fill="none" id="SeleccionandoModo-to-EliminandoRegion" style="stroke:#008000;stroke-width:1;"/><polygon fill="#008000" points="44,562.9569,48,553.9569,44,557.9569,40,553.9569,44,562.9569" style="stroke:#008000;stroke-width:1;stroke-linejoin:miter;stroke-miterlimit:10;"/><path d="M49,515.2969 L49,540.2969 L424,540.2969 L424,525.2969 L414,515.2969 L49,515.2969" fill="#FEFFDD" style="stroke:#181818;stroke-width:0.5;"/><path d="M414,515.2969 L414,525.2969 L424,525.2969 L414,515.2969" fill="#FEFFDD" style="stroke:#181818;stroke-width:0.5;"/><text fill="#000000" font-family="sans-serif" font-size="13" font-weight="700" lengthAdjust="spacing" textLength="104.8633" x="55" y="532.3638">Administrador</text><text fill="#000000" font-family="sans-serif" font-size="13" lengthAdjust="spacing" textLength="245.0576" x="163.9956" y="532.3638">elige modo de eliminaci&#243;n y confirma</text></g><!--link EliminandoRegion to *end*eliminarRegion--><g class="link" data-entity-1="ent0005" data-entity-2="ent0011" data-link-type="dependency" data-source-line="32" id="lnk12"><path d="M44,613.6469 C44,635.9469 44,662.8569 44,679.0369" fill="none" id="EliminandoRegion-to-*end*eliminarRegion" style="stroke:#008000;stroke-width:1;"/><polygon fill="#008000" points="44,684.0369,48,675.0369,44,679.0369,40,675.0369,44,684.0369" style="stroke:#008000;stroke-width:1;stroke-linejoin:miter;stroke-miterlimit:10;"/><path d="M49,636.2969 L49,661.2969 L444,661.2969 L444,646.2969 L434,636.2969 L49,636.2969" fill="#FEFFDD" style="stroke:#181818;stroke-width:0.5;"/><path d="M434,636.2969 L434,646.2969 L444,646.2969 L434,636.2969" fill="#FEFFDD" style="stroke:#181818;stroke-width:0.5;"/><text fill="#000000" font-family="sans-serif" font-size="13" font-weight="700" lengthAdjust="spacing" textLength="58.9063" x="55" y="653.3638">Sistema</text><text fill="#000000" font-family="sans-serif" font-size="13" lengthAdjust="spacing" textLength="311.5366" x="118.0386" y="653.3638">elimina regi&#243;n (y dependencias seg&#250;n elecci&#243;n)</text></g></g><g class="entity" data-qualified-name="REGIONES_ABIERTO" data-source-line="38" id="ent0013"><rect fill="#F1F1F1" height="50" rx="12.5" ry="12.5" style="stroke:#181818;stroke-width:0.5;" width="161.2305" x="156.88" y="814.3"/><line style="stroke:#181818;stroke-width:0.5;" x1="156.88" x2="318.1105" y1="840.5969" y2="840.5969"/><text fill="#000000" font-family="sans-serif" font-size="14" lengthAdjust="spacing" textLength="141.2305" x="166.88" y="832.2951">REGIONES_ABIERTO</text></g><!--link in1 to eliminarRegion--><g class="link" data-entity-1="ent0001" data-entity-2="ent0002" data-link-type="dependency" data-source-line="4" id="lnk6"><path d="M237.5,57.36 C237.5,72.3 237.5,88.22 237.5,112.53" fill="none" id="in1-to-eliminarRegion" style="stroke:#008000;stroke-width:1;"/><polygon fill="#008000" points="237.5,117.53,241.5,108.53,237.5,112.53,233.5,108.53,237.5,117.53" style="stroke:#008000;stroke-width:1;stroke-linejoin:miter;stroke-miterlimit:10;"/></g><!--link eliminarRegion to REGIONES_ABIERTO--><g class="link" data-entity-1="ent0002" data-entity-2="ent0013" data-link-type="dependency" data-source-line="38" id="lnk14"><path d="M89.11,719.76 C80.05,738.07 74.5,749.3 74.5,749.3 C74.5,749.3 74.5,784.3 74.5,784.3 C74.5,784.3 115.7537,797.9674 158.8837,812.2574" fill="none" id="eliminarRegion-to-REGIONES_ABIERTO" style="stroke:#008000;stroke-width:1;"/><polygon fill="#008000" points="163.63,813.83,156.3448,807.2024,158.8837,812.2574,153.8287,814.7964,163.63,813.83" style="stroke:#008000;stroke-width:1;stroke-linejoin:miter;stroke-miterlimit:10;"/><path d="M79.5,754.3 L79.5,779.3 L350.5,779.3 L350.5,764.3 L340.5,754.3 L79.5,754.3" fill="#FEFFDD" style="stroke:#181818;stroke-width:0.5;"/><path d="M340.5,754.3 L340.5,764.3 L350.5,764.3 L340.5,754.3" fill="#FEFFDD" style="stroke:#181818;stroke-width:0.5;"/><text fill="#000000" font-family="sans-serif" font-size="13" lengthAdjust="spacing" textLength="250.0088" x="85.5" y="771.3669">abrirListaRegiones() - lista actualizada</text></g><!--link eliminarRegion to REGIONES_ABIERTO--><g class="link" data-entity-1="ent0002" data-entity-2="ent0013" data-link-type="dependency" data-source-line="43" id="lnk15"><path d="M348.57,719.76 C355.34,738.07 359.5,749.3 359.5,749.3 C359.5,749.3 359.5,784.3 359.5,784.3 C359.5,784.3 329.642,797.516 297.362,811.806" fill="none" id="eliminarRegion-to-REGIONES_ABIERTO-1" style="stroke:#0000FF;stroke-width:1;"/><polygon fill="#0000FF" points="292.79,813.83,302.6388,813.8444,297.362,811.806,299.4005,806.5292,292.79,813.83" style="stroke:#0000FF;stroke-width:1;stroke-linejoin:miter;stroke-miterlimit:10;"/><path d="M364.5,754.3 L364.5,779.3 L663.5,779.3 L663.5,764.3 L653.5,754.3 L364.5,754.3" fill="#FEFFDD" style="stroke:#181818;stroke-width:0.5;"/><path d="M653.5,754.3 L653.5,764.3 L663.5,764.3 L653.5,754.3" fill="#FEFFDD" style="stroke:#181818;stroke-width:0.5;"/><text fill="#000000" font-family="sans-serif" font-size="13" lengthAdjust="spacing" textLength="278.3765" x="370.5" y="771.3669">abrirListaRegiones() - cancelar eliminaci&#243;n</text></g><?plantuml-src dPJ1Qjj048Rl-nI3Sx4B9lGU36an8T0snUujX39UZPLDLhjYHowufT1dwQtdtdhrc_H9EYjvPSkI8LG6Osd_V_vlTaVcP-DA35Y0DOwgRKbGUhkDDqfnXHM1SQy16KQB-StjtOVvylFrczlvujFTICMLwVr57eZSmtG6P4rX78O5vSQxvEy-hKjr7uqd8_Yc5CZLE4Ro4TbRxzOc5EWoFsyCEfRjwPPaISUbg7plCz-NxFsodjYYvFxLGuT_E11ghVDIJMvaPvxh1rUhsNKc6iDLmCo7gylL3DXReqs5RTCG96_tkw4cbpLrv5BjrvdKOx3X3eUGbe931TOmPI0c9p36hRq4w0W26O75X0K7qhh2tny_uMEoOVQ5GaLE6umkId2fdRqutqGn6z4m7NLE3ZIonWnXN5eK4SEZUKAUr6u0Buud4LhFug92GkNNusRtAwpHUJw4K2YCz9fsDu3UxrauGzKteDDaX_JfK0u7qjljpbdqHkdbqo7PEK4HAvxi9spRbiv0dSPsc6IGNpGH-yZszCTR0Iabh3va1gPyzyT1qxy89bsOxqgTlCp74AV_3wf3WwjWmZjXmSPAF9x0LDOuJfgkDcZDLvaLrQODPAtiXluxQdW4Kjm_?></g></svg>