<svg xmlns="http://www.w3.org/2000/svg" xmlns:xlink="http://www.w3.org/1999/xlink" contentStyleType="text/css" data-diagram-type="STATE" height="651px" preserveAspectRatio="none" style="width:589px;height:651px;background:#FFFFFF;" version="1.1" viewBox="0 0 589 651" width="589px" zoomAndPan="magnify"><defs/><g><g id="in1"><rect fill="#F1F1F1" height="50" rx="12.5" ry="12.5" style="stroke:#181818;stroke-width:0.5;" width="149.1309" x="118.5" y="7"/><line style="stroke:#181818;stroke-width:0.5;" x1="118.5" x2="267.6309" y1="33.2969" y2="33.2969"/><text fill="#000000" font-family="sans-serif" font-size="14" lengthAdjust="spacing" textLength="129.1309" x="128.5" y="24.9951">ESPACIO_ABIERTO</text></g><g id="in2"><rect fill="#F1F1F1" height="50" rx="12.5" ry="12.5" style="stroke:#181818;stroke-width:0.5;" width="173.207" x="302.5" y="7"/><line style="stroke:#181818;stroke-width:0.5;" x1="302.5" x2="475.707" y1="33.2969" y2="33.2969"/><text fill="#000000" font-family="sans-serif" font-size="14" lengthAdjust="spacing" textLength="153.207" x="312.5" y="24.9951">RECORRIDO_ABIERTO</text></g><path d="M19.5,118 L563,118 A12.5,12.5 0 0 1 575.5,130.5 L575.5,144.2969 L7,144.2969 L7,130.5 A12.5,12.5 0 0 1 19.5,118" fill="#F1F1F1"/><rect fill="none" height="400.2969" rx="12.5" ry="12.5" style="stroke:#181818;stroke-width:0.5;" width="568.5" x="7" y="118"/><line style="stroke:#181818;stroke-width:0.5;" x1="7" x2="575.5" y1="144.2969" y2="144.2969"/><text fill="#000000" font-family="sans-serif" font-size="14" lengthAdjust="spacing" textLength="141.1006" x="220.6997" y="135.9951">cambiarDeEspacio()</text><g id="cambiarDeEspacio.SolicitandoCambio"><rect fill="#F1F1F1" height="50" rx="12.5" ry="12.5" style="stroke:#181818;stroke-width:0.5;" width="50" x="81.5" y="307.2969"/><line style="stroke:#181818;stroke-width:0.5;" x1="81.5" x2="131.5" y1="333.5938" y2="333.5938"/><text fill="#000000" font-family="sans-serif" font-size="14" lengthAdjust="spacing" textLength="4.4502" x="104.2749" y="325.292">&#160;</text></g><g id="cambiarDeEspacio.SeleccionandoUbicacion"><rect fill="#F1F1F1" height="50" rx="12.5" ry="12.5" style="stroke:#181818;stroke-width:0.5;" width="189.9551" x="260.5" y="156.2969"/><line style="stroke:#181818;stroke-width:0.5;" x1="260.5" x2="450.4551" y1="182.5938" y2="182.5938"/><text fill="#000000" font-family="sans-serif" font-size="14" lengthAdjust="spacing" textLength="169.9551" x="270.5" y="174.292">SeleccionandoUbicacion</text></g><g class="entity" data-entity="c" data-uid="ent0007" id="entity_c"><polygon fill="#F1F1F1" points="355.5,320.2969,367.5,332.2969,355.5,344.2969,343.5,332.2969,355.5,320.2969" style="stroke:#181818;stroke-width:0.5;"/></g><ellipse cx="106.5" cy="181.2969" fill="#222222" rx="10" ry="10" style="stroke:#222222;stroke-width:1;"/><g id="cambiarDeEspacio.SeleccionandoEsapcio"><rect fill="#F1F1F1" height="50" rx="12.5" ry="12.5" style="stroke:#181818;stroke-width:0.5;" width="175.3877" x="19" y="458.2969"/><line style="stroke:#181818;stroke-width:0.5;" x1="19" x2="194.3877" y1="484.5938" y2="484.5938"/><text fill="#000000" font-family="sans-serif" font-size="14" lengthAdjust="spacing" textLength="155.3877" x="29" y="476.292">SeleccionandoEsapcio</text></g><ellipse cx="355.5" cy="483.2969" fill="none" rx="11" ry="11" style="stroke:#222222;stroke-width:1;"/><ellipse cx="355.5" cy="483.2969" fill="#222222" rx="6" ry="6" style="stroke:#222222;stroke-width:1;"/><!--link *start*cambiarDeEspacio to SolicitandoCambio--><g class="link" data-entity-1=".start.cambiarDeEspacio" data-entity-2="SolicitandoCambio" data-source-line="13" data-uid="lnk5" id="link_.start.cambiarDeEspacio_SolicitandoCambio"><path d="M106.5,191.6169 C106.5,214.4269 106.5,267.6269 106.5,301.1769" fill="none" id="*start*cambiarDeEspacio-to-SolicitandoCambio" style="stroke:#008000;stroke-width:1;"/><polygon fill="#008000" points="106.5,307.1769,110.5,298.1769,106.5,302.1769,102.5,298.1769,106.5,307.1769" style="stroke:#008000;stroke-width:1;"/><path d="M111.5,236.7969 L111.5,276.7969 L327.5,276.7969 L327.5,246.7969 L317.5,236.7969 L111.5,236.7969" fill="#FEFFDD" style="stroke:#181818;stroke-width:0.5;"/><path d="M317.5,236.7969 L317.5,246.7969 L327.5,246.7969 L317.5,236.7969" fill="#FEFFDD" style="stroke:#181818;stroke-width:0.5;"/><text fill="#000000" font-family="sans-serif" font-size="13" font-weight="bold" lengthAdjust="spacing" textLength="65.9839" x="117.5" y="253.8638">Visitante</text><text fill="#000000" font-family="sans-serif" font-size="13" lengthAdjust="spacing" textLength="102.8574" x="187.6162" y="253.8638">solicita cambiar</text><text fill="#000000" font-family="sans-serif" font-size="13" lengthAdjust="spacing" textLength="125.4741" x="187.7495" y="268.9966">su ubicaci&#243;n actual</text></g><!--link SolicitandoCambio to SeleccionandoEsapcio--><g class="link" data-entity-1="SolicitandoCambio" data-entity-2="SeleccionandoEsapcio" data-source-line="19" data-uid="lnk7" id="link_SolicitandoCambio_SeleccionandoEsapcio"><path d="M106.5,357.5669 C106.5,385.2769 106.5,424.3369 106.5,452.0369" fill="none" id="SolicitandoCambio-to-SeleccionandoEsapcio" style="stroke:#008000;stroke-width:1;"/><polygon fill="#008000" points="106.5,458.0369,110.5,449.0369,106.5,453.0369,102.5,449.0369,106.5,458.0369" style="stroke:#008000;stroke-width:1;"/><path d="M111.5,380.2969 L111.5,435.2969 L290.5,435.2969 L290.5,390.2969 L280.5,380.2969 L111.5,380.2969" fill="#FEFFDD" style="stroke:#181818;stroke-width:0.5;"/><path d="M280.5,380.2969 L280.5,390.2969 L290.5,390.2969 L280.5,380.2969" fill="#FEFFDD" style="stroke:#181818;stroke-width:0.5;"/><text fill="#000000" font-family="sans-serif" font-size="13" font-weight="bold" lengthAdjust="spacing" textLength="58.9063" x="117.5" y="397.3638">Sistema</text><text fill="#000000" font-family="sans-serif" font-size="13" lengthAdjust="spacing" textLength="57.6685" x="180.5386" y="397.3638">presenta</text><text fill="#000000" font-family="sans-serif" font-size="13" lengthAdjust="spacing" textLength="158.6914" x="117.5" y="412.4966">&#8226; Opciones de ubicaci&#243;n</text><text fill="#000000" font-family="sans-serif" font-size="13" lengthAdjust="spacing" textLength="121.0942" x="117.5" y="427.6294">&#8226; Mapa interactivo</text></g><!--link SeleccionandoUbicacion to c--><g class="link" data-entity-1="SeleccionandoUbicacion" data-entity-2="c" data-source-line="26" data-uid="lnk8" id="link_SeleccionandoUbicacion_c"><path d="M355.5,206.5669 C355.5,239.2269 355.5,289.9769 355.5,314.0169" fill="none" id="SeleccionandoUbicacion-to-c" style="stroke:#008000;stroke-width:1;"/><polygon fill="#008000" points="355.5,320.0169,359.5,311.0169,355.5,315.0169,351.5,311.0169,355.5,320.0169" style="stroke:#008000;stroke-width:1;"/><path d="M360.5,229.2969 L360.5,284.2969 L566.5,284.2969 L566.5,239.2969 L556.5,229.2969 L360.5,229.2969" fill="#FEFFDD" style="stroke:#181818;stroke-width:0.5;"/><path d="M556.5,229.2969 L556.5,239.2969 L566.5,239.2969 L556.5,229.2969" fill="#FEFFDD" style="stroke:#181818;stroke-width:0.5;"/><text fill="#000000" font-family="sans-serif" font-size="13" font-weight="bold" lengthAdjust="spacing" textLength="65.9839" x="366.5" y="246.3638">Visitante</text><text fill="#000000" font-family="sans-serif" font-size="13" lengthAdjust="spacing" textLength="45.7729" x="436.6162" y="246.3638">solicita</text><text fill="#000000" font-family="sans-serif" font-size="13" lengthAdjust="spacing" textLength="185.2183" x="366.5" y="261.4966">&#8226; confirmar nueva ubicaci&#243;n</text><text fill="#000000" font-family="sans-serif" font-size="13" lengthAdjust="spacing" textLength="118.9487" x="366.5" y="276.6294">&#8226; cancelar cambio</text></g><!--link c to *end*cambiarDeEspacio--><g class="link" data-entity-1="c" data-entity-2=".end.cambiarDeEspacio" data-source-line="33" data-uid="lnk10" id="link_c_.end.cambiarDeEspacio"><path d="M355.5,344.4969 C355.5,372.5169 355.5,439.3169 355.5,466.1669" fill="none" id="c-to-*end*cambiarDeEspacio" style="stroke:#008000;stroke-width:1;"/><polygon fill="#008000" points="355.5,472.1669,359.5,463.1669,355.5,467.1669,351.5,463.1669,355.5,472.1669" style="stroke:#008000;stroke-width:1;"/><path d="M360.5,395.2969 L360.5,420.2969 L511.5,420.2969 L511.5,405.2969 L501.5,395.2969 L360.5,395.2969" fill="#FEFFDD" style="stroke:#181818;stroke-width:0.5;"/><path d="M501.5,395.2969 L501.5,405.2969 L511.5,405.2969 L501.5,395.2969" fill="#FEFFDD" style="stroke:#181818;stroke-width:0.5;"/><text fill="#000000" font-family="sans-serif" font-size="13" lengthAdjust="spacing" textLength="130.9141" x="366.5" y="412.3638">confirmar / cancelar</text></g><g id="ESPACIO_ABIERTO"><rect fill="#F1F1F1" height="50" rx="12.5" ry="12.5" style="stroke:#181818;stroke-width:0.5;" width="149.1309" x="216.5" y="595"/><line style="stroke:#181818;stroke-width:0.5;" x1="216.5" x2="365.6309" y1="621.2969" y2="621.2969"/><text fill="#000000" font-family="sans-serif" font-size="14" lengthAdjust="spacing" textLength="129.1309" x="226.5" y="612.9951">ESPACIO_ABIERTO</text></g><!--link in1 to cambiarDeEspacio--><g class="link" data-entity-1="in1" data-entity-2="cambiarDeEspacio" data-source-line="4" data-uid="lnk2" id="link_in1_cambiarDeEspacio"><path d="M201.36,57.21 C206.63,72.51 212.0431,88.1981 220.3131,112.1681" fill="none" id="in1-to-cambiarDeEspacio" style="stroke:#008000;stroke-width:1;"/><polygon fill="#008000" points="222.27,117.84,223.1159,108.0275,220.6393,113.1134,215.5534,110.6367,222.27,117.84" style="stroke:#008000;stroke-width:1;"/></g><!--link in2 to cambiarDeEspacio--><g class="link" data-entity-1="in2" data-entity-2="cambiarDeEspacio" data-source-line="6" data-uid="lnk3" id="link_in2_cambiarDeEspacio"><path d="M380.64,57.21 C375.37,72.51 369.9569,88.1981 361.6869,112.1681" fill="none" id="in2-to-cambiarDeEspacio" style="stroke:#008000;stroke-width:1;"/><polygon fill="#008000" points="359.73,117.84,366.4466,110.6367,361.3607,113.1134,358.8841,108.0275,359.73,117.84" style="stroke:#008000;stroke-width:1;"/></g><!--link ESPACIO_ABIERTO to cambiarDeEspacio--><g class="link" data-entity-1="ESPACIO_ABIERTO" data-entity-2="cambiarDeEspacio" data-source-line="40" data-uid="lnk12" id="link_ESPACIO_ABIERTO_cambiarDeEspacio"><path d="M316.05,594.84 C330.96,580.47 347,565 347,565 C347,565 347,548 347,548 C347,548 345.5558,542.0781 341.1058,523.8881" fill="none" id="ESPACIO_ABIERTO-to-cambiarDeEspacio" style="stroke:#181818;stroke-width:1;"/><polygon fill="#181818" points="339.68,518.06,337.9333,527.7527,340.8682,522.9168,345.7041,525.8517,339.68,518.06" style="stroke:#181818;stroke-width:1;"/><text fill="#000000" font-family="sans-serif" font-size="13" lengthAdjust="spacing" textLength="131.022" x="348" y="561.0669">cambiarDeEspacio()</text></g><!--link cambiarDeEspacio to ESPACIO_ABIERTO--><g class="link" data-entity-1="cambiarDeEspacio" data-entity-2="ESPACIO_ABIERTO" data-source-line="41" data-uid="lnk13" id="link_cambiarDeEspacio_ESPACIO_ABIERTO"><path d="M203.2,518.06 C195.18,536.25 190,548 190,548 C190,548 190,565 190,565 C190,565 213.6382,577.6421 240.5282,592.0121" fill="none" id="cambiarDeEspacio-to-ESPACIO_ABIERTO" style="stroke:#181818;stroke-width:1;"/><polygon fill="#181818" points="245.82,594.84,239.7676,587.0703,241.4102,592.4834,235.9971,594.126,245.82,594.84" style="stroke:#181818;stroke-width:1;"/><text fill="#000000" font-family="sans-serif" font-size="13" lengthAdjust="spacing" textLength="147.9639" x="191" y="561.0669">ubicacionConfirmada()</text></g><!--SRC=[bPFFIiD04CRl-nH3FVW7YkYnb41DSoYeaRQAA2BJxQYBoMp8RWKHmPDddy5Ny15y4v_4tRJ6f0c24mXaPhvlVplPDVUACymnXKGnsSUC8DF9e_yGmbYq18ht00rqeid981p5ruE3KJIUnXtX2ztBZTkSYA-w0KXCPmhp8KKcGwbqgTylzECeZCVZqR3ciF-tmyfYFL_uhIUtjZlm9C35KjHnZ-kRw4H9PP7dElGANMcPK4BIITbNJsTAUX-kD4Zez-MTLfA2G1Jvovsh6dB37eesrawjsK_rlaZqPy6PChxHKdzt5e1P2NysjzGrmYnWiGJx_610QHUO59t4y-KgBaJvQkBKOAlxZGncSZMEDjo9CfPIB62pd0onnQBszV8EiPSo6PXJXQyi7s66xiTRoXsnUj0ruWfjw_phH-A_yomPfEORbQTkihoW1sp3bCYI4jSXVqz6azA7h46vGz1EzRlcRcbUTtqMOXE-NjyWZ8-dqVdqT70ukXWCOoVDSv8MKpTdwecrsmRTbki1FMXU0j7eyj9rkzxFE3I7A-OvRcr_0m00]--></g></svg>