<svg xmlns="http://www.w3.org/2000/svg" xmlns:xlink="http://www.w3.org/1999/xlink" contentStyleType="text/css" data-diagram-type="STATE" height="803px" preserveAspectRatio="none" style="width:663px;height:803px;background:#FFFFFF;" version="1.1" viewBox="0 0 663 803" width="663px" zoomAndPan="magnify"><?plantuml 1.2026.5?><defs/><g><g class="entity" data-qualified-name="in2" data-source-line="3" id="ent0001"><rect fill="#F1F1F1" height="50" rx="12.5" ry="12.5" style="stroke:#181818;stroke-width:0.5;" width="161.2305" x="246.88" y="7"/><line style="stroke:#181818;stroke-width:0.5;" x1="246.88" x2="408.1105" y1="33.2969" y2="33.2969"/><text fill="#000000" font-family="sans-serif" font-size="14" lengthAdjust="spacing" textLength="141.2305" x="256.88" y="24.9951">REGIONES_ABIERTO</text></g><g class="entity" data-qualified-name="editarRegion" data-source-line="6" id="ent0002"><path d="M19.5,118 L635.5,118 A12.5,12.5 0 0 1 648,130.5 L648,144.2969 L7,144.2969 L7,130.5 A12.5,12.5 0 0 1 19.5,118" fill="#F1F1F1"/><rect fill="none" height="526.2969" rx="12.5" ry="12.5" style="stroke:#181818;stroke-width:0.5;" width="641" x="7" y="118"/><line style="stroke:#181818;stroke-width:0.5;" x1="7" x2="648" y1="144.2969" y2="144.2969"/><text fill="#000000" font-family="sans-serif" font-size="14" lengthAdjust="spacing" textLength="100.6934" x="277.1533" y="135.9951">editarRegion()</text><g class="entity" data-qualified-name="editarRegion.EditandoDatos" data-source-line="8" id="ent0003"><rect fill="#F1F1F1" height="50" rx="12.5" ry="12.5" style="stroke:#181818;stroke-width:0.5;" width="50" x="156" y="246.2969"/><line style="stroke:#181818;stroke-width:0.5;" x1="156" x2="206" y1="272.5938" y2="272.5938"/><text fill="#000000" font-family="sans-serif" font-size="14" lengthAdjust="spacing" textLength="4.4502" x="178.7749" y="264.292">&#160;</text></g><g class="entity" data-qualified-name="editarRegion.GuardandoDatos" data-source-line="9" id="ent0004"><rect fill="#F1F1F1" height="50" rx="12.5" ry="12.5" style="stroke:#181818;stroke-width:0.5;" width="50" x="156" y="488.2969"/><line style="stroke:#181818;stroke-width:0.5;" x1="156" x2="206" y1="514.5938" y2="514.5938"/><text fill="#000000" font-family="sans-serif" font-size="14" lengthAdjust="spacing" textLength="4.4502" x="178.7749" y="506.292">&#160;</text></g><g class="start_entity" data-qualified-name="editarRegion..start.editarRegion" data-source-line="11" id="ent0006"><ellipse cx="181" cy="165.2969" fill="#222222" rx="10" ry="10" style="stroke:#222222;stroke-width:1;"/></g><g class="end_entity" data-qualified-name="editarRegion..end.editarRegion" data-source-line="34" id="ent0010"><ellipse cx="181" cy="620.2969" fill="none" rx="11" ry="11" style="stroke:#222222;stroke-width:1;"/><ellipse cx="181" cy="620.2969" fill="#222222" rx="6" ry="6" style="stroke:#222222;stroke-width:1;"/></g><!--link *start*editarRegion to EditandoDatos--><g class="link" data-entity-1="ent0006" data-entity-2="ent0003" data-link-type="dependency" data-source-line="11" id="lnk7"><path d="M181,175.5269 C181,191.2369 181,218.6569 181,241.1669" fill="none" id="*start*editarRegion-to-EditandoDatos" style="stroke:#008000;stroke-width:1;"/><polygon fill="#008000" points="181,246.1669,185,237.1669,181,241.1669,177,237.1669,181,246.1669" style="stroke:#008000;stroke-width:1;stroke-linejoin:miter;stroke-miterlimit:10;"/><path d="M186,198.2969 L186,223.2969 L449,223.2969 L449,208.2969 L439,198.2969 L186,198.2969" fill="#FEFFDD" style="stroke:#181818;stroke-width:0.5;"/><path d="M439,198.2969 L439,208.2969 L449,208.2969 L439,198.2969" fill="#FEFFDD" style="stroke:#181818;stroke-width:0.5;"/><text fill="#000000" font-family="sans-serif" font-size="13" font-weight="700" lengthAdjust="spacing" textLength="104.8633" x="192" y="215.3638">Administrador</text><text fill="#000000" font-family="sans-serif" font-size="13" lengthAdjust="spacing" textLength="133.707" x="300.9956" y="215.3638">solicita editar regi&#243;n</text></g><!--link EditandoDatos to GuardandoDatos--><g class="link" data-entity-1="ent0003" data-entity-2="ent0004" data-link-type="dependency" data-source-line="16" id="lnk8"><path d="M155.53,278.8569 C109.69,290.6769 18,314.2969 18,314.2969 C18,314.2969 18,470.2969 18,470.2969 C18,470.2969 104.8484,492.6684 150.6884,504.4884" fill="none" id="EditandoDatos-to-GuardandoDatos" style="stroke:#008000;stroke-width:1;"/><polygon fill="#008000" points="155.53,505.7369,147.8138,499.6164,150.6884,504.4884,145.8163,507.363,155.53,505.7369" style="stroke:#008000;stroke-width:1;stroke-linejoin:miter;stroke-miterlimit:10;"/><path d="M23,319.2969 L23,465.2969 L319,465.2969 L319,329.2969 L309,319.2969 L23,319.2969" fill="#FEFFDD" style="stroke:#181818;stroke-width:0.5;"/><path d="M309,319.2969 L309,329.2969 L319,329.2969 L309,319.2969" fill="#FEFFDD" style="stroke:#181818;stroke-width:0.5;"/><text fill="#000000" font-family="sans-serif" font-size="13" font-weight="700" lengthAdjust="spacing" textLength="58.9063" x="29" y="336.3638">Sistema</text><text fill="#000000" font-family="sans-serif" font-size="13" lengthAdjust="spacing" textLength="169.1714" x="92.0386" y="336.3638">presenta datos de edici&#243;n</text><text fill="#000000" font-family="sans-serif" font-size="13" lengthAdjust="spacing" textLength="197.2407" x="29" y="351.4966">&#8226; C&#243;digo, nombre de la regi&#243;n</text><text fill="#000000" font-family="sans-serif" font-size="13" lengthAdjust="spacing" textLength="275.9961" x="29" y="366.6294">&#8226; Plantas contenidas en la regi&#243;n (lectura)</text><text fill="#000000" font-family="sans-serif" font-size="13" lengthAdjust="spacing" textLength="231.5244" x="29" y="381.7622">&#8226; Descripci&#243;n, ubicaci&#243;n geogr&#225;fica</text><text fill="#000000" font-family="sans-serif" font-size="13" lengthAdjust="spacing" textLength="4.1323" x="29" y="396.895">&#160;</text><text fill="#000000" font-family="sans-serif" font-size="13" font-weight="700" lengthAdjust="spacing" textLength="58.9063" x="29" y="412.0278">Sistema</text><text fill="#000000" font-family="sans-serif" font-size="13" lengthAdjust="spacing" textLength="110.5952" x="92.0386" y="412.0278">permite solicitar:</text><text fill="#000000" font-family="sans-serif" font-size="13" lengthAdjust="spacing" textLength="127.8164" x="29" y="427.1606">&#8226; modificar campos</text><text fill="#000000" font-family="sans-serif" font-size="13" lengthAdjust="spacing" textLength="108.6973" x="29" y="442.2935">&#8226; guardar regi&#243;n</text><text fill="#000000" font-family="sans-serif" font-size="13" lengthAdjust="spacing" textLength="118.168" x="29" y="457.4263">&#8226; cancelar edici&#243;n</text></g><!--link GuardandoDatos to EditandoDatos--><g class="link" data-entity-1="ent0004" data-entity-2="ent0003" data-link-type="dependency" data-source-line="29" id="lnk9"><path d="M206.24,504.8869 C247.29,492.8269 324,470.2969 324,470.2969 C324,470.2969 324,314.2969 324,314.2969 C324,314.2969 252.0873,293.1763 211.0373,281.1163" fill="none" id="GuardandoDatos-to-EditandoDatos" style="stroke:#008000;stroke-width:1;"/><polygon fill="#008000" points="206.24,279.7069,213.7476,286.0816,211.0373,281.1163,216.0026,278.4059,206.24,279.7069" style="stroke:#008000;stroke-width:1;stroke-linejoin:miter;stroke-miterlimit:10;"/><path d="M329,379.7969 L329,404.7969 L624,404.7969 L624,389.7969 L614,379.7969 L329,379.7969" fill="#FEFFDD" style="stroke:#181818;stroke-width:0.5;"/><path d="M614,379.7969 L614,389.7969 L624,389.7969 L614,379.7969" fill="#FEFFDD" style="stroke:#181818;stroke-width:0.5;"/><text fill="#000000" font-family="sans-serif" font-size="13" font-weight="700" lengthAdjust="spacing" textLength="104.8633" x="335" y="396.8638">Administrador</text><text fill="#000000" font-family="sans-serif" font-size="13" lengthAdjust="spacing" textLength="165.9214" x="443.9956" y="396.8638">solicita modificar campos</text></g><!--link GuardandoDatos to *end*editarRegion--><g class="link" data-entity-1="ent0004" data-entity-2="ent0010" data-link-type="dependency" data-source-line="34" id="lnk11"><path d="M155.56,521.3269 C112.29,533.2869 29,556.2969 29,556.2969 C29,556.2969 29,591.2969 29,591.2969 C29,591.2969 130.3027,609.961 165.1527,616.381" fill="none" id="GuardandoDatos-to-*end*editarRegion" style="stroke:#008000;stroke-width:1;"/><polygon fill="#008000" points="170.07,617.2869,161.9436,611.7225,165.1527,616.381,160.4943,619.5902,170.07,617.2869" style="stroke:#008000;stroke-width:1;stroke-linejoin:miter;stroke-miterlimit:10;"/><path d="M34,561.2969 L34,586.2969 L308,586.2969 L308,571.2969 L298,561.2969 L34,561.2969" fill="#FEFFDD" style="stroke:#181818;stroke-width:0.5;"/><path d="M298,561.2969 L298,571.2969 L308,571.2969 L298,561.2969" fill="#FEFFDD" style="stroke:#181818;stroke-width:0.5;"/><text fill="#000000" font-family="sans-serif" font-size="13" font-weight="700" lengthAdjust="spacing" textLength="104.8633" x="40" y="578.3638">Administrador</text><text fill="#000000" font-family="sans-serif" font-size="13" lengthAdjust="spacing" textLength="144.5361" x="148.9956" y="578.3638">solicita guardar y salir</text></g><!--link GuardandoDatos to *end*editarRegion--><g class="link" data-entity-1="ent0004" data-entity-2="ent0010" data-link-type="dependency" data-source-line="39" id="lnk12"><path d="M206.45,522.3969 C244.81,534.5969 313,556.2969 313,556.2969 C313,556.2969 313,591.2969 313,591.2969 C313,591.2969 228.2211,609.2791 196.6911,615.9691" fill="none" id="GuardandoDatos-to-*end*editarRegion-1" style="stroke:#FF0000;stroke-width:1;"/><polygon fill="#FF0000" points="191.8,617.0069,201.4342,619.0517,196.6911,615.9691,199.7738,611.226,191.8,617.0069" style="stroke:#FF0000;stroke-width:1;stroke-linejoin:miter;stroke-miterlimit:10;"/><path d="M318,561.2969 L318,586.2969 L604,586.2969 L604,571.2969 L594,561.2969 L318,561.2969" fill="#FEFFDD" style="stroke:#181818;stroke-width:0.5;"/><path d="M594,561.2969 L594,571.2969 L604,571.2969 L594,561.2969" fill="#FEFFDD" style="stroke:#181818;stroke-width:0.5;"/><text fill="#000000" font-family="sans-serif" font-size="13" font-weight="700" lengthAdjust="spacing" textLength="104.8633" x="324" y="578.3638">Administrador</text><text fill="#000000" font-family="sans-serif" font-size="13" lengthAdjust="spacing" textLength="156.2729" x="432.9956" y="578.3638">solicita cancelar edici&#243;n</text></g></g><g class="entity" data-qualified-name="REGIONES_ABIERTO" data-source-line="46" id="ent0013"><rect fill="#F1F1F1" height="50" rx="12.5" ry="12.5" style="stroke:#181818;stroke-width:0.5;" width="161.2305" x="246.88" y="739.3"/><line style="stroke:#181818;stroke-width:0.5;" x1="246.88" x2="408.1105" y1="765.5969" y2="765.5969"/><text fill="#000000" font-family="sans-serif" font-size="14" lengthAdjust="spacing" textLength="141.2305" x="256.88" y="757.2951">REGIONES_ABIERTO</text></g><!--link in2 to editarRegion--><g class="link" data-entity-1="ent0001" data-entity-2="ent0002" data-link-type="dependency" data-source-line="4" id="lnk5"><path d="M327.5,57.41 C327.5,72.46 327.5,88.48 327.5,112.65" fill="none" id="in2-to-editarRegion" style="stroke:#008000;stroke-width:1;"/><polygon fill="#008000" points="327.5,117.65,331.5,108.65,327.5,112.65,323.5,108.65,327.5,117.65" style="stroke:#008000;stroke-width:1;stroke-linejoin:miter;stroke-miterlimit:10;"/></g><!--link editarRegion to REGIONES_ABIERTO--><g class="link" data-entity-1="ent0002" data-entity-2="ent0013" data-link-type="dependency" data-source-line="46" id="lnk14"><path d="M234.04,644.68 C227.55,662.93 223.5,674.3 223.5,674.3 C223.5,674.3 223.5,709.3 223.5,709.3 C223.5,709.3 248.4126,722.2358 275.9326,736.5258" fill="none" id="editarRegion-to-REGIONES_ABIERTO" style="stroke:#008000;stroke-width:1;"/><polygon fill="#008000" points="280.37,738.83,274.226,731.1325,275.9326,736.5258,270.5393,738.2324,280.37,738.83" style="stroke:#008000;stroke-width:1;stroke-linejoin:miter;stroke-miterlimit:10;"/><path d="M228.5,679.3 L228.5,704.3 L380.5,704.3 L380.5,689.3 L370.5,679.3 L228.5,679.3" fill="#FEFFDD" style="stroke:#181818;stroke-width:0.5;"/><path d="M370.5,679.3 L370.5,689.3 L380.5,689.3 L370.5,679.3" fill="#FEFFDD" style="stroke:#181818;stroke-width:0.5;"/><text fill="#000000" font-family="sans-serif" font-size="13" lengthAdjust="spacing" textLength="131.2124" x="234.5" y="696.3669">abrirListaRegiones()</text></g><!--link editarRegion to REGIONES_ABIERTO--><g class="link" data-entity-1="ent0002" data-entity-2="ent0013" data-link-type="dependency" data-source-line="51" id="lnk15"><path d="M383.21,644.68 C387.09,662.93 389.5,674.3 389.5,674.3 C389.5,674.3 389.5,709.3 389.5,709.3 C389.5,709.3 375.7697,721.2553 359.3697,735.5453" fill="none" id="editarRegion-to-REGIONES_ABIERTO-1" style="stroke:#FF0000;stroke-width:1;"/><polygon fill="#FF0000" points="355.6,738.83,365.0132,735.9333,359.3697,735.5453,359.7577,729.9018,355.6,738.83" style="stroke:#FF0000;stroke-width:1;stroke-linejoin:miter;stroke-miterlimit:10;"/><path d="M394.5,679.3 L394.5,704.3 L521.5,704.3 L521.5,689.3 L511.5,679.3 L394.5,679.3" fill="#FEFFDD" style="stroke:#181818;stroke-width:0.5;"/><path d="M511.5,679.3 L511.5,689.3 L521.5,689.3 L511.5,679.3" fill="#FEFFDD" style="stroke:#181818;stroke-width:0.5;"/><text fill="#000000" font-family="sans-serif" font-size="13" lengthAdjust="spacing" textLength="106.3677" x="400.5" y="696.3669">cancelar edici&#243;n</text></g><?plantuml-src fPHVQkCm4CRVTOeXVKcMba8VbnBedr0AfLtIVIjb6KjJ8sfBPkGyXBBGgtIlq2Fa9dkI7IknOoNDbhOs65ipyts_6SiEZzPLo5X2OHtLyugWyiMyUL0gr5WJM7S4660mdLnStbnFRd-Td5vEfZzl1gg97DpjvKpaxW_6GCRMo5FAhNTjTNyjolGNXgC1F2a5SYop1t9AqgJ9SSQVO-t3TlXYXcowE2m5xhxT9p291iGKvqL3CAIxnxXmd8rFJ6cT3JMZyNnyc8qX-C9ggLsX0mlgujN50d9cgIA7wYwfLHyY9Tq9SIi0L6AqhvW2ER4tKSt44UgEuE_p7pXRl1gR-ttHAZEc9gV0XBF9-b6Wo0JGtjNah95RShr461QawndZg2ivfw3PLj5j7sQPrHZl8IUVy-BbGHRMRM-24vTMUcldnzyxtT8RszGoQ2ohrI2QG1xdmrli6fscGW99x-tqrmWREs7d-__CwtyJ-aC8iYK_OzmEPGu12ykfxmvF9lC5ntV6hNuhbNp7_IOtVmigySQCBL-9AovBAGn7QYsygRfgu_-QsxIju3y0?></g></svg>