<svg xmlns="http://www.w3.org/2000/svg" xmlns:xlink="http://www.w3.org/1999/xlink" contentStyleType="text/css" data-diagram-type="STATE" height="757px" preserveAspectRatio="none" style="width:660px;height:757px;background:#FFFFFF;" version="1.1" viewBox="0 0 660 757" width="660px" zoomAndPan="magnify"><?plantuml 1.2026.5?><defs/><g><g class="entity" data-qualified-name="in1" data-source-line="3" id="ent0001"><rect fill="#F1F1F1" height="50" rx="12.5" ry="12.5" style="stroke:#181818;stroke-width:0.5;" width="208.2617" x="39.31" y="7"/><line style="stroke:#181818;stroke-width:0.5;" x1="39.31" x2="247.5717" y1="33.2969" y2="33.2969"/><text fill="#000000" font-family="sans-serif" font-size="14" lengthAdjust="spacing" textLength="188.2617" x="49.31" y="24.9951">UNIVERSIDAD_DISPONIBLE</text></g><g class="entity" data-qualified-name="in2" data-source-line="5" id="ent0002"><rect fill="#F1F1F1" height="50" rx="12.5" ry="12.5" style="stroke:#181818;stroke-width:0.5;" width="142.876" x="283" y="7"/><line style="stroke:#181818;stroke-width:0.5;" x1="283" x2="425.876" y1="33.2969" y2="33.2969"/><text fill="#000000" font-family="sans-serif" font-size="14" lengthAdjust="spacing" textLength="122.876" x="293" y="24.9951">PLANTA_ABIERTO</text></g><g class="entity" data-qualified-name="abrirPlantas" data-source-line="8" id="ent0003"><path d="M73.44,118 L423.44,118 A12.5,12.5 0 0 1 435.94,130.5 L435.94,144.2969 L60.94,144.2969 L60.94,130.5 A12.5,12.5 0 0 1 73.44,118" fill="#F1F1F1"/><rect fill="none" height="480.2969" rx="12.5" ry="12.5" style="stroke:#181818;stroke-width:0.5;" width="375" x="60.94" y="118"/><line style="stroke:#181818;stroke-width:0.5;" x1="60.94" x2="435.94" y1="144.2969" y2="144.2969"/><text fill="#000000" font-family="sans-serif" font-size="14" lengthAdjust="spacing" textLength="94.9375" x="200.9713" y="135.9951">abrirPlantas()</text><g class="entity" data-qualified-name="abrirPlantas.MostrandoLista" data-source-line="10" id="ent0004"><rect fill="#F1F1F1" height="50" rx="12.5" ry="12.5" style="stroke:#181818;stroke-width:0.5;" width="50" x="72.94" y="246.2969"/><line style="stroke:#181818;stroke-width:0.5;" x1="72.94" x2="122.94" y1="272.5938" y2="272.5938"/><text fill="#000000" font-family="sans-serif" font-size="14" lengthAdjust="spacing" textLength="4.4502" x="95.7149" y="264.292">&#160;</text></g><g class="entity" data-qualified-name="abrirPlantas.FiltrandoLista" data-source-line="11" id="ent0005"><rect fill="#F1F1F1" height="50" rx="12.5" ry="12.5" style="stroke:#181818;stroke-width:0.5;" width="50" x="72.94" y="442.2969"/><line style="stroke:#181818;stroke-width:0.5;" x1="72.94" x2="122.94" y1="468.5938" y2="468.5938"/><text fill="#000000" font-family="sans-serif" font-size="14" lengthAdjust="spacing" textLength="4.4502" x="95.7149" y="460.292">&#160;</text></g><g class="start_entity" data-qualified-name="abrirPlantas..start.abrirPlantas" data-source-line="13" id="ent0008"><ellipse cx="97.94" cy="165.2969" fill="#222222" rx="10" ry="10" style="stroke:#222222;stroke-width:1;"/></g><g class="end_entity" data-qualified-name="abrirPlantas..end.abrirPlantas" data-source-line="34" id="ent0012"><ellipse cx="97.94" cy="574.2969" fill="none" rx="11" ry="11" style="stroke:#222222;stroke-width:1;"/><ellipse cx="97.94" cy="574.2969" fill="#222222" rx="6" ry="6" style="stroke:#222222;stroke-width:1;"/></g><!--link *start*abrirPlantas to MostrandoLista--><g class="link" data-entity-1="ent0008" data-entity-2="ent0004" data-link-type="dependency" data-source-line="13" id="lnk9"><path d="M97.94,175.5269 C97.94,191.2369 97.94,218.6569 97.94,241.1669" fill="none" id="*start*abrirPlantas-to-MostrandoLista" style="stroke:#008000;stroke-width:1;"/><polygon fill="#008000" points="97.94,246.1669,101.94,237.1669,97.94,241.1669,93.94,237.1669,97.94,246.1669" style="stroke:#008000;stroke-width:1;stroke-linejoin:miter;stroke-miterlimit:10;"/><path d="M102.94,198.2969 L102.94,223.2969 L364.94,223.2969 L364.94,208.2969 L354.94,198.2969 L102.94,198.2969" fill="#FEFFDD" style="stroke:#181818;stroke-width:0.5;"/><path d="M354.94,198.2969 L354.94,208.2969 L364.94,208.2969 L354.94,198.2969" fill="#FEFFDD" style="stroke:#181818;stroke-width:0.5;"/><text fill="#000000" font-family="sans-serif" font-size="13" font-weight="700" lengthAdjust="spacing" textLength="104.8633" x="108.94" y="215.3638">Administrador</text><text fill="#000000" font-family="sans-serif" font-size="13" lengthAdjust="spacing" textLength="132.4629" x="217.9356" y="215.3638">solicita abrir plantas</text></g><!--link MostrandoLista to FiltrandoLista--><g class="link" data-entity-1="ent0004" data-entity-2="ent0005" data-link-type="dependency" data-source-line="18" id="lnk10"><path d="M97.94,296.4769 C97.94,333.6469 97.94,399.4569 97.94,436.8169" fill="none" id="MostrandoLista-to-FiltrandoLista" style="stroke:#008000;stroke-width:1;"/><polygon fill="#008000" points="97.94,441.8169,101.94,432.8169,97.94,436.8169,93.94,432.8169,97.94,441.8169" style="stroke:#008000;stroke-width:1;stroke-linejoin:miter;stroke-miterlimit:10;"/><path d="M102.94,319.2969 L102.94,419.2969 L368.94,419.2969 L368.94,329.2969 L358.94,319.2969 L102.94,319.2969" fill="#FEFFDD" style="stroke:#181818;stroke-width:0.5;"/><path d="M358.94,319.2969 L358.94,329.2969 L368.94,329.2969 L358.94,319.2969" fill="#FEFFDD" style="stroke:#181818;stroke-width:0.5;"/><text fill="#000000" font-family="sans-serif" font-size="13" font-weight="700" lengthAdjust="spacing" textLength="58.9063" x="108.94" y="336.3638">Sistema</text><text fill="#000000" font-family="sans-serif" font-size="13" lengthAdjust="spacing" textLength="161.2813" x="171.9786" y="336.3638">presenta lista de plantas</text><text fill="#000000" font-family="sans-serif" font-size="13" lengthAdjust="spacing" textLength="193.1655" x="108.94" y="351.4966">&#8226; ID y nombre de cada planta</text><text fill="#000000" font-family="sans-serif" font-size="13" lengthAdjust="spacing" textLength="188.481" x="108.94" y="366.6294">&#8226; Permite solicitar filtrar lista</text><text fill="#000000" font-family="sans-serif" font-size="13" lengthAdjust="spacing" textLength="245.0703" x="108.94" y="381.7622">&#8226; Permite solicitar crear planta nueva</text><text fill="#000000" font-family="sans-serif" font-size="13" lengthAdjust="spacing" textLength="220.0479" x="108.94" y="396.895">&#8226; Permite solicitar eliminar planta</text><text fill="#000000" font-family="sans-serif" font-size="13" lengthAdjust="spacing" textLength="205.2705" x="108.94" y="412.0278">&#8226; Permite solicitar editar planta</text></g><!--link FiltrandoLista to FiltrandoLista--><g class="link" data-entity-1="ent0005" data-entity-2="ent0005" data-link-type="dependency" data-source-line="28" id="lnk11"><path d="M123.12,455.9969 C132.85,455.4969 140.94,459.2569 140.94,467.2969 C140.94,475.3369 137.8434,479.3535 128.1134,478.8535" fill="none" id="FiltrandoLista-to-FiltrandoLista" style="stroke:#008000;stroke-width:1;"/><polygon fill="#008000" points="123.12,478.5969,131.9029,483.0535,128.1134,478.8535,132.3134,475.064,123.12,478.5969" style="stroke:#008000;stroke-width:1;stroke-linejoin:miter;stroke-miterlimit:10;"/><path d="M145.94,447.2969 L145.94,487.2969 L391.94,487.2969 L391.94,457.2969 L381.94,447.2969 L145.94,447.2969" fill="#FEFFDD" style="stroke:#181818;stroke-width:0.5;"/><path d="M381.94,447.2969 L381.94,457.2969 L391.94,457.2969 L381.94,447.2969" fill="#FEFFDD" style="stroke:#181818;stroke-width:0.5;"/><text fill="#000000" font-family="sans-serif" font-size="13" font-weight="700" lengthAdjust="spacing" textLength="104.8633" x="151.94" y="464.3638">Administrador</text><text fill="#000000" font-family="sans-serif" font-size="13" lengthAdjust="spacing" textLength="116.6509" x="260.9356" y="464.3638">solicita filtrar lista</text><text fill="#000000" font-family="sans-serif" font-size="13" font-weight="700" lengthAdjust="spacing" textLength="58.9063" x="151.94" y="479.4966">Sistema</text><text fill="#000000" font-family="sans-serif" font-size="13" lengthAdjust="spacing" textLength="139.4199" x="214.9786" y="479.4966">presenta lista filtrada</text></g><!--link FiltrandoLista to *end*abrirPlantas--><g class="link" data-entity-1="ent0005" data-entity-2="ent0012" data-link-type="dependency" data-source-line="34" id="lnk13"><path d="M97.94,492.6469 C97.94,514.9469 97.94,541.8569 97.94,558.0369" fill="none" id="FiltrandoLista-to-*end*abrirPlantas" style="stroke:#008000;stroke-width:1;"/><polygon fill="#008000" points="97.94,563.0369,101.94,554.0369,97.94,558.0369,93.94,554.0369,97.94,563.0369" style="stroke:#008000;stroke-width:1;stroke-linejoin:miter;stroke-miterlimit:10;"/><path d="M102.94,515.2969 L102.94,540.2969 L411.94,540.2969 L411.94,525.2969 L401.94,515.2969 L102.94,515.2969" fill="#FEFFDD" style="stroke:#181818;stroke-width:0.5;"/><path d="M401.94,515.2969 L401.94,525.2969 L411.94,525.2969 L401.94,515.2969" fill="#FEFFDD" style="stroke:#181818;stroke-width:0.5;"/><text fill="#000000" font-family="sans-serif" font-size="13" font-weight="700" lengthAdjust="spacing" textLength="104.8633" x="108.94" y="532.3638">Administrador</text><text fill="#000000" font-family="sans-serif" font-size="13" lengthAdjust="spacing" textLength="179.2769" x="217.9356" y="532.3638">solicita una de las opciones</text></g></g><g class="entity" data-qualified-name="PLANTA_ABIERTO" data-source-line="40" id="ent0014"><rect fill="#F1F1F1" height="50" rx="12.5" ry="12.5" style="stroke:#181818;stroke-width:0.5;" width="142.876" x="7" y="693.3"/><line style="stroke:#181818;stroke-width:0.5;" x1="7" x2="149.876" y1="719.5969" y2="719.5969"/><text fill="#000000" font-family="sans-serif" font-size="14" lengthAdjust="spacing" textLength="122.876" x="17" y="711.2951">PLANTA_ABIERTO</text></g><g class="entity" data-qualified-name="PLANTAS_ABIERTO" data-source-line="50" id="ent0017"><rect fill="#F1F1F1" height="50" rx="12.5" ry="12.5" style="stroke:#181818;stroke-width:0.5;" width="151.7627" x="250.56" y="693.3"/><line style="stroke:#181818;stroke-width:0.5;" x1="250.56" x2="402.3227" y1="719.5969" y2="719.5969"/><text fill="#000000" font-family="sans-serif" font-size="14" lengthAdjust="spacing" textLength="131.7627" x="260.56" y="711.2951">PLANTAS_ABIERTO</text></g><g class="entity" data-qualified-name="UNIVERSIDAD_DISPONIBLE" data-source-line="55" id="ent0019"><rect fill="#F1F1F1" height="50" rx="12.5" ry="12.5" style="stroke:#181818;stroke-width:0.5;" width="208.2617" x="437.31" y="693.3"/><line style="stroke:#181818;stroke-width:0.5;" x1="437.31" x2="645.5717" y1="719.5969" y2="719.5969"/><text fill="#000000" font-family="sans-serif" font-size="14" lengthAdjust="spacing" textLength="188.2617" x="447.31" y="711.2951">UNIVERSIDAD_DISPONIBLE</text></g><!--link in1 to abrirPlantas--><g class="link" data-entity-1="ent0001" data-entity-2="ent0003" data-link-type="dependency" data-source-line="4" id="lnk6"><path d="M151.33,57.37 C156.22,72.46 161.4987,88.7635 169.2887,112.8035" fill="none" id="in1-to-abrirPlantas" style="stroke:#008000;stroke-width:1;"/><polygon fill="#008000" points="170.83,117.56,171.8608,107.7652,169.2887,112.8035,164.2504,110.2313,170.83,117.56" style="stroke:#008000;stroke-width:1;stroke-linejoin:miter;stroke-miterlimit:10;"/></g><!--link in2 to abrirPlantas--><g class="link" data-entity-1="ent0002" data-entity-2="ent0003" data-link-type="dependency" data-source-line="6" id="lnk7"><path d="M346.47,57.37 C341.54,72.46 336.2038,88.7676 328.3438,112.8076" fill="none" id="in2-to-abrirPlantas" style="stroke:#008000;stroke-width:1;"/><polygon fill="#008000" points="326.79,117.56,333.3888,110.2487,328.3438,112.8076,325.785,107.7626,326.79,117.56" style="stroke:#008000;stroke-width:1;stroke-linejoin:miter;stroke-miterlimit:10;"/></g><!--link abrirPlantas to PLANTA_ABIERTO--><g class="link" data-entity-1="ent0003" data-entity-2="ent0014" data-link-type="dependency" data-source-line="40" id="lnk15"><path d="M60.51,569.9 C30.15,603.95 8.44,628.3 8.44,628.3 C8.44,628.3 8.44,663.3 8.44,663.3 C8.44,663.3 24.2314,675.4856 42.7514,689.7756" fill="none" id="abrirPlantas-to-PLANTA_ABIERTO" style="stroke:#008000;stroke-width:1;"/><polygon fill="#008000" points="46.71,692.83,42.0281,684.1651,42.7514,689.7756,37.141,690.4989,46.71,692.83" style="stroke:#008000;stroke-width:1;stroke-linejoin:miter;stroke-miterlimit:10;"/><path d="M13.44,633.3 L13.44,658.3 L123.44,658.3 L123.44,643.3 L113.44,633.3 L13.44,633.3" fill="#FEFFDD" style="stroke:#181818;stroke-width:0.5;"/><path d="M113.44,633.3 L113.44,643.3 L123.44,643.3 L113.44,633.3" fill="#FEFFDD" style="stroke:#181818;stroke-width:0.5;"/><text fill="#000000" font-family="sans-serif" font-size="13" lengthAdjust="spacing" textLength="89.1338" x="19.44" y="650.3669">editarPlanta()</text></g><!--link abrirPlantas to PLANTA_ABIERTO--><g class="link" data-entity-1="ent0003" data-entity-2="ent0014" data-link-type="dependency" data-source-line="45" id="lnk16"><path d="M157.04,598.8 C142.66,636.49 132.44,663.3 132.44,663.3 C132.44,663.3 120.7355,675.0045 106.4455,689.2945" fill="none" id="abrirPlantas-to-PLANTA_ABIERTO-1" style="stroke:#008000;stroke-width:1;"/><polygon fill="#008000" points="102.91,692.83,112.1024,689.2945,106.4455,689.2945,106.4455,683.6376,102.91,692.83" style="stroke:#008000;stroke-width:1;stroke-linejoin:miter;stroke-miterlimit:10;"/><path d="M150.44,633.3 L150.44,658.3 L255.44,658.3 L255.44,643.3 L245.44,633.3 L150.44,633.3" fill="#FEFFDD" style="stroke:#181818;stroke-width:0.5;"/><path d="M245.44,633.3 L245.44,643.3 L255.44,643.3 L245.44,633.3" fill="#FEFFDD" style="stroke:#181818;stroke-width:0.5;"/><text fill="#000000" font-family="sans-serif" font-size="13" lengthAdjust="spacing" textLength="84.665" x="156.44" y="650.3669">crearPlanta()</text></g><!--link abrirPlantas to PLANTAS_ABIERTO--><g class="link" data-entity-1="ent0003" data-entity-2="ent0017" data-link-type="dependency" data-source-line="50" id="lnk18"><path d="M300.57,598.54 C308.93,636.9 315.3065,666.1944 320.0365,687.9244" fill="none" id="abrirPlantas-to-PLANTAS_ABIERTO" style="stroke:#008000;stroke-width:1;"/><polygon fill="#008000" points="321.1,692.81,323.0943,683.1652,320.0365,687.9244,315.2773,684.8667,321.1,692.81" style="stroke:#008000;stroke-width:1;stroke-linejoin:miter;stroke-miterlimit:10;"/><path d="M317.44,633.3 L317.44,658.3 L441.44,658.3 L441.44,643.3 L431.44,633.3 L317.44,633.3" fill="#FEFFDD" style="stroke:#181818;stroke-width:0.5;"/><path d="M431.44,633.3 L431.44,643.3 L441.44,643.3 L431.44,633.3" fill="#FEFFDD" style="stroke:#181818;stroke-width:0.5;"/><text fill="#000000" font-family="sans-serif" font-size="13" lengthAdjust="spacing" textLength="103.9111" x="323.44" y="650.3669">eliminarPlanta()</text></g><!--link abrirPlantas to UNIVERSIDAD_DISPONIBLE--><g class="link" data-entity-1="ent0003" data-entity-2="ent0019" data-link-type="dependency" data-source-line="55" id="lnk20"><path d="M436.28,588.76 C470.88,631.06 498.9626,665.3912 518.2426,688.9412" fill="none" id="abrirPlantas-to-UNIVERSIDAD_DISPONIBLE" style="stroke:#008000;stroke-width:1;"/><polygon fill="#008000" points="521.41,692.81,518.8038,683.3122,518.2426,688.9412,512.6137,688.38,521.41,692.81" style="stroke:#008000;stroke-width:1;stroke-linejoin:miter;stroke-miterlimit:10;"/><path d="M496.44,633.3 L496.44,658.3 L642.44,658.3 L642.44,643.3 L632.44,633.3 L496.44,633.3" fill="#FEFFDD" style="stroke:#181818;stroke-width:0.5;"/><path d="M632.44,633.3 L632.44,643.3 L642.44,643.3 L632.44,633.3" fill="#FEFFDD" style="stroke:#181818;stroke-width:0.5;"/><text fill="#000000" font-family="sans-serif" font-size="13" lengthAdjust="spacing" textLength="125.9248" x="502.44" y="650.3669">completarGestion()</text></g><?plantuml-src dLJHQeCm57tFLmJtqWxAM9zBmM8tXAwLsksbb1BrReHg8j4EoXZiM_Pf-vBTHEkqNOMge9XxxhdddjoOxRX8cM89ZRc0_902JMLyq1-4P3dBWN9nJrb6hUUv-p9T-gvZErl7zRt5t9tCfXRHyS7wvaq1YCrWJ5cWkF9Y9dAMLHH3G-7DxFdAtjeJTxfSBNJgy79gcLjVCoJrXLxVeX-4KBmAj8KtWfvabYic8ZdZk7uUV-1nFMu0wzjDGqoJWngCaCWXXJPhPnP6mTYE4YwunaPIZUw2CSrap4EEEKOgJSk6D1v4L93WHQh7IQcwYXEbbqJu68M4cVAfWWom8W8qMmGD1JzVtzHrw05faa213eSiOYMcWdYW4evrZhqe-cgKg8Ar1HSgOCUcgTZ3UniOOexkLVWsP6HUDTpHopyVcsPryR5bCy_xR_Uzm4STjE8aTX6u5sQpOvnlcOPS2cZE7Faaf76QwZMRHvCqIXVM5rczFgdukh6P-RYUpB-WhHoWQmZ__vETg9H96WEs_GXPZbxMc7y1?></g></svg>