<svg xmlns="http://www.w3.org/2000/svg" xmlns:xlink="http://www.w3.org/1999/xlink" contentStyleType="text/css" data-diagram-type="STATE" height="856px" preserveAspectRatio="none" style="width:518px;height:856px;background:#FFFFFF;" version="1.1" viewBox="0 0 518 856" width="518px" zoomAndPan="magnify"><defs/><g><g id="in1"><rect fill="#F1F1F1" height="50" rx="12.5" ry="12.5" style="stroke:#181818;stroke-width:0.5;" width="173.207" x="169" y="7"/><line style="stroke:#181818;stroke-width:0.5;" x1="169" x2="342.207" y1="33.2969" y2="33.2969"/><text fill="#000000" font-family="sans-serif" font-size="14" lengthAdjust="spacing" textLength="153.207" x="179" y="24.9951">RECORRIDO_ABIERTO</text></g><path d="M19.5,118 L492,118 A12.5,12.5 0 0 1 504.5,130.5 L504.5,144.2969 L7,144.2969 L7,130.5 A12.5,12.5 0 0 1 19.5,118" fill="#F1F1F1"/><rect fill="none" height="587.2969" rx="12.5" ry="12.5" style="stroke:#181818;stroke-width:0.5;" width="497.5" x="7" y="118"/><line style="stroke:#181818;stroke-width:0.5;" x1="7" x2="504.5" y1="144.2969" y2="144.2969"/><text fill="#000000" font-family="sans-serif" font-size="14" lengthAdjust="spacing" textLength="111.7676" x="199.8662" y="135.9951">buscarEspacio()</text><g id="buscarEspacio.SolicitandoBusqueda"><rect fill="#F1F1F1" height="50" rx="12.5" ry="12.5" style="stroke:#181818;stroke-width:0.5;" width="50" x="188.5" y="261.2969"/><line style="stroke:#181818;stroke-width:0.5;" x1="188.5" x2="238.5" y1="287.5938" y2="287.5938"/><text fill="#000000" font-family="sans-serif" font-size="14" lengthAdjust="spacing" textLength="4.4502" x="211.2749" y="279.292">&#160;</text></g><g id="buscarEspacio.MostrandoResultados"><rect fill="#F1F1F1" height="50" rx="12.5" ry="12.5" style="stroke:#181818;stroke-width:0.5;" width="171.2998" x="19" y="397.2969"/><line style="stroke:#181818;stroke-width:0.5;" x1="19" x2="190.2998" y1="423.5938" y2="423.5938"/><text fill="#000000" font-family="sans-serif" font-size="14" lengthAdjust="spacing" textLength="151.2998" x="29" y="415.292">MostrandoResultados</text></g><g class="entity" data-entity="c" data-uid="ent0006" id="entity_c"><polygon fill="#F1F1F1" points="213.5,563.2969,225.5,575.2969,213.5,587.2969,201.5,575.2969,213.5,563.2969" style="stroke:#181818;stroke-width:0.5;"/></g><ellipse cx="213.5" cy="165.2969" fill="#222222" rx="10" ry="10" style="stroke:#222222;stroke-width:1;"/><ellipse cx="213.5" cy="684.2969" fill="none" rx="11" ry="11" style="stroke:#222222;stroke-width:1;"/><ellipse cx="213.5" cy="684.2969" fill="#222222" rx="6" ry="6" style="stroke:#222222;stroke-width:1;"/><!--link *start*buscarEspacio to SolicitandoBusqueda--><g class="link" data-entity-1=".start.buscarEspacio" data-entity-2="SolicitandoBusqueda" data-source-line="12" data-uid="lnk4" id="link_.start.buscarEspacio_SolicitandoBusqueda"><path d="M213.5,175.6369 C213.5,193.8269 213.5,228.5369 213.5,254.9069" fill="none" id="*start*buscarEspacio-to-SolicitandoBusqueda" style="stroke:#008000;stroke-width:1;"/><polygon fill="#008000" points="213.5,260.9069,217.5,251.9069,213.5,255.9069,209.5,251.9069,213.5,260.9069" style="stroke:#008000;stroke-width:1;"/><path d="M218.5,198.2969 L218.5,238.2969 L406.5,238.2969 L406.5,208.2969 L396.5,198.2969 L218.5,198.2969" fill="#FEFFDD" style="stroke:#181818;stroke-width:0.5;"/><path d="M396.5,198.2969 L396.5,208.2969 L406.5,208.2969 L396.5,198.2969" fill="#FEFFDD" style="stroke:#181818;stroke-width:0.5;"/><text fill="#000000" font-family="sans-serif" font-size="13" font-weight="bold" lengthAdjust="spacing" textLength="65.9839" x="224.5" y="215.3638">Visitante</text><text fill="#000000" font-family="sans-serif" font-size="13" lengthAdjust="spacing" textLength="93.6279" x="294.6162" y="215.3638">solicita buscar</text><text fill="#000000" font-family="sans-serif" font-size="13" lengthAdjust="spacing" textLength="90.7461" x="294.7495" y="230.4966">una ubicaci&#243;n</text></g><!--link SolicitandoBusqueda to MostrandoResultados--><g class="link" data-entity-1="SolicitandoBusqueda" data-entity-2="MostrandoResultados" data-source-line="18" data-uid="lnk5" id="link_SolicitandoBusqueda_MostrandoResultados"><path d="M188.41,297.1469 C156.79,309.5569 106.5,329.2969 106.5,329.2969 C106.5,329.2969 105.7498,363.8683 105.1598,391.1283" fill="none" id="SolicitandoBusqueda-to-MostrandoResultados" style="stroke:#008000;stroke-width:1;"/><polygon fill="#008000" points="105.03,397.1269,109.2238,388.2155,105.1382,392.128,101.2257,388.0424,105.03,397.1269" style="stroke:#008000;stroke-width:1;"/><path d="M111.5,334.2969 L111.5,374.2969 L303.5,374.2969 L303.5,344.2969 L293.5,334.2969 L111.5,334.2969" fill="#FEFFDD" style="stroke:#181818;stroke-width:0.5;"/><path d="M293.5,334.2969 L293.5,344.2969 L303.5,344.2969 L293.5,334.2969" fill="#FEFFDD" style="stroke:#181818;stroke-width:0.5;"/><text fill="#000000" font-family="sans-serif" font-size="13" font-weight="bold" lengthAdjust="spacing" textLength="58.9063" x="117.5" y="351.3638">Sistema</text><text fill="#000000" font-family="sans-serif" font-size="13" lengthAdjust="spacing" textLength="57.6685" x="180.5386" y="351.3638">presenta</text><text fill="#000000" font-family="sans-serif" font-size="13" lengthAdjust="spacing" textLength="171.9834" x="117.5" y="366.4966">&#8226; Resultados de b&#250;squeda</text></g><!--link MostrandoResultados to c--><g class="link" data-entity-1="MostrandoResultados" data-entity-2="c" data-source-line="24" data-uid="lnk6" id="link_MostrandoResultados_c"><path d="M104.7,447.3969 C104.99,482.9569 105.5,545.2969 105.5,545.2969 C105.5,545.2969 173.0755,563.4399 198.8655,570.3699" fill="none" id="MostrandoResultados-to-c" style="stroke:#008000;stroke-width:1;"/><polygon fill="#008000" points="204.66,571.9269,197.0063,565.7284,199.8313,570.6294,194.9303,573.4543,204.66,571.9269" style="stroke:#008000;stroke-width:1;"/><path d="M110.5,470.2969 L110.5,540.2969 L303.5,540.2969 L303.5,480.2969 L293.5,470.2969 L110.5,470.2969" fill="#FEFFDD" style="stroke:#181818;stroke-width:0.5;"/><path d="M293.5,470.2969 L293.5,480.2969 L303.5,480.2969 L293.5,470.2969" fill="#FEFFDD" style="stroke:#181818;stroke-width:0.5;"/><text fill="#000000" font-family="sans-serif" font-size="13" font-weight="bold" lengthAdjust="spacing" textLength="65.9839" x="116.5" y="487.3638">Visitante</text><text fill="#000000" font-family="sans-serif" font-size="13" lengthAdjust="spacing" textLength="45.7729" x="186.6162" y="487.3638">solicita</text><text fill="#000000" font-family="sans-serif" font-size="13" lengthAdjust="spacing" textLength="151.8931" x="116.5" y="502.4966">&#8226; seleccionar ubicaci&#243;n</text><text fill="#000000" font-family="sans-serif" font-size="13" lengthAdjust="spacing" textLength="172.8403" x="116.5" y="517.6294">&#8226; realizar nueva b&#250;squeda</text><text fill="#000000" font-family="sans-serif" font-size="13" lengthAdjust="spacing" textLength="127.5942" x="116.5" y="532.7622">&#8226; salir de b&#250;squeda</text></g><!--link c to SolicitandoBusqueda--><g class="link" data-entity-1="c" data-entity-2="SolicitandoBusqueda" data-source-line="32" data-uid="lnk7" id="link_c_SolicitandoBusqueda"><path d="M221.93,571.7269 C245.18,564.6269 308.5,545.2969 308.5,545.2969 C308.5,545.2969 308.5,329.2969 308.5,329.2969 C308.5,329.2969 272.5877,313.4228 244.4477,300.9828" fill="none" id="c-to-SolicitandoBusqueda" style="stroke:#008000;stroke-width:1;"/><polygon fill="#008000" points="238.96,298.5569,245.5742,305.8543,243.5331,300.5785,248.8088,298.5374,238.96,298.5569" style="stroke:#008000;stroke-width:1;"/><path d="M313.5,409.7969 L313.5,434.7969 L495.5,434.7969 L495.5,419.7969 L485.5,409.7969 L313.5,409.7969" fill="#FEFFDD" style="stroke:#181818;stroke-width:0.5;"/><path d="M485.5,409.7969 L485.5,419.7969 L495.5,419.7969 L485.5,409.7969" fill="#FEFFDD" style="stroke:#181818;stroke-width:0.5;"/><text fill="#000000" font-family="sans-serif" font-size="13" lengthAdjust="spacing" textLength="161.04" x="319.5" y="426.8638">realizar nueva b&#250;squeda</text></g><!--link c to *end*buscarEspacio--><g class="link" data-entity-1="c" data-entity-2=".end.buscarEspacio" data-source-line="37" data-uid="lnk9" id="link_c_.end.buscarEspacio"><path d="M213.5,587.3469 C213.5,608.1669 213.5,646.9369 213.5,667.0969" fill="none" id="c-to-*end*buscarEspacio" style="stroke:#008000;stroke-width:1;"/><polygon fill="#008000" points="213.5,673.0969,217.5,664.0969,213.5,668.0969,209.5,664.0969,213.5,673.0969" style="stroke:#008000;stroke-width:1;"/><path d="M218.5,610.2969 L218.5,650.2969 L387.5,650.2969 L387.5,620.2969 L377.5,610.2969 L218.5,610.2969" fill="#FEFFDD" style="stroke:#181818;stroke-width:0.5;"/><path d="M377.5,610.2969 L377.5,620.2969 L387.5,620.2969 L377.5,610.2969" fill="#FEFFDD" style="stroke:#181818;stroke-width:0.5;"/><text fill="#000000" font-family="sans-serif" font-size="13" lengthAdjust="spacing" textLength="148.605" x="224.5" y="627.3638">seleccionar ubicaci&#243;n /</text><text fill="#000000" font-family="sans-serif" font-size="13" lengthAdjust="spacing" textLength="115.7939" x="224.5" y="642.4966">salir de b&#250;squeda</text></g><g id="RECORRIDO_ABIERTO"><rect fill="#F1F1F1" height="50" rx="12.5" ry="12.5" style="stroke:#181818;stroke-width:0.5;" width="173.207" x="169" y="800"/><line style="stroke:#181818;stroke-width:0.5;" x1="169" x2="342.207" y1="826.2969" y2="826.2969"/><text fill="#000000" font-family="sans-serif" font-size="14" lengthAdjust="spacing" textLength="153.207" x="179" y="817.9951">RECORRIDO_ABIERTO</text></g><!--link in1 to buscarEspacio--><g class="link" data-entity-1="in1" data-entity-2="buscarEspacio" data-source-line="4" data-uid="lnk2" id="link_in1_buscarEspacio"><path d="M255.5,57.19 C255.5,72.24 255.5,87.39 255.5,111.93" fill="none" id="in1-to-buscarEspacio" style="stroke:#008000;stroke-width:1;"/><polygon fill="#008000" points="255.5,117.93,259.5,108.93,255.5,112.93,251.5,108.93,255.5,117.93" style="stroke:#008000;stroke-width:1;"/></g><!--link buscarEspacio to RECORRIDO_ABIERTO--><g class="link" data-entity-1="buscarEspacio" data-entity-2="RECORRIDO_ABIERTO" data-source-line="44" data-uid="lnk11" id="link_buscarEspacio_RECORRIDO_ABIERTO"><path d="M255.5,705.25 C255.5,744.45 255.5,772.48 255.5,793.94" fill="none" id="buscarEspacio-to-RECORRIDO_ABIERTO" style="stroke:#008000;stroke-width:1;"/><polygon fill="#008000" points="255.5,799.94,259.5,790.94,255.5,794.94,251.5,790.94,255.5,799.94" style="stroke:#008000;stroke-width:1;"/><path d="M260.5,740 L260.5,765 L330.5,765 L330.5,750 L320.5,740 L260.5,740" fill="#FEFFDD" style="stroke:#181818;stroke-width:0.5;"/><path d="M320.5,740 L320.5,750 L330.5,750 L320.5,740" fill="#FEFFDD" style="stroke:#181818;stroke-width:0.5;"/><text fill="#000000" font-family="sans-serif" font-size="13" lengthAdjust="spacing" textLength="49.6768" x="266.5" y="757.0669">regresa</text></g><!--SRC=[bLF1IWCn4BtdAuRrea8ftfS5gptq88MjU2b5ijb1GxV9cac4AeBVuYzuyze_yKlCxjfsjurMix2GcVTctfiaD9Ugv8Ole90AxR94A7Mnh3QCaUKMGQepu0HHEhmOf-deSdnxFXWDq-jnnAfKRtfqPn3Lh9T0vaXmCwII2wdN_4wmhjI979z4yCmO-DNW8_zvr4GNKaZBLQu7ZXuSvhmDkj9aJPLCaLnXUQwffWNYBPg0E1RtMWfCagRdz7JMiH1e2pLGQS_NgfhJl0x4MN8ZgO9QZFjP0lHD_NRSqFQMKnnS9eNtldfNDGPLtfJtYsr-8ILjfJyv3GcTIBAuuBNCqY2XiiqqFr_VOCk7t1_NwgCrxRMqhQnGtuukySznRNGG5YZyZL1-TZiJgj86UI6VV4uvVEGxEck-pvk_M127JZpiu5S1cow13lwEXIk67KE_IHwmyy9OzscrMkwzLTRfRT03YRDrhIy0]--></g></svg>