<svg xmlns="http://www.w3.org/2000/svg" xmlns:xlink="http://www.w3.org/1999/xlink" contentStyleType="text/css" data-diagram-type="STATE" height="807px" preserveAspectRatio="none" style="width:645px;height:807px;background:#FFFFFF;" version="1.1" viewBox="0 0 645 807" width="645px" zoomAndPan="magnify"><defs/><g><g id="in1"><rect fill="#F1F1F1" height="50" rx="12.5" ry="12.5" style="stroke:#181818;stroke-width:0.5;" width="158.0176" x="138.5" y="7"/><line style="stroke:#181818;stroke-width:0.5;" x1="138.5" x2="296.5176" y1="33.2969" y2="33.2969"/><text fill="#000000" font-family="sans-serif" font-size="14" lengthAdjust="spacing" textLength="138.0176" x="148.5" y="24.9951">ESPACIOS_ABIERTO</text></g><path d="M19.5,118 L415.5,118 A12.5,12.5 0 0 1 428,130.5 L428,144.2969 L7,144.2969 L7,130.5 A12.5,12.5 0 0 1 19.5,118" fill="#F1F1F1"/><rect fill="none" height="538.2969" rx="12.5" ry="12.5" style="stroke:#181818;stroke-width:0.5;" width="421" x="7" y="118"/><line style="stroke:#181818;stroke-width:0.5;" x1="7" x2="428" y1="144.2969" y2="144.2969"/><text fill="#000000" font-family="sans-serif" font-size="14" lengthAdjust="spacing" textLength="121.8096" x="156.5952" y="135.9951">eliminarEspacio()</text><g id="eliminarEspacio.ConfirmandoEliminacion"><rect fill="#F1F1F1" height="50" rx="12.5" ry="12.5" style="stroke:#181818;stroke-width:0.5;" width="50" x="19" y="246.2969"/><line style="stroke:#181818;stroke-width:0.5;" x1="19" x2="69" y1="272.5938" y2="272.5938"/><text fill="#000000" font-family="sans-serif" font-size="14" lengthAdjust="spacing" textLength="4.4502" x="41.7749" y="264.292">&#160;</text></g><g id="eliminarEspacio.EliminandoEspacio"><rect fill="#F1F1F1" height="50" rx="12.5" ry="12.5" style="stroke:#181818;stroke-width:0.5;" width="50" x="19" y="473.2969"/><line style="stroke:#181818;stroke-width:0.5;" x1="19" x2="69" y1="499.5938" y2="499.5938"/><text fill="#000000" font-family="sans-serif" font-size="14" lengthAdjust="spacing" textLength="4.4502" x="41.7749" y="491.292">&#160;</text></g><ellipse cx="44" cy="165.2969" fill="#222222" rx="10" ry="10" style="stroke:#222222;stroke-width:1;"/><ellipse cx="44" cy="635.2969" fill="none" rx="11" ry="11" style="stroke:#222222;stroke-width:1;"/><ellipse cx="44" cy="635.2969" fill="#222222" rx="6" ry="6" style="stroke:#222222;stroke-width:1;"/><!--link *start*eliminarEspacio to ConfirmandoEliminacion--><g class="link" data-entity-1=".start.eliminarEspacio" data-entity-2="ConfirmandoEliminacion" data-source-line="11" data-uid="lnk4" id="link_.start.eliminarEspacio_ConfirmandoEliminacion"><path d="M44,175.5269 C44,191.2369 44,217.6569 44,240.1669" fill="none" id="*start*eliminarEspacio-to-ConfirmandoEliminacion" style="stroke:#008000;stroke-width:1;"/><polygon fill="#008000" points="44,246.1669,48,237.1669,44,241.1669,40,237.1669,44,246.1669" style="stroke:#008000;stroke-width:1;"/><path d="M49,198.2969 L49,223.2969 L335,223.2969 L335,208.2969 L325,198.2969 L49,198.2969" fill="#FEFFDD" style="stroke:#181818;stroke-width:0.5;"/><path d="M325,198.2969 L325,208.2969 L335,208.2969 L325,198.2969" fill="#FEFFDD" style="stroke:#181818;stroke-width:0.5;"/><text fill="#000000" font-family="sans-serif" font-size="13" font-weight="bold" lengthAdjust="spacing" textLength="104.8633" x="55" y="215.3638">Administrador</text><text fill="#000000" font-family="sans-serif" font-size="13" lengthAdjust="spacing" textLength="156.7871" x="163.9956" y="215.3638">solicita eliminar espacio</text></g><!--link ConfirmandoEliminacion to EliminandoEspacio--><g class="link" data-entity-1="ConfirmandoEliminacion" data-entity-2="EliminandoEspacio" data-source-line="16" data-uid="lnk5" id="link_ConfirmandoEliminacion_EliminandoEspacio"><path d="M44,296.3769 C44,339.5669 44,423.7369 44,467.0469" fill="none" id="ConfirmandoEliminacion-to-EliminandoEspacio" style="stroke:#008000;stroke-width:1;"/><polygon fill="#008000" points="44,473.0469,48,464.0469,44,468.0469,40,464.0469,44,473.0469" style="stroke:#008000;stroke-width:1;"/><path d="M49,319.2969 L49,450.2969 L419,450.2969 L419,329.2969 L409,319.2969 L49,319.2969" fill="#FEFFDD" style="stroke:#181818;stroke-width:0.5;"/><path d="M409,319.2969 L409,329.2969 L419,329.2969 L409,319.2969" fill="#FEFFDD" style="stroke:#181818;stroke-width:0.5;"/><text fill="#000000" font-family="sans-serif" font-size="13" font-weight="bold" lengthAdjust="spacing" textLength="58.9063" x="55" y="336.3638">Sistema</text><text fill="#000000" font-family="sans-serif" font-size="13" lengthAdjust="spacing" textLength="286.2158" x="118.0386" y="336.3638">presenta informaci&#243;n del espacio a eliminar</text><text fill="#000000" font-family="sans-serif" font-size="13" lengthAdjust="spacing" textLength="193.4448" x="55" y="351.4966">&#8226; C&#243;digo, nombre del espacio</text><text fill="#000000" font-family="sans-serif" font-size="13" lengthAdjust="spacing" textLength="169.9331" x="55" y="366.6294">&#8226; Edificio asociado, planta</text><text fill="#000000" font-family="sans-serif" font-size="13" lengthAdjust="spacing" textLength="251.5259" x="55" y="381.7622">&#8226; Capacidad, tipo de espacio, recursos</text><text fill="#000000" font-family="sans-serif" font-size="13" lengthAdjust="spacing" textLength="254.1855" x="55" y="396.895">&#8226; Horario, accesibilidad, observaciones</text><text fill="#000000" font-family="sans-serif" font-size="13" lengthAdjust="spacing" textLength="249.6724" x="55" y="412.0278">&#8226; Presenta advertencia de eliminaci&#243;n</text><text fill="#000000" font-family="sans-serif" font-size="13" lengthAdjust="spacing" textLength="263.3706" x="55" y="427.1606">&#8226; Permite solicitar confirmar eliminaci&#243;n</text><text fill="#000000" font-family="sans-serif" font-size="13" lengthAdjust="spacing" textLength="255.9438" x="55" y="442.2935">&#8226; Permite solicitar cancelar eliminaci&#243;n</text></g><!--link EliminandoEspacio to *end*eliminarEspacio--><g class="link" data-entity-1="EliminandoEspacio" data-entity-2=".end.eliminarEspacio" data-source-line="28" data-uid="lnk7" id="link_EliminandoEspacio_.end.eliminarEspacio"><path d="M44,523.4369 C44,553.3169 44,596.8569 44,618.1069" fill="none" id="EliminandoEspacio-to-*end*eliminarEspacio" style="stroke:#008000;stroke-width:1;"/><polygon fill="#008000" points="44,624.1069,48,615.1069,44,619.1069,40,615.1069,44,624.1069" style="stroke:#008000;stroke-width:1;"/><path d="M49,546.2969 L49,601.2969 L412,601.2969 L412,556.2969 L402,546.2969 L49,546.2969" fill="#FEFFDD" style="stroke:#181818;stroke-width:0.5;"/><path d="M402,546.2969 L402,556.2969 L412,556.2969 L402,546.2969" fill="#FEFFDD" style="stroke:#181818;stroke-width:0.5;"/><text fill="#000000" font-family="sans-serif" font-size="13" font-weight="bold" lengthAdjust="spacing" textLength="104.8633" x="55" y="563.3638">Administrador</text><text fill="#000000" font-family="sans-serif" font-size="13" lengthAdjust="spacing" textLength="233.5303" x="163.9956" y="563.3638">solicita confirmaci&#243;n de eliminaci&#243;n</text><text fill="#000000" font-family="sans-serif" font-size="13" font-weight="bold" lengthAdjust="spacing" textLength="58.9063" x="55" y="578.4966">Sistema</text><text fill="#000000" font-family="sans-serif" font-size="13" lengthAdjust="spacing" textLength="251.9829" x="118.0386" y="578.4966">permite solicitar confirmar eliminaci&#243;n</text><text fill="#000000" font-family="sans-serif" font-size="13" font-weight="bold" lengthAdjust="spacing" textLength="104.8633" x="55" y="593.6294">Administrador</text><text fill="#000000" font-family="sans-serif" font-size="13" lengthAdjust="spacing" textLength="191.5405" x="163.9956" y="593.6294">solicita confirmar eliminaci&#243;n</text></g><g id="ESPACIOS_ABIERTO"><rect fill="#F1F1F1" height="50" rx="12.5" ry="12.5" style="stroke:#181818;stroke-width:0.5;" width="158.0176" x="138.5" y="751"/><line style="stroke:#181818;stroke-width:0.5;" x1="138.5" x2="296.5176" y1="777.2969" y2="777.2969"/><text fill="#000000" font-family="sans-serif" font-size="14" lengthAdjust="spacing" textLength="138.0176" x="148.5" y="768.9951">ESPACIOS_ABIERTO</text></g><!--link in1 to eliminarEspacio--><g class="link" data-entity-1="in1" data-entity-2="eliminarEspacio" data-source-line="4" data-uid="lnk2" id="link_in1_eliminarEspacio"><path d="M217.5,57.26 C217.5,72.37 217.5,87.56 217.5,111.97" fill="none" id="in1-to-eliminarEspacio" style="stroke:#008000;stroke-width:1;"/><polygon fill="#008000" points="217.5,117.97,221.5,108.97,217.5,112.97,213.5,108.97,217.5,117.97" style="stroke:#008000;stroke-width:1;"/></g><!--link eliminarEspacio to ESPACIOS_ABIERTO--><g class="link" data-entity-1="eliminarEspacio" data-entity-2="ESPACIOS_ABIERTO" data-source-line="36" data-uid="lnk9" id="link_eliminarEspacio_ESPACIOS_ABIERTO"><path d="M72.67,656.06 C62.7,674.52 56.5,686 56.5,686 C56.5,686 56.5,721 56.5,721 C56.5,721 96.9211,734.5631 139.7911,748.9331" fill="none" id="eliminarEspacio-to-ESPACIOS_ABIERTO" style="stroke:#008000;stroke-width:1;"/><polygon fill="#008000" points="145.48,750.84,138.2179,744.187,140.7392,749.2509,135.6754,751.7722,145.48,750.84" style="stroke:#008000;stroke-width:1;"/><path d="M61.5,691 L61.5,716 L328.5,716 L328.5,701 L318.5,691 L61.5,691" fill="#FEFFDD" style="stroke:#181818;stroke-width:0.5;"/><path d="M318.5,691 L318.5,701 L328.5,701 L318.5,691" fill="#FEFFDD" style="stroke:#181818;stroke-width:0.5;"/><text fill="#000000" font-family="sans-serif" font-size="13" lengthAdjust="spacing" textLength="246.8413" x="67.5" y="708.0669">abrirListaEspacios() - lista actualizada</text></g><!--link eliminarEspacio to ESPACIOS_ABIERTO--><g class="link" data-entity-1="eliminarEspacio" data-entity-2="ESPACIOS_ABIERTO" data-source-line="41" data-uid="lnk10" id="link_eliminarEspacio_ESPACIOS_ABIERTO"><path d="M325.44,656.06 C332.88,674.52 337.5,686 337.5,686 C337.5,686 337.5,721 337.5,721 C337.5,721 308.602,734.0089 276.652,748.3789" fill="none" id="eliminarEspacio-to-ESPACIOS_ABIERTO-1" style="stroke:#0000FF;stroke-width:1;"/><polygon fill="#0000FF" points="271.18,750.84,281.0288,750.7963,275.74,748.7891,277.7473,743.5003,271.18,750.84" style="stroke:#0000FF;stroke-width:1;"/><path d="M342.5,691 L342.5,716 L638.5,716 L638.5,701 L628.5,691 L342.5,691" fill="#FEFFDD" style="stroke:#181818;stroke-width:0.5;"/><path d="M628.5,691 L628.5,701 L638.5,701 L628.5,691" fill="#FEFFDD" style="stroke:#181818;stroke-width:0.5;"/><text fill="#000000" font-family="sans-serif" font-size="13" lengthAdjust="spacing" textLength="275.209" x="348.5" y="708.0669">abrirListaEspacios() - cancelar eliminaci&#243;n</text></g><!--SRC=[dLHHQjmm4FtNAORjJr9sAVqF2zl5q40XeTk_4CfOcWr3PCcCl86q57gMNY57o4rwaewzAplhtOGqCXWalNdlZPxiTCkXHi4AF0Tgxck2ElhxTc9CQh0XuF0HCC6aM5qkbkSNg- -BJ-V5rsyN4zFkpAxUtGXHk9xDWJnN752ALAFbc0b6ontPQEtaT08_ZG4Tsvg9FefRnh1cgJ2uM6mh51mESRlD5fQrMypL- -izWyVfeCE6g7GwqTPlkuMpShvmYk7K2BeePn_AEQJesNA3VLD0Ey6sX8BRykWm_UiPrQV63lq_PscbTgZ2pamjb2Ye6Gxhg0AM7ny2EFBP50m-k_g_l__0yl71yKsSAdjL2Zs5zvZ2yPgtKKNBslmKQe-gDB1WM-7GJQ7XEYfB9fc2aDr8Yga7Vuw2qkwWjPIuPB-jZ6KYkUjEWmRqPUuAtHr9Gq4TTFpvxBJ90KnIiPvIpaN0xavRNbs0mP8_Xizn3b4UvBINebwtjrobx3Z7TsXadFl_DFqwxPUw_sNC-1FUkxkZ_uBPQnzBOVcYuhYhJIUdCDEzr2Picmrw_e4EJIztJApq6tgprl60izu_]--></g></svg>
