<svg xmlns="http://www.w3.org/2000/svg" xmlns:xlink="http://www.w3.org/1999/xlink" contentStyleType="text/css" data-diagram-type="STATE" height="746px" preserveAspectRatio="none" style="width:720px;height:746px;background:#FFFFFF;" version="1.1" viewBox="0 0 720 746" width="720px" zoomAndPan="magnify"><defs/><g><g id="in1"><rect fill="#F1F1F1" height="50" rx="12.5" ry="12.5" style="stroke:#181818;stroke-width:0.5;" width="208.2617" x="73.5" y="7"/><line style="stroke:#181818;stroke-width:0.5;" x1="73.5" x2="281.7617" y1="33.2969" y2="33.2969"/><text fill="#000000" font-family="sans-serif" font-size="14" lengthAdjust="spacing" textLength="188.2617" x="83.5" y="24.9951">UNIVERSIDAD_DISPONIBLE</text></g><g id="in2"><rect fill="#F1F1F1" height="50" rx="12.5" ry="12.5" style="stroke:#181818;stroke-width:0.5;" width="173.207" x="317" y="7"/><line style="stroke:#181818;stroke-width:0.5;" x1="317" x2="490.207" y1="33.2969" y2="33.2969"/><text fill="#000000" font-family="sans-serif" font-size="14" lengthAdjust="spacing" textLength="153.207" x="327" y="24.9951">RECORRIDO_ABIERTO</text></g><path d="M123,118 L458,118 A12.5,12.5 0 0 1 470.5,130.5 L470.5,144.2969 L110.5,144.2969 L110.5,130.5 A12.5,12.5 0 0 1 123,118" fill="#F1F1F1"/><rect fill="none" height="477.2969" rx="12.5" ry="12.5" style="stroke:#181818;stroke-width:0.5;" width="360" x="110.5" y="118"/><line style="stroke:#181818;stroke-width:0.5;" x1="110.5" x2="470.5" y1="144.2969" y2="144.2969"/><text fill="#000000" font-family="sans-serif" font-size="14" lengthAdjust="spacing" textLength="118.542" x="231.229" y="135.9951">abrirRecorridos()</text><g id="abrirRecorridos.MostrandoLista"><rect fill="#F1F1F1" height="50" rx="12.5" ry="12.5" style="stroke:#181818;stroke-width:0.5;" width="50" x="122.5" y="246.2969"/><line style="stroke:#181818;stroke-width:0.5;" x1="122.5" x2="172.5" y1="272.5938" y2="272.5938"/><text fill="#000000" font-family="sans-serif" font-size="14" lengthAdjust="spacing" textLength="4.4502" x="145.2749" y="264.292">&#160;</text></g><g id="abrirRecorridos.FiltrandoLista"><rect fill="#F1F1F1" height="50" rx="12.5" ry="12.5" style="stroke:#181818;stroke-width:0.5;" width="50" x="122.5" y="442.2969"/><line style="stroke:#181818;stroke-width:0.5;" x1="122.5" x2="172.5" y1="468.5938" y2="468.5938"/><text fill="#000000" font-family="sans-serif" font-size="14" lengthAdjust="spacing" textLength="4.4502" x="145.2749" y="460.292">&#160;</text></g><ellipse cx="147.5" cy="165.2969" fill="#222222" rx="10" ry="10" style="stroke:#222222;stroke-width:1;"/><ellipse cx="147.5" cy="574.2969" fill="none" rx="11" ry="11" style="stroke:#222222;stroke-width:1;"/><ellipse cx="147.5" cy="574.2969" fill="#222222" rx="6" ry="6" style="stroke:#222222;stroke-width:1;"/><!--link *start*abrirRecorridos to MostrandoLista--><g class="link" data-entity-1=".start.abrirRecorridos" data-entity-2="MostrandoLista" data-source-line="14" data-uid="lnk5" id="link_.start.abrirRecorridos_MostrandoLista"><path d="M147.5,175.5269 C147.5,191.2369 147.5,217.6569 147.5,240.1669" fill="none" id="*start*abrirRecorridos-to-MostrandoLista" style="stroke:#008000;stroke-width:1;"/><polygon fill="#008000" points="147.5,246.1669,151.5,237.1669,147.5,241.1669,143.5,237.1669,147.5,246.1669" style="stroke:#008000;stroke-width:1;"/><path d="M152.5,198.2969 L152.5,223.2969 L432.5,223.2969 L432.5,208.2969 L422.5,198.2969 L152.5,198.2969" fill="#FEFFDD" style="stroke:#181818;stroke-width:0.5;"/><path d="M422.5,198.2969 L422.5,208.2969 L432.5,208.2969 L422.5,198.2969" fill="#FEFFDD" style="stroke:#181818;stroke-width:0.5;"/><text fill="#000000" font-family="sans-serif" font-size="13" font-weight="bold" lengthAdjust="spacing" textLength="104.8633" x="158.5" y="215.3638">Administrador</text><text fill="#000000" font-family="sans-serif" font-size="13" lengthAdjust="spacing" textLength="150.2808" x="267.4956" y="215.3638">solicita abrir recorridos</text></g><!--link MostrandoLista to FiltrandoLista--><g class="link" data-entity-1="MostrandoLista" data-entity-2="FiltrandoLista" data-source-line="19" data-uid="lnk6" id="link_MostrandoLista_FiltrandoLista"><path d="M147.5,296.4769 C147.5,333.7569 147.5,398.8469 147.5,436.1169" fill="none" id="MostrandoLista-to-FiltrandoLista" style="stroke:#008000;stroke-width:1;"/><polygon fill="#008000" points="147.5,442.1169,151.5,433.1169,147.5,437.1169,143.5,433.1169,147.5,442.1169" style="stroke:#008000;stroke-width:1;"/><path d="M152.5,319.2969 L152.5,419.2969 L435.5,419.2969 L435.5,329.2969 L425.5,319.2969 L152.5,319.2969" fill="#FEFFDD" style="stroke:#181818;stroke-width:0.5;"/><path d="M425.5,319.2969 L425.5,329.2969 L435.5,329.2969 L425.5,319.2969" fill="#FEFFDD" style="stroke:#181818;stroke-width:0.5;"/><text fill="#000000" font-family="sans-serif" font-size="13" font-weight="bold" lengthAdjust="spacing" textLength="58.9063" x="158.5" y="336.3638">Sistema</text><text fill="#000000" font-family="sans-serif" font-size="13" lengthAdjust="spacing" textLength="179.0991" x="221.5386" y="336.3638">presenta lista de recorridos</text><text fill="#000000" font-family="sans-serif" font-size="13" lengthAdjust="spacing" textLength="210.9834" x="158.5" y="351.4966">&#8226; ID y nombre de cada recorrido</text><text fill="#000000" font-family="sans-serif" font-size="13" lengthAdjust="spacing" textLength="188.481" x="158.5" y="366.6294">&#8226; Permite solicitar filtrar lista</text><text fill="#000000" font-family="sans-serif" font-size="13" lengthAdjust="spacing" textLength="262.8755" x="158.5" y="381.7622">&#8226; Permite solicitar crear recorrido nuevo</text><text fill="#000000" font-family="sans-serif" font-size="13" lengthAdjust="spacing" textLength="237.8657" x="158.5" y="396.895">&#8226; Permite solicitar eliminar recorrido</text><text fill="#000000" font-family="sans-serif" font-size="13" lengthAdjust="spacing" textLength="223.0884" x="158.5" y="412.0278">&#8226; Permite solicitar editar recorrido</text></g><!--link FiltrandoLista to FiltrandoLista--><g class="link" data-entity-1="FiltrandoLista" data-entity-2="FiltrandoLista" data-source-line="29" data-uid="lnk7" id="link_FiltrandoLista_FiltrandoLista"><path d="M172.68,456.0869 C182.41,455.5969 190.5,459.3269 190.5,467.2969 C190.5,475.2669 188.4024,479.2987 178.6724,478.8087" fill="none" id="FiltrandoLista-to-FiltrandoLista" style="stroke:#008000;stroke-width:1;"/><polygon fill="#008000" points="172.68,478.5069,181.4674,482.9545,177.6737,478.7584,181.8698,474.9646,172.68,478.5069" style="stroke:#008000;stroke-width:1;"/><path d="M195.5,447.2969 L195.5,487.2969 L441.5,487.2969 L441.5,457.2969 L431.5,447.2969 L195.5,447.2969" fill="#FEFFDD" style="stroke:#181818;stroke-width:0.5;"/><path d="M431.5,447.2969 L431.5,457.2969 L441.5,457.2969 L431.5,447.2969" fill="#FEFFDD" style="stroke:#181818;stroke-width:0.5;"/><text fill="#000000" font-family="sans-serif" font-size="13" font-weight="bold" lengthAdjust="spacing" textLength="104.8633" x="201.5" y="464.3638">Administrador</text><text fill="#000000" font-family="sans-serif" font-size="13" lengthAdjust="spacing" textLength="116.6509" x="310.4956" y="464.3638">solicita filtrar lista</text><text fill="#000000" font-family="sans-serif" font-size="13" font-weight="bold" lengthAdjust="spacing" textLength="58.9063" x="201.5" y="479.4966">Sistema</text><text fill="#000000" font-family="sans-serif" font-size="13" lengthAdjust="spacing" textLength="139.4199" x="264.5386" y="479.4966">presenta lista filtrada</text></g><!--link FiltrandoLista to *end*abrirRecorridos--><g class="link" data-entity-1="FiltrandoLista" data-entity-2=".end.abrirRecorridos" data-source-line="35" data-uid="lnk9" id="link_FiltrandoLista_.end.abrirRecorridos"><path d="M147.5,492.3869 C147.5,514.7869 147.5,541.0669 147.5,557.2469" fill="none" id="FiltrandoLista-to-*end*abrirRecorridos" style="stroke:#008000;stroke-width:1;"/><polygon fill="#008000" points="147.5,563.2469,151.5,554.2469,147.5,558.2469,143.5,554.2469,147.5,563.2469" style="stroke:#008000;stroke-width:1;"/><path d="M152.5,515.2969 L152.5,540.2969 L461.5,540.2969 L461.5,525.2969 L451.5,515.2969 L152.5,515.2969" fill="#FEFFDD" style="stroke:#181818;stroke-width:0.5;"/><path d="M451.5,515.2969 L451.5,525.2969 L461.5,525.2969 L451.5,515.2969" fill="#FEFFDD" style="stroke:#181818;stroke-width:0.5;"/><text fill="#000000" font-family="sans-serif" font-size="13" font-weight="bold" lengthAdjust="spacing" textLength="104.8633" x="158.5" y="532.3638">Administrador</text><text fill="#000000" font-family="sans-serif" font-size="13" lengthAdjust="spacing" textLength="179.2769" x="267.4956" y="532.3638">solicita una de las opciones</text></g><g id="RECORRIDO_ABIERTO"><rect fill="#F1F1F1" height="50" rx="12.5" ry="12.5" style="stroke:#181818;stroke-width:0.5;" width="173.207" x="7" y="690"/><line style="stroke:#181818;stroke-width:0.5;" x1="7" x2="180.207" y1="716.2969" y2="716.2969"/><text fill="#000000" font-family="sans-serif" font-size="14" lengthAdjust="spacing" textLength="153.207" x="17" y="707.9951">RECORRIDO_ABIERTO</text></g><g id="RECORRIDOS_ABIERTO"><rect fill="#F1F1F1" height="50" rx="12.5" ry="12.5" style="stroke:#181818;stroke-width:0.5;" width="182.0938" x="288.5" y="690"/><line style="stroke:#181818;stroke-width:0.5;" x1="288.5" x2="470.5938" y1="716.2969" y2="716.2969"/><text fill="#000000" font-family="sans-serif" font-size="14" lengthAdjust="spacing" textLength="162.0938" x="298.5" y="707.9951">RECORRIDOS_ABIERTO</text></g><g id="UNIVERSIDAD_DISPONIBLE"><rect fill="#F1F1F1" height="50" rx="12.5" ry="12.5" style="stroke:#181818;stroke-width:0.5;" width="208.2617" x="505.5" y="690"/><line style="stroke:#181818;stroke-width:0.5;" x1="505.5" x2="713.7617" y1="716.2969" y2="716.2969"/><text fill="#000000" font-family="sans-serif" font-size="14" lengthAdjust="spacing" textLength="188.2617" x="515.5" y="707.9951">UNIVERSIDAD_DISPONIBLE</text></g><!--link in1 to abrirRecorridos--><g class="link" data-entity-1="in1" data-entity-2="abrirRecorridos" data-source-line="4" data-uid="lnk2" id="link_in1_abrirRecorridos"><path d="M185.99,57.24 C191.31,72.4 196.7565,87.9573 205.2365,112.1673" fill="none" id="in1-to-abrirRecorridos" style="stroke:#008000;stroke-width:1;"/><polygon fill="#008000" points="207.22,117.83,208.0199,108.0137,205.5671,113.1111,200.4697,110.6583,207.22,117.83" style="stroke:#008000;stroke-width:1;"/></g><!--link in2 to abrirRecorridos--><g class="link" data-entity-1="in2" data-entity-2="abrirRecorridos" data-source-line="7" data-uid="lnk3" id="link_in2_abrirRecorridos"><path d="M395.01,57.24 C389.69,72.4 384.2435,87.9573 375.7635,112.1673" fill="none" id="in2-to-abrirRecorridos" style="stroke:#008000;stroke-width:1;"/><polygon fill="#008000" points="373.78,117.83,380.5303,110.6583,375.4329,113.1111,372.9801,108.0137,373.78,117.83" style="stroke:#008000;stroke-width:1;"/></g><!--link abrirRecorridos to RECORRIDO_ABIERTO--><g class="link" data-entity-1="abrirRecorridos" data-entity-2="RECORRIDO_ABIERTO" data-source-line="41" data-uid="lnk11" id="link_abrirRecorridos_RECORRIDO_ABIERTO"><path d="M110.31,534.06 C59.37,583.98 17.5,625 17.5,625 C17.5,625 17.5,660 17.5,660 C17.5,660 34.3785,671.9954 54.6085,686.3654" fill="none" id="abrirRecorridos-to-RECORRIDO_ABIERTO" style="stroke:#008000;stroke-width:1;"/><polygon fill="#008000" points="59.5,689.84,54.4791,681.3671,55.4237,686.9445,49.8463,687.8891,59.5,689.84" style="stroke:#008000;stroke-width:1;"/><path d="M22.5,630 L22.5,655 L154.5,655 L154.5,640 L144.5,630 L22.5,630" fill="#FEFFDD" style="stroke:#181818;stroke-width:0.5;"/><path d="M144.5,630 L144.5,640 L154.5,640 L144.5,630" fill="#FEFFDD" style="stroke:#181818;stroke-width:0.5;"/><text fill="#000000" font-family="sans-serif" font-size="13" lengthAdjust="spacing" textLength="111.0522" x="28.5" y="647.0669">editarRecorrido()</text></g><!--link abrirRecorridos to RECORRIDO_ABIERTO--><g class="link" data-entity-1="abrirRecorridos" data-entity-2="RECORRIDO_ABIERTO" data-source-line="46" data-uid="lnk12" id="link_abrirRecorridos_RECORRIDO_ABIERTO"><path d="M190.74,595.11 C174.84,632.99 163.5,660 163.5,660 C163.5,660 148.2019,671.8067 129.5619,686.1767" fill="none" id="abrirRecorridos-to-RECORRIDO_ABIERTO-1" style="stroke:#008000;stroke-width:1;"/><polygon fill="#008000" points="124.81,689.84,134.38,687.5129,128.7699,686.7872,129.4956,681.1771,124.81,689.84" style="stroke:#008000;stroke-width:1;"/><path d="M182.5,630 L182.5,655 L309.5,655 L309.5,640 L299.5,630 L182.5,630" fill="#FEFFDD" style="stroke:#181818;stroke-width:0.5;"/><path d="M299.5,630 L299.5,640 L309.5,640 L299.5,630" fill="#FEFFDD" style="stroke:#181818;stroke-width:0.5;"/><text fill="#000000" font-family="sans-serif" font-size="13" lengthAdjust="spacing" textLength="106.5835" x="188.5" y="647.0669">crearRecorrido()</text></g><!--link abrirRecorridos to RECORRIDOS_ABIERTO--><g class="link" data-entity-1="abrirRecorridos" data-entity-2="RECORRIDOS_ABIERTO" data-source-line="51" data-uid="lnk14" id="link_abrirRecorridos_RECORRIDOS_ABIERTO"><path d="M349.86,595.29 C359.49,633.86 366.6167,662.4087 372.0367,684.1187" fill="none" id="abrirRecorridos-to-RECORRIDOS_ABIERTO" style="stroke:#008000;stroke-width:1;"/><polygon fill="#008000" points="373.49,689.94,375.1909,680.2391,372.2789,685.0889,367.4291,682.1769,373.49,689.94" style="stroke:#008000;stroke-width:1;"/><path d="M369.5,630 L369.5,655 L515.5,655 L515.5,640 L505.5,630 L369.5,630" fill="#FEFFDD" style="stroke:#181818;stroke-width:0.5;"/><path d="M505.5,630 L505.5,640 L515.5,640 L505.5,630" fill="#FEFFDD" style="stroke:#181818;stroke-width:0.5;"/><text fill="#000000" font-family="sans-serif" font-size="13" lengthAdjust="spacing" textLength="125.8296" x="375.5" y="647.0669">eliminarRecorrido()</text></g><!--link abrirRecorridos to UNIVERSIDAD_DISPONIBLE--><g class="link" data-entity-1="abrirRecorridos" data-entity-2="UNIVERSIDAD_DISPONIBLE" data-source-line="56" data-uid="lnk16" id="link_abrirRecorridos_UNIVERSIDAD_DISPONIBLE"><path d="M470.51,558.67 C517.71,611.42 558.4792,656.9786 583.8992,685.3886" fill="none" id="abrirRecorridos-to-UNIVERSIDAD_DISPONIBLE" style="stroke:#008000;stroke-width:1;"/><polygon fill="#008000" points="587.9,689.86,584.8797,680.4857,584.566,686.1338,578.9178,685.8201,587.9,689.86" style="stroke:#008000;stroke-width:1;"/><path d="M560.5,630 L560.5,655 L706.5,655 L706.5,640 L696.5,630 L560.5,630" fill="#FEFFDD" style="stroke:#181818;stroke-width:0.5;"/><path d="M696.5,630 L696.5,640 L706.5,640 L696.5,630" fill="#FEFFDD" style="stroke:#181818;stroke-width:0.5;"/><text fill="#000000" font-family="sans-serif" font-size="13" lengthAdjust="spacing" textLength="125.9248" x="566.5" y="647.0669">completarGestion()</text></g><!--SRC=[fPJVQi8m5CRlynIXkz61Z7ajWbkxKN1Mscqt8f8sPoEO9YMj0nc3FSiURK-oD9tzvonJMwYOVEUNBrzEcwwPI8WYCUPCGBPD02UIR_C_2AKPoG0pSOr9YgsdcVli-85hJ-oLxGPpR-RUJ1qBvVE3nSMh0X3BmHYJK37bGoILObIc5MPeCBvpw_c-QtkhoOth-8zUJXZ-Xz0QDhJMMAzluNU4iBwA6alVMlSWqqmHGUMKwV7z-Jl6w_D6iBXSDbmr6TXeXDGCAVBmrcPW58udD6Q2vLegrUWg7EDKSXOnNMFSObNjB2y1GGkElb3vQArMDz8oUyX7e6SX9iP1eY05eJdSq2YqJNn_Vc7NnbjDYaC5kI8Yb5IoKZK75JEzscvJ2hyOFwfWT-WY1QIsUomsyDR51SvqalMIBZ4rFqtfBjegrcPsfyJQSRpxGNGVGw6dv7YlkZTFCRWHvkovxdYPH4mAQBOW-a2e_PRLbzrxTr73G746PMslZqhmELZJDsTGWmDkVzlhUFBVNyAMQHad77GSzv1cEkaQ_0S0]--></g></svg>