<svg xmlns="http://www.w3.org/2000/svg" xmlns:xlink="http://www.w3.org/1999/xlink" contentStyleType="text/css" data-diagram-type="DESCRIPTION" height="463px" preserveAspectRatio="none" style="width:596px;height:463px;background:#FFFFFF;" version="1.1" viewBox="0 0 596 463" width="596px" zoomAndPan="magnify"><defs/><g><!--cluster Gesti?n de Espacio--><g class="cluster" data-entity="Gesti.n de Espacio" data-source-line="5" data-uid="ent0003" id="cluster_Gesti.n de Espacio"><path d="M374.5,6 L525.2412,6 A3.75,3.75 0 0 1 527.7412,8.5 L534.7412,28.2969 L586.5,28.2969 A2.5,2.5 0 0 1 589,30.7969 L589,453.5 A2.5,2.5 0 0 1 586.5,456 L374.5,456 A2.5,2.5 0 0 1 372,453.5 L372,8.5 A2.5,2.5 0 0 1 374.5,6" fill="none" style="stroke:#000000;stroke-width:1.5;"/><line style="stroke:#000000;stroke-width:1.5;" x1="372" x2="534.7412" y1="28.2969" y2="28.2969"/><text fill="#000000" font-family="sans-serif" font-size="14" font-weight="bold" lengthAdjust="spacing" textLength="149.7412" x="376" y="20.9951">Gesti&#243;n de Espacio</text></g><!--cluster Gesti?n de Recorrido--><g class="cluster" data-entity="Gesti.n de Recorrido" data-source-line="14" data-uid="ent0010" id="cluster_Gesti.n de Recorrido"><path d="M8.5,144 L175.5996,144 A3.75,3.75 0 0 1 178.0996,146.5 L185.0996,166.2969 L219.5,166.2969 A2.5,2.5 0 0 1 222,168.7969 L222,305.5 A2.5,2.5 0 0 1 219.5,308 L8.5,308 A2.5,2.5 0 0 1 6,305.5 L6,146.5 A2.5,2.5 0 0 1 8.5,144" fill="none" style="stroke:#000000;stroke-width:1.5;"/><line style="stroke:#000000;stroke-width:1.5;" x1="6" x2="185.0996" y1="166.2969" y2="166.2969"/><text fill="#000000" font-family="sans-serif" font-size="14" font-weight="bold" lengthAdjust="spacing" textLength="166.0996" x="10" y="158.9951">Gesti&#243;n de Recorrido</text></g><!--entity verEspacio--><g class="entity" data-entity="verEspacio" data-source-line="6" data-uid="ent0004" id="entity_verEspacio"><ellipse cx="480.7228" cy="55.9446" fill="#F1F1F1" rx="62.7228" ry="14.9446" style="stroke:#181818;stroke-width:0.5;"/><text fill="#000000" font-family="sans-serif" font-size="14" lengthAdjust="spacing" textLength="87.3359" x="437.0549" y="60.593">verEspacio()</text></g><!--entity cambiarDeEspacio--><g class="entity" data-entity="cambiarDeEspacio" data-source-line="7" data-uid="ent0005" id="entity_cambiarDeEspacio"><ellipse cx="480.4694" cy="125.7939" fill="#F1F1F1" rx="84.4694" ry="19.2939" style="stroke:#181818;stroke-width:0.5;"/><text fill="#000000" font-family="sans-serif" font-size="14" lengthAdjust="spacing" textLength="141.1006" x="409.9191" y="130.4423">cambiarDeEspacio()</text></g><!--entity buscarEspacio--><g class="entity" data-entity="buscarEspacio" data-source-line="8" data-uid="ent0006" id="entity_buscarEspacio"><ellipse cx="480.6587" cy="197.8317" fill="#F1F1F1" rx="72.1587" ry="16.8317" style="stroke:#181818;stroke-width:0.5;"/><text fill="#000000" font-family="sans-serif" font-size="14" lengthAdjust="spacing" textLength="111.7676" x="424.7749" y="202.4802">buscarEspacio()</text></g><!--entity verDetallesEspacio--><g class="entity" data-entity="verDetallesEspacio" data-source-line="9" data-uid="ent0007" id="entity_verDetallesEspacio"><ellipse cx="480.4389" cy="270.0878" fill="#F1F1F1" rx="85.9389" ry="19.5878" style="stroke:#181818;stroke-width:0.5;"/><text fill="#000000" font-family="sans-serif" font-size="14" lengthAdjust="spacing" textLength="144.4844" x="408.1967" y="274.7362">verDetallesEspacio()</text></g><!--entity verEspaciosCercanos--><g class="entity" data-entity="verEspaciosCercanos" data-source-line="10" data-uid="ent0008" id="entity_verEspaciosCercanos"><ellipse cx="480.6805" cy="345.9361" fill="#F1F1F1" rx="92.6805" ry="20.9361" style="stroke:#181818;stroke-width:0.5;"/><text fill="#000000" font-family="sans-serif" font-size="14" lengthAdjust="spacing" textLength="159.7832" x="400.7889" y="350.5845">verEspaciosCercanos()</text></g><!--entity verEspaciosPlanta--><g class="entity" data-entity="verEspaciosPlanta" data-source-line="11" data-uid="ent0009" id="entity_verEspaciosPlanta"><ellipse cx="480.3385" cy="421.0677" fill="#F1F1F1" rx="83.3385" ry="19.0677" style="stroke:#181818;stroke-width:0.5;"/><text fill="#000000" font-family="sans-serif" font-size="14" lengthAdjust="spacing" textLength="138.4824" x="411.0973" y="425.7161">verEspaciosPlanta()</text></g><!--entity listarRecorridos--><g class="entity" data-entity="listarRecorridos" data-source-line="15" data-uid="ent0011" id="entity_listarRecorridos"><ellipse cx="113.7622" cy="197.0524" fill="#F1F1F1" rx="75.7622" ry="17.5524" style="stroke:#181818;stroke-width:0.5;"/><text fill="#000000" font-family="sans-serif" font-size="14" lengthAdjust="spacing" textLength="120.5723" x="53.4761" y="201.7009">listarRecorridos()</text></g><!--entity seleccionarRecorrido--><g class="entity" data-entity="seleccionarRecorrido" data-source-line="16" data-uid="ent0012" id="entity_seleccionarRecorrido"><ellipse cx="113.8199" cy="270.764" fill="#F1F1F1" rx="91.8199" ry="20.764" style="stroke:#181818;stroke-width:0.5;"/><text fill="#000000" font-family="sans-serif" font-size="14" lengthAdjust="spacing" textLength="157.8486" x="34.8956" y="275.4124">seleccionarRecorrido()</text></g><!--entity visitante--><g class="entity" data-entity="visitante" data-source-line="3" data-uid="ent0002" id="entity_visitante"><ellipse cx="296.8472" cy="204.5" fill="#F1F1F1" rx="8" ry="8" style="stroke:#181818;stroke-width:0.5;"/><path d="M296.8472,212.5 L296.8472,239.5 M283.8472,220.5 L309.8472,220.5 M296.8472,239.5 L283.8472,254.5 M296.8472,239.5 L309.8472,254.5" fill="none" style="stroke:#181818;stroke-width:0.5;"/><text fill="#000000" font-family="sans-serif" font-size="14" lengthAdjust="spacing" textLength="61.6943" x="266" y="268.9951">Visitante</text></g><!--link visitante to verEspacio--><g class="link" data-entity-1="visitante" data-entity-2="verEspacio" data-source-line="19" data-uid="lnk13" id="link_visitante_verEspacio"><path d="M305.88,195.88 C314.62,163.01 331.93,116.62 364,89 C380.43,74.85 396.7274,68.0718 417.2274,63.4418" fill="none" id="visitante-to-verEspacio" style="stroke:#181818;stroke-width:1;"/><polygon fill="#181818" points="423.08,62.12,413.4199,60.201,418.2028,63.2215,415.1823,68.0045,423.08,62.12" style="stroke:#181818;stroke-width:1;"/></g><!--link visitante to cambiarDeEspacio--><g class="link" data-entity-1="visitante" data-entity-2="cambiarDeEspacio" data-source-line="20" data-uid="lnk14" id="link_visitante_cambiarDeEspacio"><path d="M326.81,195.99 C337.41,184.07 350.22,171.75 364,163 C380.35,152.61 394.1329,146.6666 412.4229,141.0666" fill="none" id="visitante-to-cambiarDeEspacio" style="stroke:#181818;stroke-width:1;"/><polygon fill="#181818" points="418.16,139.31,408.3833,138.1201,413.3791,140.7738,410.7254,145.7696,418.16,139.31" style="stroke:#181818;stroke-width:1;"/></g><!--link visitante to buscarEspacio--><g class="link" data-entity-1="visitante" data-entity-2="buscarEspacio" data-source-line="21" data-uid="lnk15" id="link_visitante_buscarEspacio"><path d="M328.38,227.97 C354.62,222.77 387.2947,216.2877 418.8947,210.0177" fill="none" id="visitante-to-buscarEspacio" style="stroke:#181818;stroke-width:1;"/><polygon fill="#181818" points="424.78,208.85,415.1736,206.6781,419.8756,209.8231,416.7306,214.5251,424.78,208.85" style="stroke:#181818;stroke-width:1;"/></g><!--link visitante to verDetallesEspacio--><g class="link" data-entity-1="visitante" data-entity-2="verDetallesEspacio" data-source-line="22" data-uid="lnk16" id="link_visitante_verDetallesEspacio"><path d="M328.38,240.03 C351.99,244.71 379.7048,250.2017 409.2248,256.0617" fill="none" id="visitante-to-verDetallesEspacio" style="stroke:#181818;stroke-width:1;"/><polygon fill="#181818" points="415.11,257.23,407.0611,251.5542,410.2057,256.2564,405.5034,259.4011,415.11,257.23" style="stroke:#181818;stroke-width:1;"/></g><!--link visitante to verEspaciosCercanos--><g class="link" data-entity-1="visitante" data-entity-2="verEspaciosCercanos" data-source-line="23" data-uid="lnk17" id="link_visitante_verEspaciosCercanos"><path d="M326.07,272.22 C336.78,284.7 349.86,297.72 364,307 C379.57,317.22 392.3956,323.1294 409.9856,328.9694" fill="none" id="visitante-to-verEspaciosCercanos" style="stroke:#181818;stroke-width:1;"/><polygon fill="#181818" points="415.68,330.86,408.3988,324.2279,410.9347,329.2845,405.8781,331.8204,415.68,330.86" style="stroke:#181818;stroke-width:1;"/></g><!--link visitante to verEspaciosPlanta--><g class="link" data-entity-1="visitante" data-entity-2="verEspaciosPlanta" data-source-line="24" data-uid="lnk18" id="link_visitante_verEspaciosPlanta"><path d="M305.49,272.17 C314.06,306.04 331.34,354.58 364,384 C377.53,396.19 389.3899,402.5489 406.7299,408.0389" fill="none" id="visitante-to-verEspaciosPlanta" style="stroke:#181818;stroke-width:1;"/><polygon fill="#181818" points="412.45,409.85,405.0771,403.32,407.6832,408.3408,402.6624,410.9469,412.45,409.85" style="stroke:#181818;stroke-width:1;"/></g><!--reverse link seleccionarRecorrido to visitante--><g class="link" data-entity-1="seleccionarRecorrido" data-entity-2="visitante" data-source-line="26" data-uid="lnk19" id="link_seleccionarRecorrido_visitante"><path d="M189.0488,255.8599 C217.5088,250.0499 243.23,244.79 265.73,240.19" fill="none" id="seleccionarRecorrido-backto-visitante" style="stroke:#181818;stroke-width:1;"/><polygon fill="#181818" points="183.17,257.06,192.7882,259.179,188.069,256.0599,191.188,251.3406,183.17,257.06" style="stroke:#181818;stroke-width:1;"/></g><!--reverse link listarRecorridos to visitante--><g class="link" data-entity-1="listarRecorridos" data-entity-2="visitante" data-source-line="27" data-uid="lnk20" id="link_listarRecorridos_visitante"><path d="M177.1582,209.7027 C208.3882,216.0927 240.13,222.58 265.83,227.83" fill="none" id="listarRecorridos-backto-visitante" style="stroke:#181818;stroke-width:1;"/><polygon fill="#181818" points="171.28,208.5,179.2955,214.2229,176.1785,209.5023,180.8992,206.3853,171.28,208.5" style="stroke:#181818;stroke-width:1;"/></g><!--SRC=[VL8xKiCm4ErrYXrLLk4RC6a8GyjGq6_a9UmWB4QxISDmAex0nL2mSUp5YJkzZ_RfhHCzAsY6mliNXOuBHUNSEuTHSm7_nCAAlP8753Z-dPnxn_YAUm9_JwBy_TL3Ht0d5URiFnpKxo0KKGYEL4RYT8S_7vlW5yA8Rpl6igMvt8BMj3j8nCM01MBbTVgM55CYCQ4Cl68S6Rcb4h7FOfupuLUi3wdMXzOue2VRvuLc7odcKhYptIOMnJAnGoGBsZn2YMATsyz4lyOrOamrhHxQTWFDENomb5tOFy5YFs7bPhE9S7duLFarpT1kSAvPUr-0cxQT_TcDRSy8VW00]--></g></svg>