<svg xmlns="http://www.w3.org/2000/svg" xmlns:xlink="http://www.w3.org/1999/xlink" contentStyleType="text/css" data-diagram-type="STATE" height="807px" preserveAspectRatio="none" style="width:625px;height:807px;background:#FFFFFF;" version="1.1" viewBox="0 0 625 807" width="625px" zoomAndPan="magnify"><defs/><g><g id="in2"><rect fill="#F1F1F1" height="50" rx="12.5" ry="12.5" style="stroke:#181818;stroke-width:0.5;" width="158.0176" x="230.5" y="7"/><line style="stroke:#181818;stroke-width:0.5;" x1="230.5" x2="388.5176" y1="33.2969" y2="33.2969"/><text fill="#000000" font-family="sans-serif" font-size="14" lengthAdjust="spacing" textLength="138.0176" x="240.5" y="24.9951">ESPACIOS_ABIERTO</text></g><path d="M19.5,118 L599.5,118 A12.5,12.5 0 0 1 612,130.5 L612,144.2969 L7,144.2969 L7,130.5 A12.5,12.5 0 0 1 19.5,118" fill="#F1F1F1"/><rect fill="none" height="538.2969" rx="12.5" ry="12.5" style="stroke:#181818;stroke-width:0.5;" width="605" x="7" y="118"/><line style="stroke:#181818;stroke-width:0.5;" x1="7" x2="612" y1="144.2969" y2="144.2969"/><text fill="#000000" font-family="sans-serif" font-size="14" lengthAdjust="spacing" textLength="105.8955" x="256.5522" y="135.9951">editarEspacio()</text><g id="editarEspacio.EditandoDatos"><rect fill="#F1F1F1" height="50" rx="12.5" ry="12.5" style="stroke:#181818;stroke-width:0.5;" width="50" x="146" y="246.2969"/><line style="stroke:#181818;stroke-width:0.5;" x1="146" x2="196" y1="272.5938" y2="272.5938"/><text fill="#000000" font-family="sans-serif" font-size="14" lengthAdjust="spacing" textLength="4.4502" x="168.7749" y="264.292">&#160;</text></g><g id="editarEspacio.GuardandoDatos"><rect fill="#F1F1F1" height="50" rx="12.5" ry="12.5" style="stroke:#181818;stroke-width:0.5;" width="50" x="146" y="503.2969"/><line style="stroke:#181818;stroke-width:0.5;" x1="146" x2="196" y1="529.5938" y2="529.5938"/><text fill="#000000" font-family="sans-serif" font-size="14" lengthAdjust="spacing" textLength="4.4502" x="168.7749" y="521.292">&#160;</text></g><ellipse cx="171" cy="165.2969" fill="#222222" rx="10" ry="10" style="stroke:#222222;stroke-width:1;"/><ellipse cx="171" cy="635.2969" fill="none" rx="11" ry="11" style="stroke:#222222;stroke-width:1;"/><ellipse cx="171" cy="635.2969" fill="#222222" rx="6" ry="6" style="stroke:#222222;stroke-width:1;"/><!--link *start*editarEspacio to EditandoDatos--><g class="link" data-entity-1=".start.editarEspacio" data-entity-2="EditandoDatos" data-source-line="11" data-uid="lnk4" id="link_.start.editarEspacio_EditandoDatos"><path d="M171,175.5269 C171,191.2369 171,217.6569 171,240.1669" fill="none" id="*start*editarEspacio-to-EditandoDatos" style="stroke:#008000;stroke-width:1;"/><polygon fill="#008000" points="171,246.1669,175,237.1669,171,241.1669,167,237.1669,171,246.1669" style="stroke:#008000;stroke-width:1;"/><path d="M176,198.2969 L176,223.2969 L448,223.2969 L448,208.2969 L438,198.2969 L176,198.2969" fill="#FEFFDD" style="stroke:#181818;stroke-width:0.5;"/><path d="M438,198.2969 L438,208.2969 L448,208.2969 L438,198.2969" fill="#FEFFDD" style="stroke:#181818;stroke-width:0.5;"/><text fill="#000000" font-family="sans-serif" font-size="13" font-weight="bold" lengthAdjust="spacing" textLength="104.8633" x="182" y="215.3638">Administrador</text><text fill="#000000" font-family="sans-serif" font-size="13" lengthAdjust="spacing" textLength="142.0098" x="290.9956" y="215.3638">solicita editar espacio</text></g><!--link EditandoDatos to GuardandoDatos--><g class="link" data-entity-1="EditandoDatos" data-entity-2="GuardandoDatos" data-source-line="16" data-uid="lnk5" id="link_EditandoDatos_GuardandoDatos"><path d="M145.74,279.2369 C102.28,291.1569 18,314.2969 18,314.2969 C18,314.2969 18,485.2969 18,485.2969 C18,485.2969 96.4937,506.8498 139.9537,518.7698" fill="none" id="EditandoDatos-to-GuardandoDatos" style="stroke:#008000;stroke-width:1;"/><polygon fill="#008000" points="145.74,520.3569,138.1186,514.1188,140.9181,519.0343,136.0025,521.8339,145.74,520.3569" style="stroke:#008000;stroke-width:1;"/><path d="M23,319.2969 L23,480.2969 L298,480.2969 L298,329.2969 L288,319.2969 L23,319.2969" fill="#FEFFDD" style="stroke:#181818;stroke-width:0.5;"/><path d="M288,319.2969 L288,329.2969 L298,329.2969 L288,319.2969" fill="#FEFFDD" style="stroke:#181818;stroke-width:0.5;"/><text fill="#000000" font-family="sans-serif" font-size="13" font-weight="bold" lengthAdjust="spacing" textLength="58.9063" x="29" y="336.3638">Sistema</text><text fill="#000000" font-family="sans-serif" font-size="13" lengthAdjust="spacing" textLength="169.1714" x="92.0386" y="336.3638">presenta datos de edici&#243;n</text><text fill="#000000" font-family="sans-serif" font-size="13" lengthAdjust="spacing" textLength="193.4448" x="29" y="351.4966">&#8226; C&#243;digo, nombre del espacio</text><text fill="#000000" font-family="sans-serif" font-size="13" lengthAdjust="spacing" textLength="169.9331" x="29" y="366.6294">&#8226; Edificio asociado, planta</text><text fill="#000000" font-family="sans-serif" font-size="13" lengthAdjust="spacing" textLength="251.5259" x="29" y="381.7622">&#8226; Capacidad, tipo de espacio, recursos</text><text fill="#000000" font-family="sans-serif" font-size="13" lengthAdjust="spacing" textLength="254.1855" x="29" y="396.895">&#8226; Horario, accesibilidad, observaciones</text><text fill="#000000" font-family="sans-serif" font-size="13" lengthAdjust="spacing" textLength="4.1323" x="29" y="412.0278">&#160;</text><text fill="#000000" font-family="sans-serif" font-size="13" font-weight="bold" lengthAdjust="spacing" textLength="58.9063" x="29" y="427.1606">Sistema</text><text fill="#000000" font-family="sans-serif" font-size="13" lengthAdjust="spacing" textLength="110.5952" x="92.0386" y="427.1606">permite solicitar:</text><text fill="#000000" font-family="sans-serif" font-size="13" lengthAdjust="spacing" textLength="127.8164" x="29" y="442.2935">&#8226; modificar campos</text><text fill="#000000" font-family="sans-serif" font-size="13" lengthAdjust="spacing" textLength="117" x="29" y="457.4263">&#8226; guardar espacio</text><text fill="#000000" font-family="sans-serif" font-size="13" lengthAdjust="spacing" textLength="118.168" x="29" y="472.5591">&#8226; cancelar edici&#243;n</text></g><!--link GuardandoDatos to EditandoDatos--><g class="link" data-entity-1="GuardandoDatos" data-entity-2="EditandoDatos" data-source-line="30" data-uid="lnk6" id="link_GuardandoDatos_EditandoDatos"><path d="M196.14,519.2969 C234.44,507.1169 303,485.2969 303,485.2969 C303,485.2969 303,314.2969 303,314.2969 C303,314.2969 240.1578,294.2952 201.8578,282.1152" fill="none" id="GuardandoDatos-to-EditandoDatos" style="stroke:#008000;stroke-width:1;"/><polygon fill="#008000" points="196.14,280.2969,203.5045,286.8363,200.9049,281.8122,205.929,279.2125,196.14,280.2969" style="stroke:#008000;stroke-width:1;"/><path d="M308,387.2969 L308,412.2969 L603,412.2969 L603,397.2969 L593,387.2969 L308,387.2969" fill="#FEFFDD" style="stroke:#181818;stroke-width:0.5;"/><path d="M593,387.2969 L593,397.2969 L603,397.2969 L593,387.2969" fill="#FEFFDD" style="stroke:#181818;stroke-width:0.5;"/><text fill="#000000" font-family="sans-serif" font-size="13" font-weight="bold" lengthAdjust="spacing" textLength="104.8633" x="314" y="404.3638">Administrador</text><text fill="#000000" font-family="sans-serif" font-size="13" lengthAdjust="spacing" textLength="165.9214" x="422.9956" y="404.3638">solicita modificar campos</text></g><!--link GuardandoDatos to *end*editarEspacio--><g class="link" data-entity-1="GuardandoDatos" data-entity-2=".end.editarEspacio" data-source-line="35" data-uid="lnk8" id="link_GuardandoDatos_.end.editarEspacio"><path d="M145.9,536.2369 C102.73,548.1569 19,571.2969 19,571.2969 C19,571.2969 19,606.2969 19,606.2969 C19,606.2969 119.3193,624.7799 154.1693,631.1999" fill="none" id="GuardandoDatos-to-*end*editarEspacio" style="stroke:#008000;stroke-width:1;"/><polygon fill="#008000" points="160.07,632.2869,151.9436,626.7225,155.1527,631.381,150.4943,634.5902,160.07,632.2869" style="stroke:#008000;stroke-width:1;"/><path d="M24,576.2969 L24,601.2969 L298,601.2969 L298,586.2969 L288,576.2969 L24,576.2969" fill="#FEFFDD" style="stroke:#181818;stroke-width:0.5;"/><path d="M288,576.2969 L288,586.2969 L298,586.2969 L288,576.2969" fill="#FEFFDD" style="stroke:#181818;stroke-width:0.5;"/><text fill="#000000" font-family="sans-serif" font-size="13" font-weight="bold" lengthAdjust="spacing" textLength="104.8633" x="30" y="593.3638">Administrador</text><text fill="#000000" font-family="sans-serif" font-size="13" lengthAdjust="spacing" textLength="144.5361" x="138.9956" y="593.3638">solicita guardar y salir</text></g><!--link GuardandoDatos to *end*editarEspacio--><g class="link" data-entity-1="GuardandoDatos" data-entity-2=".end.editarEspacio" data-source-line="40" data-uid="lnk9" id="link_GuardandoDatos_.end.editarEspacio"><path d="M196.14,537.2969 C234.44,549.4769 303,571.2969 303,571.2969 C303,571.2969 303,606.2969 303,606.2969 C303,606.2969 219.1993,624.0715 187.6693,630.7615" fill="none" id="GuardandoDatos-to-*end*editarEspacio-1" style="stroke:#FF0000;stroke-width:1;"/><polygon fill="#FF0000" points="181.8,632.0069,191.4342,634.0517,186.6911,630.9691,189.7738,626.226,181.8,632.0069" style="stroke:#FF0000;stroke-width:1;"/><path d="M308,576.2969 L308,601.2969 L594,601.2969 L594,586.2969 L584,576.2969 L308,576.2969" fill="#FEFFDD" style="stroke:#181818;stroke-width:0.5;"/><path d="M584,576.2969 L584,586.2969 L594,586.2969 L584,576.2969" fill="#FEFFDD" style="stroke:#181818;stroke-width:0.5;"/><text fill="#000000" font-family="sans-serif" font-size="13" font-weight="bold" lengthAdjust="spacing" textLength="104.8633" x="314" y="593.3638">Administrador</text><text fill="#000000" font-family="sans-serif" font-size="13" lengthAdjust="spacing" textLength="156.2729" x="422.9956" y="593.3638">solicita cancelar edici&#243;n</text></g><g id="ESPACIOS_ABIERTO"><rect fill="#F1F1F1" height="50" rx="12.5" ry="12.5" style="stroke:#181818;stroke-width:0.5;" width="158.0176" x="230.5" y="751"/><line style="stroke:#181818;stroke-width:0.5;" x1="230.5" x2="388.5176" y1="777.2969" y2="777.2969"/><text fill="#000000" font-family="sans-serif" font-size="14" lengthAdjust="spacing" textLength="138.0176" x="240.5" y="768.9951">ESPACIOS_ABIERTO</text></g><!--link in2 to editarEspacio--><g class="link" data-entity-1="in2" data-entity-2="editarEspacio" data-source-line="4" data-uid="lnk2" id="link_in2_editarEspacio"><path d="M309.5,57.26 C309.5,72.37 309.5,87.56 309.5,111.97" fill="none" id="in2-to-editarEspacio" style="stroke:#008000;stroke-width:1;"/><polygon fill="#008000" points="309.5,117.97,313.5,108.97,309.5,112.97,305.5,108.97,309.5,117.97" style="stroke:#008000;stroke-width:1;"/></g><!--link editarEspacio to ESPACIOS_ABIERTO--><g class="link" data-entity-1="editarEspacio" data-entity-2="ESPACIOS_ABIERTO" data-source-line="47" data-uid="lnk11" id="link_editarEspacio_ESPACIOS_ABIERTO"><path d="M217.75,656.06 C211.43,674.52 207.5,686 207.5,686 C207.5,686 207.5,721 207.5,721 C207.5,721 231.4066,733.664 258.5666,748.034" fill="none" id="editarEspacio-to-ESPACIOS_ABIERTO" style="stroke:#008000;stroke-width:1;"/><polygon fill="#008000" points="263.87,750.84,257.7855,743.0954,259.4505,748.5017,254.0442,750.1667,263.87,750.84" style="stroke:#008000;stroke-width:1;"/><path d="M212.5,691 L212.5,716 L361.5,716 L361.5,701 L351.5,691 L212.5,691" fill="#FEFFDD" style="stroke:#181818;stroke-width:0.5;"/><path d="M351.5,691 L351.5,701 L361.5,701 L351.5,691" fill="#FEFFDD" style="stroke:#181818;stroke-width:0.5;"/><text fill="#000000" font-family="sans-serif" font-size="13" lengthAdjust="spacing" textLength="128.0449" x="218.5" y="708.0669">abrirListaEspacios()</text></g><!--link editarEspacio to ESPACIOS_ABIERTO--><g class="link" data-entity-1="editarEspacio" data-entity-2="ESPACIOS_ABIERTO" data-source-line="52" data-uid="lnk12" id="link_editarEspacio_ESPACIOS_ABIERTO"><path d="M364.37,656.06 C368.15,674.52 370.5,686 370.5,686 C370.5,686 370.5,721 370.5,721 C370.5,721 357.5235,732.494 341.2835,746.864" fill="none" id="editarEspacio-to-ESPACIOS_ABIERTO-1" style="stroke:#FF0000;stroke-width:1;"/><polygon fill="#FF0000" points="336.79,750.84,346.1809,747.8716,340.5345,747.5266,340.8795,741.8803,336.79,750.84" style="stroke:#FF0000;stroke-width:1;"/><path d="M375.5,691 L375.5,716 L502.5,716 L502.5,701 L492.5,691 L375.5,691" fill="#FEFFDD" style="stroke:#181818;stroke-width:0.5;"/><path d="M492.5,691 L492.5,701 L502.5,701 L492.5,691" fill="#FEFFDD" style="stroke:#181818;stroke-width:0.5;"/><text fill="#000000" font-family="sans-serif" font-size="13" lengthAdjust="spacing" textLength="106.3677" x="381.5" y="708.0669">cancelar edici&#243;n</text></g><!--SRC=[fLHHQjj04FtVKmpkJr8S2lqimU2afWqKKkh-XL16krCpHDeLiqh1b4BFqYla2Bb9JzBPbMHxxRgbwGe4sddptfkdbU8T-nO56wZPKxTk2TfGhzE3CR73Ze3zIy08ayNo_VpowdhvQNvnjVZmyNfYKkNivjbAYFpjsGp8SOUoY2rQ3cDxiPc9YfsJqmbyDGPqzVY9NefQ991tuJLs8HwMtzoZk4qTUeARvxU5du83CiG7vGW-JNkNDywhsTmrx3bsWYx8-Ojg1Z7KRBLtC0yqZ9GQoBkUHPVPt4gfNHEbqwCcbcg06ipohL0ah_8kixaSekN71v_HFx__WCl71yUhC5MkfX9IJ5suJ1Zrz9dxq8Db7MuAROtAksN1rE7GJQ7ZDcIbdcGAGlPUuk0uWTy6GKaLj9OYLrptdQ6A95zIawUuJMH_9fA6TUmnMdcr8Mv2DgevMspQ7SLLZauE1hFeBTMfi1lB-6As5lOEoT6ZyPIJyLlJ_sH1J-jJXCTGrX2nPYbrZsWAkVzG_4lSvfinvKTU1Bttrp25E5R2yavbSUYD9wTcotn0EmpoPz93loFZBm00]--></g></svg>