<svg xmlns="http://www.w3.org/2000/svg" xmlns:xlink="http://www.w3.org/1999/xlink" contentStyleType="text/css" data-diagram-type="STATE" height="742px" preserveAspectRatio="none" style="width:495px;height:742px;background:#FFFFFF;" version="1.1" viewBox="0 0 495 742" width="495px" zoomAndPan="magnify"><?plantuml 1.2026.5?><defs/><g><g class="entity" data-qualified-name="in1" data-source-line="3" id="ent0001"><rect fill="#F1F1F1" height="50" rx="12.5" ry="12.5" style="stroke:#181818;stroke-width:0.5;" width="151.7627" x="164.62" y="7"/><line style="stroke:#181818;stroke-width:0.5;" x1="164.62" x2="316.3827" y1="33.2969" y2="33.2969"/><text fill="#000000" font-family="sans-serif" font-size="14" lengthAdjust="spacing" textLength="131.7627" x="174.62" y="24.9951">PLANTAS_ABIERTO</text></g><g class="entity" data-qualified-name="crearPlanta" data-source-line="6" id="ent0002"><path d="M19.5,118 L461.5,118 A12.5,12.5 0 0 1 474,130.5 L474,144.2969 L7,144.2969 L7,130.5 A12.5,12.5 0 0 1 19.5,118" fill="#F1F1F1"/><rect fill="none" height="465.2969" rx="12.5" ry="12.5" style="stroke:#181818;stroke-width:0.5;" width="467" x="7" y="118"/><line style="stroke:#181818;stroke-width:0.5;" x1="7" x2="474" y1="144.2969" y2="144.2969"/><text fill="#000000" font-family="sans-serif" font-size="14" lengthAdjust="spacing" textLength="91.1777" x="194.9111" y="135.9951">crearPlanta()</text><g class="entity" data-qualified-name="crearPlanta.SolicitandoDatos" data-source-line="8" id="ent0003"><rect fill="#F1F1F1" height="50" rx="12.5" ry="12.5" style="stroke:#181818;stroke-width:0.5;" width="50" x="19" y="246.2969"/><line style="stroke:#181818;stroke-width:0.5;" x1="19" x2="69" y1="272.5938" y2="272.5938"/><text fill="#000000" font-family="sans-serif" font-size="14" lengthAdjust="spacing" textLength="4.4502" x="41.7749" y="264.292">&#160;</text></g><g class="entity" data-qualified-name="crearPlanta.CreandoPlanta" data-source-line="9" id="ent0004"><rect fill="#F1F1F1" height="50" rx="12.5" ry="12.5" style="stroke:#181818;stroke-width:0.5;" width="50" x="19" y="412.2969"/><line style="stroke:#181818;stroke-width:0.5;" x1="19" x2="69" y1="438.5938" y2="438.5938"/><text fill="#000000" font-family="sans-serif" font-size="14" lengthAdjust="spacing" textLength="4.4502" x="41.7749" y="430.292">&#160;</text></g><g class="start_entity" data-qualified-name="crearPlanta..start.crearPlanta" data-source-line="11" id="ent0006"><ellipse cx="44" cy="165.2969" fill="#222222" rx="10" ry="10" style="stroke:#222222;stroke-width:1;"/></g><g class="end_entity" data-qualified-name="crearPlanta..end.crearPlanta" data-source-line="24" id="ent0009"><ellipse cx="44" cy="559.2969" fill="none" rx="11" ry="11" style="stroke:#222222;stroke-width:1;"/><ellipse cx="44" cy="559.2969" fill="#222222" rx="6" ry="6" style="stroke:#222222;stroke-width:1;"/></g><!--link *start*crearPlanta to SolicitandoDatos--><g class="link" data-entity-1="ent0006" data-entity-2="ent0003" data-link-type="dependency" data-source-line="11" id="lnk7"><path d="M44,175.5269 C44,191.2369 44,218.6569 44,241.1669" fill="none" id="*start*crearPlanta-to-SolicitandoDatos" style="stroke:#008000;stroke-width:1;"/><polygon fill="#008000" points="44,246.1669,48,237.1669,44,241.1669,40,237.1669,44,246.1669" style="stroke:#008000;stroke-width:1;stroke-linejoin:miter;stroke-miterlimit:10;"/><path d="M49,198.2969 L49,223.2969 L352,223.2969 L352,208.2969 L342,198.2969 L49,198.2969" fill="#FEFFDD" style="stroke:#181818;stroke-width:0.5;"/><path d="M342,198.2969 L342,208.2969 L352,208.2969 L342,198.2969" fill="#FEFFDD" style="stroke:#181818;stroke-width:0.5;"/><text fill="#000000" font-family="sans-serif" font-size="13" font-weight="700" lengthAdjust="spacing" textLength="104.8633" x="55" y="215.3638">Administrador</text><text fill="#000000" font-family="sans-serif" font-size="13" lengthAdjust="spacing" textLength="173.2402" x="163.9956" y="215.3638">solicita crear planta nueva</text></g><!--link SolicitandoDatos to CreandoPlanta--><g class="link" data-entity-1="ent0003" data-entity-2="ent0004" data-link-type="dependency" data-source-line="16" id="lnk8"><path d="M44,296.4969 C44,327.5069 44,375.9469 44,406.9969" fill="none" id="SolicitandoDatos-to-CreandoPlanta" style="stroke:#008000;stroke-width:1;"/><polygon fill="#008000" points="44,411.9969,48,402.9969,44,406.9969,40,402.9969,44,411.9969" style="stroke:#008000;stroke-width:1;stroke-linejoin:miter;stroke-miterlimit:10;"/><path d="M49,319.2969 L49,389.2969 L450,389.2969 L450,329.2969 L440,319.2969 L49,319.2969" fill="#FEFFDD" style="stroke:#181818;stroke-width:0.5;"/><path d="M440,319.2969 L440,329.2969 L450,329.2969 L440,319.2969" fill="#FEFFDD" style="stroke:#181818;stroke-width:0.5;"/><text fill="#000000" font-family="sans-serif" font-size="13" font-weight="700" lengthAdjust="spacing" textLength="58.9063" x="55" y="336.3638">Sistema</text><text fill="#000000" font-family="sans-serif" font-size="13" lengthAdjust="spacing" textLength="317.6621" x="118.0386" y="336.3638">presenta solicitud de datos m&#237;nimos de la planta</text><text fill="#000000" font-family="sans-serif" font-size="13" lengthAdjust="spacing" textLength="228.979" x="55" y="351.4966">&#8226; Nombre de la planta (obligatorio)</text><text fill="#000000" font-family="sans-serif" font-size="13" lengthAdjust="spacing" textLength="200.8018" x="55" y="366.6294">&#8226; Permite solicitar crear planta</text><text fill="#000000" font-family="sans-serif" font-size="13" lengthAdjust="spacing" textLength="236.6978" x="55" y="381.7622">&#8226; Permite solicitar cancelar creaci&#243;n</text></g><!--link CreandoPlanta to *end*crearPlanta--><g class="link" data-entity-1="ent0004" data-entity-2="ent0009" data-link-type="dependency" data-source-line="24" id="lnk10"><path d="M44,462.5769 C44,488.7469 44,524.1469 44,542.9769" fill="none" id="CreandoPlanta-to-*end*crearPlanta" style="stroke:#008000;stroke-width:1;"/><polygon fill="#008000" points="44,547.9769,48,538.9769,44,542.9769,40,538.9769,44,547.9769" style="stroke:#008000;stroke-width:1;stroke-linejoin:miter;stroke-miterlimit:10;"/><path d="M49,485.2969 L49,525.2969 L449,525.2969 L449,495.2969 L439,485.2969 L49,485.2969" fill="#FEFFDD" style="stroke:#181818;stroke-width:0.5;"/><path d="M439,485.2969 L439,495.2969 L449,495.2969 L439,485.2969" fill="#FEFFDD" style="stroke:#181818;stroke-width:0.5;"/><text fill="#000000" font-family="sans-serif" font-size="13" font-weight="700" lengthAdjust="spacing" textLength="104.8633" x="55" y="502.3638">Administrador</text><text fill="#000000" font-family="sans-serif" font-size="13" lengthAdjust="spacing" textLength="177.8423" x="163.9956" y="502.3638">proporciona datos m&#237;nimos</text><text fill="#000000" font-family="sans-serif" font-size="13" font-weight="700" lengthAdjust="spacing" textLength="58.9063" x="55" y="517.4966">Sistema</text><text fill="#000000" font-family="sans-serif" font-size="13" lengthAdjust="spacing" textLength="316.9448" x="118.0386" y="517.4966">crea planta hu&#233;rfana y transfiere a actualizaci&#243;n</text></g></g><g class="entity" data-qualified-name="PLANTA_ABIERTO" data-source-line="31" id="ent0011"><rect fill="#F1F1F1" height="50" rx="12.5" ry="12.5" style="stroke:#181818;stroke-width:0.5;" width="142.876" x="48.06" y="678.3"/><line style="stroke:#181818;stroke-width:0.5;" x1="48.06" x2="190.936" y1="704.5969" y2="704.5969"/><text fill="#000000" font-family="sans-serif" font-size="14" lengthAdjust="spacing" textLength="122.876" x="58.06" y="696.2951">PLANTA_ABIERTO</text></g><g class="entity" data-qualified-name="PLANTAS_ABIERTO" data-source-line="36" id="ent0013"><rect fill="#F1F1F1" height="50" rx="12.5" ry="12.5" style="stroke:#181818;stroke-width:0.5;" width="151.7627" x="285.62" y="678.3"/><line style="stroke:#181818;stroke-width:0.5;" x1="285.62" x2="437.3827" y1="704.5969" y2="704.5969"/><text fill="#000000" font-family="sans-serif" font-size="14" lengthAdjust="spacing" textLength="131.7627" x="295.62" y="696.2951">PLANTAS_ABIERTO</text></g><!--link in1 to crearPlanta--><g class="link" data-entity-1="ent0001" data-entity-2="ent0002" data-link-type="dependency" data-source-line="4" id="lnk5"><path d="M240.5,57.32 C240.5,72.46 240.5,88.59 240.5,112.65" fill="none" id="in1-to-crearPlanta" style="stroke:#008000;stroke-width:1;"/><polygon fill="#008000" points="240.5,117.65,244.5,108.65,240.5,112.65,236.5,108.65,240.5,117.65" style="stroke:#008000;stroke-width:1;stroke-linejoin:miter;stroke-miterlimit:10;"/></g><!--link crearPlanta to PLANTA_ABIERTO--><g class="link" data-entity-1="ent0002" data-entity-2="ent0011" data-link-type="dependency" data-source-line="31" id="lnk12"><path d="M130.48,583.79 C121.92,601.87 116.5,613.3 116.5,613.3 C116.5,613.3 116.5,648.3 116.5,648.3 C116.5,648.3 117.074,658.5476 117.864,672.8376" fill="none" id="crearPlanta-to-PLANTA_ABIERTO" style="stroke:#008000;stroke-width:1;"/><polygon fill="#008000" points="118.14,677.83,121.6371,668.6229,117.864,672.8376,113.6493,669.0645,118.14,677.83" style="stroke:#008000;stroke-width:1;stroke-linejoin:miter;stroke-miterlimit:10;"/><path d="M121.5,618.3 L121.5,643.3 L313.5,643.3 L313.5,628.3 L303.5,618.3 L121.5,618.3" fill="#FEFFDD" style="stroke:#181818;stroke-width:0.5;"/><path d="M303.5,618.3 L303.5,628.3 L313.5,628.3 L303.5,618.3" fill="#FEFFDD" style="stroke:#181818;stroke-width:0.5;"/><text fill="#000000" font-family="sans-serif" font-size="13" lengthAdjust="spacing" textLength="171.8882" x="127.5" y="635.3669">editarPlanta(plantaNueva)</text></g><!--link crearPlanta to PLANTAS_ABIERTO--><g class="link" data-entity-1="ent0002" data-entity-2="ent0013" data-link-type="dependency" data-source-line="36" id="lnk14"><path d="M320.53,583.59 C333.81,622.05 344.0494,651.7134 351.5494,673.4534" fill="none" id="crearPlanta-to-PLANTAS_ABIERTO" style="stroke:#0000FF;stroke-width:1;"/><polygon fill="#0000FF" points="353.18,678.18,354.0262,668.3676,351.5494,673.4534,346.4636,670.9766,353.18,678.18" style="stroke:#0000FF;stroke-width:1;stroke-linejoin:miter;stroke-miterlimit:10;"/><path d="M345.5,618.3 L345.5,643.3 L480.5,643.3 L480.5,628.3 L470.5,618.3 L345.5,618.3" fill="#FEFFDD" style="stroke:#181818;stroke-width:0.5;"/><path d="M470.5,618.3 L470.5,628.3 L480.5,628.3 L470.5,618.3" fill="#FEFFDD" style="stroke:#181818;stroke-width:0.5;"/><text fill="#000000" font-family="sans-serif" font-size="13" lengthAdjust="spacing" textLength="114.9624" x="351.5" y="635.3669">cancelar creaci&#243;n</text></g><?plantuml-src bLDBQiCm4Dth52BT98LGkWy1zxCeb3JKsOLGnlOa5P4b8yk5j1HwbkwwwAf7o4rwaexyIQp4BTG6OsdUl7dpDChNGcLW8ELIABIR37ccvSOj6CijMEH2dNF8UMzw6qncGVWGNDnSty_kUim5XlEJbK5KY-6OnmR1J2Ke2qrkQwlaQAtxWnv_OOpJKs5xz18cr5B4me9Az1LOdHyZBec4eaqb5v-VBZmfXoIyH2bD95gvLjVbnYWQ1qagbCYjWKIRqLaqvdcTMuddMQLU5VW4PHAgf6AYX-q-HnNRSdp5lqa9IGQcK8h83ERewjPgYeGdo9EIETr-Af7I3-r8g0MM9DzlxtoYqyYW5-Dz7KcnecGZz627dA991Sbe6ZPUnt_1GCKeQtmijb_ACsPlYjUtvmWTs3-E93CwqoOMMi611rtUELLDvu_5ziCiWV8sd0XLlXH8xj0qnhO0APwxzByorXxSjkxg4ZHtW7doCN7krDDTrP-ugHcm7VCXRoGBtDE6tRmTTZU4Fm00?></g></svg>