<svg xmlns="http://www.w3.org/2000/svg" xmlns:xlink="http://www.w3.org/1999/xlink" contentStyleType="text/css" data-diagram-type="STATE" height="258px" preserveAspectRatio="none" style="width:354px;height:258px;background:#FFFFFF;" version="1.1" viewBox="0 0 354 258" width="354px" zoomAndPan="magnify"><defs/><g><g id="Progreso"><rect fill="#F1F1F1" height="50" rx="12.5" ry="12.5" style="stroke:#181818;stroke-width:0.5;" width="104.0479" x="7" y="103"/><line style="stroke:#181818;stroke-width:0.5;" x1="7" x2="111.0479" y1="129.2969" y2="129.2969"/><text fill="#000000" font-family="sans-serif" font-size="14" lengthAdjust="spacing" textLength="84.0479" x="17" y="120.9951">En Progreso</text></g><ellipse cx="59" cy="16" fill="#222222" rx="10" ry="10" style="stroke:#222222;stroke-width:1;"/><ellipse cx="59" cy="241" fill="none" rx="11" ry="11" style="stroke:#222222;stroke-width:1;"/><ellipse cx="59" cy="241" fill="#222222" rx="6" ry="6" style="stroke:#222222;stroke-width:1;"/><!--link *start* to Progreso--><g class="link" data-entity-1=".start." data-entity-2="Progreso" data-source-line="3" data-uid="lnk3" id="link_.start._Progreso"><path d="M59,26 C59,42.63 59,72.66 59,96.87" fill="none" id="*start*-to-Progreso" style="stroke:#181818;stroke-width:1;"/><polygon fill="#181818" points="59,102.87,63,93.87,59,97.87,55,93.87,59,102.87" style="stroke:#181818;stroke-width:1;"/><text fill="#000000" font-family="sans-serif" font-size="13" lengthAdjust="spacing" textLength="97.2715" x="60" y="69.0669">inicia recorrido</text></g><!--link Progreso to *end*--><g class="link" data-entity-1="Progreso" data-entity-2=".end." data-source-line="5" data-uid="lnk5" id="link_Progreso_.end."><path d="M59,153.09 C59,177.06 59,206.7 59,223.94" fill="none" id="Progreso-to-*end*" style="stroke:#181818;stroke-width:1;"/><polygon fill="#181818" points="59,229.94,63,220.94,59,224.94,55,220.94,59,229.94" style="stroke:#181818;stroke-width:1;"/><text fill="#000000" font-family="sans-serif" font-size="13" lengthAdjust="spacing" textLength="286.146" x="60" y="196.0669">finaliza recorrido / el recorrido es cancelado</text></g><!--SRC=[JSkn2e0m38JXlKznT1J4lOERkxiuX3PAe3IGTlBfnQLs_BdlQgF6s4rluwgW2h-LtjwvOpenp-jF0gH8589nL3D9wbmVF_az0YufbEKP61Pm7f8h8fN8cPA-]--></g></svg>