<svg xmlns="http://www.w3.org/2000/svg" xmlns:xlink="http://www.w3.org/1999/xlink" contentStyleType="text/css" data-diagram-type="STATE" height="742px" preserveAspectRatio="none" style="width:498px;height:742px;background:#FFFFFF;" version="1.1" viewBox="0 0 498 742" width="498px" zoomAndPan="magnify"><?plantuml 1.2026.5?><defs/><g><g class="entity" data-qualified-name="in1" data-source-line="3" id="ent0001"><rect fill="#F1F1F1" height="50" rx="12.5" ry="12.5" style="stroke:#181818;stroke-width:0.5;" width="161.2305" x="159.88" y="7"/><line style="stroke:#181818;stroke-width:0.5;" x1="159.88" x2="321.1105" y1="33.2969" y2="33.2969"/><text fill="#000000" font-family="sans-serif" font-size="14" lengthAdjust="spacing" textLength="141.2305" x="169.88" y="24.9951">REGIONES_ABIERTO</text></g><g class="entity" data-qualified-name="crearRegion" data-source-line="6" id="ent0002"><path d="M19.5,118 L461.5,118 A12.5,12.5 0 0 1 474,130.5 L474,144.2969 L7,144.2969 L7,130.5 A12.5,12.5 0 0 1 19.5,118" fill="#F1F1F1"/><rect fill="none" height="465.2969" rx="12.5" ry="12.5" style="stroke:#181818;stroke-width:0.5;" width="467" x="7" y="118"/><line style="stroke:#181818;stroke-width:0.5;" x1="7" x2="474" y1="144.2969" y2="144.2969"/><text fill="#000000" font-family="sans-serif" font-size="14" lengthAdjust="spacing" textLength="95.8809" x="192.5596" y="135.9951">crearRegion()</text><g class="entity" data-qualified-name="crearRegion.SolicitandoDatos" data-source-line="8" id="ent0003"><rect fill="#F1F1F1" height="50" rx="12.5" ry="12.5" style="stroke:#181818;stroke-width:0.5;" width="50" x="19" y="246.2969"/><line style="stroke:#181818;stroke-width:0.5;" x1="19" x2="69" y1="272.5938" y2="272.5938"/><text fill="#000000" font-family="sans-serif" font-size="14" lengthAdjust="spacing" textLength="4.4502" x="41.7749" y="264.292">&#160;</text></g><g class="entity" data-qualified-name="crearRegion.CreandoRegion" data-source-line="9" id="ent0004"><rect fill="#F1F1F1" height="50" rx="12.5" ry="12.5" style="stroke:#181818;stroke-width:0.5;" width="50" x="19" y="412.2969"/><line style="stroke:#181818;stroke-width:0.5;" x1="19" x2="69" y1="438.5938" y2="438.5938"/><text fill="#000000" font-family="sans-serif" font-size="14" lengthAdjust="spacing" textLength="4.4502" x="41.7749" y="430.292">&#160;</text></g><g class="start_entity" data-qualified-name="crearRegion..start.crearRegion" data-source-line="11" id="ent0006"><ellipse cx="44" cy="165.2969" fill="#222222" rx="10" ry="10" style="stroke:#222222;stroke-width:1;"/></g><g class="end_entity" data-qualified-name="crearRegion..end.crearRegion" data-source-line="24" id="ent0009"><ellipse cx="44" cy="559.2969" fill="none" rx="11" ry="11" style="stroke:#222222;stroke-width:1;"/><ellipse cx="44" cy="559.2969" fill="#222222" rx="6" ry="6" style="stroke:#222222;stroke-width:1;"/></g><!--link *start*crearRegion to SolicitandoDatos--><g class="link" data-entity-1="ent0006" data-entity-2="ent0003" data-link-type="dependency" data-source-line="11" id="lnk7"><path d="M44,175.5269 C44,191.2369 44,218.6569 44,241.1669" fill="none" id="*start*crearRegion-to-SolicitandoDatos" style="stroke:#008000;stroke-width:1;"/><polygon fill="#008000" points="44,246.1669,48,237.1669,44,241.1669,40,237.1669,44,246.1669" style="stroke:#008000;stroke-width:1;stroke-linejoin:miter;stroke-miterlimit:10;"/><path d="M49,198.2969 L49,223.2969 L352,223.2969 L352,208.2969 L342,198.2969 L49,198.2969" fill="#FEFFDD" style="stroke:#181818;stroke-width:0.5;"/><path d="M342,198.2969 L342,208.2969 L352,208.2969 L342,198.2969" fill="#FEFFDD" style="stroke:#181818;stroke-width:0.5;"/><text fill="#000000" font-family="sans-serif" font-size="13" font-weight="700" lengthAdjust="spacing" textLength="104.8633" x="55" y="215.3638">Administrador</text><text fill="#000000" font-family="sans-serif" font-size="13" lengthAdjust="spacing" textLength="173.5068" x="163.9956" y="215.3638">solicita crear regi&#243;n nueva</text></g><!--link SolicitandoDatos to CreandoRegion--><g class="link" data-entity-1="ent0003" data-entity-2="ent0004" data-link-type="dependency" data-source-line="16" id="lnk8"><path d="M44,296.4969 C44,327.5069 44,375.9469 44,406.9969" fill="none" id="SolicitandoDatos-to-CreandoRegion" style="stroke:#008000;stroke-width:1;"/><polygon fill="#008000" points="44,411.9969,48,402.9969,44,406.9969,40,402.9969,44,411.9969" style="stroke:#008000;stroke-width:1;stroke-linejoin:miter;stroke-miterlimit:10;"/><path d="M49,319.2969 L49,389.2969 L450,389.2969 L450,329.2969 L440,319.2969 L49,319.2969" fill="#FEFFDD" style="stroke:#181818;stroke-width:0.5;"/><path d="M440,319.2969 L440,329.2969 L450,329.2969 L440,319.2969" fill="#FEFFDD" style="stroke:#181818;stroke-width:0.5;"/><text fill="#000000" font-family="sans-serif" font-size="13" font-weight="700" lengthAdjust="spacing" textLength="58.9063" x="55" y="336.3638">Sistema</text><text fill="#000000" font-family="sans-serif" font-size="13" lengthAdjust="spacing" textLength="317.9287" x="118.0386" y="336.3638">presenta solicitud de datos m&#237;nimos de la regi&#243;n</text><text fill="#000000" font-family="sans-serif" font-size="13" lengthAdjust="spacing" textLength="229.2456" x="55" y="351.4966">&#8226; Nombre de la regi&#243;n (obligatorio)</text><text fill="#000000" font-family="sans-serif" font-size="13" lengthAdjust="spacing" textLength="201.0684" x="55" y="366.6294">&#8226; Permite solicitar crear regi&#243;n</text><text fill="#000000" font-family="sans-serif" font-size="13" lengthAdjust="spacing" textLength="236.6978" x="55" y="381.7622">&#8226; Permite solicitar cancelar creaci&#243;n</text></g><!--link CreandoRegion to *end*crearRegion--><g class="link" data-entity-1="ent0004" data-entity-2="ent0009" data-link-type="dependency" data-source-line="24" id="lnk10"><path d="M44,462.5769 C44,488.7469 44,524.1469 44,542.9769" fill="none" id="CreandoRegion-to-*end*crearRegion" style="stroke:#008000;stroke-width:1;"/><polygon fill="#008000" points="44,547.9769,48,538.9769,44,542.9769,40,538.9769,44,547.9769" style="stroke:#008000;stroke-width:1;stroke-linejoin:miter;stroke-miterlimit:10;"/><path d="M49,485.2969 L49,525.2969 L387,525.2969 L387,495.2969 L377,485.2969 L49,485.2969" fill="#FEFFDD" style="stroke:#181818;stroke-width:0.5;"/><path d="M377,485.2969 L377,495.2969 L387,495.2969 L377,485.2969" fill="#FEFFDD" style="stroke:#181818;stroke-width:0.5;"/><text fill="#000000" font-family="sans-serif" font-size="13" font-weight="700" lengthAdjust="spacing" textLength="104.8633" x="55" y="502.3638">Administrador</text><text fill="#000000" font-family="sans-serif" font-size="13" lengthAdjust="spacing" textLength="177.8423" x="163.9956" y="502.3638">proporciona datos m&#237;nimos</text><text fill="#000000" font-family="sans-serif" font-size="13" font-weight="700" lengthAdjust="spacing" textLength="58.9063" x="55" y="517.4966">Sistema</text><text fill="#000000" font-family="sans-serif" font-size="13" lengthAdjust="spacing" textLength="254.5093" x="118.0386" y="517.4966">crea regi&#243;n y transfiere a actualizaci&#243;n</text></g></g><g class="entity" data-qualified-name="REGION_ABIERTO" data-source-line="31" id="ent0011"><rect fill="#F1F1F1" height="50" rx="12.5" ry="12.5" style="stroke:#181818;stroke-width:0.5;" width="143.498" x="45.75" y="678.3"/><line style="stroke:#181818;stroke-width:0.5;" x1="45.75" x2="189.248" y1="704.5969" y2="704.5969"/><text fill="#000000" font-family="sans-serif" font-size="14" lengthAdjust="spacing" textLength="123.498" x="55.75" y="696.2951">REGION_ABIERTO</text></g><g class="entity" data-qualified-name="REGIONES_ABIERTO" data-source-line="36" id="ent0013"><rect fill="#F1F1F1" height="50" rx="12.5" ry="12.5" style="stroke:#181818;stroke-width:0.5;" width="161.2305" x="283.88" y="678.3"/><line style="stroke:#181818;stroke-width:0.5;" x1="283.88" x2="445.1105" y1="704.5969" y2="704.5969"/><text fill="#000000" font-family="sans-serif" font-size="14" lengthAdjust="spacing" textLength="141.2305" x="293.88" y="696.2951">REGIONES_ABIERTO</text></g><!--link in1 to crearRegion--><g class="link" data-entity-1="ent0001" data-entity-2="ent0002" data-link-type="dependency" data-source-line="4" id="lnk5"><path d="M240.5,57.32 C240.5,72.46 240.5,88.59 240.5,112.65" fill="none" id="in1-to-crearRegion" style="stroke:#008000;stroke-width:1;"/><polygon fill="#008000" points="240.5,117.65,244.5,108.65,240.5,112.65,236.5,108.65,240.5,117.65" style="stroke:#008000;stroke-width:1;stroke-linejoin:miter;stroke-miterlimit:10;"/></g><!--link crearRegion to REGION_ABIERTO--><g class="link" data-entity-1="ent0002" data-entity-2="ent0011" data-link-type="dependency" data-source-line="31" id="lnk12"><path d="M128.71,583.79 C120,601.87 114.5,613.3 114.5,613.3 C114.5,613.3 114.5,648.3 114.5,648.3 C114.5,648.3 115.074,658.5476 115.864,672.8376" fill="none" id="crearRegion-to-REGION_ABIERTO" style="stroke:#008000;stroke-width:1;"/><polygon fill="#008000" points="116.14,677.83,119.6371,668.6229,115.864,672.8376,111.6493,669.0645,116.14,677.83" style="stroke:#008000;stroke-width:1;stroke-linejoin:miter;stroke-miterlimit:10;"/><path d="M119.5,618.3 L119.5,643.3 L316.5,643.3 L316.5,628.3 L306.5,618.3 L119.5,618.3" fill="#FEFFDD" style="stroke:#181818;stroke-width:0.5;"/><path d="M306.5,618.3 L306.5,628.3 L316.5,628.3 L306.5,618.3" fill="#FEFFDD" style="stroke:#181818;stroke-width:0.5;"/><text fill="#000000" font-family="sans-serif" font-size="13" lengthAdjust="spacing" textLength="176.522" x="125.5" y="635.3669">editarRegion(regionNueva)</text></g><!--link crearRegion to REGIONES_ABIERTO--><g class="link" data-entity-1="ent0002" data-entity-2="ent0013" data-link-type="dependency" data-source-line="36" id="lnk14"><path d="M322.52,583.59 C336.12,622.05 346.6126,651.7262 354.3026,673.4662" fill="none" id="crearRegion-to-REGIONES_ABIERTO" style="stroke:#0000FF;stroke-width:1;"/><polygon fill="#0000FF" points="355.97,678.18,356.7397,668.3613,354.3026,673.4662,349.1977,671.0291,355.97,678.18" style="stroke:#0000FF;stroke-width:1;stroke-linejoin:miter;stroke-miterlimit:10;"/><path d="M348.5,618.3 L348.5,643.3 L483.5,643.3 L483.5,628.3 L473.5,618.3 L348.5,618.3" fill="#FEFFDD" style="stroke:#181818;stroke-width:0.5;"/><path d="M473.5,618.3 L473.5,628.3 L483.5,628.3 L473.5,618.3" fill="#FEFFDD" style="stroke:#181818;stroke-width:0.5;"/><text fill="#000000" font-family="sans-serif" font-size="13" lengthAdjust="spacing" textLength="114.9624" x="354.5" y="635.3669">cancelar creaci&#243;n</text></g><?plantuml-src bPFDIWCn4CVlUOfXlRH24U-bKBL8BwsqtagHx6OimMoo9Bj25S5dyUx9H-YR-2JEPZ-wQQjW5dOtcPb_VZEPk2UfCsvv2afgpBSPGcRKjfmmvdAU8qXz2Tn1j9ZSJkUpoV9XV3MTBExd4IijWzNPnYBgzM04YKLk5xYHHZV1dIKlqfdt-X6yCWOqAj-87l9P6YKJcNCjp0tFZJlsk2OHiZOxbVRL-Jf0EHG1xwKDYH09fVVa5uRnQ2nIgQNBBHV63Y_Y4RWwje87IzlilZJe0f-vZq8jAYaQh7qTRTdb2P5_OraI1wRSKsGM7MgYg74A0G91UELqzwbbIZ-qedX3w5M-tpzWPjBOOcY4decLt52ubQRVkjwXJIM1D3dRCEc__BXEKDK1IUlSr6PVbo3re2XqQFyubioQpDY4HFX16KwLhwHgSzy2wMZtA97Ame4dUS6LV3c5_SPOjsUxkDK5QDgV1TGeogBKZMtzPrRsIv-roeUwiIfmBxk_Lw7mYJ8tYZy0?></g></svg>