<svg xmlns="http://www.w3.org/2000/svg" xmlns:xlink="http://www.w3.org/1999/xlink" contentStyleType="text/css" data-diagram-type="STATE" height="811px" preserveAspectRatio="none" style="width:475px;height:811px;background:#FFFFFF;" version="1.1" viewBox="0 0 475 811" width="475px" zoomAndPan="magnify"><defs/><g><g id="in1"><rect fill="#F1F1F1" height="50" rx="12.5" ry="12.5" style="stroke:#181818;stroke-width:0.5;" width="182.0938" x="43.5" y="7"/><line style="stroke:#181818;stroke-width:0.5;" x1="43.5" x2="225.5938" y1="33.2969" y2="33.2969"/><text fill="#000000" font-family="sans-serif" font-size="14" lengthAdjust="spacing" textLength="162.0938" x="53.5" y="24.9951">RECORRIDO_ABIERTOS</text></g><g id="in2"><rect fill="#F1F1F1" height="50" rx="12.5" ry="12.5" style="stroke:#181818;stroke-width:0.5;" width="149.1309" x="261" y="7"/><line style="stroke:#181818;stroke-width:0.5;" x1="261" x2="410.1309" y1="33.2969" y2="33.2969"/><text fill="#000000" font-family="sans-serif" font-size="14" lengthAdjust="spacing" textLength="129.1309" x="271" y="24.9951">ESPACIO_ABIERTO</text></g><path d="M19.5,118 L449.5,118 A12.5,12.5 0 0 1 462,130.5 L462,144.2969 L7,144.2969 L7,130.5 A12.5,12.5 0 0 1 19.5,118" fill="#F1F1F1"/><rect fill="none" height="542.2969" rx="12.5" ry="12.5" style="stroke:#181818;stroke-width:0.5;" width="455" x="7" y="118"/><line style="stroke:#181818;stroke-width:0.5;" x1="7" x2="462" y1="144.2969" y2="144.2969"/><text fill="#000000" font-family="sans-serif" font-size="14" lengthAdjust="spacing" textLength="138.4824" x="165.2588" y="135.9951">verEspaciosPlanta()</text><g id="verEspaciosPlanta.SolicitandoEspaciosPlanta"><rect fill="#F1F1F1" height="50" rx="12.5" ry="12.5" style="stroke:#181818;stroke-width:0.5;" width="50" x="119" y="246.2969"/><line style="stroke:#181818;stroke-width:0.5;" x1="119" x2="169" y1="272.5938" y2="272.5938"/><text fill="#000000" font-family="sans-serif" font-size="14" lengthAdjust="spacing" textLength="4.4502" x="141.7749" y="264.292">&#160;</text></g><g id="verEspaciosPlanta.ConsultandoEspaciosPlanta"><rect fill="#F1F1F1" height="50" rx="12.5" ry="12.5" style="stroke:#181818;stroke-width:0.5;" width="212.5684" x="37.5" y="382.2969"/><line style="stroke:#181818;stroke-width:0.5;" x1="37.5" x2="250.0684" y1="408.5938" y2="408.5938"/><text fill="#000000" font-family="sans-serif" font-size="14" lengthAdjust="spacing" textLength="192.5684" x="47.5" y="400.292">ConsultandoEspaciosPlanta</text></g><g class="entity" data-entity="c" data-uid="ent0007" id="entity_c"><polygon fill="#F1F1F1" points="144,533.2969,156,545.2969,144,557.2969,132,545.2969,144,533.2969" style="stroke:#181818;stroke-width:0.5;"/></g><ellipse cx="144" cy="165.2969" fill="#222222" rx="10" ry="10" style="stroke:#222222;stroke-width:1;"/><ellipse cx="144" cy="639.2969" fill="none" rx="11" ry="11" style="stroke:#222222;stroke-width:1;"/><ellipse cx="144" cy="639.2969" fill="#222222" rx="6" ry="6" style="stroke:#222222;stroke-width:1;"/><!--link *start*verEspaciosPlanta to SolicitandoEspaciosPlanta--><g class="link" data-entity-1=".start.verEspaciosPlanta" data-entity-2="SolicitandoEspaciosPlanta" data-source-line="13" data-uid="lnk5" id="link_.start.verEspaciosPlanta_SolicitandoEspaciosPlanta"><path d="M144,175.5269 C144,191.2369 144,217.6569 144,240.1669" fill="none" id="*start*verEspaciosPlanta-to-SolicitandoEspaciosPlanta" style="stroke:#008000;stroke-width:1;"/><polygon fill="#008000" points="144,246.1669,148,237.1669,144,241.1669,140,237.1669,144,246.1669" style="stroke:#008000;stroke-width:1;"/><path d="M149,198.2969 L149,223.2969 L453,223.2969 L453,208.2969 L443,198.2969 L149,198.2969" fill="#FEFFDD" style="stroke:#181818;stroke-width:0.5;"/><path d="M443,198.2969 L443,208.2969 L453,208.2969 L443,198.2969" fill="#FEFFDD" style="stroke:#181818;stroke-width:0.5;"/><text fill="#000000" font-family="sans-serif" font-size="13" font-weight="bold" lengthAdjust="spacing" textLength="65.9839" x="155" y="215.3638">Visitante</text><text fill="#000000" font-family="sans-serif" font-size="13" lengthAdjust="spacing" textLength="212.9067" x="225.1162" y="215.3638">solicita ver espacios de la planta</text></g><!--link SolicitandoEspaciosPlanta to ConsultandoEspaciosPlanta--><g class="link" data-entity-1="SolicitandoEspaciosPlanta" data-entity-2="ConsultandoEspaciosPlanta" data-source-line="18" data-uid="lnk6" id="link_SolicitandoEspaciosPlanta_ConsultandoEspaciosPlanta"><path d="M144,296.5669 C144,320.8469 144,351.9869 144,376.2069" fill="none" id="SolicitandoEspaciosPlanta-to-ConsultandoEspaciosPlanta" style="stroke:#008000;stroke-width:1;"/><polygon fill="#008000" points="144,382.2069,148,373.2069,144,377.2069,140,373.2069,144,382.2069" style="stroke:#008000;stroke-width:1;"/><path d="M149,319.2969 L149,359.2969 L371,359.2969 L371,329.2969 L361,319.2969 L149,319.2969" fill="#FEFFDD" style="stroke:#181818;stroke-width:0.5;"/><path d="M361,319.2969 L361,329.2969 L371,329.2969 L361,319.2969" fill="#FEFFDD" style="stroke:#181818;stroke-width:0.5;"/><text fill="#000000" font-family="sans-serif" font-size="13" font-weight="bold" lengthAdjust="spacing" textLength="58.9063" x="155" y="336.3638">Sistema</text><text fill="#000000" font-family="sans-serif" font-size="13" lengthAdjust="spacing" textLength="57.6685" x="218.0386" y="336.3638">presenta</text><text fill="#000000" font-family="sans-serif" font-size="13" lengthAdjust="spacing" textLength="201.208" x="155" y="351.4966">&#8226; lista de espacios de la planta</text></g><!--link ConsultandoEspaciosPlanta to c--><g class="link" data-entity-1="ConsultandoEspaciosPlanta" data-entity-2="c" data-source-line="24" data-uid="lnk7" id="link_ConsultandoEspaciosPlanta_c"><path d="M71.8,432.3669 C43.65,441.7469 18,450.2969 18,450.2969 C18,450.2969 18,515.2969 18,515.2969 C18,515.2969 100.2029,534.211 129.0929,540.861" fill="none" id="ConsultandoEspaciosPlanta-to-c" style="stroke:#008000;stroke-width:1;"/><polygon fill="#008000" points="134.94,542.2069,127.0666,536.29,130.0674,541.0853,125.2721,544.0861,134.94,542.2069" style="stroke:#008000;stroke-width:1;"/><path d="M23,455.2969 L23,510.2969 L245,510.2969 L245,465.2969 L235,455.2969 L23,455.2969" fill="#FEFFDD" style="stroke:#181818;stroke-width:0.5;"/><path d="M235,455.2969 L235,465.2969 L245,465.2969 L235,455.2969" fill="#FEFFDD" style="stroke:#181818;stroke-width:0.5;"/><text fill="#000000" font-family="sans-serif" font-size="13" font-weight="bold" lengthAdjust="spacing" textLength="65.9839" x="29" y="472.3638">Visitante</text><text fill="#000000" font-family="sans-serif" font-size="13" lengthAdjust="spacing" textLength="45.7729" x="99.1162" y="472.3638">solicita</text><text fill="#000000" font-family="sans-serif" font-size="13" lengthAdjust="spacing" textLength="157.2441" x="29" y="487.4966">&#8226; continuar consultando</text><text fill="#000000" font-family="sans-serif" font-size="13" lengthAdjust="spacing" textLength="201.4556" x="29" y="502.6294">&#8226; salir de espacios de la planta</text></g><!--link c to ConsultandoEspaciosPlanta--><g class="link" data-entity-1="c" data-entity-2="ConsultandoEspaciosPlanta" data-source-line="31" data-uid="lnk8" id="link_c_ConsultandoEspaciosPlanta"><path d="M152.67,541.9269 C177.99,534.9969 250,515.2969 250,515.2969 C250,515.2969 250,450.2969 250,450.2969 C250,450.2969 233.9983,443.9565 210.3183,434.5765" fill="none" id="c-to-ConsultandoEspaciosPlanta" style="stroke:#008000;stroke-width:1;"/><polygon fill="#008000" points="204.74,432.3669,211.6344,439.4002,209.3886,434.2082,214.5806,431.9625,204.74,432.3669" style="stroke:#008000;stroke-width:1;"/><path d="M255,470.2969 L255,495.2969 L421,495.2969 L421,480.2969 L411,470.2969 L255,470.2969" fill="#FEFFDD" style="stroke:#181818;stroke-width:0.5;"/><path d="M411,470.2969 L411,480.2969 L421,480.2969 L411,470.2969" fill="#FEFFDD" style="stroke:#181818;stroke-width:0.5;"/><text fill="#000000" font-family="sans-serif" font-size="13" lengthAdjust="spacing" textLength="145.4438" x="261" y="487.3638">continuar consultando</text></g><!--link c to *end*verEspaciosPlanta--><g class="link" data-entity-1="c" data-entity-2=".end.verEspaciosPlanta" data-source-line="36" data-uid="lnk10" id="link_c_.end.verEspaciosPlanta"><path d="M144,557.5769 C144,575.6169 144,604.6969 144,622.0569" fill="none" id="c-to-*end*verEspaciosPlanta" style="stroke:#008000;stroke-width:1;"/><polygon fill="#008000" points="144,628.0569,148,619.0569,144,623.0569,140,619.0569,144,628.0569" style="stroke:#008000;stroke-width:1;"/><path d="M149,580.2969 L149,605.2969 L359,605.2969 L359,590.2969 L349,580.2969 L149,580.2969" fill="#FEFFDD" style="stroke:#181818;stroke-width:0.5;"/><path d="M349,580.2969 L349,590.2969 L359,590.2969 L349,580.2969" fill="#FEFFDD" style="stroke:#181818;stroke-width:0.5;"/><text fill="#000000" font-family="sans-serif" font-size="13" lengthAdjust="spacing" textLength="189.6553" x="155" y="597.3638">salir de espacios de la planta</text></g><g id="ESPACIO_ABIERTO"><rect fill="#F1F1F1" height="50" rx="12.5" ry="12.5" style="stroke:#181818;stroke-width:0.5;" width="149.1309" x="160" y="755"/><line style="stroke:#181818;stroke-width:0.5;" x1="160" x2="309.1309" y1="781.2969" y2="781.2969"/><text fill="#000000" font-family="sans-serif" font-size="14" lengthAdjust="spacing" textLength="129.1309" x="170" y="772.9951">ESPACIO_ABIERTO</text></g><!--link in1 to verEspaciosPlanta--><g class="link" data-entity-1="in1" data-entity-2="verEspaciosPlanta" data-source-line="4" data-uid="lnk2" id="link_in1_verEspaciosPlanta"><path d="M141.29,57.12 C145.54,72.18 149.8633,87.5447 156.7333,111.9347" fill="none" id="in1-to-verEspaciosPlanta" style="stroke:#008000;stroke-width:1;"/><polygon fill="#008000" points="158.36,117.71,159.7701,107.9626,157.0044,112.8973,152.0697,110.1316,158.36,117.71" style="stroke:#008000;stroke-width:1;"/></g><!--link in2 to verEspaciosPlanta--><g class="link" data-entity-1="in2" data-entity-2="verEspaciosPlanta" data-source-line="6" data-uid="lnk3" id="link_in2_verEspaciosPlanta"><path d="M328.64,57.12 C324.35,72.18 319.9821,87.5491 313.0421,111.9391" fill="none" id="in2-to-verEspaciosPlanta" style="stroke:#008000;stroke-width:1;"/><polygon fill="#008000" points="311.4,117.71,317.7104,110.1483,312.7684,112.9009,310.0158,107.9589,311.4,117.71" style="stroke:#008000;stroke-width:1;"/></g><!--link verEspaciosPlanta to ESPACIO_ABIERTO--><g class="link" data-entity-1="verEspaciosPlanta" data-entity-2="ESPACIO_ABIERTO" data-source-line="42" data-uid="lnk12" id="link_verEspaciosPlanta_ESPACIO_ABIERTO"><path d="M234.5,660.17 C234.5,699.07 234.5,727.18 234.5,748.76" fill="none" id="verEspaciosPlanta-to-ESPACIO_ABIERTO" style="stroke:#008000;stroke-width:1;"/><polygon fill="#008000" points="234.5,754.76,238.5,745.76,234.5,749.76,230.5,745.76,234.5,754.76" style="stroke:#008000;stroke-width:1;"/><path d="M239.5,695 L239.5,720 L309.5,720 L309.5,705 L299.5,695 L239.5,695" fill="#FEFFDD" style="stroke:#181818;stroke-width:0.5;"/><path d="M299.5,695 L299.5,705 L309.5,705 L299.5,695" fill="#FEFFDD" style="stroke:#181818;stroke-width:0.5;"/><text fill="#000000" font-family="sans-serif" font-size="13" lengthAdjust="spacing" textLength="49.6768" x="245.5" y="712.0669">regresa</text></g><!--SRC=[fPFVQi8m5CRlynI7xcORo9ZNfU1SBxogj6Ct8kEO7bmm9YM90nc3FSiURK-of6hzMqMMGacJBx_lEuV6peIgqE0Sf53abXL1fUKoV31c7Je2eHu1BKHvsi_oVF2SlVMU1cd-aXKH2tkTqStK4Abn9u4FCgcja0jjXnALmuRHhHbfCUpr1mqX0BeN06l2qKRDErgzlOlWau4VgsEHVxomq59muL2L-W2_bVQriWjvNiCXZlcx5foIXDNhe_lnNW6jJb3BbVOKhKAtP_L2F4bUXGq77CKFamJi6X0g1beZe2IG2DKs3wbo1VE3DQzszzsCvoiz5R4Grj4Swu2L8KiRyU_tZnVwveI4bzDkaxPcs4lAhsnQaubhvOHQe0cpZL6pQr4ASsrY_fyUjkTfZ4wO-9_hDEwQ0huOExuykou7bvBjkHdoEejiW_i3]--></g></svg>