<svg xmlns="http://www.w3.org/2000/svg" xmlns:xlink="http://www.w3.org/1999/xlink" contentStyleType="text/css" data-diagram-type="STATE" height="653px" preserveAspectRatio="none" style="width:1326px;height:653px;background:#FFFFFF;" version="1.1" viewBox="0 0 1326 653" width="1326px" zoomAndPan="magnify"><?plantuml 1.2026.5?><defs/><g><g class="entity" data-qualified-name="NoAuth" data-source-line="4" id="ent0001"><rect fill="#F1F1F1" height="50" rx="12.5" ry="12.5" style="stroke:#181818;stroke-width:0.5;" width="147.251" x="87" y="327"/><line style="stroke:#181818;stroke-width:0.5;" x1="87" x2="234.251" y1="353.2969" y2="353.2969"/><text fill="#000000" font-family="sans-serif" font-size="14" lengthAdjust="spacing" textLength="127.251" x="97" y="344.9951">SESION_CERRADA</text></g><g class="entity" data-qualified-name="Menu" data-source-line="5" id="ent0002"><rect fill="#F1F1F1" height="50" rx="12.5" ry="12.5" style="stroke:#181818;stroke-width:0.5;" width="208.2617" x="388.25" y="327"/><line style="stroke:#181818;stroke-width:0.5;" x1="388.25" x2="596.5117" y1="353.2969" y2="353.2969"/><text fill="#000000" font-family="sans-serif" font-size="14" lengthAdjust="spacing" textLength="188.2617" x="398.25" y="344.9951">UNIVERSIDAD_DISPONIBLE</text></g><g class="entity" data-qualified-name="ListEspacios" data-source-line="7" id="ent0003"><rect fill="#F1F1F1" height="50" rx="12.5" ry="12.5" style="stroke:#181818;stroke-width:0.5;" width="158.0176" x="795.55" y="124"/><line style="stroke:#181818;stroke-width:0.5;" x1="795.55" x2="953.5676" y1="150.2969" y2="150.2969"/><text fill="#000000" font-family="sans-serif" font-size="14" lengthAdjust="spacing" textLength="138.0176" x="805.55" y="141.9951">ESPACIOS_ABIERTO</text></g><g class="entity" data-qualified-name="EditEspacio" data-source-line="8" id="ent0004"><rect fill="#F1F1F1" height="50" rx="12.5" ry="12.5" style="stroke:#181818;stroke-width:0.5;" width="149.1309" x="1150.64" y="68"/><line style="stroke:#181818;stroke-width:0.5;" x1="1150.64" x2="1299.7709" y1="94.2969" y2="94.2969"/><text fill="#000000" font-family="sans-serif" font-size="14" lengthAdjust="spacing" textLength="129.1309" x="1160.64" y="85.9951">ESPACIO_ABIERTO</text></g><g class="entity" data-qualified-name="ListRecorridos" data-source-line="9" id="ent0005"><rect fill="#F1F1F1" height="50" rx="12.5" ry="12.5" style="stroke:#181818;stroke-width:0.5;" width="182.0938" x="783.51" y="254"/><line style="stroke:#181818;stroke-width:0.5;" x1="783.51" x2="965.6038" y1="280.2969" y2="280.2969"/><text fill="#000000" font-family="sans-serif" font-size="14" lengthAdjust="spacing" textLength="162.0938" x="793.51" y="271.9951">RECORRIDOS_ABIERTO</text></g><g class="entity" data-qualified-name="EditRecorrido" data-source-line="10" id="ent0006"><rect fill="#F1F1F1" height="50" rx="12.5" ry="12.5" style="stroke:#181818;stroke-width:0.5;" width="173.207" x="1138.61" y="239"/><line style="stroke:#181818;stroke-width:0.5;" x1="1138.61" x2="1311.817" y1="265.2969" y2="265.2969"/><text fill="#000000" font-family="sans-serif" font-size="14" lengthAdjust="spacing" textLength="153.207" x="1148.61" y="256.9951">RECORRIDO_ABIERTO</text></g><g class="entity" data-qualified-name="ListRegiones" data-source-line="11" id="ent0007"><rect fill="#F1F1F1" height="50" rx="12.5" ry="12.5" style="stroke:#181818;stroke-width:0.5;" width="161.2305" x="793.94" y="409"/><line style="stroke:#181818;stroke-width:0.5;" x1="793.94" x2="955.1705" y1="435.2969" y2="435.2969"/><text fill="#000000" font-family="sans-serif" font-size="14" lengthAdjust="spacing" textLength="141.2305" x="803.94" y="426.9951">REGIONES_ABIERTO</text></g><g class="entity" data-qualified-name="EditRegion" data-source-line="12" id="ent0008"><rect fill="#F1F1F1" height="50" rx="12.5" ry="12.5" style="stroke:#181818;stroke-width:0.5;" width="143.498" x="1153.46" y="410"/><line style="stroke:#181818;stroke-width:0.5;" x1="1153.46" x2="1296.958" y1="436.2969" y2="436.2969"/><text fill="#000000" font-family="sans-serif" font-size="14" lengthAdjust="spacing" textLength="123.498" x="1163.46" y="427.9951">REGION_ABIERTO</text></g><g class="entity" data-qualified-name="ListPlantas" data-source-line="13" id="ent0009"><rect fill="#F1F1F1" height="50" rx="12.5" ry="12.5" style="stroke:#181818;stroke-width:0.5;" width="151.7627" x="798.68" y="539"/><line style="stroke:#181818;stroke-width:0.5;" x1="798.68" x2="950.4427" y1="565.2969" y2="565.2969"/><text fill="#000000" font-family="sans-serif" font-size="14" lengthAdjust="spacing" textLength="131.7627" x="808.68" y="556.9951">PLANTAS_ABIERTO</text></g><g class="entity" data-qualified-name="EditPlanta" data-source-line="14" id="ent0010"><rect fill="#F1F1F1" height="50" rx="12.5" ry="12.5" style="stroke:#181818;stroke-width:0.5;" width="142.876" x="1153.77" y="581"/><line style="stroke:#181818;stroke-width:0.5;" x1="1153.77" x2="1296.646" y1="607.2969" y2="607.2969"/><text fill="#000000" font-family="sans-serif" font-size="14" lengthAdjust="spacing" textLength="122.876" x="1163.77" y="598.9951">PLANTA_ABIERTO</text></g><g class="start_entity" data-qualified-name=".start." data-source-line="16" id="ent0011"><ellipse cx="16" cy="352" fill="#222222" rx="10" ry="10" style="stroke:#222222;stroke-width:1;"/></g><!--link *start* to NoAuth--><g class="link" data-entity-1="ent0011" data-entity-2="ent0001" data-link-type="dependency" data-source-line="16" id="lnk12"><path d="M26.36,352 C39,352 57.73,352 81.69,352" fill="none" id="*start*-to-NoAuth" style="stroke:#181818;stroke-width:1;"/><polygon fill="#181818" points="86.69,352,77.69,348,81.69,352,77.69,356,86.69,352" style="stroke:#181818;stroke-width:1;stroke-linejoin:miter;stroke-miterlimit:10;"/></g><!--link NoAuth to Menu--><g class="link" data-entity-1="ent0001" data-entity-2="ent0002" data-link-type="dependency" data-source-line="18" id="lnk13"><path d="M234.4,352 C279.45,352 333,352 382.83,352" fill="none" id="NoAuth-to-Menu" style="stroke:#181818;stroke-width:1;"/><polygon fill="#181818" points="387.83,352,378.83,348,382.83,352,378.83,356,387.83,352" style="stroke:#181818;stroke-width:1;stroke-linejoin:miter;stroke-miterlimit:10;"/><text fill="#000000" font-family="sans-serif" font-size="13" lengthAdjust="spacing" textLength="92.5044" x="265.25" y="348.0669">iniciarSesion()</text></g><!--link Menu to NoAuth--><g class="link" data-entity-1="ent0002" data-entity-2="ent0001" data-link-type="dependency" data-source-line="20" id="lnk14"><path d="M387.8,371.45 C370.61,374.68 358.25,377 358.25,377 C358.25,377 264.25,377 264.25,377 C264.25,377 256.138,375.0232 239.428,370.9532" fill="none" id="Menu-to-NoAuth" style="stroke:#181818;stroke-width:1;"/><polygon fill="#181818" points="234.57,369.77,242.3678,375.7862,239.428,370.9532,244.261,368.0135,234.57,369.77" style="stroke:#181818;stroke-width:1;stroke-linejoin:miter;stroke-miterlimit:10;"/><text fill="#000000" font-family="sans-serif" font-size="13" lengthAdjust="spacing" textLength="92.1172" x="265.25" y="373.0669">cerrarSesion()</text></g><!--link Menu to ListEspacios--><g class="link" data-entity-1="ent0002" data-entity-2="ent0003" data-link-type="dependency" data-source-line="21" id="lnk15"><path d="M513.89,326.73 C551.24,280.73 626.51,188 626.51,188 C626.51,188 717.7712,173.5897 790.1112,162.1697" fill="none" id="Menu-to-ListEspacios" style="stroke:#181818;stroke-width:1;"/><polygon fill="#181818" points="795.05,161.39,785.5364,158.8423,790.1112,162.1697,786.7838,166.7445,795.05,161.39" style="stroke:#181818;stroke-width:1;stroke-linejoin:miter;stroke-miterlimit:10;"/><text fill="#000000" font-family="sans-serif" font-size="13" lengthAdjust="spacing" textLength="97.354" x="641.51" y="165.0669">abrirEspacios()</text></g><!--link ListEspacios to Menu--><g class="link" data-entity-1="ent0003" data-entity-2="ent0002" data-link-type="dependency" data-source-line="56" id="lnk39"><path d="M820.4,174.39 C800.9,183.7 783.51,192 783.51,192 C783.51,192 753.51,213 753.51,213 C753.51,213 626.51,267 626.51,267 C626.51,267 576.424,298.9788 537.184,324.0388" fill="none" id="ListEspacios-to-Menu" style="stroke:#181818;stroke-width:1;"/><polygon fill="#181818" points="532.97,326.73,542.7081,325.257,537.184,324.0388,538.4022,318.5147,532.97,326.73" style="stroke:#181818;stroke-width:1;stroke-linejoin:miter;stroke-miterlimit:10;"/><text fill="#000000" font-family="sans-serif" font-size="13" lengthAdjust="spacing" textLength="125.9248" x="627.51" y="209.0669">completarGestion()</text></g><!--link Menu to ListRecorridos--><g class="link" data-entity-1="ent0002" data-entity-2="ent0005" data-link-type="dependency" data-source-line="22" id="lnk16"><path d="M565.4,326.57 C596.77,315.5 626.51,305 626.51,305 C626.51,305 707.7774,296.4428 778.3474,289.0228" fill="none" id="Menu-to-ListRecorridos" style="stroke:#181818;stroke-width:1;"/><polygon fill="#181818" points="783.32,288.5,773.9511,285.463,778.3474,289.0228,774.7876,293.4192,783.32,288.5" style="stroke:#181818;stroke-width:1;stroke-linejoin:miter;stroke-miterlimit:10;"/><text fill="#000000" font-family="sans-serif" font-size="13" lengthAdjust="spacing" textLength="110.0747" x="635.01" y="288.0669">abrirRecorridos()</text></g><!--link ListRecorridos to Menu--><g class="link" data-entity-1="ent0005" data-entity-2="ent0002" data-link-type="dependency" data-source-line="57" id="lnk40"><path d="M813.89,304.35 C783.76,317.15 753.51,330 753.51,330 C753.51,330 674.4622,336.689 601.9222,342.819" fill="none" id="ListRecorridos-to-Menu" style="stroke:#181818;stroke-width:1;"/><polygon fill="#181818" points="596.94,343.24,606.2449,346.4679,601.9222,342.819,605.5712,338.4964,596.94,343.24" style="stroke:#181818;stroke-width:1;stroke-linejoin:miter;stroke-miterlimit:10;"/><text fill="#000000" font-family="sans-serif" font-size="13" lengthAdjust="spacing" textLength="125.9248" x="627.51" y="326.0669">completarGestion()</text></g><!--link Menu to ListRegiones--><g class="link" data-entity-1="ent0002" data-entity-2="ent0007" data-link-type="dependency" data-source-line="23" id="lnk17"><path d="M596.76,374.3 C658.77,387.67 731.5524,403.376 788.8224,415.726" fill="none" id="Menu-to-ListRegiones" style="stroke:#181818;stroke-width:1;"/><polygon fill="#181818" points="793.71,416.78,785.7554,410.9727,788.8224,415.726,784.069,418.7929,793.71,416.78" style="stroke:#181818;stroke-width:1;stroke-linejoin:miter;stroke-miterlimit:10;"/><text fill="#000000" font-family="sans-serif" font-size="13" lengthAdjust="spacing" textLength="100.5215" x="640.01" y="376.0669">abrirRegiones()</text></g><!--link ListRegiones to Menu--><g class="link" data-entity-1="ent0007" data-entity-2="ent0002" data-link-type="dependency" data-source-line="58" id="lnk41"><path d="M793.69,433.35 C721.51,432.77 626.51,432 626.51,432 C626.51,432 578.7955,403.3257 539.7955,379.8857" fill="none" id="ListRegiones-to-Menu" style="stroke:#181818;stroke-width:1;"/><polygon fill="#181818" points="535.51,377.31,541.1634,385.3747,539.7955,379.8857,545.2845,378.5179,535.51,377.31" style="stroke:#181818;stroke-width:1;stroke-linejoin:miter;stroke-miterlimit:10;"/><text fill="#000000" font-family="sans-serif" font-size="13" lengthAdjust="spacing" textLength="125.9248" x="627.51" y="428.0669">completarGestion()</text></g><!--link Menu to ListPlantas--><g class="link" data-entity-1="ent0002" data-entity-2="ent0009" data-link-type="dependency" data-source-line="24" id="lnk18"><path d="M525.27,377.39 C564.66,408.75 626.51,458 626.51,458 C626.51,458 736.7051,505.2785 809.7951,536.6385" fill="none" id="Menu-to-ListPlantas" style="stroke:#181818;stroke-width:1;"/><polygon fill="#181818" points="814.39,538.61,807.6964,531.3854,809.7951,536.6385,804.542,538.7372,814.39,538.61" style="stroke:#181818;stroke-width:1;stroke-linejoin:miter;stroke-miterlimit:10;"/><text fill="#000000" font-family="sans-serif" font-size="13" lengthAdjust="spacing" textLength="88.1563" x="646.01" y="454.0669">abrirPlantas()</text></g><!--link ListPlantas to Menu--><g class="link" data-entity-1="ent0009" data-entity-2="ent0002" data-link-type="dependency" data-source-line="59" id="lnk42"><path d="M798.43,555.49 C725.75,547.25 626.51,536 626.51,536 C626.51,536 551.0115,431.6404 514.5415,381.2504" fill="none" id="ListPlantas-to-Menu" style="stroke:#181818;stroke-width:1;"/><polygon fill="#181818" points="511.61,377.2,513.6464,386.836,514.5415,381.2504,520.1271,382.1456,511.61,377.2" style="stroke:#181818;stroke-width:1;stroke-linejoin:miter;stroke-miterlimit:10;"/><text fill="#000000" font-family="sans-serif" font-size="13" lengthAdjust="spacing" textLength="125.9248" x="627.51" y="532.0669">completarGestion()</text></g><!--link ListEspacios to EditEspacio--><g class="link" data-entity-1="ent0003" data-entity-2="ent0004" data-link-type="dependency" data-source-line="27" id="lnk19"><path d="M916.87,123.53 C951.6,102.13 995.61,75 995.61,75 C995.61,75 1108.61,75 1108.61,75 C1108.61,75 1122.7496,77.2 1145.3996,80.73" fill="none" id="ListEspacios-to-EditEspacio" style="stroke:#181818;stroke-width:1;"/><polygon fill="#181818" points="1150.34,81.5,1142.0633,76.1618,1145.3996,80.73,1140.8314,84.0664,1150.34,81.5" style="stroke:#181818;stroke-width:1;stroke-linejoin:miter;stroke-miterlimit:10;"/><text fill="#000000" font-family="sans-serif" font-size="13" lengthAdjust="spacing" textLength="93.8628" x="1005.61" y="71.0669">crearEspacio()</text></g><!--link ListEspacios to EditEspacio--><g class="link" data-entity-1="ent0003" data-entity-2="ent0004" data-link-type="dependency" data-source-line="28" id="lnk20"><path d="M953.8,136.43 C1012.63,126.98 1087.7433,114.9229 1145.4633,105.6529" fill="none" id="ListEspacios-to-EditEspacio-1" style="stroke:#181818;stroke-width:1;"/><polygon fill="#181818" points="1150.4,104.86,1140.8796,102.3377,1145.4633,105.6529,1142.1482,110.2365,1150.4,104.86" style="stroke:#181818;stroke-width:1;stroke-linejoin:miter;stroke-miterlimit:10;"/><text fill="#000000" font-family="sans-serif" font-size="13" lengthAdjust="spacing" textLength="98.3315" x="1003.11" y="109.0669">editarEspacio()</text></g><!--link EditEspacio to ListEspacios--><g class="link" data-entity-1="ent0004" data-entity-2="ent0003" data-link-type="dependency" data-source-line="32" id="lnk23"><path d="M1176.86,118.4 C1144.93,135.52 1108.61,155 1108.61,155 C1108.61,155 995.61,155 995.61,155 C995.61,155 981.7338,154.3099 958.9538,153.1699" fill="none" id="EditEspacio-to-ListEspacios" style="stroke:#181818;stroke-width:1;"/><polygon fill="#181818" points="953.96,152.92,962.7488,157.3648,958.9538,153.1699,963.1487,149.3748,953.96,152.92" style="stroke:#181818;stroke-width:1;stroke-linejoin:miter;stroke-miterlimit:10;"/><text fill="#000000" font-family="sans-serif" font-size="13" lengthAdjust="spacing" textLength="97.354" x="1003.61" y="151.0669">abrirEspacios()</text></g><!--link ListEspacios to ListEspacios--><g class="link" data-entity-1="ent0003" data-entity-2="ent0003" data-link-type="dependency" data-source-line="29" id="lnk21"><path d="M844.52,123.72 C835.42,106.23 845.43,89 874.56,89 C903.69,89 916.0078,101.7945 906.9078,119.2845" fill="none" id="ListEspacios-to-ListEspacios" style="stroke:#181818;stroke-width:1;"/><polygon fill="#181818" points="904.6,123.72,912.3025,117.5823,906.9078,119.2845,905.2056,113.8898,904.6,123.72" style="stroke:#181818;stroke-width:1;stroke-linejoin:miter;stroke-miterlimit:10;"/><text fill="#000000" font-family="sans-serif" font-size="13" lengthAdjust="spacing" textLength="113.1089" x="818.06" y="80.0669">eliminarEspacio()</text></g><!--link EditEspacio to EditEspacio--><g class="link" data-entity-1="ent0004" data-entity-2="ent0004" data-link-type="dependency" data-source-line="31" id="lnk22"><path d="M1195.92,67.72 C1187.05,50.23 1196.81,33 1225.21,33 C1253.61,33 1265.6315,45.7707 1256.7615,63.2607" fill="none" id="EditEspacio-to-EditEspacio" style="stroke:#181818;stroke-width:1;"/><polygon fill="#181818" points="1254.5,67.72,1262.1382,61.5025,1256.7615,63.2607,1255.0033,57.884,1254.5,67.72" style="stroke:#181818;stroke-width:1;stroke-linejoin:miter;stroke-miterlimit:10;"/><text fill="#000000" font-family="sans-serif" font-size="13" lengthAdjust="spacing" textLength="98.3315" x="1176.21" y="24.0669">editarEspacio()</text></g><!--link ListRecorridos to EditRecorrido--><g class="link" data-entity-1="ent0005" data-entity-2="ent0006" data-link-type="dependency" data-source-line="34" id="lnk24"><path d="M965.93,254.16 C982.99,249.47 995.61,246 995.61,246 C995.61,246 1108.61,246 1108.61,246 C1108.61,246 1116.4099,247.2084 1133.4399,249.8684" fill="none" id="ListRecorridos-to-EditRecorrido" style="stroke:#181818;stroke-width:1;"/><polygon fill="#181818" points="1138.38,250.64,1130.1051,245.299,1133.4399,249.8684,1128.8705,253.2032,1138.38,250.64" style="stroke:#181818;stroke-width:1;stroke-linejoin:miter;stroke-miterlimit:10;"/><text fill="#000000" font-family="sans-serif" font-size="13" lengthAdjust="spacing" textLength="106.5835" x="999.11" y="242.0669">crearRecorrido()</text></g><!--link ListRecorridos to EditRecorrido--><g class="link" data-entity-1="ent0005" data-entity-2="ent0006" data-link-type="dependency" data-source-line="35" id="lnk25"><path d="M966,275.9 C1031.5,273.65 1108.61,271 1108.61,271 C1108.61,271 1116.3591,270.5319 1133.3891,269.5019" fill="none" id="ListRecorridos-to-EditRecorrido-1" style="stroke:#181818;stroke-width:1;"/><polygon fill="#181818" points="1138.38,269.2,1129.1549,265.7506,1133.3891,269.5019,1129.6379,273.736,1138.38,269.2" style="stroke:#181818;stroke-width:1;stroke-linejoin:miter;stroke-miterlimit:10;"/><text fill="#000000" font-family="sans-serif" font-size="13" lengthAdjust="spacing" textLength="111.0522" x="996.61" y="267.0669">editarRecorrido()</text></g><!--link EditRecorrido to ListRecorridos--><g class="link" data-entity-1="ent0006" data-entity-2="ent0005" data-link-type="dependency" data-source-line="39" id="lnk28"><path d="M1140.2,289.44 C1122.27,294.86 1108.61,299 1108.61,299 C1108.61,299 995.61,299 995.61,299 C995.61,299 987.9221,297.7211 970.8621,294.8811" fill="none" id="EditRecorrido-to-ListRecorridos" style="stroke:#181818;stroke-width:1;"/><polygon fill="#181818" points="965.93,294.06,974.151,299.4836,970.8621,294.8811,975.4647,291.5922,965.93,294.06" style="stroke:#181818;stroke-width:1;stroke-linejoin:miter;stroke-miterlimit:10;"/><text fill="#000000" font-family="sans-serif" font-size="13" lengthAdjust="spacing" textLength="110.0747" x="997.11" y="295.0669">abrirRecorridos()</text></g><!--link ListRecorridos to ListRecorridos--><g class="link" data-entity-1="ent0005" data-entity-2="ent0005" data-link-type="dependency" data-source-line="36" id="lnk26"><path d="M844.52,253.72 C835.42,236.23 845.43,219 874.56,219 C903.69,219 916.0078,231.7945 906.9078,249.2845" fill="none" id="ListRecorridos-to-ListRecorridos" style="stroke:#181818;stroke-width:1;"/><polygon fill="#181818" points="904.6,253.72,912.3025,247.5823,906.9078,249.2845,905.2056,243.8898,904.6,253.72" style="stroke:#181818;stroke-width:1;stroke-linejoin:miter;stroke-miterlimit:10;"/><text fill="#000000" font-family="sans-serif" font-size="13" lengthAdjust="spacing" textLength="125.8296" x="812.06" y="210.0669">eliminarRecorrido()</text></g><!--link EditRecorrido to EditRecorrido--><g class="link" data-entity-1="ent0006" data-entity-2="ent0006" data-link-type="dependency" data-source-line="38" id="lnk27"><path d="M1195.92,238.72 C1187.05,221.23 1196.81,204 1225.21,204 C1253.61,204 1265.6315,216.7707 1256.7615,234.2607" fill="none" id="EditRecorrido-to-EditRecorrido" style="stroke:#181818;stroke-width:1;"/><polygon fill="#181818" points="1254.5,238.72,1262.1382,232.5025,1256.7615,234.2607,1255.0033,228.884,1254.5,238.72" style="stroke:#181818;stroke-width:1;stroke-linejoin:miter;stroke-miterlimit:10;"/><text fill="#000000" font-family="sans-serif" font-size="13" lengthAdjust="spacing" textLength="111.0522" x="1169.71" y="195.0669">editarRecorrido()</text></g><!--link ListRegiones to EditRegion--><g class="link" data-entity-1="ent0007" data-entity-2="ent0008" data-link-type="dependency" data-source-line="41" id="lnk29"><path d="M955.63,422.66 C977.65,419.54 995.61,417 995.61,417 C995.61,417 1108.61,417 1108.61,417 C1108.61,417 1124.2397,419.4296 1148.0297,423.1396" fill="none" id="ListRegiones-to-EditRegion" style="stroke:#181818;stroke-width:1;"/><polygon fill="#181818" points="1152.97,423.91,1144.6938,418.571,1148.0297,423.1396,1143.4611,426.4755,1152.97,423.91" style="stroke:#181818;stroke-width:1;stroke-linejoin:miter;stroke-miterlimit:10;"/><text fill="#000000" font-family="sans-serif" font-size="13" lengthAdjust="spacing" textLength="89.0322" x="1007.61" y="413.0669">crearRegion()</text></g><!--link ListRegiones to EditRegion--><g class="link" data-entity-1="ent0007" data-entity-2="ent0008" data-link-type="dependency" data-source-line="42" id="lnk30"><path d="M955.63,439.34 C977.65,440.8 995.61,442 995.61,442 C995.61,442 1108.61,442 1108.61,442 C1108.61,442 1124.1891,441.0521 1147.9791,439.6121" fill="none" id="ListRegiones-to-EditRegion-1" style="stroke:#181818;stroke-width:1;"/><polygon fill="#181818" points="1152.97,439.31,1143.7448,435.8611,1147.9791,439.6121,1144.2281,443.8465,1152.97,439.31" style="stroke:#181818;stroke-width:1;stroke-linejoin:miter;stroke-miterlimit:10;"/><text fill="#000000" font-family="sans-serif" font-size="13" lengthAdjust="spacing" textLength="93.501" x="1005.61" y="438.0669">editarRegion()</text></g><!--link EditRegion to ListRegiones--><g class="link" data-entity-1="ent0008" data-entity-2="ent0007" data-link-type="dependency" data-source-line="46" id="lnk33"><path d="M1152.97,454.72 C1129.18,461.3 1108.61,467 1108.61,467 C1108.61,467 995.61,467 995.61,467 C995.61,467 982.4713,463.3847 960.4513,457.3347" fill="none" id="EditRegion-to-ListRegiones" style="stroke:#181818;stroke-width:1;"/><polygon fill="#181818" points="955.63,456.01,963.2487,462.2515,960.4513,457.3347,965.3681,454.5373,955.63,456.01" style="stroke:#181818;stroke-width:1;stroke-linejoin:miter;stroke-miterlimit:10;"/><text fill="#000000" font-family="sans-serif" font-size="13" lengthAdjust="spacing" textLength="100.5215" x="1002.11" y="463.0669">abrirRegiones()</text></g><!--link ListRegiones to ListRegiones--><g class="link" data-entity-1="ent0007" data-entity-2="ent0007" data-link-type="dependency" data-source-line="43" id="lnk31"><path d="M844.52,408.72 C835.42,391.23 845.43,374 874.56,374 C903.69,374 916.0078,386.7945 906.9078,404.2845" fill="none" id="ListRegiones-to-ListRegiones" style="stroke:#181818;stroke-width:1;"/><polygon fill="#181818" points="904.6,408.72,912.3025,402.5823,906.9078,404.2845,905.2056,398.8898,904.6,408.72" style="stroke:#181818;stroke-width:1;stroke-linejoin:miter;stroke-miterlimit:10;"/><text fill="#000000" font-family="sans-serif" font-size="13" lengthAdjust="spacing" textLength="108.2783" x="820.56" y="365.0669">eliminarRegion()</text></g><!--link EditRegion to EditRegion--><g class="link" data-entity-1="ent0008" data-entity-2="ent0008" data-link-type="dependency" data-source-line="45" id="lnk32"><path d="M1195.92,409.72 C1187.05,392.23 1196.81,375 1225.21,375 C1253.61,375 1265.6315,387.7707 1256.7615,405.2607" fill="none" id="EditRegion-to-EditRegion" style="stroke:#181818;stroke-width:1;"/><polygon fill="#181818" points="1254.5,409.72,1262.1382,403.5025,1256.7615,405.2607,1255.0033,399.884,1254.5,409.72" style="stroke:#181818;stroke-width:1;stroke-linejoin:miter;stroke-miterlimit:10;"/><text fill="#000000" font-family="sans-serif" font-size="13" lengthAdjust="spacing" textLength="93.501" x="1178.71" y="366.0669">editarRegion()</text></g><!--link ListPlantas to EditPlanta--><g class="link" data-entity-1="ent0009" data-entity-2="ent0010" data-link-type="dependency" data-source-line="48" id="lnk34"><path d="M950.9,571.76 C1018.99,578.77 1108.61,588 1108.61,588 C1108.61,588 1124.4297,590.4599 1148.3597,594.1899" fill="none" id="ListPlantas-to-EditPlanta" style="stroke:#181818;stroke-width:1;"/><polygon fill="#181818" points="1153.3,594.96,1145.0234,589.6216,1148.3597,594.1899,1143.7913,597.5262,1153.3,594.96" style="stroke:#181818;stroke-width:1;stroke-linejoin:miter;stroke-miterlimit:10;"/><text fill="#000000" font-family="sans-serif" font-size="13" lengthAdjust="spacing" textLength="84.665" x="1010.11" y="572.0669">crearPlanta()</text></g><!--link ListPlantas to EditPlanta--><g class="link" data-entity-1="ent0009" data-entity-2="ent0010" data-link-type="dependency" data-source-line="49" id="lnk35"><path d="M937.69,589.36 C966.99,601.32 995.61,613 995.61,613 C995.61,613 1108.61,613 1108.61,613 C1108.61,613 1124.3792,612.0424 1148.3092,610.5924" fill="none" id="ListPlantas-to-EditPlanta-1" style="stroke:#181818;stroke-width:1;"/><polygon fill="#181818" points="1153.3,610.29,1144.0745,606.8417,1148.3092,610.5924,1144.5584,614.827,1153.3,610.29" style="stroke:#181818;stroke-width:1;stroke-linejoin:miter;stroke-miterlimit:10;"/><text fill="#000000" font-family="sans-serif" font-size="13" lengthAdjust="spacing" textLength="89.1338" x="1007.61" y="609.0669">editarPlanta()</text></g><!--link EditPlanta to ListPlantas--><g class="link" data-entity-1="ent0010" data-entity-2="ent0009" data-link-type="dependency" data-source-line="53" id="lnk38"><path d="M1153.3,625.63 C1129.37,632.25 1108.61,638 1108.61,638 C1108.61,638 995.61,638 995.61,638 C995.61,638 955.8568,613.4929 921.1268,592.0929" fill="none" id="EditPlanta-to-ListPlantas" style="stroke:#181818;stroke-width:1;"/><polygon fill="#181818" points="916.87,589.47,922.4338,597.5967,921.1268,592.0929,926.6306,590.7859,916.87,589.47" style="stroke:#181818;stroke-width:1;stroke-linejoin:miter;stroke-miterlimit:10;"/><text fill="#000000" font-family="sans-serif" font-size="13" lengthAdjust="spacing" textLength="88.1563" x="1008.11" y="634.0669">abrirPlantas()</text></g><!--link ListPlantas to ListPlantas--><g class="link" data-entity-1="ent0009" data-entity-2="ent0009" data-link-type="dependency" data-source-line="50" id="lnk36"><path d="M844.52,538.72 C835.42,521.23 845.43,504 874.56,504 C903.69,504 916.0078,516.7945 906.9078,534.2845" fill="none" id="ListPlantas-to-ListPlantas" style="stroke:#181818;stroke-width:1;"/><polygon fill="#181818" points="904.6,538.72,912.3025,532.5823,906.9078,534.2845,905.2056,528.8898,904.6,538.72" style="stroke:#181818;stroke-width:1;stroke-linejoin:miter;stroke-miterlimit:10;"/><text fill="#000000" font-family="sans-serif" font-size="13" lengthAdjust="spacing" textLength="103.9111" x="823.06" y="495.0669">eliminarPlanta()</text></g><!--link EditPlanta to EditPlanta--><g class="link" data-entity-1="ent0010" data-entity-2="ent0010" data-link-type="dependency" data-source-line="52" id="lnk37"><path d="M1195.92,580.72 C1187.05,563.23 1196.81,546 1225.21,546 C1253.61,546 1265.6315,558.7707 1256.7615,576.2607" fill="none" id="EditPlanta-to-EditPlanta" style="stroke:#181818;stroke-width:1;"/><polygon fill="#181818" points="1254.5,580.72,1262.1382,574.5025,1256.7615,576.2607,1255.0033,570.884,1254.5,580.72" style="stroke:#181818;stroke-width:1;stroke-linejoin:miter;stroke-miterlimit:10;"/><text fill="#000000" font-family="sans-serif" font-size="13" lengthAdjust="spacing" textLength="89.1338" x="1180.71" y="537.0669">editarPlanta()</text></g><?plantuml-src bPDDReCm48NtFeMLLLkf5yYY4WbMX9H216atLHMvn4si4a2siyZjQ_0FDWHeLzQCldcUUHuNv5j0KK56JsS1ZvIHND2g1Fo7bZLc-08BMX9ngmcig-BM101mWGM1YmnbKH8VrYXDWp1OGCnXN0LNSJR0MnozepIBmY0yX56sI-9ejKKj-4hAgnL2sIvOHqbs25OHIlT9Ismf5uZNEASLxu4UXuxKS0PBqJf9qoYyevYIl6AC7ZjD2mzKBTkX6pamkgTwagOHxeDt14-jjmhQRODu7mp5TWKk1UO-Dj1I500VJv_m-Vd5E0_KsQOQZ-4IqfBc5BECS7dvmoC0RRwhaKXE67C82xXli8JuYr5cmZxM6Ql1BZ54bLiML64VqpveIaTD_y1jgyMT7P33C89DcnAVXeaC9cdV0bBG2otT0k38pSltuMc3WM-ibRSfFQoDzG3J9QgdcPh-avh1tJBW2V_jgc79_F80TscSQvg4TU2aLdSIDUsCiVvoTYDh7dHQSz8zSdhhWRFjLbZ5UZmLw9R7IDN2AEfzAJERfK6dD2VS8__vLPilBgUgBdL1fEg6SE6-XhU4CwppSfEawy8O-0i0?></g></svg>