<svg xmlns="http://www.w3.org/2000/svg" xmlns:xlink="http://www.w3.org/1999/xlink" contentStyleType="text/css" data-diagram-type="STATE" height="322px" preserveAspectRatio="none" style="width:1711px;height:322px;background:#FFFFFF;" version="1.1" viewBox="0 0 1711 322" width="1711px" zoomAndPan="magnify"><defs/><g><g id="NoAuth"><rect fill="#F1F1F1" height="50" rx="12.5" ry="12.5" style="stroke:#181818;stroke-width:0.5;" width="147.251" x="87" y="208"/><line style="stroke:#181818;stroke-width:0.5;" x1="87" x2="234.251" y1="234.2969" y2="234.2969"/><text fill="#000000" font-family="sans-serif" font-size="14" lengthAdjust="spacing" textLength="127.251" x="97" y="225.9951">SESION_CERRADA</text></g><g id="Universidad"><rect fill="#F1F1F1" height="50" rx="12.5" ry="12.5" style="stroke:#181818;stroke-width:0.5;" width="208.2617" x="381" y="208"/><line style="stroke:#181818;stroke-width:0.5;" x1="381" x2="589.2617" y1="234.2969" y2="234.2969"/><text fill="#000000" font-family="sans-serif" font-size="14" lengthAdjust="spacing" textLength="188.2617" x="391" y="225.9951">UNIVERSIDAD_DISPONIBLE</text></g><g id="ListRecorridos"><rect fill="#F1F1F1" height="50" rx="12.5" ry="12.5" style="stroke:#181818;stroke-width:0.5;" width="190.9805" x="768" y="208"/><line style="stroke:#181818;stroke-width:0.5;" x1="768" x2="958.9805" y1="234.2969" y2="234.2969"/><text fill="#000000" font-family="sans-serif" font-size="14" lengthAdjust="spacing" textLength="170.9805" x="778" y="225.9951">RECORRIDOS_ABIERTOS</text></g><g id="Recorrido"><rect fill="#F1F1F1" height="50" rx="12.5" ry="12.5" style="stroke:#181818;stroke-width:0.5;" width="173.207" x="1167" y="208"/><line style="stroke:#181818;stroke-width:0.5;" x1="1167" x2="1340.207" y1="234.2969" y2="234.2969"/><text fill="#000000" font-family="sans-serif" font-size="14" lengthAdjust="spacing" textLength="153.207" x="1177" y="225.9951">RECORRIDO_ABIERTO</text></g><g id="Espacio"><rect fill="#F1F1F1" height="50" rx="12.5" ry="12.5" style="stroke:#181818;stroke-width:0.5;" width="149.1309" x="1550" y="208"/><line style="stroke:#181818;stroke-width:0.5;" x1="1550" x2="1699.1309" y1="234.2969" y2="234.2969"/><text fill="#000000" font-family="sans-serif" font-size="14" lengthAdjust="spacing" textLength="129.1309" x="1560" y="225.9951">ESPACIO_ABIERTO</text></g><ellipse cx="16" cy="233" fill="#222222" rx="10" ry="10" style="stroke:#222222;stroke-width:1;"/><!--link *start* to NoAuth--><g class="link" data-entity-1=".start." data-entity-2="NoAuth" data-source-line="11" data-uid="lnk3" id="link_.start._NoAuth"><path d="M26.35,233 C39.04,233 56.92,233 80.98,233" fill="none" id="*start*-to-NoAuth" style="stroke:#181818;stroke-width:1;"/><polygon fill="#181818" points="86.98,233,77.98,229,81.98,233,77.98,237,86.98,233" style="stroke:#181818;stroke-width:1;"/></g><!--link NoAuth to Universidad--><g class="link" data-entity-1="NoAuth" data-entity-2="Universidad" data-source-line="14" data-uid="lnk4" id="link_NoAuth_Universidad"><path d="M234.28,233 C277.56,233 327.17,233 374.92,233" fill="none" id="NoAuth-to-Universidad" style="stroke:#181818;stroke-width:1;"/><polygon fill="#181818" points="380.92,233,371.92,229,375.92,233,371.92,237,380.92,233" style="stroke:#181818;stroke-width:1;"/><text fill="#000000" font-family="sans-serif" font-size="13" lengthAdjust="spacing" textLength="85.6299" x="265" y="229.0669">iniciarVisita()</text></g><!--link Universidad to NoAuth--><g class="link" data-entity-1="Universidad" data-entity-2="NoAuth" data-source-line="15" data-uid="lnk5" id="link_Universidad_NoAuth"><path d="M380.85,252.39 C363.51,255.65 351,258 351,258 C351,258 264,258 264,258 C264,258 256.7387,256.2334 239.9087,252.1234" fill="none" id="Universidad-to-NoAuth" style="stroke:#181818;stroke-width:1;"/><polygon fill="#181818" points="234.08,250.7,241.8741,256.7209,238.9373,251.8862,243.772,248.9493,234.08,250.7" style="stroke:#181818;stroke-width:1;"/><text fill="#000000" font-family="sans-serif" font-size="13" lengthAdjust="spacing" textLength="37.4512" x="289" y="254.0669">salir()</text></g><!--link Universidad to ListRecorridos--><g class="link" data-entity-1="Universidad" data-entity-2="ListRecorridos" data-source-line="18" data-uid="lnk6" id="link_Universidad_ListRecorridos"><path d="M589.38,233 C645.11,233 707.39,233 761.74,233" fill="none" id="Universidad-to-ListRecorridos" style="stroke:#181818;stroke-width:1;"/><polygon fill="#181818" points="767.74,233,758.74,229,762.74,233,758.74,237,767.74,233" style="stroke:#181818;stroke-width:1;"/><text fill="#000000" font-family="sans-serif" font-size="13" lengthAdjust="spacing" textLength="111.96" x="623" y="229.0669">listarRecorridos()</text></g><!--link ListRecorridos to Universidad--><g class="link" data-entity-1="ListRecorridos" data-entity-2="Universidad" data-source-line="19" data-uid="lnk7" id="link_ListRecorridos_Universidad"><path d="M767.82,252.01 C750.62,255.47 738,258 738,258 C738,258 619,258 619,258 C619,258 612.3867,256.7586 595.0467,253.4986" fill="none" id="ListRecorridos-to-Universidad" style="stroke:#181818;stroke-width:1;"/><polygon fill="#181818" points="589.15,252.39,597.256,257.984,594.0639,253.3138,598.7341,250.1218,589.15,252.39" style="stroke:#181818;stroke-width:1;"/><text fill="#000000" font-family="sans-serif" font-size="13" lengthAdjust="spacing" textLength="117.9204" x="620" y="254.0669">abrirUniversidad()</text></g><!--link ListRecorridos to Recorrido--><g class="link" data-entity-1="ListRecorridos" data-entity-2="Recorrido" data-source-line="22" data-uid="lnk8" id="link_ListRecorridos_Recorrido"><path d="M959.42,233 C1022.79,233 1099.46,233 1160.83,233" fill="none" id="ListRecorridos-to-Recorrido" style="stroke:#181818;stroke-width:1;"/><polygon fill="#181818" points="1166.83,233,1157.83,229,1161.83,233,1157.83,237,1166.83,233" style="stroke:#181818;stroke-width:1;"/><text fill="#000000" font-family="sans-serif" font-size="13" lengthAdjust="spacing" textLength="146.5737" x="990" y="229.0669">seleccionarRecorrido()</text></g><!--link Recorrido to ListRecorridos--><g class="link" data-entity-1="Recorrido" data-entity-2="ListRecorridos" data-source-line="23" data-uid="lnk9" id="link_Recorrido_ListRecorridos"><path d="M1166.74,251.56 C1149.73,255.24 1137,258 1137,258 C1137,258 989,258 989,258 C989,258 982.2622,256.6533 965.0622,253.1933" fill="none" id="Recorrido-to-ListRecorridos" style="stroke:#181818;stroke-width:1;"/><polygon fill="#181818" points="959.18,252.01,967.2144,257.7064,964.0818,252.9961,968.7921,249.8635,959.18,252.01" style="stroke:#181818;stroke-width:1;"/><text fill="#000000" font-family="sans-serif" font-size="13" lengthAdjust="spacing" textLength="111.96" x="1007.5" y="254.0669">listarRecorridos()</text></g><!--link Recorrido to Espacio--><g class="link" data-entity-1="Recorrido" data-entity-2="Espacio" data-source-line="26" data-uid="lnk10" id="link_Recorrido_Espacio"><path d="M1276.5,207.86 C1310.01,169.56 1370,101 1370,101 C1370,101 1520,101 1520,101 C1520,101 1570.0579,164.8383 1600.0879,203.1383" fill="none" id="Recorrido-to-Espacio" style="stroke:#181818;stroke-width:1;"/><polygon fill="#181818" points="1603.79,207.86,1601.3846,198.3094,1600.7049,203.9253,1595.089,203.2456,1603.79,207.86" style="stroke:#181818;stroke-width:1;"/><text fill="#000000" font-family="sans-serif" font-size="13" lengthAdjust="spacing" textLength="103.7842" x="1393.5" y="97.0669">buscarEspacio()</text></g><!--link Recorrido to Espacio--><g class="link" data-entity-1="Recorrido" data-entity-2="Espacio" data-source-line="27" data-uid="lnk11" id="link_Recorrido_Espacio"><path d="M1293.28,207.82 C1326.84,186.03 1370,158 1370,158 C1370,158 1520,158 1520,158 C1520,158 1553.8215,182.5093 1583.8915,204.2993" fill="none" id="Recorrido-to-Espacio-1" style="stroke:#181818;stroke-width:1;"/><polygon fill="#181818" points="1588.75,207.82,1583.8094,199.3,1584.7013,204.8861,1579.1152,205.778,1588.75,207.82" style="stroke:#181818;stroke-width:1;"/><text fill="#000000" font-family="sans-serif" font-size="13" lengthAdjust="spacing" textLength="84.2461" x="1403" y="154.0669">verDetalles()</text></g><!--link Recorrido to Espacio--><g class="link" data-entity-1="Recorrido" data-entity-2="Espacio" data-source-line="28" data-uid="lnk12" id="link_Recorrido_Espacio"><path d="M1340.26,219.64 C1357.27,216.98 1370,215 1370,215 C1370,215 1520,215 1520,215 C1520,215 1527.1692,216.2393 1544.0292,219.1793" fill="none" id="Recorrido-to-Espacio-2" style="stroke:#181818;stroke-width:1;"/><polygon fill="#181818" points="1549.94,220.21,1541.7609,214.7234,1545.0143,219.3511,1540.3866,222.6045,1549.94,220.21" style="stroke:#181818;stroke-width:1;"/><text fill="#000000" font-family="sans-serif" font-size="13" lengthAdjust="spacing" textLength="148.3701" x="1371" y="211.0669">verEspaciosCercanos()</text></g><!--link Recorrido to Espacio--><g class="link" data-entity-1="Recorrido" data-entity-2="Espacio" data-source-line="29" data-uid="lnk13" id="link_Recorrido_Espacio"><path d="M1340.26,238.2 C1357.27,239.23 1370,240 1370,240 C1370,240 1520,240 1520,240 C1520,240 1527.0937,239.5248 1543.9537,238.3848" fill="none" id="Recorrido-to-Espacio-3" style="stroke:#181818;stroke-width:1;"/><polygon fill="#181818" points="1549.94,237.98,1540.6907,234.5963,1544.9514,238.3173,1541.2303,242.578,1549.94,237.98" style="stroke:#181818;stroke-width:1;"/><text fill="#000000" font-family="sans-serif" font-size="13" lengthAdjust="spacing" textLength="128.5908" x="1381" y="236.0669">verEspaciosPlanta()</text></g><!--link Recorrido to Espacio--><g class="link" data-entity-1="Recorrido" data-entity-2="Espacio" data-source-line="30" data-uid="lnk14" id="link_Recorrido_Espacio"><path d="M1340.26,256.76 C1357.27,261.47 1370,265 1370,265 C1370,265 1520,265 1520,265 C1520,265 1527.3484,262.7345 1544.2084,257.5145" fill="none" id="Recorrido-to-Espacio-4" style="stroke:#181818;stroke-width:1;"/><polygon fill="#181818" points="1549.94,255.74,1540.1596,254.5808,1545.1637,257.2188,1542.5257,262.2229,1549.94,255.74" style="stroke:#181818;stroke-width:1;"/><text fill="#000000" font-family="sans-serif" font-size="13" lengthAdjust="spacing" textLength="81.0977" x="1404.5" y="261.0669">verEspacio()</text></g><!--link Recorrido to Espacio--><g class="link" data-entity-1="Recorrido" data-entity-2="Espacio" data-source-line="31" data-uid="lnk15" id="link_Recorrido_Espacio"><path d="M1305.16,258 C1336.19,273.32 1370,290 1370,290 C1370,290 1520,290 1520,290 C1520,290 1545.0347,276.2151 1572.8447,260.8951" fill="none" id="Recorrido-to-Espacio-5" style="stroke:#181818;stroke-width:1;"/><polygon fill="#181818" points="1578.1,258,1568.2869,258.839,1573.7206,260.4126,1572.147,265.8462,1578.1,258" style="stroke:#181818;stroke-width:1;"/><text fill="#000000" font-family="sans-serif" font-size="13" lengthAdjust="spacing" textLength="131.022" x="1379.5" y="286.0669">cambiarDeEspacio()</text></g><!--link Espacio to Recorrido--><g class="link" data-entity-1="Espacio" data-entity-2="Recorrido" data-source-line="39" data-uid="lnk21" id="link_Espacio_Recorrido"><path d="M1591.88,258.05 C1561.45,282.16 1520,315 1520,315 C1520,315 1370,315 1370,315 C1370,315 1328.6429,285.6327 1294.6729,261.5227" fill="none" id="Espacio-to-Recorrido" style="stroke:#181818;stroke-width:1;"/><polygon fill="#181818" points="1289.78,258.05,1294.8042,266.521,1293.8574,260.9439,1299.4345,259.9971,1289.78,258.05" style="stroke:#181818;stroke-width:1;"/><text fill="#000000" font-family="sans-serif" font-size="13" lengthAdjust="spacing" textLength="146.5737" x="1372" y="311.0669">seleccionarRecorrido()</text></g><!--link Espacio to Espacio--><g class="link" data-entity-1="Espacio" data-entity-2="Espacio" data-source-line="34" data-uid="lnk16" id="link_Espacio_Espacio"><path d="M1618.48,207.72 C1616.65,190.23 1618.66,173 1624.5,173 C1630.34,173 1632.9744,184.2626 1631.1444,201.7526" fill="none" id="Espacio-to-Espacio" style="stroke:#181818;stroke-width:1;"/><polygon fill="#181818" points="1630.52,207.72,1635.4349,199.1851,1631.0403,202.7471,1627.4783,198.3526,1630.52,207.72" style="stroke:#181818;stroke-width:1;"/><text fill="#000000" font-family="sans-serif" font-size="13" lengthAdjust="spacing" textLength="84.2461" x="1582.5" y="164.0669">verDetalles()</text></g><!--link Espacio to Espacio--><g class="link" data-entity-1="Espacio" data-entity-2="Espacio" data-source-line="35" data-uid="lnk17" id="link_Espacio_Espacio"><path d="M1615.14,207.7 C1607.61,175.89 1610.73,138 1624.5,138 C1638.27,138 1642.7721,170.0514 1635.2421,201.8614" fill="none" id="Espacio-to-Espacio-1" style="stroke:#181818;stroke-width:1;"/><polygon fill="#181818" points="1633.86,207.7,1639.8256,199.8634,1635.0118,202.8345,1632.0407,198.0206,1633.86,207.7" style="stroke:#181818;stroke-width:1;"/><text fill="#000000" font-family="sans-serif" font-size="13" lengthAdjust="spacing" textLength="148.3701" x="1550.5" y="129.0669">verEspaciosCercanos()</text></g><!--link Espacio to Espacio--><g class="link" data-entity-1="Espacio" data-entity-2="Espacio" data-source-line="36" data-uid="lnk18" id="link_Espacio_Espacio"><path d="M1613.2,207.79 C1598.57,162.72 1602.34,103 1624.5,103 C1646.66,103 1652.2825,157.0131 1637.6525,202.0831" fill="none" id="Espacio-to-Espacio-2" style="stroke:#181818;stroke-width:1;"/><polygon fill="#181818" points="1635.8,207.79,1642.3833,200.4647,1637.3437,203.0343,1634.7741,197.9947,1635.8,207.79" style="stroke:#181818;stroke-width:1;"/><text fill="#000000" font-family="sans-serif" font-size="13" lengthAdjust="spacing" textLength="128.5908" x="1560.5" y="94.0669">verEspaciosPlanta()</text></g><!--link Espacio to Espacio--><g class="link" data-entity-1="Espacio" data-entity-2="Espacio" data-source-line="37" data-uid="lnk19" id="link_Espacio_Espacio"><path d="M1611.89,207.78 C1589.57,149.98 1593.77,68 1624.5,68 C1655.23,68 1661.5914,144.3828 1639.2714,202.1828" fill="none" id="Espacio-to-Espacio-3" style="stroke:#181818;stroke-width:1;"/><polygon fill="#181818" points="1637.11,207.78,1644.0835,200.8252,1638.9112,203.1157,1636.6207,197.9433,1637.11,207.78" style="stroke:#181818;stroke-width:1;"/><text fill="#000000" font-family="sans-serif" font-size="13" lengthAdjust="spacing" textLength="131.022" x="1559" y="59.0669">cambiarDeEspacio()</text></g><!--link Espacio to Espacio--><g class="link" data-entity-1="Espacio" data-entity-2="Espacio" data-source-line="38" data-uid="lnk20" id="link_Espacio_Espacio"><path d="M1610.89,207.6 C1580.59,137.37 1585.13,33 1624.5,33 C1663.87,33 1670.7869,131.8609 1640.4869,202.0909" fill="none" id="Espacio-to-Espacio-4" style="stroke:#181818;stroke-width:1;"/><polygon fill="#181818" points="1638.11,207.6,1645.348,200.9209,1640.0907,203.0091,1638.0025,197.7517,1638.11,207.6" style="stroke:#181818;stroke-width:1;"/><text fill="#000000" font-family="sans-serif" font-size="13" lengthAdjust="spacing" textLength="81.0977" x="1584" y="24.0669">verEspacio()</text></g><!--SRC=[ZPBBRiCW44NtV0NAfWyfFz159ITcWHJP4MwogQfeRDC6bO05f5B-lfZubSHvB6SuNEwTGV9lXvt6Hlni7Iw5uOKJMY7xArG51dPO2iNTeUAuql9G5mXP1uxZIKOocYQREM4iYgC91eiJ7UtTjWLM2LqJbj4uYZSnpPPfGcSB4i2L4d_SM552sTACp5F6Q9nccsX62Vj8iu0kX7MC5zeOKMfxGRTmO3kknKYsZERq52AsWa9eXD3dwnUUJjzRs-Z9LrDCbV37-80jI6-mxg4Z4U21TVo6HGs3MGih73o_eE5fB-t1Minue7caJ-IdRYkjH2wv3M-TIvmEm4j9tm3Jjxpg6NFf4t8ZpA3LEycuv8KFhC1Wqqe48oEYNLadwYzsRI_B1XgFcM-CH47C3y7gt73CZsiAJaurcmLwiNnl2p1DVV5sp_dKCNSW_OXlKqrXvzmKeFI3z5A22jk_pzw02jZb_Yl5l4SH8jqKhkUvoeoakSjsMSR94PFt9C-GmHSQ_q7_]--></g></svg>