<svg xmlns="http://www.w3.org/2000/svg" xmlns:xlink="http://www.w3.org/1999/xlink" contentStyleType="text/css" data-diagram-type="STATE" height="303px" preserveAspectRatio="none" style="width:1318px;height:303px;background:#FFFFFF;" version="1.1" viewBox="0 0 1318 303" width="1318px" zoomAndPan="magnify"><defs/><g><g id="NoAuth"><rect fill="#F1F1F1" height="50" rx="12.5" ry="12.5" style="stroke:#181818;stroke-width:0.5;" width="147.251" x="87" y="154"/><line style="stroke:#181818;stroke-width:0.5;" x1="87" x2="234.251" y1="180.2969" y2="180.2969"/><text fill="#000000" font-family="sans-serif" font-size="14" lengthAdjust="spacing" textLength="127.251" x="97" y="171.9951">SESION_CERRADA</text></g><g id="Menu"><rect fill="#F1F1F1" height="50" rx="12.5" ry="12.5" style="stroke:#181818;stroke-width:0.5;" width="208.2617" x="388" y="154"/><line style="stroke:#181818;stroke-width:0.5;" x1="388" x2="596.2617" y1="180.2969" y2="180.2969"/><text fill="#000000" font-family="sans-serif" font-size="14" lengthAdjust="spacing" textLength="188.2617" x="398" y="171.9951">UNIVERSIDAD_DISPONIBLE</text></g><g id="ListEspacios"><rect fill="#F1F1F1" height="50" rx="12.5" ry="12.5" style="stroke:#181818;stroke-width:0.5;" width="158.0176" x="795" y="68"/><line style="stroke:#181818;stroke-width:0.5;" x1="795" x2="953.0176" y1="94.2969" y2="94.2969"/><text fill="#000000" font-family="sans-serif" font-size="14" lengthAdjust="spacing" textLength="138.0176" x="805" y="85.9951">ESPACIOS_ABIERTO</text></g><g id="EditEspacio"><rect fill="#F1F1F1" height="50" rx="12.5" ry="12.5" style="stroke:#181818;stroke-width:0.5;" width="149.1309" x="1150" y="68"/><line style="stroke:#181818;stroke-width:0.5;" x1="1150" x2="1299.1309" y1="94.2969" y2="94.2969"/><text fill="#000000" font-family="sans-serif" font-size="14" lengthAdjust="spacing" textLength="129.1309" x="1160" y="85.9951">ESPACIO_ABIERTO</text></g><g id="ListRecorridos"><rect fill="#F1F1F1" height="50" rx="12.5" ry="12.5" style="stroke:#181818;stroke-width:0.5;" width="182.0938" x="783" y="239"/><line style="stroke:#181818;stroke-width:0.5;" x1="783" x2="965.0938" y1="265.2969" y2="265.2969"/><text fill="#000000" font-family="sans-serif" font-size="14" lengthAdjust="spacing" textLength="162.0938" x="793" y="256.9951">RECORRIDOS_ABIERTO</text></g><g id="EditRecorrido"><rect fill="#F1F1F1" height="50" rx="12.5" ry="12.5" style="stroke:#181818;stroke-width:0.5;" width="173.207" x="1138" y="239"/><line style="stroke:#181818;stroke-width:0.5;" x1="1138" x2="1311.207" y1="265.2969" y2="265.2969"/><text fill="#000000" font-family="sans-serif" font-size="14" lengthAdjust="spacing" textLength="153.207" x="1148" y="256.9951">RECORRIDO_ABIERTO</text></g><ellipse cx="16" cy="179" fill="#222222" rx="10" ry="10" style="stroke:#222222;stroke-width:1;"/><!--link *start* to NoAuth--><g class="link" data-entity-1=".start." data-entity-2="NoAuth" data-source-line="12" data-uid="lnk3" id="link_.start._NoAuth"><path d="M26.35,179 C39.04,179 56.92,179 80.98,179" fill="none" id="*start*-to-NoAuth" style="stroke:#181818;stroke-width:1;"/><polygon fill="#181818" points="86.98,179,77.98,175,81.98,179,77.98,183,86.98,179" style="stroke:#181818;stroke-width:1;"/></g><!--link NoAuth to Menu--><g class="link" data-entity-1="NoAuth" data-entity-2="Menu" data-source-line="14" data-uid="lnk4" id="link_NoAuth_Menu"><path d="M234.22,179 C279.32,179 331.98,179 381.84,179" fill="none" id="NoAuth-to-Menu" style="stroke:#181818;stroke-width:1;"/><polygon fill="#181818" points="387.84,179,378.84,175,382.84,179,378.84,183,387.84,179" style="stroke:#181818;stroke-width:1;"/><text fill="#000000" font-family="sans-serif" font-size="13" lengthAdjust="spacing" textLength="92.5044" x="265" y="175.0669">iniciarSesion()</text></g><!--link Menu to NoAuth--><g class="link" data-entity-1="Menu" data-entity-2="NoAuth" data-source-line="16" data-uid="lnk5" id="link_Menu_NoAuth"><path d="M387.85,198.39 C370.51,201.65 358,204 358,204 C358,204 264,204 264,204 C264,204 256.7387,202.2334 239.9087,198.1234" fill="none" id="Menu-to-NoAuth" style="stroke:#181818;stroke-width:1;"/><polygon fill="#181818" points="234.08,196.7,241.8741,202.7209,238.9373,197.8862,243.772,194.9493,234.08,196.7" style="stroke:#181818;stroke-width:1;"/><text fill="#000000" font-family="sans-serif" font-size="13" lengthAdjust="spacing" textLength="92.1172" x="265" y="200.0669">cerrarSesion()</text></g><!--link Menu to ListEspacios--><g class="link" data-entity-1="Menu" data-entity-2="ListEspacios" data-source-line="17" data-uid="lnk6" id="link_Menu_ListEspacios"><path d="M563.78,153.99 C595.55,142.76 626,132 626,132 C626,132 716.5535,117.706 788.9235,106.276" fill="none" id="Menu-to-ListEspacios" style="stroke:#181818;stroke-width:1;"/><polygon fill="#181818" points="794.85,105.34,785.3362,102.793,789.9112,106.12,786.5842,110.6951,794.85,105.34" style="stroke:#181818;stroke-width:1;"/><text fill="#000000" font-family="sans-serif" font-size="13" lengthAdjust="spacing" textLength="97.354" x="641" y="109.0669">abrirEspacios()</text></g><!--link ListEspacios to Menu--><g class="link" data-entity-1="ListEspacios" data-entity-2="Menu" data-source-line="36" data-uid="lnk18" id="link_ListEspacios_Menu"><path d="M825.92,118.11 C792.3,136.04 753,157 753,157 C753,157 674.6987,163.6243 602.1087,169.7643" fill="none" id="ListEspacios-to-Menu" style="stroke:#181818;stroke-width:1;"/><polygon fill="#181818" points="596.13,170.27,605.4351,173.4972,601.1122,169.8486,604.7608,165.5257,596.13,170.27" style="stroke:#181818;stroke-width:1;"/><text fill="#000000" font-family="sans-serif" font-size="13" lengthAdjust="spacing" textLength="125.9248" x="627" y="153.0669">completarGestion()</text></g><!--link Menu to ListRecorridos--><g class="link" data-entity-1="Menu" data-entity-2="ListRecorridos" data-source-line="18" data-uid="lnk7" id="link_Menu_ListRecorridos"><path d="M596.15,203.04 C613.49,207.09 626,210 626,210 C626,210 706.3585,227.5682 776.9185,242.9982" fill="none" id="Menu-to-ListRecorridos" style="stroke:#181818;stroke-width:1;"/><polygon fill="#181818" points="782.78,244.28,774.8423,238.4497,777.8954,243.2118,773.1332,246.265,782.78,244.28" style="stroke:#181818;stroke-width:1;"/><text fill="#000000" font-family="sans-serif" font-size="13" lengthAdjust="spacing" textLength="110.0747" x="634.5" y="206.0669">abrirRecorridos()</text></g><!--link ListRecorridos to Menu--><g class="link" data-entity-1="ListRecorridos" data-entity-2="Menu" data-source-line="37" data-uid="lnk19" id="link_ListRecorridos_Menu"><path d="M782.78,263.27 C712.22,262.7 626,262 626,262 C626,262 577.4999,231.737 538.3599,207.307" fill="none" id="ListRecorridos-to-Menu" style="stroke:#181818;stroke-width:1;"/><polygon fill="#181818" points="533.27,204.13,538.7869,212.2887,537.5116,206.7775,543.0228,205.5022,533.27,204.13" style="stroke:#181818;stroke-width:1;"/><text fill="#000000" font-family="sans-serif" font-size="13" lengthAdjust="spacing" textLength="125.9248" x="627" y="258.0669">completarGestion()</text></g><!--link ListEspacios to EditEspacio--><g class="link" data-entity-1="ListEspacios" data-entity-2="EditEspacio" data-source-line="21" data-uid="lnk8" id="link_ListEspacios_EditEspacio"><path d="M953.03,81.3 C975.95,77.86 995,75 995,75 C995,75 1108,75 1108,75 C1108,75 1121.1316,77.0457 1143.7716,80.5757" fill="none" id="ListEspacios-to-EditEspacio" style="stroke:#181818;stroke-width:1;"/><polygon fill="#181818" points="1149.7,81.5,1141.4237,76.1612,1144.7597,80.7297,1140.1912,84.0657,1149.7,81.5" style="stroke:#181818;stroke-width:1;"/><text fill="#000000" font-family="sans-serif" font-size="13" lengthAdjust="spacing" textLength="93.8628" x="1005" y="71.0669">crearEspacio()</text></g><!--link ListEspacios to EditEspacio--><g class="link" data-entity-1="ListEspacios" data-entity-2="EditEspacio" data-source-line="22" data-uid="lnk9" id="link_ListEspacios_EditEspacio"><path d="M953.03,97.55 C975.95,98.89 995,100 995,100 C995,100 1108,100 1108,100 C1108,100 1121.071,99.2024 1143.711,97.8324" fill="none" id="ListEspacios-to-EditEspacio-1" style="stroke:#181818;stroke-width:1;"/><polygon fill="#181818" points="1149.7,97.47,1140.4748,94.0209,1144.7091,97.772,1140.958,102.0063,1149.7,97.47" style="stroke:#181818;stroke-width:1;"/><text fill="#000000" font-family="sans-serif" font-size="13" lengthAdjust="spacing" textLength="98.3315" x="1002.5" y="96.0669">editarEspacio()</text></g><!--link EditEspacio to ListEspacios--><g class="link" data-entity-1="EditEspacio" data-entity-2="ListEspacios" data-source-line="26" data-uid="lnk12" id="link_EditEspacio_ListEspacios"><path d="M1149.7,113.45 C1127.06,119.72 1108,125 1108,125 C1108,125 995,125 995,125 C995,125 981.7475,121.4655 958.8275,115.3555" fill="none" id="EditEspacio-to-ListEspacios" style="stroke:#181818;stroke-width:1;"/><polygon fill="#181818" points="953.03,113.81,960.696,119.9933,957.8613,115.0979,962.7566,112.2632,953.03,113.81" style="stroke:#181818;stroke-width:1;"/><text fill="#000000" font-family="sans-serif" font-size="13" lengthAdjust="spacing" textLength="97.354" x="1003" y="121.0669">abrirEspacios()</text></g><!--link ListEspacios to ListEspacios--><g class="link" data-entity-1="ListEspacios" data-entity-2="ListEspacios" data-source-line="23" data-uid="lnk10" id="link_ListEspacios_ListEspacios"><path d="M844.22,67.72 C835.2,50.23 845.12,33 874,33 C902.88,33 915.5501,44.8974 906.5301,62.3874" fill="none" id="ListEspacios-to-ListEspacios" style="stroke:#181818;stroke-width:1;"/><polygon fill="#181818" points="903.78,67.72,911.4603,61.5545,906.0718,63.2762,904.3502,57.8877,903.78,67.72" style="stroke:#181818;stroke-width:1;"/><text fill="#000000" font-family="sans-serif" font-size="13" lengthAdjust="spacing" textLength="113.1089" x="817.5" y="24.0669">eliminarEspacio()</text></g><!--link EditEspacio to EditEspacio--><g class="link" data-entity-1="EditEspacio" data-entity-2="EditEspacio" data-source-line="25" data-uid="lnk11" id="link_EditEspacio_EditEspacio"><path d="M1195.4,67.72 C1186.58,50.23 1196.28,33 1224.5,33 C1252.72,33 1265.1216,44.8727 1256.3016,62.3627" fill="none" id="EditEspacio-to-EditEspacio" style="stroke:#181818;stroke-width:1;"/><polygon fill="#181818" points="1253.6,67.72,1261.224,61.4851,1255.8514,63.2555,1254.0809,57.8829,1253.6,67.72" style="stroke:#181818;stroke-width:1;"/><text fill="#000000" font-family="sans-serif" font-size="13" lengthAdjust="spacing" textLength="98.3315" x="1175.5" y="24.0669">editarEspacio()</text></g><!--link ListRecorridos to EditRecorrido--><g class="link" data-entity-1="ListRecorridos" data-entity-2="EditRecorrido" data-source-line="28" data-uid="lnk13" id="link_ListRecorridos_EditRecorrido"><path d="M965.03,250.5 C982.23,247.91 995,246 995,246 C995,246 1108,246 1108,246 C1108,246 1114.802,247.053 1131.812,249.713" fill="none" id="ListRecorridos-to-EditRecorrido" style="stroke:#181818;stroke-width:1;"/><polygon fill="#181818" points="1137.74,250.64,1129.4661,245.2975,1132.8,249.8675,1128.2301,253.2015,1137.74,250.64" style="stroke:#181818;stroke-width:1;"/><text fill="#000000" font-family="sans-serif" font-size="13" lengthAdjust="spacing" textLength="106.5835" x="998.5" y="242.0669">crearRecorrido()</text></g><!--link ListRecorridos to EditRecorrido--><g class="link" data-entity-1="ListRecorridos" data-entity-2="EditRecorrido" data-source-line="29" data-uid="lnk14" id="link_ListRecorridos_EditRecorrido"><path d="M965.03,269.25 C982.23,270.26 995,271 995,271 C995,271 1108,271 1108,271 C1108,271 1114.741,270.5927 1131.751,269.5627" fill="none" id="ListRecorridos-to-EditRecorrido-1" style="stroke:#181818;stroke-width:1;"/><polygon fill="#181818" points="1137.74,269.2,1128.5147,265.7513,1132.7491,269.5022,1128.9982,273.7367,1137.74,269.2" style="stroke:#181818;stroke-width:1;"/><text fill="#000000" font-family="sans-serif" font-size="13" lengthAdjust="spacing" textLength="111.0522" x="996" y="267.0669">editarRecorrido()</text></g><!--link EditRecorrido to ListRecorridos--><g class="link" data-entity-1="EditRecorrido" data-entity-2="ListRecorridos" data-source-line="33" data-uid="lnk17" id="link_EditRecorrido_ListRecorridos"><path d="M1137.74,287.76 C1120.73,292.47 1108,296 1108,296 C1108,296 995,296 995,296 C995,296 988.0271,294.147 970.8271,289.557" fill="none" id="EditRecorrido-to-ListRecorridos" style="stroke:#181818;stroke-width:1;"/><polygon fill="#181818" points="965.03,288.01,972.6943,294.1953,969.8609,289.2992,974.757,286.4658,965.03,288.01" style="stroke:#181818;stroke-width:1;"/><text fill="#000000" font-family="sans-serif" font-size="13" lengthAdjust="spacing" textLength="110.0747" x="996.5" y="292.0669">abrirRecorridos()</text></g><!--link ListRecorridos to ListRecorridos--><g class="link" data-entity-1="ListRecorridos" data-entity-2="ListRecorridos" data-source-line="30" data-uid="lnk15" id="link_ListRecorridos_ListRecorridos"><path d="M844.22,238.72 C835.2,221.23 845.12,204 874,204 C902.88,204 915.5501,215.8974 906.5301,233.3874" fill="none" id="ListRecorridos-to-ListRecorridos" style="stroke:#181818;stroke-width:1;"/><polygon fill="#181818" points="903.78,238.72,911.4603,232.5545,906.0718,234.2762,904.3502,228.8877,903.78,238.72" style="stroke:#181818;stroke-width:1;"/><text fill="#000000" font-family="sans-serif" font-size="13" lengthAdjust="spacing" textLength="125.8296" x="811.5" y="195.0669">eliminarRecorrido()</text></g><!--link EditRecorrido to EditRecorrido--><g class="link" data-entity-1="EditRecorrido" data-entity-2="EditRecorrido" data-source-line="32" data-uid="lnk16" id="link_EditRecorrido_EditRecorrido"><path d="M1195.4,238.72 C1186.58,221.23 1196.28,204 1224.5,204 C1252.72,204 1265.1216,215.8727 1256.3016,233.3627" fill="none" id="EditRecorrido-to-EditRecorrido" style="stroke:#181818;stroke-width:1;"/><polygon fill="#181818" points="1253.6,238.72,1261.224,232.4851,1255.8514,234.2555,1254.0809,228.8829,1253.6,238.72" style="stroke:#181818;stroke-width:1;"/><text fill="#000000" font-family="sans-serif" font-size="13" lengthAdjust="spacing" textLength="111.0522" x="1169" y="195.0669">editarRecorrido()</text></g><!--SRC=[dPBHRi8W58RlUGhYrRR45_1YIRLa8N6jWMqtos9OPVDajJI05xxzQ1LAgzPbL-ISVF_F-G-KyijYgx26xwt56z2oiA0gP7wWgeKMErn29UsXbhXMvQ4f439MM8add72QP-i5OIn9amaM1cSgsTkj1rup-aOOfscIhbFALtb6vqlIWi-osWSZmbV9WkPydSmfOIzvIop1M69gKO0o0x37aGrupcECB7B6Q7h1aSb2QGsRpZF0Pww1HUZzuGDFfuy-7pgURQj9WcSOAYX0Q2wDMz_TFK9jlzCuf91QHqG0ugGpB3urQ5yEiMxy4zWrcZjHRDMAeksu0RGKtjhXux1qnIZT7rkMi8Cg5g38xhRz41vV2kel8zY7rYbig4y1nYN7cMveXi_WWySor3F-srNdadyzUFDTN7YrgqlfRdYInXw_suKerzXV]--></g></svg>