<svg xmlns="http://www.w3.org/2000/svg" xmlns:xlink="http://www.w3.org/1999/xlink" contentStyleType="text/css" data-diagram-type="CLASS" height="1034px" preserveAspectRatio="none" style="width:1337px;height:1034px;background:#FFFFFF;" version="1.1" viewBox="0 0 1337 1034" width="1337px" zoomAndPan="magnify"><defs/><g><g class="entity" data-entity="uneatlantico" data-source-line="6" data-uid="ent0002" id="entity_uneatlantico"><rect fill="#F1F1F1" height="44.5938" rx="2.5" ry="2.5" style="stroke:#181818;stroke-width:0.5;" width="337.9512" x="7" y="572.15"/><text fill="#000000" font-family="sans-serif" font-size="14" lengthAdjust="spacing" textLength="184.2285" x="83.8613" y="587.1451">uneatlantico : Universidad</text><line style="stroke:#181818;stroke-width:0.5;" x1="8" x2="343.9512" y1="592.4469" y2="592.4469"/><text fill="#000000" font-family="sans-serif" font-size="14" lengthAdjust="spacing" textLength="325.9512" x="13" y="609.442">nombre = "Universidad Europea del Atlántico"</text></g><g class="entity" data-entity="edificioPrincipal" data-source-line="10" data-uid="ent0003" id="entity_edificioPrincipal"><rect fill="#F1F1F1" height="44.5938" rx="2.5" ry="2.5" style="stroke:#181818;stroke-width:0.5;" width="331.7168" x="404.95" y="315.15"/><text fill="#000000" font-family="sans-serif" font-size="14" lengthAdjust="spacing" textLength="172.4365" x="484.5901" y="330.1451">edificioPrincipal : Region</text><line style="stroke:#181818;stroke-width:0.5;" x1="405.95" x2="735.6668" y1="335.4469" y2="335.4469"/><text fill="#000000" font-family="sans-serif" font-size="14" lengthAdjust="spacing" textLength="319.7168" x="410.95" y="352.442">nombre = "Centro de estudios universitarios"</text></g><g class="entity" data-entity="exterior" data-source-line="14" data-uid="ent0004" id="entity_exterior"><rect fill="#F1F1F1" height="44.5938" rx="2.5" ry="2.5" style="stroke:#181818;stroke-width:0.5;" width="309.582" x="416.02" y="652.15"/><text fill="#000000" font-family="sans-serif" font-size="14" lengthAdjust="spacing" textLength="117.1406" x="512.2407" y="667.1451">exterior : Region</text><line style="stroke:#181818;stroke-width:0.5;" x1="417.02" x2="724.602" y1="672.4469" y2="672.4469"/><text fill="#000000" font-family="sans-serif" font-size="14" lengthAdjust="spacing" textLength="297.582" x="422.02" y="689.442">nombre = "Zona exterior edificioPrincipal"</text></g><g class="entity" data-entity="sotano3" data-source-line="21" data-uid="ent0005" id="entity_sotano3"><rect fill="#F1F1F1" height="44.5938" rx="2.5" ry="2.5" style="stroke:#181818;stroke-width:0.5;" width="162.1582" x="817.15" y="102.15"/><text fill="#000000" font-family="sans-serif" font-size="14" lengthAdjust="spacing" textLength="113.7432" x="841.3575" y="117.1451">sotano3 : Planta</text><line style="stroke:#181818;stroke-width:0.5;" x1="818.15" x2="978.3082" y1="122.4469" y2="122.4469"/><text fill="#000000" font-family="sans-serif" font-size="14" lengthAdjust="spacing" textLength="150.1582" x="823.15" y="139.442">nombre = "Sótano 3"</text></g><g class="entity" data-entity="planta0" data-source-line="25" data-uid="ent0006" id="entity_planta0"><rect fill="#F1F1F1" height="44.5938" rx="2.5" ry="2.5" style="stroke:#181818;stroke-width:0.5;" width="178.7969" x="808.83" y="268.15"/><text fill="#000000" font-family="sans-serif" font-size="14" lengthAdjust="spacing" textLength="110.6738" x="842.8915" y="283.1451">planta0 : Planta</text><line style="stroke:#181818;stroke-width:0.5;" x1="809.83" x2="986.6269" y1="288.4469" y2="288.4469"/><text fill="#000000" font-family="sans-serif" font-size="14" lengthAdjust="spacing" textLength="166.7969" x="814.83" y="305.442">nombre = "Planta Baja"</text></g><g class="entity" data-entity="planta_2" data-source-line="29" data-uid="ent0007" id="entity_planta_2"><rect fill="#F1F1F1" height="44.5938" rx="2.5" ry="2.5" style="stroke:#181818;stroke-width:0.5;" width="162.1035" x="817.17" y="614.15"/><text fill="#000000" font-family="sans-serif" font-size="14" lengthAdjust="spacing" textLength="117.6738" x="839.3848" y="629.1451">planta_2 : Planta</text><line style="stroke:#181818;stroke-width:0.5;" x1="818.17" x2="978.2735" y1="634.4469" y2="634.4469"/><text fill="#000000" font-family="sans-serif" font-size="14" lengthAdjust="spacing" textLength="150.1035" x="823.17" y="651.442">nombre = "Planta -2"</text></g><g class="entity" data-entity="plantaExterior" data-source-line="33" data-uid="ent0008" id="entity_plantaExterior"><rect fill="#F1F1F1" height="44.5938" rx="2.5" ry="2.5" style="stroke:#181818;stroke-width:0.5;" width="203.1123" x="796.67" y="831.15"/><text fill="#000000" font-family="sans-serif" font-size="14" lengthAdjust="spacing" textLength="156.9668" x="819.7428" y="846.1451">plantaExterior : Planta</text><line style="stroke:#181818;stroke-width:0.5;" x1="797.67" x2="998.7823" y1="851.4469" y2="851.4469"/><text fill="#000000" font-family="sans-serif" font-size="14" lengthAdjust="spacing" textLength="191.1123" x="802.67" y="868.442">nombre = "Planta exterior"</text></g><g class="entity" data-entity="pasillo_2" data-source-line="40" data-uid="ent0009" id="entity_pasillo_2"><rect fill="#F1F1F1" height="60.8906" rx="2.5" ry="2.5" style="stroke:#181818;stroke-width:0.5;" width="162.8008" x="1113.92" y="487"/><text fill="#000000" font-family="sans-serif" font-size="14" lengthAdjust="spacing" textLength="130.334" x="1130.1534" y="501.9951">Pasillo -2 : Espacio</text><line style="stroke:#181818;stroke-width:0.5;" x1="1114.92" x2="1275.7208" y1="507.2969" y2="507.2969"/><text fill="#000000" font-family="sans-serif" font-size="14" lengthAdjust="spacing" textLength="150.8008" x="1119.92" y="524.292">nombre = "Pasillo -2"</text><text fill="#000000" font-family="sans-serif" font-size="14" lengthAdjust="spacing" textLength="115.3496" x="1119.92" y="540.5889">tipo = "Entrada"</text></g><g class="entity" data-entity="pasillo0" data-source-line="45" data-uid="ent0010" id="entity_pasillo0"><rect fill="#F1F1F1" height="60.8906" rx="2.5" ry="2.5" style="stroke:#181818;stroke-width:0.5;" width="157.749" x="1116.44" y="295"/><text fill="#000000" font-family="sans-serif" font-size="14" lengthAdjust="spacing" textLength="125.2822" x="1132.6734" y="309.9951">Pasillo 0 : Espacio</text><line style="stroke:#181818;stroke-width:0.5;" x1="1117.44" x2="1273.189" y1="315.2969" y2="315.2969"/><text fill="#000000" font-family="sans-serif" font-size="14" lengthAdjust="spacing" textLength="145.749" x="1122.44" y="332.292">nombre = "Pasillo 0"</text><text fill="#000000" font-family="sans-serif" font-size="14" lengthAdjust="spacing" textLength="115.3496" x="1122.44" y="348.5889">tipo = "Entrada"</text></g><g class="entity" data-entity="aula1" data-source-line="53" data-uid="ent0011" id="entity_aula1"><rect fill="#F1F1F1" height="60.8906" rx="2.5" ry="2.5" style="stroke:#181818;stroke-width:0.5;" width="157.4756" x="1116.58" y="391"/><text fill="#000000" font-family="sans-serif" font-size="14" lengthAdjust="spacing" textLength="106.2031" x="1142.2162" y="405.9951">aula1 : Espacio</text><line style="stroke:#181818;stroke-width:0.5;" x1="1117.58" x2="1273.0556" y1="411.2969" y2="411.2969"/><text fill="#000000" font-family="sans-serif" font-size="14" lengthAdjust="spacing" textLength="145.4756" x="1122.58" y="428.292">nombre = "Aula 0.1"</text><text fill="#000000" font-family="sans-serif" font-size="14" lengthAdjust="spacing" textLength="91.2598" x="1122.58" y="444.5889">tipo = "Aula"</text></g><g class="entity" data-entity="entrada" data-source-line="58" data-uid="ent0012" id="entity_entrada"><rect fill="#F1F1F1" height="60.8906" rx="2.5" ry="2.5" style="stroke:#181818;stroke-width:0.5;" width="271.0752" x="1059.78" y="199"/><text fill="#000000" font-family="sans-serif" font-size="14" lengthAdjust="spacing" textLength="122.1514" x="1134.2419" y="213.9951">entrada : Espacio</text><line style="stroke:#181818;stroke-width:0.5;" x1="1060.78" x2="1329.8552" y1="219.2969" y2="219.2969"/><text fill="#000000" font-family="sans-serif" font-size="14" lengthAdjust="spacing" textLength="259.0752" x="1065.78" y="236.292">nombre = "Entrada a la universidad"</text><text fill="#000000" font-family="sans-serif" font-size="14" lengthAdjust="spacing" textLength="115.3496" x="1065.78" y="252.5889">tipo = "Entrada"</text></g><g class="entity" data-entity="ORI" data-source-line="63" data-uid="ent0013" id="entity_ORI"><rect fill="#F1F1F1" height="60.8906" rx="2.5" ry="2.5" style="stroke:#181818;stroke-width:0.5;" width="124.7178" x="1132.96" y="103"/><text fill="#000000" font-family="sans-serif" font-size="14" lengthAdjust="spacing" textLength="92.251" x="1149.1934" y="117.9951">ORI : Espacio</text><line style="stroke:#181818;stroke-width:0.5;" x1="1133.96" x2="1256.6778" y1="123.2969" y2="123.2969"/><text fill="#000000" font-family="sans-serif" font-size="14" lengthAdjust="spacing" textLength="112.7178" x="1138.96" y="140.292">nombre = "ORI"</text><text fill="#000000" font-family="sans-serif" font-size="14" lengthAdjust="spacing" textLength="109.2178" x="1138.96" y="156.5889">tipo = "Oficina"</text></g><g class="entity" data-entity="cafeteria" data-source-line="68" data-uid="ent0014" id="entity_cafeteria"><rect fill="#F1F1F1" height="60.8906" rx="2.5" ry="2.5" style="stroke:#181818;stroke-width:0.5;" width="164.0654" x="1113.29" y="583"/><text fill="#000000" font-family="sans-serif" font-size="14" lengthAdjust="spacing" textLength="129.5205" x="1130.5625" y="597.9951">cafeteria : Espacio</text><line style="stroke:#181818;stroke-width:0.5;" x1="1114.29" x2="1276.3554" y1="603.2969" y2="603.2969"/><text fill="#000000" font-family="sans-serif" font-size="14" lengthAdjust="spacing" textLength="152.0654" x="1119.29" y="620.292">nombre = "Cafetería"</text><text fill="#000000" font-family="sans-serif" font-size="14" lengthAdjust="spacing" textLength="124.5645" x="1119.29" y="636.5889">tipo = "Cafeteria"</text></g><g class="entity" data-entity="aula6" data-source-line="73" data-uid="ent0015" id="entity_aula6"><rect fill="#F1F1F1" height="60.8906" rx="2.5" ry="2.5" style="stroke:#181818;stroke-width:0.5;" width="162.5273" x="1114.05" y="679"/><text fill="#000000" font-family="sans-serif" font-size="14" lengthAdjust="spacing" textLength="106.2031" x="1142.2121" y="693.9951">aula6 : Espacio</text><line style="stroke:#181818;stroke-width:0.5;" x1="1115.05" x2="1275.5773" y1="699.2969" y2="699.2969"/><text fill="#000000" font-family="sans-serif" font-size="14" lengthAdjust="spacing" textLength="150.5273" x="1120.05" y="716.292">nombre = "Aula -2.6"</text><text fill="#000000" font-family="sans-serif" font-size="14" lengthAdjust="spacing" textLength="140.7725" x="1120.05" y="732.5889">tipo = "Laboratorio"</text></g><g class="entity" data-entity="parkingSotano" data-source-line="78" data-uid="ent0016" id="entity_parkingSotano"><rect fill="#F1F1F1" height="60.8906" rx="2.5" ry="2.5" style="stroke:#181818;stroke-width:0.5;" width="270.1318" x="1060.25" y="7"/><text fill="#000000" font-family="sans-serif" font-size="14" lengthAdjust="spacing" textLength="169.3125" x="1110.6597" y="21.9951">parkingSotano : Espacio</text><line style="stroke:#181818;stroke-width:0.5;" x1="1061.25" x2="1329.3818" y1="27.2969" y2="27.2969"/><text fill="#000000" font-family="sans-serif" font-size="14" lengthAdjust="spacing" textLength="258.1318" x="1066.25" y="44.292">nombre = "Estacionamiento Sotano"</text><text fill="#000000" font-family="sans-serif" font-size="14" lengthAdjust="spacing" textLength="112.875" x="1066.25" y="60.5889">tipo = "Parking"</text></g><g class="entity" data-entity="areaVerde1" data-source-line="83" data-uid="ent0017" id="entity_areaVerde1"><rect fill="#F1F1F1" height="60.8906" rx="2.5" ry="2.5" style="stroke:#181818;stroke-width:0.5;" width="191.6211" x="1099.51" y="871"/><text fill="#000000" font-family="sans-serif" font-size="14" lengthAdjust="spacing" textLength="149.2559" x="1120.6926" y="885.9951">areaVerde1 : Espacio</text><line style="stroke:#181818;stroke-width:0.5;" x1="1100.51" x2="1290.1311" y1="891.2969" y2="891.2969"/><text fill="#000000" font-family="sans-serif" font-size="14" lengthAdjust="spacing" textLength="179.6211" x="1105.51" y="908.292">nombre = "Área Verde 1"</text><text fill="#000000" font-family="sans-serif" font-size="14" lengthAdjust="spacing" textLength="134.3125" x="1105.51" y="924.5889">tipo = "AreaVerde"</text></g><g class="entity" data-entity="canchaPadel1" data-source-line="88" data-uid="ent0018" id="entity_canchaPadel1"><rect fill="#F1F1F1" height="60.8906" rx="2.5" ry="2.5" style="stroke:#181818;stroke-width:0.5;" width="217.0303" x="1086.8" y="967"/><text fill="#000000" font-family="sans-serif" font-size="14" lengthAdjust="spacing" textLength="164.9922" x="1112.819" y="981.9951">canchaPadel1 : Espacio</text><line style="stroke:#181818;stroke-width:0.5;" x1="1087.8" x2="1302.8303" y1="987.2969" y2="987.2969"/><text fill="#000000" font-family="sans-serif" font-size="14" lengthAdjust="spacing" textLength="205.0303" x="1092.8" y="1004.292">nombre = "Cancha de Padel"</text><text fill="#000000" font-family="sans-serif" font-size="14" lengthAdjust="spacing" textLength="161.7109" x="1092.8" y="1020.5889">tipo = "AreaDeportiva"</text></g><g class="entity" data-entity="pabellon" data-source-line="93" data-uid="ent0019" id="entity_pabellon"><rect fill="#F1F1F1" height="60.8906" rx="2.5" ry="2.5" style="stroke:#181818;stroke-width:0.5;" width="232.8623" x="1078.89" y="775"/><text fill="#000000" font-family="sans-serif" font-size="14" lengthAdjust="spacing" textLength="127.5586" x="1131.5419" y="789.9951">pabellon : Espacio</text><line style="stroke:#181818;stroke-width:0.5;" x1="1079.89" x2="1310.7523" y1="795.2969" y2="795.2969"/><text fill="#000000" font-family="sans-serif" font-size="14" lengthAdjust="spacing" textLength="220.8623" x="1084.89" y="812.292">nombre = "Pabellón Deportivo"</text><text fill="#000000" font-family="sans-serif" font-size="14" lengthAdjust="spacing" textLength="161.7109" x="1084.89" y="828.5889">tipo = "AreaDeportiva"</text></g><g class="entity" data-entity="visitante" data-source-line="101" data-uid="ent0020" id="entity_visitante"><rect fill="#F1F1F1" height="44.5938" rx="2.5" ry="2.5" style="stroke:#181818;stroke-width:0.5;" width="138.2051" x="501.71" y="441.15"/><text fill="#000000" font-family="sans-serif" font-size="14" lengthAdjust="spacing" textLength="113.6748" x="513.9751" y="456.1451">Pablo : Visitante</text><line style="stroke:#181818;stroke-width:0.5;" x1="502.71" x2="638.9151" y1="461.4469" y2="461.4469"/><text fill="#000000" font-family="sans-serif" font-size="14" lengthAdjust="spacing" textLength="126.2051" x="507.71" y="478.442">nombre = "Pablo"</text></g><g class="entity" data-entity="recorrido" data-source-line="105" data-uid="ent0021" id="entity_recorrido"><rect fill="#F1F1F1" height="223.2656" rx="2.5" ry="2.5" style="stroke:#181818;stroke-width:0.5;" width="187.8721" x="804.72" y="351.94"/><text fill="#000000" font-family="sans-serif" font-size="14" lengthAdjust="spacing" textLength="173.8721" x="811.72" y="366.9351">TourEspacios : Recorrido</text><line style="stroke:#181818;stroke-width:1;" x1="804.72" x2="992.5921" y1="372.2369" y2="372.2369"/><text fill="#000000" font-family="sans-serif" font-size="14" lengthAdjust="spacing" textLength="8.9072" x="814.1736" y="387.232">1</text><text fill="#000000" font-family="sans-serif" font-size="14" lengthAdjust="spacing" textLength="55.0088" x="837.5345" y="387.232">Entrada</text><line style="stroke:#181818;stroke-width:1;" x1="832.5345" x2="832.5345" y1="372.2369" y2="392.5337"/><line style="stroke:#181818;stroke-width:1;" x1="804.72" x2="992.5921" y1="392.5337" y2="392.5337"/><text fill="#000000" font-family="sans-serif" font-size="14" lengthAdjust="spacing" textLength="8.9072" x="814.1736" y="407.5289">2</text><text fill="#000000" font-family="sans-serif" font-size="14" lengthAdjust="spacing" textLength="57.9072" x="837.5345" y="407.5289">Pasillo 0</text><line style="stroke:#181818;stroke-width:1;" x1="832.5345" x2="832.5345" y1="392.5337" y2="412.8306"/><line style="stroke:#181818;stroke-width:1;" x1="804.72" x2="992.5921" y1="412.8306" y2="412.8306"/><text fill="#000000" font-family="sans-serif" font-size="14" lengthAdjust="spacing" textLength="8.9072" x="814.1736" y="427.8257">3</text><text fill="#000000" font-family="sans-serif" font-size="14" lengthAdjust="spacing" textLength="57.6338" x="837.5345" y="427.8257">Aula 0.1</text><line style="stroke:#181818;stroke-width:1;" x1="832.5345" x2="832.5345" y1="412.8306" y2="433.1275"/><line style="stroke:#181818;stroke-width:1;" x1="804.72" x2="992.5921" y1="433.1275" y2="433.1275"/><text fill="#000000" font-family="sans-serif" font-size="14" lengthAdjust="spacing" textLength="8.9072" x="814.1736" y="448.1226">4</text><text fill="#000000" font-family="sans-serif" font-size="14" lengthAdjust="spacing" textLength="57.9072" x="837.5345" y="448.1226">Pasillo 0</text><line style="stroke:#181818;stroke-width:1;" x1="832.5345" x2="832.5345" y1="433.1275" y2="453.4244"/><line style="stroke:#181818;stroke-width:1;" x1="804.72" x2="992.5921" y1="453.4244" y2="453.4244"/><text fill="#000000" font-family="sans-serif" font-size="14" lengthAdjust="spacing" textLength="8.9072" x="814.1736" y="468.4195">5</text><text fill="#000000" font-family="sans-serif" font-size="14" lengthAdjust="spacing" textLength="62.959" x="837.5345" y="468.4195">Pasillo -2</text><line style="stroke:#181818;stroke-width:1;" x1="832.5345" x2="832.5345" y1="453.4244" y2="473.7212"/><line style="stroke:#181818;stroke-width:1;" x1="804.72" x2="992.5921" y1="473.7212" y2="473.7212"/><text fill="#000000" font-family="sans-serif" font-size="14" lengthAdjust="spacing" textLength="8.9072" x="814.1736" y="488.7164">6</text><text fill="#000000" font-family="sans-serif" font-size="14" lengthAdjust="spacing" textLength="64.2236" x="837.5345" y="488.7164">Cafetería</text><line style="stroke:#181818;stroke-width:1;" x1="832.5345" x2="832.5345" y1="473.7212" y2="494.0181"/><line style="stroke:#181818;stroke-width:1;" x1="804.72" x2="992.5921" y1="494.0181" y2="494.0181"/><text fill="#000000" font-family="sans-serif" font-size="14" lengthAdjust="spacing" textLength="8.9072" x="814.1736" y="509.0132">7</text><text fill="#000000" font-family="sans-serif" font-size="14" lengthAdjust="spacing" textLength="62.959" x="837.5345" y="509.0132">Pasillo -2</text><line style="stroke:#181818;stroke-width:1;" x1="832.5345" x2="832.5345" y1="494.0181" y2="514.315"/><line style="stroke:#181818;stroke-width:1;" x1="804.72" x2="992.5921" y1="514.315" y2="514.315"/><text fill="#000000" font-family="sans-serif" font-size="14" lengthAdjust="spacing" textLength="8.9072" x="814.1736" y="529.3101">8</text><text fill="#000000" font-family="sans-serif" font-size="14" lengthAdjust="spacing" textLength="57.9072" x="837.5345" y="529.3101">Pasillo 0</text><line style="stroke:#181818;stroke-width:1;" x1="832.5345" x2="832.5345" y1="514.315" y2="534.6119"/><line style="stroke:#181818;stroke-width:1;" x1="804.72" x2="992.5921" y1="534.6119" y2="534.6119"/><text fill="#000000" font-family="sans-serif" font-size="14" lengthAdjust="spacing" textLength="8.9072" x="814.1736" y="549.607">9</text><text fill="#000000" font-family="sans-serif" font-size="14" lengthAdjust="spacing" textLength="55.0088" x="837.5345" y="549.607">Entrada</text><line style="stroke:#181818;stroke-width:1;" x1="832.5345" x2="832.5345" y1="534.6119" y2="554.9087"/><line style="stroke:#181818;stroke-width:1;" x1="804.72" x2="992.5921" y1="554.9087" y2="554.9087"/><text fill="#000000" font-family="sans-serif" font-size="14" lengthAdjust="spacing" textLength="17.8145" x="809.72" y="569.9039">10</text><text fill="#000000" font-family="sans-serif" font-size="14" lengthAdjust="spacing" textLength="59.7393" x="837.5345" y="569.9039">Pabellón</text><line style="stroke:#181818;stroke-width:1;" x1="832.5345" x2="832.5345" y1="554.9087" y2="575.2056"/></g><!--reverse link uneatlantico to edificioPrincipal--><g class="link" data-entity-1="uneatlantico" data-entity-2="edificioPrincipal" data-source-line="121" data-uid="lnk22" id="link_uneatlantico_edificioPrincipal"><path codeLine="121" d="M213.2804,564.2503 C254.9504,530.0003 328.76,471.44 404.95,423.44 C442.78,399.61 487.93,376.4 521.41,360.1" fill="none" id="uneatlantico-backto-edificioPrincipal" style="stroke:#181818;stroke-width:1;"/><polygon fill="#181818" points="204.01,571.87,211.1851,571.1503,213.2804,564.2503,206.1053,564.97,204.01,571.87" style="stroke:#181818;stroke-width:1;"/></g><!--reverse link uneatlantico to exterior--><g class="link" data-entity-1="uneatlantico" data-entity-2="exterior" data-source-line="122" data-uid="lnk23" id="link_uneatlantico_exterior"><path codeLine="122" d="M300.5185,619.6051 C353.5885,630.4151 405.1,640.9 458.15,651.71" fill="none" id="uneatlantico-backto-exterior" style="stroke:#181818;stroke-width:1;"/><polygon fill="#181818" points="288.76,617.21,293.8409,622.3271,300.5185,619.6051,295.4376,614.4881,288.76,617.21" style="stroke:#181818;stroke-width:1;"/></g><!--reverse link edificioPrincipal to sotano3--><g class="link" data-entity-1="edificioPrincipal" data-entity-2="sotano3" data-source-line="124" data-uid="lnk24" id="link_edificioPrincipal_sotano3"><path codeLine="124" d="M616.6705,308.0782 C679.3105,267.0782 800.2,187.95 862.65,147.08" fill="none" id="edificioPrincipal-backto-sotano3" style="stroke:#181818;stroke-width:1;"/><polygon fill="#181818" points="606.63,314.65,613.8408,314.7109,616.6705,308.0782,609.4596,308.0173,606.63,314.65" style="stroke:#181818;stroke-width:1;"/></g><!--reverse link edificioPrincipal to planta0--><g class="link" data-entity-1="edificioPrincipal" data-entity-2="planta0" data-source-line="125" data-uid="lnk25" id="link_edificioPrincipal_planta0"><path codeLine="125" d="M741.1472,312.9877 C768.4072,309.0577 783.98,306.8 808.57,303.25" fill="none" id="edificioPrincipal-backto-planta0" style="stroke:#181818;stroke-width:1;"/><polygon fill="#181818" points="729.27,314.7,735.7794,317.8029,741.1472,312.9877,734.6378,309.8848,729.27,314.7" style="stroke:#181818;stroke-width:1;"/></g><!--reverse link edificioPrincipal to planta_2--><g class="link" data-entity-1="edificioPrincipal" data-entity-2="planta_2" data-source-line="126" data-uid="lnk26" id="link_edificioPrincipal_planta_2"><path codeLine="126" d="M652.8334,364.8078 C685.5634,378.5578 711.68,394.48 736.67,423.44 C789.83,485.06 740.42,537.63 796.67,596.44 C803.23,603.3 811.11,609.01 819.54,613.76" fill="none" id="edificioPrincipal-backto-planta_2" style="stroke:#181818;stroke-width:1;"/><polygon fill="#181818" points="641.77,360.16,645.7524,366.1717,652.8334,364.8078,648.8509,358.7961,641.77,360.16" style="stroke:#181818;stroke-width:1;"/></g><!--reverse link planta0 to aula1--><g class="link" data-entity-1="planta0" data-entity-2="aula1" data-source-line="128" data-uid="lnk27" id="link_planta0_aula1"><path codeLine="128" d="M974.4075,317.8441 C986.7475,322.9841 988.32,324.18 999.78,330.44 C1028.57,346.18 1030.71,358.23 1059.78,373.44 C1077.47,382.7 1097.33,390.89 1116.26,397.75" fill="none" id="planta0-backto-aula1" style="stroke:#181818;stroke-width:1;"/><polygon fill="#181818" points="963.33,313.23,967.3307,319.2295,974.4075,317.8441,970.4068,311.8446,963.33,313.23" style="stroke:#181818;stroke-width:1;"/></g><!--reverse link planta0 to ORI--><g class="link" data-entity-1="planta0" data-entity-2="ORI" data-source-line="129" data-uid="lnk28" id="link_planta0_ORI"><path codeLine="129" d="M937.2344,260.4873 C968.3044,236.6073 1010.66,206.37 1059.78,181.44 C1082.78,169.77 1109.3,159.66 1132.68,151.77" fill="none" id="planta0-backto-ORI" style="stroke:#181818;stroke-width:1;"/><polygon fill="#181818" points="927.72,267.8,934.9148,267.3151,937.2344,260.4873,930.0397,260.9722,927.72,267.8" style="stroke:#181818;stroke-width:1;"/></g><!--reverse link planta0 to entrada--><g class="link" data-entity-1="planta0" data-entity-2="entrada" data-source-line="130" data-uid="lnk29" id="link_planta0_entrada"><path codeLine="130" d="M999.5123,269.7146 C1022.0923,265.0546 1035.13,262.35 1059.45,257.32" fill="none" id="planta0-backto-entrada" style="stroke:#181818;stroke-width:1;"/><polygon fill="#181818" points="987.76,272.14,994.4446,274.8447,999.5123,269.7146,992.8277,267.0098,987.76,272.14" style="stroke:#181818;stroke-width:1;"/></g><!--reverse link planta0 to pasillo0--><g class="link" data-entity-1="planta0" data-entity-2="pasillo0" data-source-line="131" data-uid="lnk30" id="link_planta0_pasillo0"><path codeLine="131" d="M999.6766,302.3624 C1040.5966,307.2124 1076.84,311.51 1116.36,316.2" fill="none" id="planta0-backto-pasillo0" style="stroke:#181818;stroke-width:1;"/><polygon fill="#181818" points="987.76,300.95,993.2475,305.6284,999.6766,302.3624,994.1891,297.684,987.76,300.95" style="stroke:#181818;stroke-width:1;"/></g><!--reverse link sotano3 to parkingSotano--><g class="link" data-entity-1="sotano3" data-entity-2="parkingSotano" data-source-line="132" data-uid="lnk31" id="link_sotano3_parkingSotano"><path codeLine="132" d="M987.8797,98.305 C1022.4597,88.105 1052.27,79.32 1089.59,68.32" fill="none" id="sotano3-backto-parkingSotano" style="stroke:#181818;stroke-width:1;"/><polygon fill="none" points="976.37,101.7,983.2565,103.8391,987.8797,98.305,980.9932,96.1659,976.37,101.7" style="stroke:#181818;stroke-width:1;"/></g><!--reverse link planta_2 to cafeteria--><g class="link" data-entity-1="planta_2" data-entity-2="cafeteria" data-source-line="134" data-uid="lnk32" id="link_planta_2_cafeteria"><path codeLine="134" d="M991.4336,629.2564 C1032.8236,626.0264 1071.24,623.04 1112.81,619.8" fill="none" id="planta_2-backto-cafeteria" style="stroke:#181818;stroke-width:1;"/><polygon fill="#181818" points="979.47,630.19,985.763,633.7111,991.4336,629.2564,985.1406,625.7353,979.47,630.19" style="stroke:#181818;stroke-width:1;"/></g><!--reverse link planta_2 to aula6--><g class="link" data-entity-1="planta_2" data-entity-2="aula6" data-source-line="135" data-uid="lnk33" id="link_planta_2_aula6"><path codeLine="135" d="M991.1189,659.1815 C1032.7589,669.4815 1071.86,679.15 1113.58,689.47" fill="none" id="planta_2-backto-aula6" style="stroke:#181818;stroke-width:1;"/><polygon fill="#181818" points="979.47,656.3,984.334,661.6237,991.1189,659.1815,986.2549,653.8578,979.47,656.3" style="stroke:#181818;stroke-width:1;"/></g><!--reverse link planta_2 to pasillo_2--><g class="link" data-entity-1="planta_2" data-entity-2="pasillo_2" data-source-line="136" data-uid="lnk34" id="link_planta_2_pasillo_2"><path codeLine="136" d="M970.3154,609.2376 C983.7854,603.8276 986.79,602.37 999.78,596.44 C1027.09,583.99 1032.25,577.4 1059.78,565.44 C1076.95,557.98 1095.7,550.75 1113.6,544.26" fill="none" id="planta_2-backto-pasillo_2" style="stroke:#181818;stroke-width:1;"/><polygon fill="#181818" points="959.18,613.71,966.2385,615.1856,970.3154,609.2376,963.2569,607.762,959.18,613.71" style="stroke:#181818;stroke-width:1;"/></g><!--reverse link exterior to plantaExterior--><g class="link" data-entity-1="exterior" data-entity-2="plantaExterior" data-source-line="138" data-uid="lnk35" id="link_exterior_plantaExterior"><path codeLine="138" d="M623.5351,702.9022 C685.9651,737.2322 793.3,796.28 855.83,830.68" fill="none" id="exterior-backto-plantaExterior" style="stroke:#181818;stroke-width:1;"/><polygon fill="#181818" points="613.02,697.12,616.3501,703.5161,623.5351,702.9022,620.2049,696.5061,613.02,697.12" style="stroke:#181818;stroke-width:1;"/></g><!--reverse link plantaExterior to areaVerde1--><g class="link" data-entity-1="plantaExterior" data-entity-2="areaVerde1" data-source-line="140" data-uid="lnk36" id="link_plantaExterior_areaVerde1"><path codeLine="140" d="M1011.7946,871.7548 C1043.8546,876.9648 1067.36,880.79 1099.02,885.94" fill="none" id="plantaExterior-backto-areaVerde1" style="stroke:#181818;stroke-width:1;"/><polygon fill="#181818" points="999.95,869.83,1005.2307,874.7406,1011.7946,871.7548,1006.5139,866.8442,999.95,869.83" style="stroke:#181818;stroke-width:1;"/></g><!--reverse link plantaExterior to canchaPadel1--><g class="link" data-entity-1="plantaExterior" data-entity-2="canchaPadel1" data-source-line="141" data-uid="lnk37" id="link_plantaExterior_canchaPadel1"><path codeLine="141" d="M942.6391,882.6392 C974.3891,903.4992 1013.96,927.83 1059.78,949.44 C1072.68,955.53 1086.57,961.3 1100.35,966.6" fill="none" id="plantaExterior-backto-canchaPadel1" style="stroke:#181818;stroke-width:1;"/><polygon fill="#181818" points="932.61,876.05,935.4281,882.6876,942.6391,882.6392,939.8209,876.0016,932.61,876.05" style="stroke:#181818;stroke-width:1;"/></g><!--reverse link plantaExterior to pabellon--><g class="link" data-entity-1="plantaExterior" data-entity-2="pabellon" data-source-line="142" data-uid="lnk38" id="link_plantaExterior_pabellon"><path codeLine="142" d="M1011.7947,835.1358 C1037.0947,831.0258 1052.59,828.5 1078.56,824.27" fill="none" id="plantaExterior-backto-pabellon" style="stroke:#181818;stroke-width:1;"/><polygon fill="#181818" points="999.95,837.06,1006.5138,840.0462,1011.7947,835.1358,1005.231,832.1497,999.95,837.06" style="stroke:#181818;stroke-width:1;"/></g><!--link visitante to recorrido--><g class="link" data-entity-1="visitante" data-entity-2="recorrido" data-source-line="147" data-uid="lnk39" id="link_visitante_recorrido"><path codeLine="147" d="M640.03,463.44 C685.5,463.44 740.05,463.44 790.97,463.44" fill="none" id="visitante-to-recorrido" style="stroke:#181818;stroke-width:1;"/><polygon fill="#181818" points="796.97,463.44,787.97,459.44,791.97,463.44,787.97,467.44,796.97,463.44" style="stroke:#181818;stroke-width:1;"/></g><!--reverse link recorrido to entrada--><g class="link" data-entity-1="recorrido" data-entity-2="entrada" data-source-line="148" data-uid="lnk40" id="link_recorrido_entrada"><path codeLine="148" d="M1005.22,381.44 C1060.1,381.44 1016.84,311.61 1059.78,277.44 C1068.03,270.88 1077.24,265.18 1086.88,260.22" fill="none" id="recorrido-backto-entrada" style="stroke:#181818;stroke-width:1;"/><polygon fill="none" points="993.22,381.44,999.22,385.44,1005.22,381.44,999.22,377.44,993.22,381.44" style="stroke:#181818;stroke-width:1;"/></g><!--reverse link recorrido to pasillo0--><g class="link" data-entity-1="recorrido" data-entity-2="pasillo0" data-source-line="149" data-uid="lnk41" id="link_recorrido_pasillo0"><path codeLine="149" d="M1005.22,401.44 C1037.32,401.44 1029.87,385.06 1059.78,373.44 C1077.93,366.4 1097.6,359.16 1116.15,352.51" fill="none" id="recorrido-backto-pasillo0" style="stroke:#181818;stroke-width:1;"/><polygon fill="none" points="993.22,401.44,999.22,405.44,1005.22,401.44,999.22,397.44,993.22,401.44" style="stroke:#181818;stroke-width:1;"/></g><!--reverse link recorrido to aula1--><g class="link" data-entity-1="recorrido" data-entity-2="aula1" data-source-line="150" data-uid="lnk42" id="link_recorrido_aula1"><path codeLine="150" d="M1005.22,421.44 C1045.9,421.44 1079.2,421.44 1116.49,421.44" fill="none" id="recorrido-backto-aula1" style="stroke:#181818;stroke-width:1;"/><polygon fill="none" points="993.22,421.44,999.22,425.44,1005.22,421.44,999.22,417.44,993.22,421.44" style="stroke:#181818;stroke-width:1;"/></g><!--reverse link recorrido to pasillo_2--><g class="link" data-entity-1="recorrido" data-entity-2="pasillo_2" data-source-line="151" data-uid="lnk43" id="link_recorrido_pasillo_2"><path codeLine="151" d="M1005.22,462.44 C1047.75,462.44 1081.6,474.03 1118.77,486.57" fill="none" id="recorrido-backto-pasillo_2" style="stroke:#181818;stroke-width:1;"/><polygon fill="none" points="993.22,462.44,999.22,466.44,1005.22,462.44,999.22,458.44,993.22,462.44" style="stroke:#181818;stroke-width:1;"/></g><!--reverse link recorrido to cafeteria--><g class="link" data-entity-1="recorrido" data-entity-2="cafeteria" data-source-line="152" data-uid="lnk44" id="link_recorrido_cafeteria"><path codeLine="152" d="M1005.22,483.44 C1052.16,483.44 1021.47,538.33 1059.78,565.44 C1075.67,576.69 1094.47,585.55 1112.89,592.44" fill="none" id="recorrido-backto-cafeteria" style="stroke:#181818;stroke-width:1;"/><polygon fill="none" points="993.22,483.44,999.22,487.44,1005.22,483.44,999.22,479.44,993.22,483.44" style="stroke:#181818;stroke-width:1;"/></g><!--reverse link recorrido to pabellon--><g class="link" data-entity-1="recorrido" data-entity-2="pabellon" data-source-line="153" data-uid="lnk45" id="link_recorrido_pabellon"><path codeLine="153" d="M1005.22,564.44 C1095.96,564.44 995.96,692.95 1059.78,757.44 C1066.32,764.06 1073.83,769.76 1081.89,774.68" fill="none" id="recorrido-backto-pabellon" style="stroke:#181818;stroke-width:1;"/><polygon fill="none" points="993.22,564.44,999.22,568.44,1005.22,564.44,999.22,560.44,993.22,564.44" style="stroke:#181818;stroke-width:1;"/></g><!--SRC=[ZLRDJXin4BxxAKQv85LQb8IIjaWWKPf3fKf4q7Be1Kso1amNE_Kwg5NLGn-51-Y9HyYBrR-xjdUNDATull4tuy-UcQteZG8bGBBREmKbatIbcE24x1NT7zc3BvmzKbcp4alu2HVqLZlJkjzRBEyr6umsdAAga2ks4d0KKum0QqZWNmJqZuk7fQHm3ACutdmZnPeYbBI2KrLjd-oM4VbDcb2qP3TinSH2ChvYQwnqF9Ua3TM5ytXdb2ifT0YWjTgKJ9ZyN0eAfLwcuNuegeqoYnAiEVbNmR55EybOwW7T5qOWt25qBHHoSQ2pSUuscs3CaxdSFXi03f8JhUt6SKeHZ3c5Su7tU8yz9DVJFXPj7Q0ffZqayrRX3jLyI6TF69H-KLUiMLM97S9wBvsYpcDUhr5Vcql40Ns7QhQCBABOMXZxNBylB5EzWk-udtqyI3uUvXuuhwVVSLxSL3Z9ad6sF9DJRONn_YHDn5ZJGd6PPPJ1cfFwSm229jz4xMAdakSN7xCOnfBpQrjATMuAaQTKAxoXvltaIRVsJkzmoFOlfkndOKV2R_ISzMWywzUucExFKjfFk1GIbT1FF2qSbDyOlxsqTTzvKJ7MqRrMnfFZ0zDN8y2vfL4NZY4zYgHuHML9Es-c1V9OspyQ0mj2_dh2hkm- -EeE5wYx_wHp9H7KlHK3cevk7RgXFj2ra8ezPZqCbrIN6Ey8wCtTaZJ0zfb3u1ExGWsKw1KpiuOhQWViIaZ9Ih6hFoqhSzNDLflhOqFKaspb7iq3hc7qMMnaQ0nsbFcWbaM6bM6PmF49-C8ZC3MhfXSHE33hq148lCxWmtXTJ0dCZA6j6W9lSe-t6SMx9Fvax62l_0kQNj3AlcnQcuTmJoNAxniJijS_-I9vLHJTKTtZueSD8TsF38FxCJo0-Wdx8dez9IHCOcEr3JcnwBwMh7r_JMnXff3mNI2iCMeB8OeUQcP3q-zIisrLgQaPXbg3C9hRzEUDGDdqjcnDe-X3u_hkmqDH_j_rL-sJxlTlwwOeJYBdvj_HqSJA5lIDWAdNquiS8KvfTscH-J3UeAMBe9c5MltZ-6E_pHty7m00]--></g></svg>