<svg xmlns="http://www.w3.org/2000/svg" xmlns:xlink="http://www.w3.org/1999/xlink" contentStyleType="text/css" data-diagram-type="STATE" height="746px" preserveAspectRatio="none" style="width:671px;height:746px;background:#FFFFFF;" version="1.1" viewBox="0 0 671 746" width="671px" zoomAndPan="magnify"><defs/><g><g id="in1"><rect fill="#F1F1F1" height="50" rx="12.5" ry="12.5" style="stroke:#181818;stroke-width:0.5;" width="208.2617" x="49" y="7"/><line style="stroke:#181818;stroke-width:0.5;" x1="49" x2="257.2617" y1="33.2969" y2="33.2969"/><text fill="#000000" font-family="sans-serif" font-size="14" lengthAdjust="spacing" textLength="188.2617" x="59" y="24.9951">UNIVERSIDAD_DISPONIBLE</text></g><g id="in2"><rect fill="#F1F1F1" height="50" rx="12.5" ry="12.5" style="stroke:#181818;stroke-width:0.5;" width="149.1309" x="292.5" y="7"/><line style="stroke:#181818;stroke-width:0.5;" x1="292.5" x2="441.6309" y1="33.2969" y2="33.2969"/><text fill="#000000" font-family="sans-serif" font-size="14" lengthAdjust="spacing" textLength="129.1309" x="302.5" y="24.9951">ESPACIO_ABIERTO</text></g><path d="M92.5,118 L427.5,118 A12.5,12.5 0 0 1 440,130.5 L440,144.2969 L80,144.2969 L80,130.5 A12.5,12.5 0 0 1 92.5,118" fill="#F1F1F1"/><rect fill="none" height="477.2969" rx="12.5" ry="12.5" style="stroke:#181818;stroke-width:0.5;" width="360" x="80" y="118"/><line style="stroke:#181818;stroke-width:0.5;" x1="80" x2="440" y1="144.2969" y2="144.2969"/><text fill="#000000" font-family="sans-serif" font-size="14" lengthAdjust="spacing" textLength="104.8428" x="207.5786" y="135.9951">abrirEspacios()</text><g id="abrirEspacios.MostrandoLista"><rect fill="#F1F1F1" height="50" rx="12.5" ry="12.5" style="stroke:#181818;stroke-width:0.5;" width="50" x="92" y="246.2969"/><line style="stroke:#181818;stroke-width:0.5;" x1="92" x2="142" y1="272.5938" y2="272.5938"/><text fill="#000000" font-family="sans-serif" font-size="14" lengthAdjust="spacing" textLength="4.4502" x="114.7749" y="264.292">&#160;</text></g><g id="abrirEspacios.FiltrandoLista"><rect fill="#F1F1F1" height="50" rx="12.5" ry="12.5" style="stroke:#181818;stroke-width:0.5;" width="50" x="92" y="442.2969"/><line style="stroke:#181818;stroke-width:0.5;" x1="92" x2="142" y1="468.5938" y2="468.5938"/><text fill="#000000" font-family="sans-serif" font-size="14" lengthAdjust="spacing" textLength="4.4502" x="114.7749" y="460.292">&#160;</text></g><ellipse cx="117" cy="165.2969" fill="#222222" rx="10" ry="10" style="stroke:#222222;stroke-width:1;"/><ellipse cx="117" cy="574.2969" fill="none" rx="11" ry="11" style="stroke:#222222;stroke-width:1;"/><ellipse cx="117" cy="574.2969" fill="#222222" rx="6" ry="6" style="stroke:#222222;stroke-width:1;"/><!--link *start*abrirEspacios to MostrandoLista--><g class="link" data-entity-1=".start.abrirEspacios" data-entity-2="MostrandoLista" data-source-line="14" data-uid="lnk5" id="link_.start.abrirEspacios_MostrandoLista"><path d="M117,175.5269 C117,191.2369 117,217.6569 117,240.1669" fill="none" id="*start*abrirEspacios-to-MostrandoLista" style="stroke:#008000;stroke-width:1;"/><polygon fill="#008000" points="117,246.1669,121,237.1669,117,241.1669,113,237.1669,117,246.1669" style="stroke:#008000;stroke-width:1;"/><path d="M122,198.2969 L122,223.2969 L393,223.2969 L393,208.2969 L383,198.2969 L122,198.2969" fill="#FEFFDD" style="stroke:#181818;stroke-width:0.5;"/><path d="M383,198.2969 L383,208.2969 L393,208.2969 L383,198.2969" fill="#FEFFDD" style="stroke:#181818;stroke-width:0.5;"/><text fill="#000000" font-family="sans-serif" font-size="13" font-weight="bold" lengthAdjust="spacing" textLength="104.8633" x="128" y="215.3638">Administrador</text><text fill="#000000" font-family="sans-serif" font-size="13" lengthAdjust="spacing" textLength="141.0322" x="236.9956" y="215.3638">solicita abrir espacios</text></g><!--link MostrandoLista to FiltrandoLista--><g class="link" data-entity-1="MostrandoLista" data-entity-2="FiltrandoLista" data-source-line="19" data-uid="lnk6" id="link_MostrandoLista_FiltrandoLista"><path d="M117,296.4769 C117,333.7569 117,398.8469 117,436.1169" fill="none" id="MostrandoLista-to-FiltrandoLista" style="stroke:#008000;stroke-width:1;"/><polygon fill="#008000" points="117,442.1169,121,433.1169,117,437.1169,113,433.1169,117,442.1169" style="stroke:#008000;stroke-width:1;"/><path d="M122,319.2969 L122,419.2969 L396,419.2969 L396,329.2969 L386,319.2969 L122,319.2969" fill="#FEFFDD" style="stroke:#181818;stroke-width:0.5;"/><path d="M386,319.2969 L386,329.2969 L396,329.2969 L386,319.2969" fill="#FEFFDD" style="stroke:#181818;stroke-width:0.5;"/><text fill="#000000" font-family="sans-serif" font-size="13" font-weight="bold" lengthAdjust="spacing" textLength="58.9063" x="128" y="336.3638">Sistema</text><text fill="#000000" font-family="sans-serif" font-size="13" lengthAdjust="spacing" textLength="169.8506" x="191.0386" y="336.3638">presenta lista de espacios</text><text fill="#000000" font-family="sans-serif" font-size="13" lengthAdjust="spacing" textLength="201.7349" x="128" y="351.4966">&#8226; ID y nombre de cada espacio</text><text fill="#000000" font-family="sans-serif" font-size="13" lengthAdjust="spacing" textLength="188.481" x="128" y="366.6294">&#8226; Permite solicitar filtrar lista</text><text fill="#000000" font-family="sans-serif" font-size="13" lengthAdjust="spacing" textLength="253.627" x="128" y="381.7622">&#8226; Permite solicitar crear espacio nuevo</text><text fill="#000000" font-family="sans-serif" font-size="13" lengthAdjust="spacing" textLength="228.6172" x="128" y="396.895">&#8226; Permite solicitar eliminar espacio</text><text fill="#000000" font-family="sans-serif" font-size="13" lengthAdjust="spacing" textLength="213.8398" x="128" y="412.0278">&#8226; Permite solicitar editar espacio</text></g><!--link FiltrandoLista to FiltrandoLista--><g class="link" data-entity-1="FiltrandoLista" data-entity-2="FiltrandoLista" data-source-line="29" data-uid="lnk7" id="link_FiltrandoLista_FiltrandoLista"><path d="M142.18,456.0869 C151.91,455.5969 160,459.3269 160,467.2969 C160,475.2669 157.9024,479.2987 148.1724,478.8087" fill="none" id="FiltrandoLista-to-FiltrandoLista" style="stroke:#008000;stroke-width:1;"/><polygon fill="#008000" points="142.18,478.5069,150.9674,482.9545,147.1737,478.7584,151.3698,474.9646,142.18,478.5069" style="stroke:#008000;stroke-width:1;"/><path d="M165,447.2969 L165,487.2969 L411,487.2969 L411,457.2969 L401,447.2969 L165,447.2969" fill="#FEFFDD" style="stroke:#181818;stroke-width:0.5;"/><path d="M401,447.2969 L401,457.2969 L411,457.2969 L401,447.2969" fill="#FEFFDD" style="stroke:#181818;stroke-width:0.5;"/><text fill="#000000" font-family="sans-serif" font-size="13" font-weight="bold" lengthAdjust="spacing" textLength="104.8633" x="171" y="464.3638">Administrador</text><text fill="#000000" font-family="sans-serif" font-size="13" lengthAdjust="spacing" textLength="116.6509" x="279.9956" y="464.3638">solicita filtrar lista</text><text fill="#000000" font-family="sans-serif" font-size="13" font-weight="bold" lengthAdjust="spacing" textLength="58.9063" x="171" y="479.4966">Sistema</text><text fill="#000000" font-family="sans-serif" font-size="13" lengthAdjust="spacing" textLength="139.4199" x="234.0386" y="479.4966">presenta lista filtrada</text></g><!--link FiltrandoLista to *end*abrirEspacios--><g class="link" data-entity-1="FiltrandoLista" data-entity-2=".end.abrirEspacios" data-source-line="35" data-uid="lnk9" id="link_FiltrandoLista_.end.abrirEspacios"><path d="M117,492.3869 C117,514.7869 117,541.0669 117,557.2469" fill="none" id="FiltrandoLista-to-*end*abrirEspacios" style="stroke:#008000;stroke-width:1;"/><polygon fill="#008000" points="117,563.2469,121,554.2469,117,558.2469,113,554.2469,117,563.2469" style="stroke:#008000;stroke-width:1;"/><path d="M122,515.2969 L122,540.2969 L431,540.2969 L431,525.2969 L421,515.2969 L122,515.2969" fill="#FEFFDD" style="stroke:#181818;stroke-width:0.5;"/><path d="M421,515.2969 L421,525.2969 L431,525.2969 L421,515.2969" fill="#FEFFDD" style="stroke:#181818;stroke-width:0.5;"/><text fill="#000000" font-family="sans-serif" font-size="13" font-weight="bold" lengthAdjust="spacing" textLength="104.8633" x="128" y="532.3638">Administrador</text><text fill="#000000" font-family="sans-serif" font-size="13" lengthAdjust="spacing" textLength="179.2769" x="236.9956" y="532.3638">solicita una de las opciones</text></g><g id="ESPACIO_ABIERTO"><rect fill="#F1F1F1" height="50" rx="12.5" ry="12.5" style="stroke:#181818;stroke-width:0.5;" width="149.1309" x="7.5" y="690"/><line style="stroke:#181818;stroke-width:0.5;" x1="7.5" x2="156.6309" y1="716.2969" y2="716.2969"/><text fill="#000000" font-family="sans-serif" font-size="14" lengthAdjust="spacing" textLength="129.1309" x="17.5" y="707.9951">ESPACIO_ABIERTO</text></g><g id="ESPACIOS_ABIERTO"><rect fill="#F1F1F1" height="50" rx="12.5" ry="12.5" style="stroke:#181818;stroke-width:0.5;" width="158.0176" x="263" y="690"/><line style="stroke:#181818;stroke-width:0.5;" x1="263" x2="421.0176" y1="716.2969" y2="716.2969"/><text fill="#000000" font-family="sans-serif" font-size="14" lengthAdjust="spacing" textLength="138.0176" x="273" y="707.9951">ESPACIOS_ABIERTO</text></g><g id="UNIVERSIDAD_DISPONIBLE"><rect fill="#F1F1F1" height="50" rx="12.5" ry="12.5" style="stroke:#181818;stroke-width:0.5;" width="208.2617" x="456" y="690"/><line style="stroke:#181818;stroke-width:0.5;" x1="456" x2="664.2617" y1="716.2969" y2="716.2969"/><text fill="#000000" font-family="sans-serif" font-size="14" lengthAdjust="spacing" textLength="188.2617" x="466" y="707.9951">UNIVERSIDAD_DISPONIBLE</text></g><!--link in1 to abrirEspacios--><g class="link" data-entity-1="in1" data-entity-2="abrirEspacios" data-source-line="3" data-uid="lnk2" id="link_in1_abrirEspacios"><path d="M161.04,57.24 C166.07,72.4 171.219,87.9258 179.259,112.1358" fill="none" id="in1-to-abrirEspacios" style="stroke:#008000;stroke-width:1;"/><polygon fill="#008000" points="181.15,117.83,182.1096,108.028,179.5742,113.0848,174.5173,110.5494,181.15,117.83" style="stroke:#008000;stroke-width:1;"/></g><!--link in2 to abrirEspacios--><g class="link" data-entity-1="in2" data-entity-2="abrirEspacios" data-source-line="5" data-uid="lnk3" id="link_in2_abrirEspacios"><path d="M358.96,57.24 C353.93,72.4 348.781,87.9258 340.741,112.1358" fill="none" id="in2-to-abrirEspacios" style="stroke:#008000;stroke-width:1;"/><polygon fill="#008000" points="338.85,117.83,345.4827,110.5494,340.4258,113.0848,337.8904,108.028,338.85,117.83" style="stroke:#008000;stroke-width:1;"/></g><!--link abrirEspacios to ESPACIO_ABIERTO--><g class="link" data-entity-1="abrirEspacios" data-entity-2="ESPACIO_ABIERTO" data-source-line="41" data-uid="lnk11" id="link_abrirEspacios_ESPACIO_ABIERTO"><path d="M79.81,547.27 C38.27,591.01 6,625 6,625 C6,625 6,660 6,660 C6,660 22.8785,671.9954 43.1085,686.3654" fill="none" id="abrirEspacios-to-ESPACIO_ABIERTO" style="stroke:#008000;stroke-width:1;"/><polygon fill="#008000" points="48,689.84,42.9791,681.3671,43.9237,686.9445,38.3463,687.8891,48,689.84" style="stroke:#008000;stroke-width:1;"/><path d="M11,630 L11,655 L130,655 L130,640 L120,630 L11,630" fill="#FEFFDD" style="stroke:#181818;stroke-width:0.5;"/><path d="M120,630 L120,640 L130,640 L120,630" fill="#FEFFDD" style="stroke:#181818;stroke-width:0.5;"/><text fill="#000000" font-family="sans-serif" font-size="13" lengthAdjust="spacing" textLength="98.3315" x="17" y="647.0669">editarEspacio()</text></g><!--link abrirEspacios to ESPACIO_ABIERTO--><g class="link" data-entity-1="abrirEspacios" data-entity-2="ESPACIO_ABIERTO" data-source-line="46" data-uid="lnk12" id="link_abrirEspacios_ESPACIO_ABIERTO"><path d="M164.96,595.11 C149.81,632.99 139,660 139,660 C139,660 127.0373,671.3452 111.8573,685.7152" fill="none" id="abrirEspacios-to-ESPACIO_ABIERTO-1" style="stroke:#008000;stroke-width:1;"/><polygon fill="#008000" points="107.5,689.84,116.7858,686.5577,111.1311,686.4027,111.2861,680.7479,107.5,689.84" style="stroke:#008000;stroke-width:1;"/><path d="M157,630 L157,655 L271,655 L271,640 L261,630 L157,630" fill="#FEFFDD" style="stroke:#181818;stroke-width:0.5;"/><path d="M261,630 L261,640 L271,640 L261,630" fill="#FEFFDD" style="stroke:#181818;stroke-width:0.5;"/><text fill="#000000" font-family="sans-serif" font-size="13" lengthAdjust="spacing" textLength="93.8628" x="163" y="647.0669">crearEspacio()</text></g><!--link abrirEspacios to ESPACIOS_ABIERTO--><g class="link" data-entity-1="abrirEspacios" data-entity-2="ESPACIOS_ABIERTO" data-source-line="51" data-uid="lnk14" id="link_abrirEspacios_ESPACIOS_ABIERTO"><path d="M314.7,595.29 C323.57,633.86 330.1234,662.3831 335.1234,684.0931" fill="none" id="abrirEspacios-to-ESPACIOS_ABIERTO" style="stroke:#008000;stroke-width:1;"/><polygon fill="#008000" points="336.47,689.94,338.3481,680.2719,335.3478,685.0676,330.5521,682.0673,336.47,689.94" style="stroke:#008000;stroke-width:1;"/><path d="M333,630 L333,655 L467,655 L467,640 L457,630 L333,630" fill="#FEFFDD" style="stroke:#181818;stroke-width:0.5;"/><path d="M457,630 L457,640 L467,640 L457,630" fill="#FEFFDD" style="stroke:#181818;stroke-width:0.5;"/><text fill="#000000" font-family="sans-serif" font-size="13" lengthAdjust="spacing" textLength="113.1089" x="339" y="647.0669">eliminarEspacio()</text></g><!--link abrirEspacios to UNIVERSIDAD_DISPONIBLE--><g class="link" data-entity-1="abrirEspacios" data-entity-2="UNIVERSIDAD_DISPONIBLE" data-source-line="56" data-uid="lnk16" id="link_abrirEspacios_UNIVERSIDAD_DISPONIBLE"><path d="M440.14,571.56 C480.46,619.48 513.8875,659.1986 535.8275,685.2786" fill="none" id="abrirEspacios-to-UNIVERSIDAD_DISPONIBLE" style="stroke:#008000;stroke-width:1;"/><polygon fill="#008000" points="539.69,689.87,536.9571,680.4079,536.4712,686.0438,530.8353,685.5579,539.69,689.87" style="stroke:#008000;stroke-width:1;"/><path d="M514,630 L514,655 L660,655 L660,640 L650,630 L514,630" fill="#FEFFDD" style="stroke:#181818;stroke-width:0.5;"/><path d="M650,630 L650,640 L660,640 L650,630" fill="#FEFFDD" style="stroke:#181818;stroke-width:0.5;"/><text fill="#000000" font-family="sans-serif" font-size="13" lengthAdjust="spacing" textLength="125.9248" x="520" y="647.0669">completarGestion()</text></g><!--SRC=[dLJHQi8m57tFLmJteWCPyrc4RdQZu5JijXSHIUtT2AP9IUf0nc3Via_Rb-msrThKMT0KMffxxhdddjxKhBbCcMO95Ln2jas1fafiynTYCfO1vVAMCaDRB-FWrP-5mT0RBeT1E9sCWxkHto9vl3k_UjS0Sj4TK1PfhdsJiXLNfkJeMGu_d7htmMJftGN-x7cI9_SQad4L-SwsPN9ssfqM_II4uYhmBRmGzQHCffcCrOZZ_d7yWOjgt0Bcrmj7aSj1BKOgv50ojsnjD_hHm8iJBdcEZPNktqG3QfJWAuuvLYk5VLTv0iYuOC55obkjLbL6JUef5I568M6sVgh1W4GUOTbYS2NyVl_GO4Yto9D46lBuYiLi3oenKz09nqhxTZHzirfqmTk0MsbWPTzKRk2ZYHK4HmSF2KtGk7XKW7j33sQwZbrYPiCdFRQWsVm27xFpjU8yNY9m8-qN5pZbAaMJ9BY3Hxu8SKzLjMZjd1AdUE7-Bg_T8INbfOHsJYxY2qyet8tIUPp__-1gKbMI2i3s7y5aw6g5-Wy0]--></g></svg>