<svg xmlns="http://www.w3.org/2000/svg" xmlns:xlink="http://www.w3.org/1999/xlink" contentStyleType="text/css" data-diagram-type="STATE" height="731px" preserveAspectRatio="none" style="width:500px;height:731px;background:#FFFFFF;" version="1.1" viewBox="0 0 500 731" width="500px" zoomAndPan="magnify"><defs/><g><g id="in1"><rect fill="#F1F1F1" height="50" rx="12.5" ry="12.5" style="stroke:#181818;stroke-width:0.5;" width="182.0938" x="145" y="7"/><line style="stroke:#181818;stroke-width:0.5;" x1="145" x2="327.0938" y1="33.2969" y2="33.2969"/><text fill="#000000" font-family="sans-serif" font-size="14" lengthAdjust="spacing" textLength="162.0938" x="155" y="24.9951">RECORRIDOS_ABIERTO</text></g><path d="M19.5,118 L452.5,118 A12.5,12.5 0 0 1 465,130.5 L465,144.2969 L7,144.2969 L7,130.5 A12.5,12.5 0 0 1 19.5,118" fill="#F1F1F1"/><rect fill="none" height="462.2969" rx="12.5" ry="12.5" style="stroke:#181818;stroke-width:0.5;" width="458" x="7" y="118"/><line style="stroke:#181818;stroke-width:0.5;" x1="7" x2="465" y1="144.2969" y2="144.2969"/><text fill="#000000" font-family="sans-serif" font-size="14" lengthAdjust="spacing" textLength="114.7822" x="178.6089" y="135.9951">crearRecorrido()</text><g id="crearRecorrido.SolicitandoDatos"><rect fill="#F1F1F1" height="50" rx="12.5" ry="12.5" style="stroke:#181818;stroke-width:0.5;" width="50" x="19" y="246.2969"/><line style="stroke:#181818;stroke-width:0.5;" x1="19" x2="69" y1="272.5938" y2="272.5938"/><text fill="#000000" font-family="sans-serif" font-size="14" lengthAdjust="spacing" textLength="4.4502" x="41.7749" y="264.292">&#160;</text></g><g id="crearRecorrido.CreandoRecorrido"><rect fill="#F1F1F1" height="50" rx="12.5" ry="12.5" style="stroke:#181818;stroke-width:0.5;" width="50" x="19" y="412.2969"/><line style="stroke:#181818;stroke-width:0.5;" x1="19" x2="69" y1="438.5938" y2="438.5938"/><text fill="#000000" font-family="sans-serif" font-size="14" lengthAdjust="spacing" textLength="4.4502" x="41.7749" y="430.292">&#160;</text></g><ellipse cx="44" cy="165.2969" fill="#222222" rx="10" ry="10" style="stroke:#222222;stroke-width:1;"/><ellipse cx="44" cy="559.2969" fill="none" rx="11" ry="11" style="stroke:#222222;stroke-width:1;"/><ellipse cx="44" cy="559.2969" fill="#222222" rx="6" ry="6" style="stroke:#222222;stroke-width:1;"/><!--link *start*crearRecorrido to SolicitandoDatos--><g class="link" data-entity-1=".start.crearRecorrido" data-entity-2="SolicitandoDatos" data-source-line="11" data-uid="lnk4" id="link_.start.crearRecorrido_SolicitandoDatos"><path d="M44,175.5269 C44,191.2369 44,217.6569 44,240.1669" fill="none" id="*start*crearRecorrido-to-SolicitandoDatos" style="stroke:#008000;stroke-width:1;"/><polygon fill="#008000" points="44,246.1669,48,237.1669,44,241.1669,40,237.1669,44,246.1669" style="stroke:#008000;stroke-width:1;"/><path d="M49,198.2969 L49,223.2969 L370,223.2969 L370,208.2969 L360,198.2969 L49,198.2969" fill="#FEFFDD" style="stroke:#181818;stroke-width:0.5;"/><path d="M360,198.2969 L360,208.2969 L370,208.2969 L360,198.2969" fill="#FEFFDD" style="stroke:#181818;stroke-width:0.5;"/><text fill="#000000" font-family="sans-serif" font-size="13" font-weight="bold" lengthAdjust="spacing" textLength="104.8633" x="55" y="215.3638">Administrador</text><text fill="#000000" font-family="sans-serif" font-size="13" lengthAdjust="spacing" textLength="191.0454" x="163.9956" y="215.3638">solicita crear recorrido nuevo</text></g><!--link SolicitandoDatos to CreandoRecorrido--><g class="link" data-entity-1="SolicitandoDatos" data-entity-2="CreandoRecorrido" data-source-line="16" data-uid="lnk5" id="link_SolicitandoDatos_CreandoRecorrido"><path d="M44,296.4969 C44,327.5869 44,375.2469 44,406.2669" fill="none" id="SolicitandoDatos-to-CreandoRecorrido" style="stroke:#008000;stroke-width:1;"/><polygon fill="#008000" points="44,412.2669,48,403.2669,44,407.2669,40,403.2669,44,412.2669" style="stroke:#008000;stroke-width:1;"/><path d="M49,319.2969 L49,389.2969 L456,389.2969 L456,329.2969 L446,319.2969 L49,319.2969" fill="#FEFFDD" style="stroke:#181818;stroke-width:0.5;"/><path d="M446,319.2969 L446,329.2969 L456,329.2969 L446,319.2969" fill="#FEFFDD" style="stroke:#181818;stroke-width:0.5;"/><text fill="#000000" font-family="sans-serif" font-size="13" font-weight="bold" lengthAdjust="spacing" textLength="58.9063" x="55" y="336.3638">Sistema</text><text fill="#000000" font-family="sans-serif" font-size="13" lengthAdjust="spacing" textLength="323.3813" x="118.0386" y="336.3638">presenta solicitud de datos m&#237;nimos del recorrido</text><text fill="#000000" font-family="sans-serif" font-size="13" lengthAdjust="spacing" textLength="234.6982" x="55" y="351.4966">&#8226; Nombre del recorrido (obligatorio)</text><text fill="#000000" font-family="sans-serif" font-size="13" lengthAdjust="spacing" textLength="218.6196" x="55" y="366.6294">&#8226; Permite solicitar crear recorrido</text><text fill="#000000" font-family="sans-serif" font-size="13" lengthAdjust="spacing" textLength="236.6978" x="55" y="381.7622">&#8226; Permite solicitar cancelar creaci&#243;n</text></g><!--link CreandoRecorrido to *end*crearRecorrido--><g class="link" data-entity-1="CreandoRecorrido" data-entity-2=".end.crearRecorrido" data-source-line="24" data-uid="lnk7" id="link_CreandoRecorrido_.end.crearRecorrido"><path d="M44,462.5769 C44,488.8769 44,523.5669 44,542.2769" fill="none" id="CreandoRecorrido-to-*end*crearRecorrido" style="stroke:#008000;stroke-width:1;"/><polygon fill="#008000" points="44,548.2769,48,539.2769,44,543.2769,40,539.2769,44,548.2769" style="stroke:#008000;stroke-width:1;"/><path d="M49,485.2969 L49,525.2969 L366,525.2969 L366,495.2969 L356,485.2969 L49,485.2969" fill="#FEFFDD" style="stroke:#181818;stroke-width:0.5;"/><path d="M356,485.2969 L356,495.2969 L366,495.2969 L356,485.2969" fill="#FEFFDD" style="stroke:#181818;stroke-width:0.5;"/><text fill="#000000" font-family="sans-serif" font-size="13" font-weight="bold" lengthAdjust="spacing" textLength="104.8633" x="55" y="502.3638">Administrador</text><text fill="#000000" font-family="sans-serif" font-size="13" lengthAdjust="spacing" textLength="177.8423" x="163.9956" y="502.3638">proporciona datos m&#237;nimos</text><text fill="#000000" font-family="sans-serif" font-size="13" font-weight="bold" lengthAdjust="spacing" textLength="58.9063" x="55" y="517.4966">Sistema</text><text fill="#000000" font-family="sans-serif" font-size="13" lengthAdjust="spacing" textLength="233.4922" x="118.0386" y="517.4966">crea recorrido y transfiere a edici&#243;n</text></g><g id="RECORRIDO_ABIERTO"><rect fill="#F1F1F1" height="50" rx="12.5" ry="12.5" style="stroke:#181818;stroke-width:0.5;" width="173.207" x="8.5" y="675"/><line style="stroke:#181818;stroke-width:0.5;" x1="8.5" x2="181.707" y1="701.2969" y2="701.2969"/><text fill="#000000" font-family="sans-serif" font-size="14" lengthAdjust="spacing" textLength="153.207" x="18.5" y="692.9951">RECORRIDO_ABIERTO</text></g><g id="RECORRIDOS_ABIERTO"><rect fill="#F1F1F1" height="50" rx="12.5" ry="12.5" style="stroke:#181818;stroke-width:0.5;" width="182.0938" x="286" y="675"/><line style="stroke:#181818;stroke-width:0.5;" x1="286" x2="468.0938" y1="701.2969" y2="701.2969"/><text fill="#000000" font-family="sans-serif" font-size="14" lengthAdjust="spacing" textLength="162.0938" x="296" y="692.9951">RECORRIDOS_ABIERTO</text></g><!--link in1 to crearRecorrido--><g class="link" data-entity-1="in1" data-entity-2="crearRecorrido" data-source-line="4" data-uid="lnk2" id="link_in1_crearRecorrido"><path d="M236,57.19 C236,72.39 236,87.68 236,111.89" fill="none" id="in1-to-crearRecorrido" style="stroke:#008000;stroke-width:1;"/><polygon fill="#008000" points="236,117.89,240,108.89,236,112.89,232,108.89,236,117.89" style="stroke:#008000;stroke-width:1;"/></g><!--link crearRecorrido to RECORRIDO_ABIERTO--><g class="link" data-entity-1="crearRecorrido" data-entity-2="RECORRIDO_ABIERTO" data-source-line="31" data-uid="lnk9" id="link_crearRecorrido_RECORRIDO_ABIERTO"><path d="M108.52,580.17 C98.41,598.43 92,610 92,610 C92,610 92,645 92,645 C92,645 92.5265,654.4793 93.3265,668.8493" fill="none" id="crearRecorrido-to-RECORRIDO_ABIERTO" style="stroke:#008000;stroke-width:1;"/><polygon fill="#008000" points="93.66,674.84,97.1535,665.6316,93.3821,669.8477,89.1659,666.0763,93.66,674.84" style="stroke:#008000;stroke-width:1;"/><path d="M97,615 L97,640 L329,640 L329,625 L319,615 L97,615" fill="#FEFFDD" style="stroke:#181818;stroke-width:0.5;"/><path d="M319,615 L319,625 L329,625 L319,615" fill="#FEFFDD" style="stroke:#181818;stroke-width:0.5;"/><text fill="#000000" font-family="sans-serif" font-size="13" lengthAdjust="spacing" textLength="211.6118" x="103" y="632.0669">editarRecorrido(recorridoNuevo)</text></g><!--link crearRecorrido to RECORRIDOS_ABIERTO--><g class="link" data-entity-1="crearRecorrido" data-entity-2="RECORRIDOS_ABIERTO" data-source-line="36" data-uid="lnk11" id="link_crearRecorrido_RECORRIDOS_ABIERTO"><path d="M329.07,580.36 C344.59,618.77 356.22,647.5878 365.01,669.3178" fill="none" id="crearRecorrido-to-RECORRIDOS_ABIERTO" style="stroke:#0000FF;stroke-width:1;"/><polygon fill="#0000FF" points="367.26,674.88,367.5932,665.0368,365.385,670.2449,360.177,668.0367,367.26,674.88" style="stroke:#0000FF;stroke-width:1;"/><path d="M358,615 L358,640 L493,640 L493,625 L483,615 L358,615" fill="#FEFFDD" style="stroke:#181818;stroke-width:0.5;"/><path d="M483,615 L483,625 L493,625 L483,615" fill="#FEFFDD" style="stroke:#181818;stroke-width:0.5;"/><text fill="#000000" font-family="sans-serif" font-size="13" lengthAdjust="spacing" textLength="114.9624" x="364" y="632.0669">cancelar creaci&#243;n</text></g><!--SRC=[bPF1Qi9048Rl-nH3Uj62bDv5iEh1YvQaDv6ooKvbQB8RTcD1Ig7FqdjFVGJVf4_IITIOZMcX6mZ9xim_t_oxwvv9vzBA35BIMEnoXDoak_9725V80e7qBKW7GJYRBCDmFbr6Z-Ex-InyM0QYN1kihZOMKQy78qWiIXjYOgmbPKuA_cmbva_r-W6y2W4y3Xa1FnmMcPGIAgHMPYeBuouZ9gp3gusIPSZgUkrXjNMWYjA6TOmkEt-k9eRnQAmoqkGAAvMnmvju1EwOU-W2RDs6tkABgV9GguCO3r6_BeesYIwuVmEA60OpMQ7a5XrgHZaoRHKe15M9P_jFJHb_A4pFa9NAz_i7B4mMM_GNeMVYb3QSRidqwz1xj1anoAbns-xyhqYf4qoFAGdjlxHdqDcSTl-UERnz_zYWt9hSs8ICbYqlkZmimHeMx82Lj7iYP7SaeA8EwZSXMaUuILlVYzEr41utInRDerxNNfJdfo_gAXqrudIBNecekqQ7xIVP7m00]--></g></svg>
