<svg xmlns="http://www.w3.org/2000/svg" xmlns:xlink="http://www.w3.org/1999/xlink" contentStyleType="text/css" data-diagram-type="STATE" height="807px" preserveAspectRatio="none" style="width:758px;height:807px;background:#FFFFFF;" version="1.1" viewBox="0 0 758 807" width="758px" zoomAndPan="magnify"><defs/><g><g id="in1"><rect fill="#F1F1F1" height="50" rx="12.5" ry="12.5" style="stroke:#181818;stroke-width:0.5;" width="182.0938" x="285" y="7"/><line style="stroke:#181818;stroke-width:0.5;" x1="285" x2="467.0938" y1="33.2969" y2="33.2969"/><text fill="#000000" font-family="sans-serif" font-size="14" lengthAdjust="spacing" textLength="162.0938" x="295" y="24.9951">RECORRIDOS_ABIERTO</text></g><path d="M19.5,118 L732.5,118 A12.5,12.5 0 0 1 745,130.5 L745,144.2969 L7,144.2969 L7,130.5 A12.5,12.5 0 0 1 19.5,118" fill="#F1F1F1"/><rect fill="none" height="538.2969" rx="12.5" ry="12.5" style="stroke:#181818;stroke-width:0.5;" width="738" x="7" y="118"/><line style="stroke:#181818;stroke-width:0.5;" x1="7" x2="745" y1="144.2969" y2="144.2969"/><text fill="#000000" font-family="sans-serif" font-size="14" lengthAdjust="spacing" textLength="119.5947" x="316.2026" y="135.9951">editarRecorrido()</text><g id="editarRecorrido.EditandoDatos"><rect fill="#F1F1F1" height="50" rx="12.5" ry="12.5" style="stroke:#181818;stroke-width:0.5;" width="50" x="145" y="246.2969"/><line style="stroke:#181818;stroke-width:0.5;" x1="145" x2="195" y1="272.5938" y2="272.5938"/><text fill="#000000" font-family="sans-serif" font-size="14" lengthAdjust="spacing" textLength="4.4502" x="167.7749" y="264.292">&#160;</text></g><g id="editarRecorrido.GuardandoDatos"><rect fill="#F1F1F1" height="50" rx="12.5" ry="12.5" style="stroke:#181818;stroke-width:0.5;" width="50" x="145" y="503.2969"/><line style="stroke:#181818;stroke-width:0.5;" x1="145" x2="195" y1="529.5938" y2="529.5938"/><text fill="#000000" font-family="sans-serif" font-size="14" lengthAdjust="spacing" textLength="4.4502" x="167.7749" y="521.292">&#160;</text></g><ellipse cx="170" cy="165.2969" fill="#222222" rx="10" ry="10" style="stroke:#222222;stroke-width:1;"/><ellipse cx="170" cy="635.2969" fill="none" rx="11" ry="11" style="stroke:#222222;stroke-width:1;"/><ellipse cx="170" cy="635.2969" fill="#222222" rx="6" ry="6" style="stroke:#222222;stroke-width:1;"/><!--link *start*editarRecorrido to EditandoDatos--><g class="link" data-entity-1=".start.editarRecorrido" data-entity-2="EditandoDatos" data-source-line="11" data-uid="lnk4" id="link_.start.editarRecorrido_EditandoDatos"><path d="M170,175.5269 C170,191.2369 170,217.6569 170,240.1669" fill="none" id="*start*editarRecorrido-to-EditandoDatos" style="stroke:#008000;stroke-width:1;"/><polygon fill="#008000" points="170,246.1669,174,237.1669,170,241.1669,166,237.1669,170,246.1669" style="stroke:#008000;stroke-width:1;"/><path d="M175,198.2969 L175,223.2969 L456,223.2969 L456,208.2969 L446,198.2969 L175,198.2969" fill="#FEFFDD" style="stroke:#181818;stroke-width:0.5;"/><path d="M446,198.2969 L446,208.2969 L456,208.2969 L446,198.2969" fill="#FEFFDD" style="stroke:#181818;stroke-width:0.5;"/><text fill="#000000" font-family="sans-serif" font-size="13" font-weight="bold" lengthAdjust="spacing" textLength="104.8633" x="181" y="215.3638">Administrador</text><text fill="#000000" font-family="sans-serif" font-size="13" lengthAdjust="spacing" textLength="151.2583" x="289.9956" y="215.3638">solicita editar recorrido</text></g><!--link EditandoDatos to GuardandoDatos--><g class="link" data-entity-1="EditandoDatos" data-entity-2="GuardandoDatos" data-source-line="16" data-uid="lnk5" id="link_EditandoDatos_GuardandoDatos"><path d="M144.94,279.7069 C104.17,291.7669 28,314.2969 28,314.2969 C28,314.2969 28,485.2969 28,485.2969 C28,485.2969 98.4164,506.1249 139.1864,518.1849" fill="none" id="EditandoDatos-to-GuardandoDatos" style="stroke:#008000;stroke-width:1;"/><polygon fill="#008000" points="144.94,519.8869,137.4443,513.4983,140.1454,518.4686,135.175,521.1697,144.94,519.8869" style="stroke:#008000;stroke-width:1;"/><path d="M33,319.2969 L33,480.2969 L287,480.2969 L287,329.2969 L277,319.2969 L33,319.2969" fill="#FEFFDD" style="stroke:#181818;stroke-width:0.5;"/><path d="M277,319.2969 L277,329.2969 L287,329.2969 L277,319.2969" fill="#FEFFDD" style="stroke:#181818;stroke-width:0.5;"/><text fill="#000000" font-family="sans-serif" font-size="13" font-weight="bold" lengthAdjust="spacing" textLength="58.9063" x="39" y="336.3638">Sistema</text><text fill="#000000" font-family="sans-serif" font-size="13" lengthAdjust="spacing" textLength="169.1714" x="102.0386" y="336.3638">presenta datos de edici&#243;n</text><text fill="#000000" font-family="sans-serif" font-size="13" lengthAdjust="spacing" textLength="233.4097" x="39" y="351.4966">&#8226; Nombre del recorrido, descripci&#243;n</text><text fill="#000000" font-family="sans-serif" font-size="13" lengthAdjust="spacing" textLength="215.4458" x="39" y="366.6294">&#8226; Puntos de inter&#233;s (POI) y orden</text><text fill="#000000" font-family="sans-serif" font-size="13" lengthAdjust="spacing" textLength="193.7368" x="39" y="381.7622">&#8226; Punto de inicio y punto final</text><text fill="#000000" font-family="sans-serif" font-size="13" lengthAdjust="spacing" textLength="4.1323" x="39" y="396.895">&#160;</text><text fill="#000000" font-family="sans-serif" font-size="13" font-weight="bold" lengthAdjust="spacing" textLength="58.9063" x="39" y="412.0278">Sistema</text><text fill="#000000" font-family="sans-serif" font-size="13" lengthAdjust="spacing" textLength="110.5952" x="102.0386" y="412.0278">permite solicitar:</text><text fill="#000000" font-family="sans-serif" font-size="13" lengthAdjust="spacing" textLength="175.3604" x="39" y="427.1606">&#8226; modificar puntos y orden</text><text fill="#000000" font-family="sans-serif" font-size="13" lengthAdjust="spacing" textLength="228.8711" x="39" y="442.2935">&#8226; a&#241;adir/eliminar puntos de inter&#233;s</text><text fill="#000000" font-family="sans-serif" font-size="13" lengthAdjust="spacing" textLength="126.2485" x="39" y="457.4263">&#8226; guardar recorrido</text><text fill="#000000" font-family="sans-serif" font-size="13" lengthAdjust="spacing" textLength="118.168" x="39" y="472.5591">&#8226; cancelar edici&#243;n</text></g><!--link GuardandoDatos to EditandoDatos--><g class="link" data-entity-1="GuardandoDatos" data-entity-2="EditandoDatos" data-source-line="30" data-uid="lnk6" id="link_GuardandoDatos_EditandoDatos"><path d="M195.28,518.5969 C231.01,506.2969 292,485.2969 292,485.2969 C292,485.2969 292,314.2969 292,314.2969 C292,314.2969 236.6832,295.2499 200.9532,282.9499" fill="none" id="GuardandoDatos-to-EditandoDatos" style="stroke:#008000;stroke-width:1;"/><polygon fill="#008000" points="195.28,280.9969,202.4879,287.7086,200.0077,282.6244,205.0919,280.1442,195.28,280.9969" style="stroke:#008000;stroke-width:1;"/><path d="M297,387.2969 L297,412.2969 L736,412.2969 L736,397.2969 L726,387.2969 L297,387.2969" fill="#FEFFDD" style="stroke:#181818;stroke-width:0.5;"/><path d="M726,387.2969 L726,397.2969 L736,397.2969 L726,387.2969" fill="#FEFFDD" style="stroke:#181818;stroke-width:0.5;"/><text fill="#000000" font-family="sans-serif" font-size="13" font-weight="bold" lengthAdjust="spacing" textLength="104.8633" x="303" y="404.3638">Administrador</text><text fill="#000000" font-family="sans-serif" font-size="13" lengthAdjust="spacing" textLength="309.1499" x="411.9956" y="404.3638">solicita modificar campos tras validaci&#243;n fallida</text></g><!--link GuardandoDatos to *end*editarRecorrido--><g class="link" data-entity-1="GuardandoDatos" data-entity-2=".end.editarRecorrido" data-source-line="35" data-uid="lnk8" id="link_GuardandoDatos_.end.editarRecorrido"><path d="M144.9,536.2369 C101.73,548.1569 18,571.2969 18,571.2969 C18,571.2969 18,606.2969 18,606.2969 C18,606.2969 118.3193,624.7799 153.1693,631.1999" fill="none" id="GuardandoDatos-to-*end*editarRecorrido" style="stroke:#008000;stroke-width:1;"/><polygon fill="#008000" points="159.07,632.2869,150.9436,626.7225,154.1527,631.381,149.4943,634.5902,159.07,632.2869" style="stroke:#008000;stroke-width:1;"/><path d="M23,576.2969 L23,601.2969 L297,601.2969 L297,586.2969 L287,576.2969 L23,576.2969" fill="#FEFFDD" style="stroke:#181818;stroke-width:0.5;"/><path d="M287,576.2969 L287,586.2969 L297,586.2969 L287,576.2969" fill="#FEFFDD" style="stroke:#181818;stroke-width:0.5;"/><text fill="#000000" font-family="sans-serif" font-size="13" font-weight="bold" lengthAdjust="spacing" textLength="104.8633" x="29" y="593.3638">Administrador</text><text fill="#000000" font-family="sans-serif" font-size="13" lengthAdjust="spacing" textLength="144.5361" x="137.9956" y="593.3638">solicita guardar y salir</text></g><!--link GuardandoDatos to *end*editarRecorrido--><g class="link" data-entity-1="GuardandoDatos" data-entity-2=".end.editarRecorrido" data-source-line="40" data-uid="lnk9" id="link_GuardandoDatos_.end.editarRecorrido"><path d="M195.14,537.2969 C233.44,549.4769 302,571.2969 302,571.2969 C302,571.2969 302,606.2969 302,606.2969 C302,606.2969 218.1993,624.0715 186.6693,630.7615" fill="none" id="GuardandoDatos-to-*end*editarRecorrido-1" style="stroke:#FF0000;stroke-width:1;"/><polygon fill="#FF0000" points="180.8,632.0069,190.4342,634.0517,185.6911,630.9691,188.7738,626.226,180.8,632.0069" style="stroke:#FF0000;stroke-width:1;"/><path d="M307,576.2969 L307,601.2969 L593,601.2969 L593,586.2969 L583,576.2969 L307,576.2969" fill="#FEFFDD" style="stroke:#181818;stroke-width:0.5;"/><path d="M583,576.2969 L583,586.2969 L593,586.2969 L583,576.2969" fill="#FEFFDD" style="stroke:#181818;stroke-width:0.5;"/><text fill="#000000" font-family="sans-serif" font-size="13" font-weight="bold" lengthAdjust="spacing" textLength="104.8633" x="313" y="593.3638">Administrador</text><text fill="#000000" font-family="sans-serif" font-size="13" lengthAdjust="spacing" textLength="156.2729" x="421.9956" y="593.3638">solicita cancelar edici&#243;n</text></g><g id="RECORRIDOS_ABIERTO"><rect fill="#F1F1F1" height="50" rx="12.5" ry="12.5" style="stroke:#181818;stroke-width:0.5;" width="182.0938" x="285" y="751"/><line style="stroke:#181818;stroke-width:0.5;" x1="285" x2="467.0938" y1="777.2969" y2="777.2969"/><text fill="#000000" font-family="sans-serif" font-size="14" lengthAdjust="spacing" textLength="162.0938" x="295" y="768.9951">RECORRIDOS_ABIERTO</text></g><!--link in1 to editarRecorrido--><g class="link" data-entity-1="in1" data-entity-2="editarRecorrido" data-source-line="4" data-uid="lnk2" id="link_in1_editarRecorrido"><path d="M376,57.26 C376,72.37 376,87.56 376,111.97" fill="none" id="in1-to-editarRecorrido" style="stroke:#008000;stroke-width:1;"/><polygon fill="#008000" points="376,117.97,380,108.97,376,112.97,372,108.97,376,117.97" style="stroke:#008000;stroke-width:1;"/></g><!--link editarRecorrido to RECORRIDOS_ABIERTO--><g class="link" data-entity-1="editarRecorrido" data-entity-2="RECORRIDOS_ABIERTO" data-source-line="47" data-uid="lnk11" id="link_editarRecorrido_RECORRIDOS_ABIERTO"><path d="M292.34,656.06 C286.58,674.52 283,686 283,686 C283,686 283,721 283,721 C283,721 304.4401,733.4592 329.2101,747.8292" fill="none" id="editarRecorrido-to-RECORRIDOS_ABIERTO" style="stroke:#008000;stroke-width:1;"/><polygon fill="#008000" points="334.4,750.84,328.6224,742.8638,330.0751,748.331,324.608,749.7837,334.4,750.84" style="stroke:#008000;stroke-width:1;"/><path d="M288,691 L288,716 L419,716 L419,701 L409,691 L288,691" fill="#FEFFDD" style="stroke:#181818;stroke-width:0.5;"/><path d="M409,691 L409,701 L419,701 L409,691" fill="#FEFFDD" style="stroke:#181818;stroke-width:0.5;"/><text fill="#000000" font-family="sans-serif" font-size="13" lengthAdjust="spacing" textLength="110.0747" x="294" y="708.0669">abrirRecorridos()</text></g><!--link editarRecorrido to RECORRIDOS_ABIERTO--><g class="link" data-entity-1="editarRecorrido" data-entity-2="RECORRIDOS_ABIERTO" data-source-line="52" data-uid="lnk12" id="link_editarRecorrido_RECORRIDOS_ABIERTO"><path d="M422.78,656.06 C426,674.52 428,686 428,686 C428,686 428,721 428,721 C428,721 417.2738,732.1499 403.4238,746.5199" fill="none" id="editarRecorrido-to-RECORRIDOS_ABIERTO-1" style="stroke:#FF0000;stroke-width:1;"/><polygon fill="#FF0000" points="399.26,750.84,408.3857,747.1357,402.7298,747.2399,402.6256,741.584,399.26,750.84" style="stroke:#FF0000;stroke-width:1;"/><path d="M433,691 L433,716 L560,716 L560,701 L550,691 L433,691" fill="#FEFFDD" style="stroke:#181818;stroke-width:0.5;"/><path d="M550,691 L550,701 L560,701 L550,691" fill="#FEFFDD" style="stroke:#181818;stroke-width:0.5;"/><text fill="#000000" font-family="sans-serif" font-size="13" lengthAdjust="spacing" textLength="106.3677" x="439" y="708.0669">cancelar edici&#243;n</text></g><!--SRC=[fPJ1Qjj048Rl-nI3Ux5BG-Yr14FQcE9B7PJUGYXZxJWCMUsAMQLWIg7FqbkFfO_WD-cJTBIo94kk2KrN8DYTV__vPdRP-C2-HC4277kgjYL16TosdXWJAwm8sBy6Z3395kzMMRQyMjrykdoxN6GVLnDJnyvkNzmBaRyxcmDPhb0ooeC8sz1QZ9QJtMXjEfl05sD0HxDdef_g5hNCst25LOZ7uVUFABQBGsDm-_9kG3NmW2JnGJs2hwj-I0iNw_cbBTXph0Hja8lpzHnYS9phtdq185rXzHRojl7HORhVCDaXnf3r9CQD8b212Q0KYkGLm2OtcrgPy-wNJ-hVtxx3Xr2iXJJaUhnNEesvS3cKNZ_wlGlxYcJt8yBqUhMSmHQ2M1e96vrc2nelqyg6FRg-r34iIS5QJzirUTCP5i7oXdDjOTamZ3FYxYTQbdDoh8VGwmvOE-rzwkFuDEf8ZZudfw51bzfpwi57j-RaNNdELUbBpR4erLr54JwZOuk92JRewic_i-czVWvHswyjHAMGOTuJEONiVsHyuXpCLsF6Jy9XdSSlZHa0u5gutngdCzDR_yLtNyjJhiVGhUiV]--></g></svg>