<svg xmlns="http://www.w3.org/2000/svg" xmlns:xlink="http://www.w3.org/1999/xlink" contentStyleType="text/css" data-diagram-type="STATE" height="1063px" preserveAspectRatio="none" style="width:639px;height:1063px;background:#FFFFFF;" version="1.1" viewBox="0 0 639 1063" width="639px" zoomAndPan="magnify"><defs/><g><!--cluster seleccionarRecorrido--><g class="cluster" data-entity="seleccionarRecorrido" data-source-line="8" data-uid="ent0004" id="cluster_seleccionarRecorrido"><path d="M209,112 L613,112 A12.5,12.5 0 0 1 625.5,124.5 L625.5,133.2969 L196.5,133.2969 L196.5,124.5 A12.5,12.5 0 0 1 209,112" fill="#F1F1F1"/><rect fill="none" height="791" rx="12.5" ry="12.5" style="stroke:#181818;stroke-width:0.5;" width="429" x="196.5" y="112"/><line style="stroke:#181818;stroke-width:0.5;" x1="196.5" x2="625.5" y1="133.2969" y2="133.2969"/><text fill="#000000" font-family="sans-serif" font-size="14" lengthAdjust="spacing" textLength="157.8486" x="332.0757" y="128.9951">seleccionarRecorrido()</text></g><g id="seleccionarRecorrido.ViendoDetalles"><rect fill="#F1F1F1" height="50" rx="12.5" ry="12.5" style="stroke:#181818;stroke-width:0.5;" width="50" x="238.5" y="270"/><line style="stroke:#181818;stroke-width:0.5;" x1="238.5" x2="288.5" y1="296.2969" y2="296.2969"/><text fill="#000000" font-family="sans-serif" font-size="14" lengthAdjust="spacing" textLength="4.4502" x="261.2749" y="287.9951">&#160;</text></g><g id="seleccionarRecorrido.ConfirmandoInicio"><rect fill="#F1F1F1" height="50" rx="12.5" ry="12.5" style="stroke:#181818;stroke-width:0.5;" width="50" x="238.5" y="505"/><line style="stroke:#181818;stroke-width:0.5;" x1="238.5" x2="288.5" y1="531.2969" y2="531.2969"/><text fill="#000000" font-family="sans-serif" font-size="14" lengthAdjust="spacing" textLength="4.4502" x="261.2749" y="522.9951">&#160;</text></g><g id="seleccionarRecorrido.IniciandoRecorrido"><rect fill="#F1F1F1" height="50" rx="12.5" ry="12.5" style="stroke:#181818;stroke-width:0.5;" width="50" x="238.5" y="650"/><line style="stroke:#181818;stroke-width:0.5;" x1="238.5" x2="288.5" y1="676.2969" y2="676.2969"/><text fill="#000000" font-family="sans-serif" font-size="14" lengthAdjust="spacing" textLength="4.4502" x="261.2749" y="667.9951">&#160;</text></g><g class="entity" data-entity="c" data-uid="ent0008" id="entity_c"><polygon fill="#F1F1F1" points="263.5,855,275.5,867,263.5,879,251.5,867,263.5,855" style="stroke:#181818;stroke-width:0.5;"/></g><ellipse cx="263.5" cy="165" fill="#222222" rx="10" ry="10" style="stroke:#222222;stroke-width:1;"/><g id="in1"><rect fill="#F1F1F1" height="50" rx="12.5" ry="12.5" style="stroke:#181818;stroke-width:0.5;" width="190.9805" x="7" y="7"/><line style="stroke:#181818;stroke-width:0.5;" x1="7" x2="197.9805" y1="33.2969" y2="33.2969"/><text fill="#000000" font-family="sans-serif" font-size="14" lengthAdjust="spacing" textLength="170.9805" x="17" y="24.9951">RECORRIDOS_ABIERTOS</text></g><g id="in2"><rect fill="#F1F1F1" height="50" rx="12.5" ry="12.5" style="stroke:#181818;stroke-width:0.5;" width="149.1309" x="233" y="7"/><line style="stroke:#181818;stroke-width:0.5;" x1="233" x2="382.1309" y1="33.2969" y2="33.2969"/><text fill="#000000" font-family="sans-serif" font-size="14" lengthAdjust="spacing" textLength="129.1309" x="243" y="24.9951">ESPACIO_ABIERTO</text></g><g id="RECORRIDOS_ABIERTOS"><rect fill="#F1F1F1" height="50" rx="12.5" ry="12.5" style="stroke:#181818;stroke-width:0.5;" width="190.9805" x="45" y="1007"/><line style="stroke:#181818;stroke-width:0.5;" x1="45" x2="235.9805" y1="1033.2969" y2="1033.2969"/><text fill="#000000" font-family="sans-serif" font-size="14" lengthAdjust="spacing" textLength="170.9805" x="55" y="1024.9951">RECORRIDOS_ABIERTOS</text></g><g id="RECORRIDO_ABIERTO"><rect fill="#F1F1F1" height="50" rx="12.5" ry="12.5" style="stroke:#181818;stroke-width:0.5;" width="173.207" x="300" y="1007"/><line style="stroke:#181818;stroke-width:0.5;" x1="300" x2="473.207" y1="1033.2969" y2="1033.2969"/><text fill="#000000" font-family="sans-serif" font-size="14" lengthAdjust="spacing" textLength="153.207" x="310" y="1024.9951">RECORRIDO_ABIERTO</text></g><!--link in1 to seleccionarRecorrido--><g class="link" data-entity-1="in1" data-entity-2="seleccionarRecorrido" data-source-line="4" data-uid="lnk2" id="link_in1_seleccionarRecorrido"><path d="M121.21,57.03 C135.7,75.645 156.1025,101.85 173.0875,123.6638 C181.58,134.5706 189.2181,144.3797 194.8356,151.5933 C195.1867,152.0441 195.5299,152.4848 195.8649,152.915 C196.0325,153.1302 192.5114,148.6088 192.6748,148.8186" fill="none" id="in1-to-seleccionarRecorrido" style="stroke:#008000;stroke-width:1;"/><polygon fill="#008000" points="196.3613,153.5524,193.9874,143.9939,193.2892,149.6075,187.6756,148.9093,196.3613,153.5524" style="stroke:#008000;stroke-width:1;"/></g><!--link in2 to seleccionarRecorrido--><g class="link" data-entity-1="in2" data-entity-2="seleccionarRecorrido" data-source-line="6" data-uid="lnk3" id="link_in2_seleccionarRecorrido"><path d="M271.04,57.18 C244.25,74.94 212.5,96 212.5,96 C212.5,96 212.0156,100.1181 211.2853,106.3275 C211.1027,107.8798 210.9048,109.5629 210.6952,111.345 C210.6821,111.4564 211.3698,105.6092 211.3566,105.7213" fill="none" id="in2-to-seleccionarRecorrido" style="stroke:#008000;stroke-width:1;"/><polygon fill="#008000" points="210.6558,111.6803,215.6796,103.2091,211.2398,106.7145,207.7344,102.2746,210.6558,111.6803" style="stroke:#008000;stroke-width:1;"/></g><!--link *start*seleccionarRecorrido to ViendoDetalles--><g class="link" data-entity-1=".start.seleccionarRecorrido" data-entity-2="ViendoDetalles" data-source-line="15" data-uid="lnk5" id="link_.start.seleccionarRecorrido_ViendoDetalles"><path d="M263.5,175.21 C263.5,194.81 263.5,235.23 263.5,263.89" fill="none" id="*start*seleccionarRecorrido-to-ViendoDetalles" style="stroke:#008000;stroke-width:1;"/><polygon fill="#008000" points="263.5,269.89,267.5,260.89,263.5,264.89,259.5,260.89,263.5,269.89" style="stroke:#008000;stroke-width:1;"/><path d="M268.5,210 L268.5,235 L545.5,235 L545.5,220 L535.5,210 L268.5,210" fill="#FEFFDD" style="stroke:#181818;stroke-width:0.5;"/><path d="M535.5,210 L535.5,220 L545.5,220 L535.5,210" fill="#FEFFDD" style="stroke:#181818;stroke-width:0.5;"/><text fill="#000000" font-family="sans-serif" font-size="13" font-weight="bold" lengthAdjust="spacing" textLength="65.9839" x="274.5" y="227.0669">Visitante</text><text fill="#000000" font-family="sans-serif" font-size="13" lengthAdjust="spacing" textLength="186.7798" x="344.6162" y="227.0669">solicita seleccionar recorrido</text></g><!--link ViendoDetalles to ConfirmandoInicio--><g class="link" data-entity-1="ViendoDetalles" data-entity-2="ConfirmandoInicio" data-source-line="20" data-uid="lnk6" id="link_ViendoDetalles_ConfirmandoInicio"><path d="M263.5,320.06 C263.5,364.71 263.5,453.91 263.5,498.72" fill="none" id="ViendoDetalles-to-ConfirmandoInicio" style="stroke:#008000;stroke-width:1;"/><polygon fill="#008000" points="263.5,504.72,267.5,495.72,263.5,499.72,259.5,495.72,263.5,504.72" style="stroke:#008000;stroke-width:1;"/><path d="M268.5,355 L268.5,470 L596.5,470 L596.5,365 L586.5,355 L268.5,355" fill="#FEFFDD" style="stroke:#181818;stroke-width:0.5;"/><path d="M586.5,355 L586.5,365 L596.5,365 L586.5,355" fill="#FEFFDD" style="stroke:#181818;stroke-width:0.5;"/><text fill="#000000" font-family="sans-serif" font-size="13" font-weight="bold" lengthAdjust="spacing" textLength="58.9063" x="274.5" y="372.0669">Sistema</text><text fill="#000000" font-family="sans-serif" font-size="13" lengthAdjust="spacing" textLength="244.8735" x="337.5386" y="372.0669">presenta vista detallada del recorrido</text><text fill="#000000" font-family="sans-serif" font-size="13" lengthAdjust="spacing" textLength="63.7368" x="274.5" y="387.1997">&#8226; Nombre</text><text fill="#000000" font-family="sans-serif" font-size="13" lengthAdjust="spacing" textLength="87.8896" x="274.5" y="402.3325">&#8226; Descripci&#243;n</text><text fill="#000000" font-family="sans-serif" font-size="13" lengthAdjust="spacing" textLength="185.7705" x="274.5" y="417.4653">&#8226; Lista de espacios en orden</text><text fill="#000000" font-family="sans-serif" font-size="13" lengthAdjust="spacing" textLength="166.8926" x="274.5" y="432.5981">&#8226; Mapa con ruta marcada</text><text fill="#000000" font-family="sans-serif" font-size="13" lengthAdjust="spacing" textLength="168.8921" x="274.5" y="447.731">&#8226; Bot&#243;n "Iniciar recorrido"</text><text fill="#000000" font-family="sans-serif" font-size="13" lengthAdjust="spacing" textLength="123.4048" x="274.5" y="462.8638">&#8226; Bot&#243;n "Cancelar"</text></g><!--link ConfirmandoInicio to IniciandoRecorrido--><g class="link" data-entity-1="ConfirmandoInicio" data-entity-2="IniciandoRecorrido" data-source-line="31" data-uid="lnk7" id="link_ConfirmandoInicio_IniciandoRecorrido"><path d="M263.5,555.26 C263.5,581.55 263.5,617.28 263.5,643.62" fill="none" id="ConfirmandoInicio-to-IniciandoRecorrido" style="stroke:#008000;stroke-width:1;"/><polygon fill="#008000" points="263.5,649.62,267.5,640.62,263.5,644.62,259.5,640.62,263.5,649.62" style="stroke:#008000;stroke-width:1;"/><path d="M268.5,590 L268.5,615 L511.5,615 L511.5,600 L501.5,590 L268.5,590" fill="#FEFFDD" style="stroke:#181818;stroke-width:0.5;"/><path d="M501.5,590 L501.5,600 L511.5,600 L501.5,590" fill="#FEFFDD" style="stroke:#181818;stroke-width:0.5;"/><text fill="#000000" font-family="sans-serif" font-size="13" font-weight="bold" lengthAdjust="spacing" textLength="65.9839" x="274.5" y="607.0669">Visitante</text><text fill="#000000" font-family="sans-serif" font-size="13" lengthAdjust="spacing" textLength="152.5215" x="344.6162" y="607.0669">solicita iniciar recorrido</text></g><!--link IniciandoRecorrido to c--><g class="link" data-entity-1="IniciandoRecorrido" data-entity-2="c" data-source-line="36" data-uid="lnk8" id="link_IniciandoRecorrido_c"><path d="M263.5,700.06 C263.5,741.4 263.5,818.38 263.5,848.63" fill="none" id="IniciandoRecorrido-to-c" style="stroke:#008000;stroke-width:1;"/><polygon fill="#008000" points="263.5,854.63,267.5,845.63,263.5,849.63,259.5,845.63,263.5,854.63" style="stroke:#008000;stroke-width:1;"/><path d="M268.5,735 L268.5,820 L559.5,820 L559.5,745 L549.5,735 L268.5,735" fill="#FEFFDD" style="stroke:#181818;stroke-width:0.5;"/><path d="M549.5,735 L549.5,745 L559.5,745 L549.5,735" fill="#FEFFDD" style="stroke:#181818;stroke-width:0.5;"/><text fill="#000000" font-family="sans-serif" font-size="13" font-weight="bold" lengthAdjust="spacing" textLength="58.9063" x="274.5" y="752.0669">Sistema</text><text fill="#000000" font-family="sans-serif" font-size="13" lengthAdjust="spacing" textLength="207.0923" x="337.5386" y="752.0669">activa el recorrido seleccionado</text><text fill="#000000" font-family="sans-serif" font-size="13" lengthAdjust="spacing" textLength="165.6167" x="274.5" y="767.1997">&#8226; Muestra primer espacio</text><text fill="#000000" font-family="sans-serif" font-size="13" lengthAdjust="spacing" textLength="216.0425" x="274.5" y="782.3325">&#8226; Activa controles de navegaci&#243;n</text><text fill="#000000" font-family="sans-serif" font-size="13" lengthAdjust="spacing" textLength="211.3325" x="274.5" y="797.4653">&#8226; Muestra indicador de progreso</text><text fill="#000000" font-family="sans-serif" font-size="13" lengthAdjust="spacing" textLength="263.8403" x="274.5" y="812.5981">&#8226; Botones "Siguiente", "Anterior", "Salir"</text></g><!--link c to RECORRIDOS_ABIERTOS--><g class="link" data-entity-1="c" data-entity-2="RECORRIDOS_ABIERTOS" data-source-line="47" data-uid="lnk10" id="link_c_RECORRIDOS_ABIERTOS"><path d="M256,871.51 C228.87,884.22 137.5,927 137.5,927 C137.5,927 137.5,977 137.5,977 C137.5,977 138.0265,986.4793 138.8265,1000.8493" fill="none" id="c-to-RECORRIDOS_ABIERTOS" style="stroke:#0000FF;stroke-width:1;"/><polygon fill="#0000FF" points="139.16,1006.84,142.6535,997.6316,138.8821,1001.8477,134.6659,998.0763,139.16,1006.84" style="stroke:#0000FF;stroke-width:1;"/><path d="M142.5,932 L142.5,972 L338.5,972 L338.5,942 L328.5,932 L142.5,932" fill="#FEFFDD" style="stroke:#181818;stroke-width:0.5;"/><path d="M328.5,932 L328.5,942 L338.5,942 L328.5,932" fill="#FEFFDD" style="stroke:#181818;stroke-width:0.5;"/><text fill="#000000" font-family="sans-serif" font-size="13" font-weight="bold" lengthAdjust="spacing" textLength="65.9839" x="148.5" y="949.0669">Visitante</text><text fill="#000000" font-family="sans-serif" font-size="13" lengthAdjust="spacing" textLength="105.3267" x="218.6162" y="949.0669">solicita cancelar</text><text fill="#000000" font-family="sans-serif" font-size="13" lengthAdjust="spacing" textLength="175.6777" x="148.5" y="964.1997">verRecorridosDisponibles()</text></g><!--link c to RECORRIDO_ABIERTO--><g class="link" data-entity-1="c" data-entity-2="RECORRIDO_ABIERTO" data-source-line="53" data-uid="lnk12" id="link_c_RECORRIDO_ABIERTO"><path d="M270.09,872.63 C289.89,886.54 347.5,927 347.5,927 C347.5,927 363.8233,970.542 375.3433,1001.262" fill="none" id="c-to-RECORRIDO_ABIERTO" style="stroke:#008000;stroke-width:1;"/><polygon fill="#008000" points="377.45,1006.88,378.0352,997.0485,375.6944,1002.1984,370.5446,999.8575,377.45,1006.88" style="stroke:#008000;stroke-width:1;"/><path d="M370.5,939.5 L370.5,964.5 L570.5,964.5 L570.5,949.5 L560.5,939.5 L370.5,939.5" fill="#FEFFDD" style="stroke:#181818;stroke-width:0.5;"/><path d="M560.5,939.5 L560.5,949.5 L570.5,949.5 L560.5,939.5" fill="#FEFFDD" style="stroke:#181818;stroke-width:0.5;"/><text fill="#000000" font-family="sans-serif" font-size="13" lengthAdjust="spacing" textLength="179.6514" x="376.5" y="956.5669">Consultando &#8594; EnRecorrido</text></g><!--SRC=[bLHHQjj04FtNAGRr9oaDfVas1iVsXw6fYrJo4q8OhwRkaDMks5qRGYdqgmVe4Ng57g4toKawAzcoP2kqaK2MTfxUl7rlBF_0faA79MWs51uhWihgn_YG93vW863p3j13cisdoonRp9Rv_UHgCSy-BVCqYSMBsrThHsJkBiRWIPDIR0swZ9HrZWlRybpMFFFyusIwMEv98iVblpbs94ErcdMeS7QUmjSa0JcQjrCv1Np3P0exeu1Qap-jJwtvpAv40IqC2-aff5wFW8F20qR1QAI-M5Oq7ZVjRr_VzRROLm0rnbXvrPeOn4EzC5gDRzXpG1Dez7ObnbWjNGDsNG3N4o2q3P4SINivQjTLChpN8Iqv-q0braegHvwCADdA8a9HCsCHx_IHegVll-23BLUEsiSPUUMuKlpdjsaNt- -OW7o5eiFBNi2wWWwGQwmGbCXo6u6Mw9IqRAjNDWWVf4qq7MFI4yWKZIADBkrvTl3hn9IUPSza_uBy-5ZYCpfEE_M4gF_A2bNWBK8tcCu0TLAwtf0F3YLSBidjSsZBauP7_0_EnZ6Ih0nkQOtz8FSqR0gMWAoBmCfPaUrjDmfhX2JDURsHyGoKle5q8h-EhOltEMe-JYZvrloVLFHXfJSKRHZuCBqq4BKRY1gsfSCdnC_OLzRmIZPyTlvCJAgNIYjdhsPOZCoOt-WGquMd7pzXRhB1QVWB]--></g></svg>