<svg xmlns="http://www.w3.org/2000/svg" xmlns:xlink="http://www.w3.org/1999/xlink" contentStyleType="text/css" data-diagram-type="STATE" height="757px" preserveAspectRatio="none" style="width:672px;height:757px;background:#FFFFFF;" version="1.1" viewBox="0 0 672 757" width="672px" zoomAndPan="magnify"><?plantuml 1.2026.5?><defs/><g><g class="entity" data-qualified-name="in1" data-source-line="3" id="ent0001"><rect fill="#F1F1F1" height="50" rx="12.5" ry="12.5" style="stroke:#181818;stroke-width:0.5;" width="208.2617" x="44.62" y="7"/><line style="stroke:#181818;stroke-width:0.5;" x1="44.62" x2="252.8817" y1="33.2969" y2="33.2969"/><text fill="#000000" font-family="sans-serif" font-size="14" lengthAdjust="spacing" textLength="188.2617" x="54.62" y="24.9951">UNIVERSIDAD_DISPONIBLE</text></g><g class="entity" data-qualified-name="in2" data-source-line="5" id="ent0002"><rect fill="#F1F1F1" height="50" rx="12.5" ry="12.5" style="stroke:#181818;stroke-width:0.5;" width="143.498" x="288" y="7"/><line style="stroke:#181818;stroke-width:0.5;" x1="288" x2="431.498" y1="33.2969" y2="33.2969"/><text fill="#000000" font-family="sans-serif" font-size="14" lengthAdjust="spacing" textLength="123.498" x="298" y="24.9951">REGION_ABIERTO</text></g><g class="entity" data-qualified-name="abrirRegiones" data-source-line="8" id="ent0003"><path d="M78.75,118 L428.75,118 A12.5,12.5 0 0 1 441.25,130.5 L441.25,144.2969 L66.25,144.2969 L66.25,130.5 A12.5,12.5 0 0 1 78.75,118" fill="#F1F1F1"/><rect fill="none" height="480.2969" rx="12.5" ry="12.5" style="stroke:#181818;stroke-width:0.5;" width="375" x="66.25" y="118"/><line style="stroke:#181818;stroke-width:0.5;" x1="66.25" x2="441.25" y1="144.2969" y2="144.2969"/><text fill="#000000" font-family="sans-serif" font-size="14" lengthAdjust="spacing" textLength="108.2539" x="199.623" y="135.9951">abrirRegiones()</text><g class="entity" data-qualified-name="abrirRegiones.MostrandoLista" data-source-line="10" id="ent0004"><rect fill="#F1F1F1" height="50" rx="12.5" ry="12.5" style="stroke:#181818;stroke-width:0.5;" width="50" x="78.25" y="246.2969"/><line style="stroke:#181818;stroke-width:0.5;" x1="78.25" x2="128.25" y1="272.5938" y2="272.5938"/><text fill="#000000" font-family="sans-serif" font-size="14" lengthAdjust="spacing" textLength="4.4502" x="101.0249" y="264.292">&#160;</text></g><g class="entity" data-qualified-name="abrirRegiones.FiltrandoLista" data-source-line="11" id="ent0005"><rect fill="#F1F1F1" height="50" rx="12.5" ry="12.5" style="stroke:#181818;stroke-width:0.5;" width="50" x="78.25" y="442.2969"/><line style="stroke:#181818;stroke-width:0.5;" x1="78.25" x2="128.25" y1="468.5938" y2="468.5938"/><text fill="#000000" font-family="sans-serif" font-size="14" lengthAdjust="spacing" textLength="4.4502" x="101.0249" y="460.292">&#160;</text></g><g class="start_entity" data-qualified-name="abrirRegiones..start.abrirRegiones" data-source-line="13" id="ent0008"><ellipse cx="103.25" cy="165.2969" fill="#222222" rx="10" ry="10" style="stroke:#222222;stroke-width:1;"/></g><g class="end_entity" data-qualified-name="abrirRegiones..end.abrirRegiones" data-source-line="34" id="ent0012"><ellipse cx="103.25" cy="574.2969" fill="none" rx="11" ry="11" style="stroke:#222222;stroke-width:1;"/><ellipse cx="103.25" cy="574.2969" fill="#222222" rx="6" ry="6" style="stroke:#222222;stroke-width:1;"/></g><!--link *start*abrirRegiones to MostrandoLista--><g class="link" data-entity-1="ent0008" data-entity-2="ent0004" data-link-type="dependency" data-source-line="13" id="lnk9"><path d="M103.25,175.5269 C103.25,191.2369 103.25,218.6569 103.25,241.1669" fill="none" id="*start*abrirRegiones-to-MostrandoLista" style="stroke:#008000;stroke-width:1;"/><polygon fill="#008000" points="103.25,246.1669,107.25,237.1669,103.25,241.1669,99.25,237.1669,103.25,246.1669" style="stroke:#008000;stroke-width:1;stroke-linejoin:miter;stroke-miterlimit:10;"/><path d="M108.25,198.2969 L108.25,223.2969 L378.25,223.2969 L378.25,208.2969 L368.25,198.2969 L108.25,198.2969" fill="#FEFFDD" style="stroke:#181818;stroke-width:0.5;"/><path d="M368.25,198.2969 L368.25,208.2969 L378.25,208.2969 L368.25,198.2969" fill="#FEFFDD" style="stroke:#181818;stroke-width:0.5;"/><text fill="#000000" font-family="sans-serif" font-size="13" font-weight="700" lengthAdjust="spacing" textLength="104.8633" x="114.25" y="215.3638">Administrador</text><text fill="#000000" font-family="sans-serif" font-size="13" lengthAdjust="spacing" textLength="140.7275" x="223.2456" y="215.3638">solicita abrir regiones</text></g><!--link MostrandoLista to FiltrandoLista--><g class="link" data-entity-1="ent0004" data-entity-2="ent0005" data-link-type="dependency" data-source-line="18" id="lnk10"><path d="M103.25,296.4769 C103.25,333.6469 103.25,399.4569 103.25,436.8169" fill="none" id="MostrandoLista-to-FiltrandoLista" style="stroke:#008000;stroke-width:1;"/><polygon fill="#008000" points="103.25,441.8169,107.25,432.8169,103.25,436.8169,99.25,432.8169,103.25,441.8169" style="stroke:#008000;stroke-width:1;stroke-linejoin:miter;stroke-miterlimit:10;"/><path d="M108.25,319.2969 L108.25,419.2969 L374.25,419.2969 L374.25,329.2969 L364.25,319.2969 L108.25,319.2969" fill="#FEFFDD" style="stroke:#181818;stroke-width:0.5;"/><path d="M364.25,319.2969 L364.25,329.2969 L374.25,329.2969 L364.25,319.2969" fill="#FEFFDD" style="stroke:#181818;stroke-width:0.5;"/><text fill="#000000" font-family="sans-serif" font-size="13" font-weight="700" lengthAdjust="spacing" textLength="58.9063" x="114.25" y="336.3638">Sistema</text><text fill="#000000" font-family="sans-serif" font-size="13" lengthAdjust="spacing" textLength="169.5459" x="177.2886" y="336.3638">presenta lista de regiones</text><text fill="#000000" font-family="sans-serif" font-size="13" lengthAdjust="spacing" textLength="193.4321" x="114.25" y="351.4966">&#8226; ID y nombre de cada regi&#243;n</text><text fill="#000000" font-family="sans-serif" font-size="13" lengthAdjust="spacing" textLength="188.481" x="114.25" y="366.6294">&#8226; Permite solicitar filtrar lista</text><text fill="#000000" font-family="sans-serif" font-size="13" lengthAdjust="spacing" textLength="245.3369" x="114.25" y="381.7622">&#8226; Permite solicitar crear regi&#243;n nueva</text><text fill="#000000" font-family="sans-serif" font-size="13" lengthAdjust="spacing" textLength="220.3145" x="114.25" y="396.895">&#8226; Permite solicitar eliminar regi&#243;n</text><text fill="#000000" font-family="sans-serif" font-size="13" lengthAdjust="spacing" textLength="205.5371" x="114.25" y="412.0278">&#8226; Permite solicitar editar regi&#243;n</text></g><!--link FiltrandoLista to FiltrandoLista--><g class="link" data-entity-1="ent0005" data-entity-2="ent0005" data-link-type="dependency" data-source-line="28" id="lnk11"><path d="M128.43,455.9969 C138.16,455.4969 146.25,459.2569 146.25,467.2969 C146.25,475.3369 143.1534,479.3535 133.4234,478.8535" fill="none" id="FiltrandoLista-to-FiltrandoLista" style="stroke:#008000;stroke-width:1;"/><polygon fill="#008000" points="128.43,478.5969,137.2129,483.0535,133.4234,478.8535,137.6234,475.064,128.43,478.5969" style="stroke:#008000;stroke-width:1;stroke-linejoin:miter;stroke-miterlimit:10;"/><path d="M151.25,447.2969 L151.25,487.2969 L397.25,487.2969 L397.25,457.2969 L387.25,447.2969 L151.25,447.2969" fill="#FEFFDD" style="stroke:#181818;stroke-width:0.5;"/><path d="M387.25,447.2969 L387.25,457.2969 L397.25,457.2969 L387.25,447.2969" fill="#FEFFDD" style="stroke:#181818;stroke-width:0.5;"/><text fill="#000000" font-family="sans-serif" font-size="13" font-weight="700" lengthAdjust="spacing" textLength="104.8633" x="157.25" y="464.3638">Administrador</text><text fill="#000000" font-family="sans-serif" font-size="13" lengthAdjust="spacing" textLength="116.6509" x="266.2456" y="464.3638">solicita filtrar lista</text><text fill="#000000" font-family="sans-serif" font-size="13" font-weight="700" lengthAdjust="spacing" textLength="58.9063" x="157.25" y="479.4966">Sistema</text><text fill="#000000" font-family="sans-serif" font-size="13" lengthAdjust="spacing" textLength="139.4199" x="220.2886" y="479.4966">presenta lista filtrada</text></g><!--link FiltrandoLista to *end*abrirRegiones--><g class="link" data-entity-1="ent0005" data-entity-2="ent0012" data-link-type="dependency" data-source-line="34" id="lnk13"><path d="M103.25,492.6469 C103.25,514.9469 103.25,541.8569 103.25,558.0369" fill="none" id="FiltrandoLista-to-*end*abrirRegiones" style="stroke:#008000;stroke-width:1;"/><polygon fill="#008000" points="103.25,563.0369,107.25,554.0369,103.25,558.0369,99.25,554.0369,103.25,563.0369" style="stroke:#008000;stroke-width:1;stroke-linejoin:miter;stroke-miterlimit:10;"/><path d="M108.25,515.2969 L108.25,540.2969 L417.25,540.2969 L417.25,525.2969 L407.25,515.2969 L108.25,515.2969" fill="#FEFFDD" style="stroke:#181818;stroke-width:0.5;"/><path d="M407.25,515.2969 L407.25,525.2969 L417.25,525.2969 L407.25,515.2969" fill="#FEFFDD" style="stroke:#181818;stroke-width:0.5;"/><text fill="#000000" font-family="sans-serif" font-size="13" font-weight="700" lengthAdjust="spacing" textLength="104.8633" x="114.25" y="532.3638">Administrador</text><text fill="#000000" font-family="sans-serif" font-size="13" lengthAdjust="spacing" textLength="179.2769" x="223.2456" y="532.3638">solicita una de las opciones</text></g></g><g class="entity" data-qualified-name="REGION_ABIERTO" data-source-line="40" id="ent0014"><rect fill="#F1F1F1" height="50" rx="12.5" ry="12.5" style="stroke:#181818;stroke-width:0.5;" width="143.498" x="7" y="693.3"/><line style="stroke:#181818;stroke-width:0.5;" x1="7" x2="150.498" y1="719.5969" y2="719.5969"/><text fill="#000000" font-family="sans-serif" font-size="14" lengthAdjust="spacing" textLength="123.498" x="17" y="711.2951">REGION_ABIERTO</text></g><g class="entity" data-qualified-name="REGIONES_ABIERTO" data-source-line="50" id="ent0017"><rect fill="#F1F1F1" height="50" rx="12.5" ry="12.5" style="stroke:#181818;stroke-width:0.5;" width="161.2305" x="253.13" y="693.3"/><line style="stroke:#181818;stroke-width:0.5;" x1="253.13" x2="414.3605" y1="719.5969" y2="719.5969"/><text fill="#000000" font-family="sans-serif" font-size="14" lengthAdjust="spacing" textLength="141.2305" x="263.13" y="711.2951">REGIONES_ABIERTO</text></g><g class="entity" data-qualified-name="UNIVERSIDAD_DISPONIBLE" data-source-line="55" id="ent0019"><rect fill="#F1F1F1" height="50" rx="12.5" ry="12.5" style="stroke:#181818;stroke-width:0.5;" width="208.2617" x="449.62" y="693.3"/><line style="stroke:#181818;stroke-width:0.5;" x1="449.62" x2="657.8817" y1="719.5969" y2="719.5969"/><text fill="#000000" font-family="sans-serif" font-size="14" lengthAdjust="spacing" textLength="188.2617" x="459.62" y="711.2951">UNIVERSIDAD_DISPONIBLE</text></g><!--link in1 to abrirRegiones--><g class="link" data-entity-1="ent0001" data-entity-2="ent0003" data-link-type="dependency" data-source-line="4" id="lnk6"><path d="M156.64,57.37 C161.53,72.46 166.8087,88.7635 174.5987,112.8035" fill="none" id="in1-to-abrirRegiones" style="stroke:#008000;stroke-width:1;"/><polygon fill="#008000" points="176.14,117.56,177.1708,107.7652,174.5987,112.8035,169.5604,110.2313,176.14,117.56" style="stroke:#008000;stroke-width:1;stroke-linejoin:miter;stroke-miterlimit:10;"/></g><!--link in2 to abrirRegiones--><g class="link" data-entity-1="ent0002" data-entity-2="ent0003" data-link-type="dependency" data-source-line="6" id="lnk7"><path d="M351.78,57.37 C346.85,72.46 341.5138,88.7676 333.6538,112.8076" fill="none" id="in2-to-abrirRegiones" style="stroke:#008000;stroke-width:1;"/><polygon fill="#008000" points="332.1,117.56,338.6988,110.2487,333.6538,112.8076,331.095,107.7626,332.1,117.56" style="stroke:#008000;stroke-width:1;stroke-linejoin:miter;stroke-miterlimit:10;"/></g><!--link abrirRegiones to REGION_ABIERTO--><g class="link" data-entity-1="ent0003" data-entity-2="ent0014" data-link-type="dependency" data-source-line="40" id="lnk15"><path d="M65.91,563.83 C31.78,601.02 6.75,628.3 6.75,628.3 C6.75,628.3 6.75,663.3 6.75,663.3 C6.75,663.3 23.0703,675.5397 42.1203,689.8297" fill="none" id="abrirRegiones-to-REGION_ABIERTO" style="stroke:#008000;stroke-width:1;"/><polygon fill="#008000" points="46.12,692.83,41.3207,684.2296,42.1203,689.8297,36.5202,690.6292,46.12,692.83" style="stroke:#008000;stroke-width:1;stroke-linejoin:miter;stroke-miterlimit:10;"/><path d="M11.75,633.3 L11.75,658.3 L125.75,658.3 L125.75,643.3 L115.75,633.3 L11.75,633.3" fill="#FEFFDD" style="stroke:#181818;stroke-width:0.5;"/><path d="M115.75,633.3 L115.75,643.3 L125.75,643.3 L115.75,633.3" fill="#FEFFDD" style="stroke:#181818;stroke-width:0.5;"/><text fill="#000000" font-family="sans-serif" font-size="13" lengthAdjust="spacing" textLength="93.501" x="17.75" y="650.3669">editarRegion()</text></g><!--link abrirRegiones to REGION_ABIERTO--><g class="link" data-entity-1="ent0003" data-entity-2="ent0014" data-link-type="dependency" data-source-line="45" id="lnk16"><path d="M159.99,598.8 C145.24,636.49 134.75,663.3 134.75,663.3 C134.75,663.3 122.5493,675.0694 107.7293,689.3594" fill="none" id="abrirRegiones-to-REGION_ABIERTO-1" style="stroke:#008000;stroke-width:1;"/><polygon fill="#008000" points="104.13,692.83,113.3852,689.4624,107.7293,689.3594,107.8323,683.7035,104.13,692.83" style="stroke:#008000;stroke-width:1;stroke-linejoin:miter;stroke-miterlimit:10;"/><path d="M152.75,633.3 L152.75,658.3 L262.75,658.3 L262.75,643.3 L252.75,633.3 L152.75,633.3" fill="#FEFFDD" style="stroke:#181818;stroke-width:0.5;"/><path d="M252.75,633.3 L252.75,643.3 L262.75,643.3 L252.75,633.3" fill="#FEFFDD" style="stroke:#181818;stroke-width:0.5;"/><text fill="#000000" font-family="sans-serif" font-size="13" lengthAdjust="spacing" textLength="89.0322" x="158.75" y="650.3669">crearRegion()</text></g><!--link abrirRegiones to REGIONES_ABIERTO--><g class="link" data-entity-1="ent0003" data-entity-2="ent0017" data-link-type="dependency" data-source-line="50" id="lnk18"><path d="M307.22,598.54 C315.79,636.9 322.3408,666.2001 327.1908,687.9301" fill="none" id="abrirRegiones-to-REGIONES_ABIERTO" style="stroke:#008000;stroke-width:1;"/><polygon fill="#008000" points="328.28,692.81,330.2234,683.1548,327.1908,687.9301,322.4156,684.8975,328.28,692.81" style="stroke:#008000;stroke-width:1;stroke-linejoin:miter;stroke-miterlimit:10;"/><path d="M324.75,633.3 L324.75,658.3 L453.75,658.3 L453.75,643.3 L443.75,633.3 L324.75,633.3" fill="#FEFFDD" style="stroke:#181818;stroke-width:0.5;"/><path d="M443.75,633.3 L443.75,643.3 L453.75,643.3 L443.75,633.3" fill="#FEFFDD" style="stroke:#181818;stroke-width:0.5;"/><text fill="#000000" font-family="sans-serif" font-size="13" lengthAdjust="spacing" textLength="108.2783" x="330.75" y="650.3669">eliminarRegion()</text></g><!--link abrirRegiones to UNIVERSIDAD_DISPONIBLE--><g class="link" data-entity-1="ent0003" data-entity-2="ent0019" data-link-type="dependency" data-source-line="55" id="lnk20"><path d="M441.61,583.43 C478.93,627.98 509.6892,664.6971 530.2292,689.2171" fill="none" id="abrirRegiones-to-UNIVERSIDAD_DISPONIBLE" style="stroke:#008000;stroke-width:1;"/><polygon fill="#008000" points="533.44,693.05,530.727,683.5822,530.2292,689.2171,524.5943,688.7194,533.44,693.05" style="stroke:#008000;stroke-width:1;stroke-linejoin:miter;stroke-miterlimit:10;"/><path d="M507.75,633.3 L507.75,658.3 L653.75,658.3 L653.75,643.3 L643.75,633.3 L507.75,633.3" fill="#FEFFDD" style="stroke:#181818;stroke-width:0.5;"/><path d="M643.75,633.3 L643.75,643.3 L653.75,643.3 L643.75,633.3" fill="#FEFFDD" style="stroke:#181818;stroke-width:0.5;"/><text fill="#000000" font-family="sans-serif" font-size="13" lengthAdjust="spacing" textLength="125.9248" x="513.75" y="650.3669">completarGestion()</text></g><?plantuml-src dLJHQeCm57tFLmJtqWxAM9zBeKLNXAujkksbb1BrheJ6HA8Tb37Oj-mNzWdxatt9OgpMjAjG5HJlFVVSavCRqotb2P4anenooFO9u4ImVVw1K9gH333bzvYas7gUkI-Evxlso5xRhh-OpzpnrB5GdkyjRpOIWAzwGqm2IQK76oeuf1L7NtDupiITpzQZiUjuJ_EyjjzGUoWsWfh6Y7Iw5dv72Akhm5lgLgX7aMQIy4XCgOgVvnyeg-SrO7cxClIO75XZk50SWkU6RNLW40n7KKmvpR6Ha8ExO8XJmMX8LOtMYcMvfhm0U5Img0jLZvDUTHadKY-fy5KMOgBx9n9Iu8g7QRO8J0c_dr_OjV5UySI1X3mVaeXeqCythp0Ba35LdShbIFogjSY2jm4NIY2ovCDy1szDQ61KENWiQ896-bK7beOUpJGTQsDcmvQUMz1iVe6FoFLQrJos4RZZUiUPcdAHXEU3XpuGCazLlQbvI97Hkp2_AEjqKKNOaauFIGisnxyWxp16Lr7-_sCx4IhYX85Q-WJIpAJ-0m00?></g></svg>