<svg xmlns="http://www.w3.org/2000/svg" xmlns:xlink="http://www.w3.org/1999/xlink" contentStyleType="text/css" data-diagram-type="STATE" height="818px" preserveAspectRatio="none" style="width:725px;height:818px;background:#FFFFFF;" version="1.1" viewBox="0 0 725 818" width="725px" zoomAndPan="magnify"><?plantuml 1.2026.5?><defs/><g><g class="entity" data-qualified-name="in2" data-source-line="3" id="ent0001"><rect fill="#F1F1F1" height="50" rx="12.5" ry="12.5" style="stroke:#181818;stroke-width:0.5;" width="151.7627" x="282.62" y="7"/><line style="stroke:#181818;stroke-width:0.5;" x1="282.62" x2="434.3827" y1="33.2969" y2="33.2969"/><text fill="#000000" font-family="sans-serif" font-size="14" lengthAdjust="spacing" textLength="131.7627" x="292.62" y="24.9951">PLANTAS_ABIERTO</text></g><g class="entity" data-qualified-name="editarPlanta" data-source-line="6" id="ent0002"><path d="M19.5,118 L697.5,118 A12.5,12.5 0 0 1 710,130.5 L710,144.2969 L7,144.2969 L7,130.5 A12.5,12.5 0 0 1 19.5,118" fill="#F1F1F1"/><rect fill="none" height="541.2969" rx="12.5" ry="12.5" style="stroke:#181818;stroke-width:0.5;" width="703" x="7" y="118"/><line style="stroke:#181818;stroke-width:0.5;" x1="7" x2="710" y1="144.2969" y2="144.2969"/><text fill="#000000" font-family="sans-serif" font-size="14" lengthAdjust="spacing" textLength="95.9902" x="310.5049" y="135.9951">editarPlanta()</text><g class="entity" data-qualified-name="editarPlanta.EditandoDatos" data-source-line="8" id="ent0003"><rect fill="#F1F1F1" height="50" rx="12.5" ry="12.5" style="stroke:#181818;stroke-width:0.5;" width="50" x="187" y="246.2969"/><line style="stroke:#181818;stroke-width:0.5;" x1="187" x2="237" y1="272.5938" y2="272.5938"/><text fill="#000000" font-family="sans-serif" font-size="14" lengthAdjust="spacing" textLength="4.4502" x="209.7749" y="264.292">&#160;</text></g><g class="entity" data-qualified-name="editarPlanta.GuardandoDatos" data-source-line="9" id="ent0004"><rect fill="#F1F1F1" height="50" rx="12.5" ry="12.5" style="stroke:#181818;stroke-width:0.5;" width="50" x="187" y="503.2969"/><line style="stroke:#181818;stroke-width:0.5;" x1="187" x2="237" y1="529.5938" y2="529.5938"/><text fill="#000000" font-family="sans-serif" font-size="14" lengthAdjust="spacing" textLength="4.4502" x="209.7749" y="521.292">&#160;</text></g><g class="start_entity" data-qualified-name="editarPlanta..start.editarPlanta" data-source-line="11" id="ent0006"><ellipse cx="212" cy="165.2969" fill="#222222" rx="10" ry="10" style="stroke:#222222;stroke-width:1;"/></g><g class="end_entity" data-qualified-name="editarPlanta..end.editarPlanta" data-source-line="35" id="ent0010"><ellipse cx="212" cy="635.2969" fill="none" rx="11" ry="11" style="stroke:#222222;stroke-width:1;"/><ellipse cx="212" cy="635.2969" fill="#222222" rx="6" ry="6" style="stroke:#222222;stroke-width:1;"/></g><!--link *start*editarPlanta to EditandoDatos--><g class="link" data-entity-1="ent0006" data-entity-2="ent0003" data-link-type="dependency" data-source-line="11" id="lnk7"><path d="M212,175.5269 C212,191.2369 212,218.6569 212,241.1669" fill="none" id="*start*editarPlanta-to-EditandoDatos" style="stroke:#008000;stroke-width:1;"/><polygon fill="#008000" points="212,246.1669,216,237.1669,212,241.1669,208,237.1669,212,246.1669" style="stroke:#008000;stroke-width:1;stroke-linejoin:miter;stroke-miterlimit:10;"/><path d="M217,198.2969 L217,223.2969 L480,223.2969 L480,208.2969 L470,198.2969 L217,198.2969" fill="#FEFFDD" style="stroke:#181818;stroke-width:0.5;"/><path d="M470,198.2969 L470,208.2969 L480,208.2969 L470,198.2969" fill="#FEFFDD" style="stroke:#181818;stroke-width:0.5;"/><text fill="#000000" font-family="sans-serif" font-size="13" font-weight="700" lengthAdjust="spacing" textLength="104.8633" x="223" y="215.3638">Administrador</text><text fill="#000000" font-family="sans-serif" font-size="13" lengthAdjust="spacing" textLength="133.4404" x="331.9956" y="215.3638">solicita editar planta</text></g><!--link EditandoDatos to GuardandoDatos--><g class="link" data-entity-1="ent0003" data-entity-2="ent0004" data-link-type="dependency" data-source-line="16" id="lnk8"><path d="M186.64,277.7869 C134.05,289.1769 18,314.2969 18,314.2969 C18,314.2969 18,485.2969 18,485.2969 C18,485.2969 129.1633,509.3585 181.7533,520.7485" fill="none" id="EditandoDatos-to-GuardandoDatos" style="stroke:#008000;stroke-width:1;"/><polygon fill="#008000" points="186.64,521.8069,178.6906,515.9925,181.7533,520.7485,176.9972,523.8112,186.64,521.8069" style="stroke:#008000;stroke-width:1;stroke-linejoin:miter;stroke-miterlimit:10;"/><path d="M23,319.2969 L23,480.2969 L381,480.2969 L381,329.2969 L371,319.2969 L23,319.2969" fill="#FEFFDD" style="stroke:#181818;stroke-width:0.5;"/><path d="M371,319.2969 L371,329.2969 L381,329.2969 L371,319.2969" fill="#FEFFDD" style="stroke:#181818;stroke-width:0.5;"/><text fill="#000000" font-family="sans-serif" font-size="13" font-weight="700" lengthAdjust="spacing" textLength="58.9063" x="29" y="336.3638">Sistema</text><text fill="#000000" font-family="sans-serif" font-size="13" lengthAdjust="spacing" textLength="169.1714" x="92.0386" y="336.3638">presenta datos de edici&#243;n</text><text fill="#000000" font-family="sans-serif" font-size="13" lengthAdjust="spacing" textLength="196.9741" x="29" y="351.4966">&#8226; C&#243;digo, nombre de la planta</text><text fill="#000000" font-family="sans-serif" font-size="13" lengthAdjust="spacing" textLength="337.1748" x="29" y="366.6294">&#8226; Regi&#243;n a la que pertenece (asignaci&#243;n jer&#225;rquica)</text><text fill="#000000" font-family="sans-serif" font-size="13" lengthAdjust="spacing" textLength="284.9146" x="29" y="381.7622">&#8226; Espacios contenidos en la planta (lectura)</text><text fill="#000000" font-family="sans-serif" font-size="13" lengthAdjust="spacing" textLength="158.2788" x="29" y="396.895">&#8226; Descripci&#243;n, nivel/piso</text><text fill="#000000" font-family="sans-serif" font-size="13" lengthAdjust="spacing" textLength="4.1323" x="29" y="412.0278">&#160;</text><text fill="#000000" font-family="sans-serif" font-size="13" font-weight="700" lengthAdjust="spacing" textLength="58.9063" x="29" y="427.1606">Sistema</text><text fill="#000000" font-family="sans-serif" font-size="13" lengthAdjust="spacing" textLength="110.5952" x="92.0386" y="427.1606">permite solicitar:</text><text fill="#000000" font-family="sans-serif" font-size="13" lengthAdjust="spacing" textLength="127.8164" x="29" y="442.2935">&#8226; modificar campos</text><text fill="#000000" font-family="sans-serif" font-size="13" lengthAdjust="spacing" textLength="108.4307" x="29" y="457.4263">&#8226; guardar planta</text><text fill="#000000" font-family="sans-serif" font-size="13" lengthAdjust="spacing" textLength="118.168" x="29" y="472.5591">&#8226; cancelar edici&#243;n</text></g><!--link GuardandoDatos to EditandoDatos--><g class="link" data-entity-1="ent0004" data-entity-2="ent0003" data-link-type="dependency" data-source-line="30" id="lnk9"><path d="M237.3,521.1869 C285.56,509.5369 386,485.2969 386,485.2969 C386,485.2969 386,314.2969 386,314.2969 C386,314.2969 290.4204,291.2302 242.1604,279.5802" fill="none" id="GuardandoDatos-to-EditandoDatos" style="stroke:#008000;stroke-width:1;"/><polygon fill="#008000" points="237.3,278.4069,245.1101,284.4071,242.1604,279.5802,246.9873,276.6305,237.3,278.4069" style="stroke:#008000;stroke-width:1;stroke-linejoin:miter;stroke-miterlimit:10;"/><path d="M391,387.2969 L391,412.2969 L686,412.2969 L686,397.2969 L676,387.2969 L391,387.2969" fill="#FEFFDD" style="stroke:#181818;stroke-width:0.5;"/><path d="M676,387.2969 L676,397.2969 L686,397.2969 L676,387.2969" fill="#FEFFDD" style="stroke:#181818;stroke-width:0.5;"/><text fill="#000000" font-family="sans-serif" font-size="13" font-weight="700" lengthAdjust="spacing" textLength="104.8633" x="397" y="404.3638">Administrador</text><text fill="#000000" font-family="sans-serif" font-size="13" lengthAdjust="spacing" textLength="165.9214" x="505.9956" y="404.3638">solicita modificar campos</text></g><!--link GuardandoDatos to *end*editarPlanta--><g class="link" data-entity-1="ent0004" data-entity-2="ent0010" data-link-type="dependency" data-source-line="35" id="lnk11"><path d="M186.56,536.3269 C143.29,548.2869 60,571.2969 60,571.2969 C60,571.2969 60,606.2969 60,606.2969 C60,606.2969 161.3027,624.961 196.1527,631.381" fill="none" id="GuardandoDatos-to-*end*editarPlanta" style="stroke:#008000;stroke-width:1;"/><polygon fill="#008000" points="201.07,632.2869,192.9436,626.7225,196.1527,631.381,191.4943,634.5902,201.07,632.2869" style="stroke:#008000;stroke-width:1;stroke-linejoin:miter;stroke-miterlimit:10;"/><path d="M65,576.2969 L65,601.2969 L339,601.2969 L339,586.2969 L329,576.2969 L65,576.2969" fill="#FEFFDD" style="stroke:#181818;stroke-width:0.5;"/><path d="M329,576.2969 L329,586.2969 L339,586.2969 L329,576.2969" fill="#FEFFDD" style="stroke:#181818;stroke-width:0.5;"/><text fill="#000000" font-family="sans-serif" font-size="13" font-weight="700" lengthAdjust="spacing" textLength="104.8633" x="71" y="593.3638">Administrador</text><text fill="#000000" font-family="sans-serif" font-size="13" lengthAdjust="spacing" textLength="144.5361" x="179.9956" y="593.3638">solicita guardar y salir</text></g><!--link GuardandoDatos to *end*editarPlanta--><g class="link" data-entity-1="ent0004" data-entity-2="ent0010" data-link-type="dependency" data-source-line="40" id="lnk12"><path d="M237.45,537.3969 C275.81,549.5969 344,571.2969 344,571.2969 C344,571.2969 344,606.2969 344,606.2969 C344,606.2969 259.2211,624.2791 227.6911,630.9691" fill="none" id="GuardandoDatos-to-*end*editarPlanta-1" style="stroke:#FF0000;stroke-width:1;"/><polygon fill="#FF0000" points="222.8,632.0069,232.4342,634.0517,227.6911,630.9691,230.7738,626.226,222.8,632.0069" style="stroke:#FF0000;stroke-width:1;stroke-linejoin:miter;stroke-miterlimit:10;"/><path d="M349,576.2969 L349,601.2969 L635,601.2969 L635,586.2969 L625,576.2969 L349,576.2969" fill="#FEFFDD" style="stroke:#181818;stroke-width:0.5;"/><path d="M625,576.2969 L625,586.2969 L635,586.2969 L625,576.2969" fill="#FEFFDD" style="stroke:#181818;stroke-width:0.5;"/><text fill="#000000" font-family="sans-serif" font-size="13" font-weight="700" lengthAdjust="spacing" textLength="104.8633" x="355" y="593.3638">Administrador</text><text fill="#000000" font-family="sans-serif" font-size="13" lengthAdjust="spacing" textLength="156.2729" x="463.9956" y="593.3638">solicita cancelar edici&#243;n</text></g></g><g class="entity" data-qualified-name="PLANTAS_ABIERTO" data-source-line="47" id="ent0013"><rect fill="#F1F1F1" height="50" rx="12.5" ry="12.5" style="stroke:#181818;stroke-width:0.5;" width="151.7627" x="282.62" y="754.3"/><line style="stroke:#181818;stroke-width:0.5;" x1="282.62" x2="434.3827" y1="780.5969" y2="780.5969"/><text fill="#000000" font-family="sans-serif" font-size="14" lengthAdjust="spacing" textLength="131.7627" x="292.62" y="772.2951">PLANTAS_ABIERTO</text></g><!--link in2 to editarPlanta--><g class="link" data-entity-1="ent0001" data-entity-2="ent0002" data-link-type="dependency" data-source-line="4" id="lnk5"><path d="M358.5,57.38 C358.5,72.4 358.5,88.4 358.5,112.61" fill="none" id="in2-to-editarPlanta" style="stroke:#008000;stroke-width:1;"/><polygon fill="#008000" points="358.5,117.61,362.5,108.61,358.5,112.61,354.5,108.61,358.5,117.61" style="stroke:#008000;stroke-width:1;stroke-linejoin:miter;stroke-miterlimit:10;"/></g><!--link editarPlanta to PLANTAS_ABIERTO--><g class="link" data-entity-1="ent0002" data-entity-2="ent0013" data-link-type="dependency" data-source-line="47" id="lnk14"><path d="M271.07,659.75 C265.16,677.98 261.5,689.3 261.5,689.3 C261.5,689.3 261.5,724.3 261.5,724.3 C261.5,724.3 284.5117,737.1073 310.1717,751.3973" fill="none" id="editarPlanta-to-PLANTAS_ABIERTO" style="stroke:#008000;stroke-width:1;"/><polygon fill="#008000" points="314.54,753.83,308.6232,745.9565,310.1717,751.3973,304.7309,752.9458,314.54,753.83" style="stroke:#008000;stroke-width:1;stroke-linejoin:miter;stroke-miterlimit:10;"/><path d="M266.5,694.3 L266.5,719.3 L405.5,719.3 L405.5,704.3 L395.5,694.3 L266.5,694.3" fill="#FEFFDD" style="stroke:#181818;stroke-width:0.5;"/><path d="M395.5,694.3 L395.5,704.3 L405.5,704.3 L395.5,694.3" fill="#FEFFDD" style="stroke:#181818;stroke-width:0.5;"/><text fill="#000000" font-family="sans-serif" font-size="13" lengthAdjust="spacing" textLength="118.8472" x="272.5" y="711.3669">abrirListaPlantas()</text></g><!--link editarPlanta to PLANTAS_ABIERTO--><g class="link" data-entity-1="ent0002" data-entity-2="ent0013" data-link-type="dependency" data-source-line="52" id="lnk15"><path d="M408.98,659.75 C412.39,677.98 414.5,689.3 414.5,689.3 C414.5,689.3 414.5,724.3 414.5,724.3 C414.5,724.3 402.2993,736.0694 387.4793,750.3594" fill="none" id="editarPlanta-to-PLANTAS_ABIERTO-1" style="stroke:#FF0000;stroke-width:1;"/><polygon fill="#FF0000" points="383.88,753.83,393.1352,750.4624,387.4793,750.3594,387.5823,744.7035,383.88,753.83" style="stroke:#FF0000;stroke-width:1;stroke-linejoin:miter;stroke-miterlimit:10;"/><path d="M419.5,694.3 L419.5,719.3 L546.5,719.3 L546.5,704.3 L536.5,694.3 L419.5,694.3" fill="#FEFFDD" style="stroke:#181818;stroke-width:0.5;"/><path d="M536.5,694.3 L536.5,704.3 L546.5,704.3 L536.5,694.3" fill="#FEFFDD" style="stroke:#181818;stroke-width:0.5;"/><text fill="#000000" font-family="sans-serif" font-size="13" lengthAdjust="spacing" textLength="106.3677" x="425.5" y="711.3669">cancelar edici&#243;n</text></g><?plantuml-src fLHHQjj04FtVKmpkZrqQ0lqimU0qfXH26vByXL36krCnZRIhpCe5KmgzIdk57C4twKawkxPiIQbRcgv0I3ipxxrvErAyOr-ZO0KbUsfMDK4TobLwCIOss12mVmaOONHnFdjtFRlwC3jzEx-yVZyoAN1qywmG8dzxD0LotA1SbEWRR8kxUncbkp6UZE2BCQ1haptIIvFcASUxS8PDY8_3RvOeRXU73S3DyzkUc1u6v1GV52FurEbTtZXPJ6UkOi-n4NH1JeuNKuYXPAkrM-bGR_f9-UJT1aINsTtwJ5qDVQ47DLmfFrMOsMkXICahbz5STj3o-i7dx9_VVi3hzOFZ8hnGh6eXb79AxCfCIPTKf2B05BjVwgcIDEJ94emnSk4nWy8dalLtkL-onSckU1vh3Ikz3LwBsEaZ-JqBZ4kopL8w9MSKhN2TGLKPVwRokEOOzZOD6oMfMBrexPPNEwmgEFweWWGiLlNMk1GeifyoxDMYjrJgVi-gzh3s2WPpSt1QdZ8ilzNyJn9qW9z2t7goWeWbIv_t0AUG-m_6lzXjlXhJ--gxJGx-8QP7ZGjXELTIt5J6ySJiOOUOsoR-YFXOQelt2m00?></g></svg>