<svg xmlns="http://www.w3.org/2000/svg" xmlns:xlink="http://www.w3.org/1999/xlink" contentStyleType="text/css" data-diagram-type="DESCRIPTION" height="623px" preserveAspectRatio="none" style="width:352px;height:623px;background:#FFFFFF;" version="1.1" viewBox="0 0 352 623" width="352px" zoomAndPan="magnify"><defs/><g><!--cluster Gesti?n de Espacios--><g class="cluster" data-entity="Gesti.n de Espacios" data-source-line="5" data-uid="ent0003" id="cluster_Gesti.n de Espacios"><path d="M14,6 L173.0742,6 A3.75,3.75 0 0 1 175.5742,8.5 L182.5742,28.2969 L194,28.2969 A2.5,2.5 0 0 1 196.5,30.7969 L196.5,291.5 A2.5,2.5 0 0 1 194,294 L14,294 A2.5,2.5 0 0 1 11.5,291.5 L11.5,8.5 A2.5,2.5 0 0 1 14,6" fill="none" style="stroke:#000000;stroke-width:1.5;"/><line style="stroke:#000000;stroke-width:1.5;" x1="11.5" x2="182.5742" y1="28.2969" y2="28.2969"/><text fill="#000000" font-family="sans-serif" font-size="14" font-weight="bold" lengthAdjust="spacing" textLength="158.0742" x="15.5" y="20.9951">Gesti&#243;n de Espacios</text></g><!--cluster Gesti?n de Recorridos--><g class="cluster" data-entity="Gesti.n de Recorridos" data-source-line="12" data-uid="ent0008" id="cluster_Gesti.n de Recorridos"><path d="M8.5,318 L183.9326,318 A3.75,3.75 0 0 1 186.4326,320.5 L193.4326,340.2969 L199.5,340.2969 A2.5,2.5 0 0 1 202,342.7969 L202,613.5 A2.5,2.5 0 0 1 199.5,616 L8.5,616 A2.5,2.5 0 0 1 6,613.5 L6,320.5 A2.5,2.5 0 0 1 8.5,318" fill="none" style="stroke:#000000;stroke-width:1.5;"/><line style="stroke:#000000;stroke-width:1.5;" x1="6" x2="193.4326" y1="340.2969" y2="340.2969"/><text fill="#000000" font-family="sans-serif" font-size="14" font-weight="bold" lengthAdjust="spacing" textLength="174.4326" x="10" y="332.9951">Gesti&#243;n de Recorridos</text></g><!--entity crearEspacio--><g class="entity" data-entity="crearEspacio" data-source-line="6" data-uid="ent0004" id="entity_crearEspacio"><ellipse cx="103.9182" cy="56.9836" fill="#F1F1F1" rx="67.9182" ry="15.9836" style="stroke:#181818;stroke-width:0.5;"/><text fill="#000000" font-family="sans-serif" font-size="14" lengthAdjust="spacing" textLength="101.083" x="53.3767" y="61.6321">crearEspacio()</text></g><!--entity verEspacios--><g class="entity" data-entity="verEspacios" data-source-line="7" data-uid="ent0005" id="entity_verEspacios"><ellipse cx="103.939" cy="123.9878" fill="#F1F1F1" rx="65.439" ry="15.4878" style="stroke:#181818;stroke-width:0.5;"/><text fill="#000000" font-family="sans-serif" font-size="14" lengthAdjust="spacing" textLength="94.6299" x="56.6241" y="128.6362">verEspacios()</text></g><!--entity eliminarEspacio--><g class="entity" data-entity="eliminarEspacio" data-source-line="8" data-uid="ent0006" id="entity_eliminarEspacio"><ellipse cx="103.7756" cy="192.1551" fill="#F1F1F1" rx="76.2756" ry="17.6551" style="stroke:#181818;stroke-width:0.5;"/><text fill="#000000" font-family="sans-serif" font-size="14" lengthAdjust="spacing" textLength="121.8096" x="42.8708" y="196.8036">eliminarEspacio()</text></g><!--entity editarEspacio--><g class="entity" data-entity="editarEspacio" data-source-line="9" data-uid="ent0007" id="entity_editarEspacio"><ellipse cx="103.8086" cy="260.8617" fill="#F1F1F1" rx="69.8086" ry="16.3617" style="stroke:#181818;stroke-width:0.5;"/><text fill="#000000" font-family="sans-serif" font-size="14" lengthAdjust="spacing" textLength="105.8955" x="50.8609" y="265.5102">editarEspacio()</text></g><!--entity crearRecorrido--><g class="entity" data-entity="crearRecorrido" data-source-line="13" data-uid="ent0009" id="entity_crearRecorrido"><ellipse cx="103.8823" cy="370.0765" fill="#F1F1F1" rx="73.3823" ry="17.0765" style="stroke:#181818;stroke-width:0.5;"/><text fill="#000000" font-family="sans-serif" font-size="14" lengthAdjust="spacing" textLength="114.7822" x="46.4912" y="374.7249">crearRecorrido()</text></g><!--entity verRecorridos--><g class="entity" data-entity="verRecorridos" data-source-line="14" data-uid="ent0010" id="entity_verRecorridos"><ellipse cx="103.777" cy="439.0554" fill="#F1F1F1" rx="70.777" ry="16.5554" style="stroke:#181818;stroke-width:0.5;"/><text fill="#000000" font-family="sans-serif" font-size="14" lengthAdjust="spacing" textLength="108.3291" x="49.6125" y="443.7038">verRecorridos()</text></g><!--entity eliminarRecorrido--><g class="entity" data-entity="eliminarRecorrido" data-source-line="15" data-uid="ent0011" id="entity_eliminarRecorrido"><ellipse cx="104.0606" cy="509.8121" fill="#F1F1F1" rx="82.0606" ry="18.8121" style="stroke:#181818;stroke-width:0.5;"/><text fill="#000000" font-family="sans-serif" font-size="14" lengthAdjust="spacing" textLength="135.5088" x="36.3062" y="514.4606">eliminarRecorrido()</text></g><!--entity editarRecorrido--><g class="entity" data-entity="editarRecorrido" data-source-line="16" data-uid="ent0012" id="entity_editarRecorrido"><ellipse cx="103.8578" cy="581.9716" fill="#F1F1F1" rx="75.3578" ry="17.4716" style="stroke:#181818;stroke-width:0.5;"/><text fill="#000000" font-family="sans-serif" font-size="14" lengthAdjust="spacing" textLength="119.5947" x="44.0604" y="586.62">editarRecorrido()</text></g><!--entity admin--><g class="entity" data-entity="admin" data-source-line="3" data-uid="ent0002" id="entity_admin"><ellipse cx="295.54" cy="286.5" fill="#F1F1F1" rx="8" ry="8" style="stroke:#181818;stroke-width:0.5;"/><path d="M295.54,294.5 L295.54,321.5 M282.54,302.5 L308.54,302.5 M295.54,321.5 L282.54,336.5 M295.54,321.5 L308.54,336.5" fill="none" style="stroke:#181818;stroke-width:0.5;"/><text fill="#000000" font-family="sans-serif" font-size="14" lengthAdjust="spacing" textLength="99.0801" x="246" y="350.9951">Administrador</text></g><!--reverse link crearEspacio to admin--><g class="link" data-entity-1="crearEspacio" data-entity-2="admin" data-source-line="19" data-uid="lnk13" id="link_crearEspacio_admin"><path d="M167.4928,67.1804 C184.7428,72.1804 196.84,78.43 210,91 C262.81,141.43 282.91,228.06 290.34,277.82" fill="none" id="crearEspacio-backto-admin" style="stroke:#181818;stroke-width:1;"/><polygon fill="#181818" points="161.73,65.51,169.2606,71.8574,166.5323,66.902,171.4878,64.1737,161.73,65.51" style="stroke:#181818;stroke-width:1;"/></g><!--reverse link verEspacios to admin--><g class="link" data-entity-1="verEspacios" data-entity-2="admin" data-source-line="20" data-uid="lnk14" id="link_verEspacios_admin"><path d="M164.9446,134.1134 C182.6246,138.9834 195.6,145.03 210,157 C247.99,188.57 271.27,241.74 283.53,277.82" fill="none" id="verEspacios-backto-admin" style="stroke:#181818;stroke-width:1;"/><polygon fill="#181818" points="159.16,132.52,166.7746,138.7664,163.9805,133.8478,168.8991,131.0537,159.16,132.52" style="stroke:#181818;stroke-width:1;"/></g><!--reverse link eliminarEspacio to admin--><g class="link" data-entity-1="eliminarEspacio" data-entity-2="admin" data-source-line="21" data-uid="lnk15" id="link_eliminarEspacio_admin"><path d="M164.2676,206.1074 C181.5076,211.4874 194.44,217.1 210,227 C231.03,240.38 250.49,260.12 265.42,277.61" fill="none" id="eliminarEspacio-backto-admin" style="stroke:#181818;stroke-width:1;"/><polygon fill="#181818" points="158.54,204.32,165.9398,210.8195,163.313,205.8095,168.323,203.1827,158.54,204.32" style="stroke:#181818;stroke-width:1;"/></g><!--reverse link editarEspacio to admin--><g class="link" data-entity-1="editarEspacio" data-entity-2="admin" data-source-line="22" data-uid="lnk16" id="link_editarEspacio_admin"><path d="M154.7123,275.4322 C183.6923,283.8422 215.9,293.19 245.79,301.86" fill="none" id="editarEspacio-backto-admin" style="stroke:#181818;stroke-width:1;"/><polygon fill="#181818" points="148.95,273.76,156.4786,280.1098,153.7519,275.1535,158.7082,272.4268,148.95,273.76" style="stroke:#181818;stroke-width:1;"/></g><!--reverse link crearRecorrido to admin--><g class="link" data-entity-1="crearRecorrido" data-entity-2="admin" data-source-line="24" data-uid="lnk17" id="link_crearRecorrido_admin"><path d="M157.1302,355.1454 C185.8302,346.9654 216.87,338.12 245.98,329.83" fill="none" id="crearRecorrido-backto-admin" style="stroke:#181818;stroke-width:1;"/><polygon fill="#181818" points="151.36,356.79,161.1117,358.1699,156.1685,355.4195,158.9189,350.4763,151.36,356.79" style="stroke:#181818;stroke-width:1;"/></g><!--reverse link verRecorridos to admin--><g class="link" data-entity-1="verRecorridos" data-entity-2="admin" data-source-line="25" data-uid="lnk18" id="link_verRecorridos_admin"><path d="M161.3036,425.7948 C179.3436,420.3448 193.51,414.42 210,404 C230.77,390.87 250.06,371.57 264.96,354.39" fill="none" id="verRecorridos-backto-admin" style="stroke:#181818;stroke-width:1;"/><polygon fill="#181818" points="155.56,427.53,165.3322,428.7563,160.3463,426.084,163.0186,421.0981,155.56,427.53" style="stroke:#181818;stroke-width:1;"/></g><!--reverse link eliminarRecorrido to admin--><g class="link" data-entity-1="eliminarRecorrido" data-entity-2="admin" data-source-line="26" data-uid="lnk19" id="link_eliminarRecorrido_admin"><path d="M170.8284,495.243 C186.6784,489.743 197.23,483.93 210,473 C246.92,441.4 270.34,389.51 282.93,354.1" fill="none" id="eliminarRecorrido-backto-admin" style="stroke:#181818;stroke-width:1;"/><polygon fill="#181818" points="165.16,497.21,174.9739,498.0385,169.8837,495.5709,172.3513,490.4806,165.16,497.21" style="stroke:#181818;stroke-width:1;"/></g><!--reverse link editarRecorrido to admin--><g class="link" data-entity-1="editarRecorrido" data-entity-2="admin" data-source-line="27" data-uid="lnk20" id="link_editarRecorrido_admin"><path d="M170.2552,569.6623 C186.6552,564.3223 197.6,558.13 210,546 C263.52,493.64 283.39,404.56 290.58,354" fill="none" id="editarRecorrido-backto-admin" style="stroke:#181818;stroke-width:1;"/><polygon fill="#181818" points="164.55,571.52,174.3462,572.537,169.3043,569.9719,171.8693,564.9301,164.55,571.52" style="stroke:#181818;stroke-width:1;"/></g><!--SRC=[TP4z3i8m38NtdCBAr0wz0Gi3OkS6KMAAHMcG4rWGf-88N8mMjSrFqspvdksNvtHuzk0jCBKN3uOOjIVR2w6qjmnoRsxKa_EiZ6K9oe4QYH1tfQ-gHP17T9w-dnuCmi4DcAoJBm73UJZKoY5eHiMJDewGCQXgcHG_SLRSlpQwvwNOqV2MT7J6LYs6VDOGax7ylH7kXDeoaod7MzGGS465Y67O73AGhPYfnOgMesPDAPlYLl5_rB1hckcNgsZv2S-sd6hnGcDbybdSSwUmWQ9NkIzB56a_]--></g></svg>