<svg xmlns="http://www.w3.org/2000/svg" xmlns:xlink="http://www.w3.org/1999/xlink" contentStyleType="text/css" data-diagram-type="DESCRIPTION" height="1240px" preserveAspectRatio="none" style="width:360px;height:1240px;background:#FFFFFF;" version="1.1" viewBox="0 0 360 1240" width="360px" zoomAndPan="magnify"><?plantuml 1.2026.5?><defs/><g><!--cluster Gesti?n de Regiones--><g class="cluster" data-qualified-name="Gesti.n de Regiones" data-source-line="5" id="ent0002"><path d="M16.43,6 L179.5989,6 A3.75,3.75 0 0 1 182.0989,8.5 L189.0989,28.2969 L191.69,28.2969 A2.5,2.5 0 0 1 194.19,30.7969 L194.19,288.5 A2.5,2.5 0 0 1 191.69,291 L16.43,291 A2.5,2.5 0 0 1 13.93,288.5 L13.93,8.5 A2.5,2.5 0 0 1 16.43,6" fill="none" style="stroke:#000000;stroke-width:1.5;"/><line style="stroke:#000000;stroke-width:1.5;" x1="13.93" x2="189.0989" y1="28.2969" y2="28.2969"/><text fill="#000000" font-family="sans-serif" font-size="14" font-weight="700" lengthAdjust="spacing" textLength="162.1689" x="17.93" y="20.9951">Gesti&#243;n de Regiones</text></g><!--cluster Gesti?n de Plantas--><g class="cluster" data-qualified-name="Gesti.n de Plantas" data-source-line="12" id="ent0007"><path d="M18.35,315 L167.9564,315 A3.75,3.75 0 0 1 170.4564,317.5 L177.4564,337.2969 L189.77,337.2969 A2.5,2.5 0 0 1 192.27,339.7969 L192.27,593.5 A2.5,2.5 0 0 1 189.77,596 L18.35,596 A2.5,2.5 0 0 1 15.85,593.5 L15.85,317.5 A2.5,2.5 0 0 1 18.35,315" fill="none" style="stroke:#000000;stroke-width:1.5;"/><line style="stroke:#000000;stroke-width:1.5;" x1="15.85" x2="177.4564" y1="337.2969" y2="337.2969"/><text fill="#000000" font-family="sans-serif" font-size="14" font-weight="700" lengthAdjust="spacing" textLength="148.6064" x="19.85" y="329.9951">Gesti&#243;n de Plantas</text></g><!--cluster Gesti?n de Espacios--><g class="cluster" data-qualified-name="Gesti.n de Espacios" data-source-line="19" id="ent0012"><path d="M14.28,620 L173.3542,620 A3.75,3.75 0 0 1 175.8542,622.5 L182.8542,642.2969 L193.84,642.2969 A2.5,2.5 0 0 1 196.34,644.7969 L196.34,903.5 A2.5,2.5 0 0 1 193.84,906 L14.28,906 A2.5,2.5 0 0 1 11.78,903.5 L11.78,622.5 A2.5,2.5 0 0 1 14.28,620" fill="none" style="stroke:#000000;stroke-width:1.5;"/><line style="stroke:#000000;stroke-width:1.5;" x1="11.78" x2="182.8542" y1="642.2969" y2="642.2969"/><text fill="#000000" font-family="sans-serif" font-size="14" font-weight="700" lengthAdjust="spacing" textLength="158.0742" x="15.78" y="634.9951">Gesti&#243;n de Espacios</text></g><!--cluster Gesti?n de Recorridos--><g class="cluster" data-qualified-name="Gesti.n de Recorridos" data-source-line="26" id="ent0017"><path d="M8.5,930 L183.9326,930 A3.75,3.75 0 0 1 186.4326,932.5 L193.4326,952.2969 L199.62,952.2969 A2.5,2.5 0 0 1 202.12,954.7969 L202.12,1222.5 A2.5,2.5 0 0 1 199.62,1225 L8.5,1225 A2.5,2.5 0 0 1 6,1222.5 L6,932.5 A2.5,2.5 0 0 1 8.5,930" fill="none" style="stroke:#000000;stroke-width:1.5;"/><line style="stroke:#000000;stroke-width:1.5;" x1="6" x2="193.4326" y1="952.2969" y2="952.2969"/><text fill="#000000" font-family="sans-serif" font-size="14" font-weight="700" lengthAdjust="spacing" textLength="174.4326" x="10" y="944.9951">Gesti&#243;n de Recorridos</text></g><!--entity crearRegion--><g class="entity" data-qualified-name="Gesti.n de Regiones.crearRegion" data-source-line="6" id="ent0003"><ellipse cx="104.0643" cy="259.0029" fill="#F1F1F1" rx="65.9143" ry="15.5829" style="stroke:#181818;stroke-width:0.5;"/><text fill="#000000" font-family="sans-serif" font-size="14" lengthAdjust="spacing" textLength="95.8809" x="56.1239" y="263.6513">crearRegion()</text></g><!--entity verRegiones--><g class="entity" data-qualified-name="Gesti.n de Regiones.verRegiones" data-source-line="7" id="ent0004"><ellipse cx="104.0612" cy="192.9982" fill="#F1F1F1" rx="66.7412" ry="15.7482" style="stroke:#181818;stroke-width:0.5;"/><text fill="#000000" font-family="sans-serif" font-size="14" lengthAdjust="spacing" textLength="98.041" x="55.0407" y="197.6467">verRegiones()</text></g><!--entity eliminarRegion--><g class="entity" data-qualified-name="Gesti.n de Regiones.eliminarRegion" data-source-line="8" id="ent0005"><ellipse cx="104.0584" cy="124.9957" fill="#F1F1F1" rx="74.1284" ry="17.2257" style="stroke:#181818;stroke-width:0.5;"/><text fill="#000000" font-family="sans-serif" font-size="14" lengthAdjust="spacing" textLength="116.6074" x="45.7547" y="129.6441">eliminarRegion()</text></g><!--entity editarRegion--><g class="entity" data-qualified-name="Gesti.n de Regiones.editarRegion" data-source-line="9" id="ent0006"><ellipse cx="104.0566" cy="57.0033" fill="#F1F1F1" rx="67.7666" ry="15.9533" style="stroke:#181818;stroke-width:0.5;"/><text fill="#000000" font-family="sans-serif" font-size="14" lengthAdjust="spacing" textLength="100.6934" x="53.7099" y="61.6518">editarRegion()</text></g><!--entity crearPlanta--><g class="entity" data-qualified-name="Gesti.n de Plantas.crearPlanta" data-source-line="13" id="ent0008"><ellipse cx="104.0614" cy="564.9983" fill="#F1F1F1" rx="64.1414" ry="15.2283" style="stroke:#181818;stroke-width:0.5;"/><text fill="#000000" font-family="sans-serif" font-size="14" lengthAdjust="spacing" textLength="91.1777" x="58.4725" y="569.6467">crearPlanta()</text></g><!--entity verPlantas--><g class="entity" data-qualified-name="Gesti.n de Plantas.verPlantas" data-source-line="14" id="ent0009"><ellipse cx="104.0649" cy="500.005" fill="#F1F1F1" rx="61.7749" ry="14.755" style="stroke:#181818;stroke-width:0.5;"/><text fill="#000000" font-family="sans-serif" font-size="14" lengthAdjust="spacing" textLength="84.7246" x="61.7026" y="504.6534">verPlantas()</text></g><!--entity eliminarPlanta--><g class="entity" data-qualified-name="Gesti.n de Plantas.eliminarPlanta" data-source-line="15" id="ent0010"><ellipse cx="104.0639" cy="433.0028" fill="#F1F1F1" rx="72.2139" ry="16.8428" style="stroke:#181818;stroke-width:0.5;"/><text fill="#000000" font-family="sans-serif" font-size="14" lengthAdjust="spacing" textLength="111.9043" x="48.1118" y="437.6512">eliminarPlanta()</text></g><!--entity editarPlanta--><g class="entity" data-qualified-name="Gesti.n de Plantas.editarPlanta" data-source-line="16" id="ent0011"><ellipse cx="104.056" cy="366.0012" fill="#F1F1F1" rx="65.956" ry="15.5912" style="stroke:#181818;stroke-width:0.5;"/><text fill="#000000" font-family="sans-serif" font-size="14" lengthAdjust="spacing" textLength="95.9902" x="56.0609" y="370.6496">editarPlanta()</text></g><!--entity crearEspacio--><g class="entity" data-qualified-name="Gesti.n de Espacios.crearEspacio" data-source-line="20" id="ent0013"><ellipse cx="104.0582" cy="874.0036" fill="#F1F1F1" rx="67.9182" ry="15.9836" style="stroke:#181818;stroke-width:0.5;"/><text fill="#000000" font-family="sans-serif" font-size="14" lengthAdjust="spacing" textLength="101.083" x="53.5167" y="878.6521">crearEspacio()</text></g><!--entity verEspacios--><g class="entity" data-qualified-name="Gesti.n de Espacios.verEspacios" data-source-line="21" id="ent0014"><ellipse cx="104.059" cy="807.9978" fill="#F1F1F1" rx="65.439" ry="15.4878" style="stroke:#181818;stroke-width:0.5;"/><text fill="#000000" font-family="sans-serif" font-size="14" lengthAdjust="spacing" textLength="94.6299" x="56.7441" y="812.6462">verEspacios()</text></g><!--entity eliminarEspacio--><g class="entity" data-qualified-name="Gesti.n de Espacios.eliminarEspacio" data-source-line="22" id="ent0015"><ellipse cx="104.0556" cy="739.9951" fill="#F1F1F1" rx="76.2756" ry="17.6551" style="stroke:#181818;stroke-width:0.5;"/><text fill="#000000" font-family="sans-serif" font-size="14" lengthAdjust="spacing" textLength="121.8096" x="43.1508" y="744.6436">eliminarEspacio()</text></g><!--entity editarEspacio--><g class="entity" data-qualified-name="Gesti.n de Espacios.editarEspacio" data-source-line="23" id="ent0016"><ellipse cx="104.0586" cy="671.0017" fill="#F1F1F1" rx="69.8086" ry="16.3617" style="stroke:#181818;stroke-width:0.5;"/><text fill="#000000" font-family="sans-serif" font-size="14" lengthAdjust="spacing" textLength="105.8955" x="51.1109" y="675.6502">editarEspacio()</text></g><!--entity crearRecorrido--><g class="entity" data-qualified-name="Gesti.n de Recorridos.crearRecorrido" data-source-line="27" id="ent0018"><ellipse cx="104.0623" cy="1191.9965" fill="#F1F1F1" rx="73.3823" ry="17.0765" style="stroke:#181818;stroke-width:0.5;"/><text fill="#000000" font-family="sans-serif" font-size="14" lengthAdjust="spacing" textLength="114.7822" x="46.6712" y="1196.6449">crearRecorrido()</text></g><!--entity verRecorridos--><g class="entity" data-qualified-name="Gesti.n de Recorridos.verRecorridos" data-source-line="28" id="ent0019"><ellipse cx="104.057" cy="1122.9954" fill="#F1F1F1" rx="70.777" ry="16.5554" style="stroke:#181818;stroke-width:0.5;"/><text fill="#000000" font-family="sans-serif" font-size="14" lengthAdjust="spacing" textLength="108.3291" x="49.8925" y="1127.6438">verRecorridos()</text></g><!--entity eliminarRecorrido--><g class="entity" data-qualified-name="Gesti.n de Recorridos.eliminarRecorrido" data-source-line="29" id="ent0020"><ellipse cx="104.0606" cy="1053.0021" fill="#F1F1F1" rx="82.0606" ry="18.8121" style="stroke:#181818;stroke-width:0.5;"/><text fill="#000000" font-family="sans-serif" font-size="14" lengthAdjust="spacing" textLength="135.5088" x="36.3062" y="1057.6506">eliminarRecorrido()</text></g><!--entity editarRecorrido--><g class="entity" data-qualified-name="Gesti.n de Recorridos.editarRecorrido" data-source-line="30" id="ent0021"><ellipse cx="104.0578" cy="982.0016" fill="#F1F1F1" rx="75.3578" ry="17.4716" style="stroke:#181818;stroke-width:0.5;"/><text fill="#000000" font-family="sans-serif" font-size="14" lengthAdjust="spacing" textLength="119.5947" x="44.2604" y="986.65">editarRecorrido()</text></g><!--entity admin--><g class="entity" data-qualified-name="admin" data-source-line="3" id="ent0001"><ellipse cx="295.66" cy="588.35" fill="#F1F1F1" rx="8" ry="8" style="stroke:#181818;stroke-width:0.5;"/><path d="M295.66,596.35 L295.66,623.35 M282.66,604.35 L308.66,604.35 M295.66,623.35 L282.66,638.35 M295.66,623.35 L308.66,638.35" fill="none" style="stroke:#181818;stroke-width:0.5;"/><text fill="#000000" font-family="sans-serif" font-size="14" lengthAdjust="spacing" textLength="99.0801" x="246.12" y="652.8451">Administrador</text></g><!--reverse link crearRegion to admin--><g class="link" data-entity-1="ent0003" data-entity-2="ent0001" data-link-type="dependency" data-source-line="33" id="lnk22"><path d="M139.0117,275.4817 C162.7117,288.2517 190.72,306.82 210.12,334 C264.53,410.2 284.3,521.59 291.19,579.63" fill="none" id="crearRegion-backto-admin" style="stroke:#181818;stroke-width:1;"/><polygon fill="#181818" points="134.61,273.11,140.6357,280.9005,139.0117,275.4817,144.4304,273.8577,134.61,273.11" style="stroke:#181818;stroke-width:1;stroke-linejoin:miter;stroke-miterlimit:10;"/></g><!--reverse link verRegiones to admin--><g class="link" data-entity-1="ent0004" data-entity-2="ent0001" data-link-type="dependency" data-source-line="34" id="lnk23"><path d="M169.1093,201.5676 C185.9893,206.3676 198.2,212.93 210.12,226 C257.45,277.89 282.69,491.46 291.26,579.64" fill="none" id="verRegiones-backto-admin" style="stroke:#181818;stroke-width:1;"/><polygon fill="#181818" points="164.3,200.2,171.8627,206.5091,169.1093,201.5676,174.0509,198.8142,164.3,200.2" style="stroke:#181818;stroke-width:1;stroke-linejoin:miter;stroke-miterlimit:10;"/></g><!--reverse link eliminarRegion to admin--><g class="link" data-entity-1="ent0005" data-entity-2="ent0001" data-link-type="dependency" data-source-line="35" id="lnk24"><path d="M172.3732,135.6715 C188.2432,140.8515 199.14,147.38 210.12,160 C264.78,222.84 286.21,481.11 292.5,579.6" fill="none" id="eliminarRegion-backto-admin" style="stroke:#181818;stroke-width:1;"/><polygon fill="#181818" points="167.62,134.12,174.9346,140.7152,172.3732,135.6715,177.4169,133.1101,167.62,134.12" style="stroke:#181818;stroke-width:1;stroke-linejoin:miter;stroke-miterlimit:10;"/></g><!--reverse link editarRegion to admin--><g class="link" data-entity-1="ent0006" data-entity-2="ent0001" data-link-type="dependency" data-source-line="36" id="lnk25"><path d="M170.3629,65.44 C186.9829,70.25 198.75,76.84 210.12,90 C273.78,163.67 289.87,471.07 293.61,579.74" fill="none" id="editarRegion-backto-admin" style="stroke:#181818;stroke-width:1;"/><polygon fill="#181818" points="165.56,64.05,173.0932,70.3943,170.3629,65.44,175.3172,62.7097,165.56,64.05" style="stroke:#181818;stroke-width:1;stroke-linejoin:miter;stroke-miterlimit:10;"/></g><!--reverse link crearPlanta to admin--><g class="link" data-entity-1="ent0008" data-entity-2="ent0001" data-link-type="dependency" data-source-line="38" id="lnk26"><path d="M151.4852,577.9768 C180.6952,586.1468 215.06,595.75 245.77,604.33" fill="none" id="crearPlanta-backto-admin" style="stroke:#181818;stroke-width:1;"/><polygon fill="#181818" points="146.67,576.63,154.2599,582.9064,151.4852,577.9768,156.4148,575.2021,146.67,576.63" style="stroke:#181818;stroke-width:1;stroke-linejoin:miter;stroke-miterlimit:10;"/></g><!--reverse link verPlantas to admin--><g class="link" data-entity-1="ent0009" data-entity-2="ent0001" data-link-type="dependency" data-source-line="39" id="lnk27"><path d="M158.0333,510.5802 C176.6833,515.5202 192.84,521.53 210.12,532 C230.53,544.37 249.53,562.78 264.33,579.39" fill="none" id="verPlantas-backto-admin" style="stroke:#181818;stroke-width:1;"/><polygon fill="#181818" points="153.2,509.3,160.8758,515.4711,158.0333,510.5802,162.9242,507.7378,153.2,509.3" style="stroke:#181818;stroke-width:1;stroke-linejoin:miter;stroke-miterlimit:10;"/></g><!--reverse link eliminarPlanta to admin--><g class="link" data-entity-1="ent0010" data-entity-2="ent0001" data-link-type="dependency" data-source-line="40" id="lnk28"><path d="M166.3277,445.0542 C183.2777,450.2842 196.25,456.56 210.12,468 C245.64,497.29 269.02,545.62 282.01,579.49" fill="none" id="eliminarPlanta-backto-admin" style="stroke:#181818;stroke-width:1;"/><polygon fill="#181818" points="161.55,443.58,168.9706,450.0557,166.3277,445.0542,171.3293,442.4114,161.55,443.58" style="stroke:#181818;stroke-width:1;stroke-linejoin:miter;stroke-miterlimit:10;"/></g><!--reverse link editarPlanta to admin--><g class="link" data-entity-1="ent0011" data-entity-2="ent0001" data-link-type="dependency" data-source-line="41" id="lnk29"><path d="M166.2766,375.2617 C183.6166,380.0917 196.8,386.51 210.12,399 C261.7,447.37 282.19,530.77 290.05,579.5" fill="none" id="editarPlanta-backto-admin" style="stroke:#181818;stroke-width:1;"/><polygon fill="#181818" points="161.46,373.92,169.0566,380.1883,166.2766,375.2617,171.2033,372.4817,161.46,373.92" style="stroke:#181818;stroke-width:1;stroke-linejoin:miter;stroke-miterlimit:10;"/></g><!--reverse link crearEspacio to admin--><g class="link" data-entity-1="ent0013" data-entity-2="ent0001" data-link-type="dependency" data-source-line="43" id="lnk30"><path d="M167.6764,864.3623 C184.5964,859.5123 197.19,853.2 210.12,841 C262.67,791.41 282.86,705.81 290.39,656.34" fill="none" id="crearEspacio-backto-admin" style="stroke:#181818;stroke-width:1;"/><polygon fill="#181818" points="162.87,865.74,172.6238,867.1052,167.6764,864.3623,170.4194,859.4149,162.87,865.74" style="stroke:#181818;stroke-width:1;stroke-linejoin:miter;stroke-miterlimit:10;"/></g><!--reverse link verEspacios to admin--><g class="link" data-entity-1="ent0014" data-entity-2="ent0001" data-link-type="dependency" data-source-line="44" id="lnk31"><path d="M164.3082,798.034 C181.9082,793.154 195.75,786.87 210.12,775 C247.59,744.04 270.9,692 283.32,656.39" fill="none" id="verEspacios-backto-admin" style="stroke:#181818;stroke-width:1;"/><polygon fill="#181818" points="159.49,799.37,169.2316,800.8198,164.3082,798.034,167.094,793.1107,159.49,799.37" style="stroke:#181818;stroke-width:1;stroke-linejoin:miter;stroke-miterlimit:10;"/></g><!--reverse link eliminarEspacio to admin--><g class="link" data-entity-1="ent0015" data-entity-2="ent0001" data-link-type="dependency" data-source-line="45" id="lnk32"><path d="M163.8703,725.912 C180.9703,720.542 194.65,714.71 210.12,705 C230.63,692.12 249.78,673.26 264.64,656.38" fill="none" id="eliminarEspacio-backto-admin" style="stroke:#181818;stroke-width:1;"/><polygon fill="#181818" points="159.1,727.41,168.885,728.5298,163.8703,725.912,166.4881,720.8973,159.1,727.41" style="stroke:#181818;stroke-width:1;stroke-linejoin:miter;stroke-miterlimit:10;"/></g><!--reverse link editarEspacio to admin--><g class="link" data-entity-1="ent0016" data-entity-2="ent0001" data-link-type="dependency" data-source-line="46" id="lnk33"><path d="M154.8054,657.094 C183.6054,649.044 216.18,639.94 245.73,631.68" fill="none" id="editarEspacio-backto-admin" style="stroke:#181818;stroke-width:1;"/><polygon fill="#181818" points="149.99,658.44,159.7346,659.8696,154.8054,657.094,157.581,652.1649,149.99,658.44" style="stroke:#181818;stroke-width:1;stroke-linejoin:miter;stroke-miterlimit:10;"/></g><!--reverse link crearRecorrido to admin--><g class="link" data-entity-1="ent0018" data-entity-2="ent0001" data-link-type="dependency" data-source-line="48" id="lnk34"><path d="M172.3269,1181.62 C188.2969,1176.45 199.25,1169.84 210.12,1157 C274.38,1081.09 290.1,767.02 293.68,656.6" fill="none" id="crearRecorrido-backto-admin" style="stroke:#181818;stroke-width:1;"/><polygon fill="#181818" points="167.57,1183.16,177.3645,1184.1936,172.3269,1181.62,174.9005,1176.5825,167.57,1183.16" style="stroke:#181818;stroke-width:1;stroke-linejoin:miter;stroke-miterlimit:10;"/></g><!--reverse link verRecorridos to admin--><g class="link" data-entity-1="ent0019" data-entity-2="ent0001" data-link-type="dependency" data-source-line="49" id="lnk35"><path d="M171.3089,1113.4096 C187.5589,1108.4096 198.9,1101.85 210.12,1089 C266.6,1024.3 286.99,756.9 292.75,656.41" fill="none" id="verRecorridos-backto-admin" style="stroke:#181818;stroke-width:1;"/><polygon fill="#181818" points="166.53,1114.88,176.3084,1116.0563,171.3089,1113.4096,173.9557,1108.4101,166.53,1114.88" style="stroke:#181818;stroke-width:1;stroke-linejoin:miter;stroke-miterlimit:10;"/></g><!--reverse link eliminarRecorrido to admin--><g class="link" data-entity-1="ent0020" data-entity-2="ent0001" data-link-type="dependency" data-source-line="50" id="lnk36"><path d="M175.6783,1040.1095 C190.3183,1034.7795 199.83,1028.62 210.12,1017 C257.53,963.46 282.76,745.99 291.29,656.62" fill="none" id="eliminarRecorrido-backto-admin" style="stroke:#181818;stroke-width:1;"/><polygon fill="#181818" points="170.98,1041.82,180.8054,1042.4997,175.6783,1040.1095,178.0685,1034.9824,170.98,1041.82" style="stroke:#181818;stroke-width:1;stroke-linejoin:miter;stroke-miterlimit:10;"/></g><!--reverse link editarRecorrido to admin--><g class="link" data-entity-1="ent0021" data-entity-2="ent0001" data-link-type="dependency" data-source-line="51" id="lnk37"><path d="M141.9036,963.579 C165.3036,950.489 191.55,932.29 210.12,906 C264.99,828.33 284.59,715.03 291.33,656.38" fill="none" id="editarRecorrido-backto-admin" style="stroke:#181818;stroke-width:1;"/><polygon fill="#181818" points="137.54,966.02,147.3474,965.1171,141.9036,963.579,143.4417,958.1352,137.54,966.02" style="stroke:#181818;stroke-width:1;stroke-linejoin:miter;stroke-miterlimit:10;"/></g><?plantuml-src VLCnKiGm3Epp2eshN74_eA5WQ9dxWSSMmKE86TlGtF0gdi37I8XCf4I-T5f9krbxFU9pWH8XXU6bW0y9NGbnwZhhIanWxlrRc48koVgO3DWCTa6wxjswLpiWc4VC9VnyJ-0HBZZCovZDjOFv-yZeR4Pm2MrQUmk3ONL_CcBq4rCb-HjbzNuKnp3_YI2Mq671XoB76R0CVpLiFOrsAbPrjROsLskjk2AEQehAbYT6Ao7T4nzdm2rF3tc6GrHDKMzpHO1Ygz9KNxLk6UFKEqot9XOuSilS1LrCAVZOI29rUHW9KlDOoRP4LgITIIvnG5l954iI8xizUpidk3kVwJtsxA48N3u9sMBnvmqIMJEq5w7WgXhA1e-Zea5tkHUfAL9Lj1sH34Nd_nYFPrQlid5gsjxkQbZl5m00?></g></svg>