<svg xmlns="http://www.w3.org/2000/svg" xmlns:xlink="http://www.w3.org/1999/xlink" contentStyleType="text/css" data-diagram-type="STATE" height="761px" preserveAspectRatio="none" style="width:523px;height:761px;background:#FFFFFF;" version="1.1" viewBox="0 0 523 761" width="523px" zoomAndPan="magnify"><defs/><g><g id="in1"><rect fill="#F1F1F1" height="50" rx="12.5" ry="12.5" style="stroke:#181818;stroke-width:0.5;" width="208.2617" x="7" y="7"/><line style="stroke:#181818;stroke-width:0.5;" x1="7" x2="215.2617" y1="33.2969" y2="33.2969"/><text fill="#000000" font-family="sans-serif" font-size="14" lengthAdjust="spacing" textLength="188.2617" x="17" y="24.9951">UNIVERSIDAD_DISPONIBLE</text></g><g id="in2"><rect fill="#F1F1F1" height="50" rx="12.5" ry="12.5" style="stroke:#181818;stroke-width:0.5;" width="173.207" x="250.5" y="7"/><line style="stroke:#181818;stroke-width:0.5;" x1="250.5" x2="423.707" y1="33.2969" y2="33.2969"/><text fill="#000000" font-family="sans-serif" font-size="14" lengthAdjust="spacing" textLength="153.207" x="260.5" y="24.9951">RECORRIDO_ABIERTO</text></g><path d="M43,118 L405,118 A12.5,12.5 0 0 1 417.5,130.5 L417.5,144.2969 L30.5,144.2969 L30.5,130.5 A12.5,12.5 0 0 1 43,118" fill="#F1F1F1"/><rect fill="none" height="492.2969" rx="12.5" ry="12.5" style="stroke:#181818;stroke-width:0.5;" width="387" x="30.5" y="118"/><line style="stroke:#181818;stroke-width:0.5;" x1="30.5" x2="417.5" y1="144.2969" y2="144.2969"/><text fill="#000000" font-family="sans-serif" font-size="14" lengthAdjust="spacing" textLength="120.5723" x="163.7139" y="135.9951">listarRecorridos()</text><g id="listarRecorridos.CargandoRecorridos"><rect fill="#F1F1F1" height="50" rx="12.5" ry="12.5" style="stroke:#181818;stroke-width:0.5;" width="50" x="42.5" y="246.2969"/><line style="stroke:#181818;stroke-width:0.5;" x1="42.5" x2="92.5" y1="272.5938" y2="272.5938"/><text fill="#000000" font-family="sans-serif" font-size="14" lengthAdjust="spacing" textLength="4.4502" x="65.2749" y="264.292">&#160;</text></g><g id="listarRecorridos.MostrandoRecorridos"><rect fill="#F1F1F1" height="50" rx="12.5" ry="12.5" style="stroke:#181818;stroke-width:0.5;" width="50" x="42.5" y="442.2969"/><line style="stroke:#181818;stroke-width:0.5;" x1="42.5" x2="92.5" y1="468.5938" y2="468.5938"/><text fill="#000000" font-family="sans-serif" font-size="14" lengthAdjust="spacing" textLength="4.4502" x="65.2749" y="460.292">&#160;</text></g><ellipse cx="67.5" cy="165.2969" fill="#222222" rx="10" ry="10" style="stroke:#222222;stroke-width:1;"/><ellipse cx="67.5" cy="589.2969" fill="none" rx="11" ry="11" style="stroke:#222222;stroke-width:1;"/><ellipse cx="67.5" cy="589.2969" fill="#222222" rx="6" ry="6" style="stroke:#222222;stroke-width:1;"/><!--link *start*listarRecorridos to CargandoRecorridos--><g class="link" data-entity-1=".start.listarRecorridos" data-entity-2="CargandoRecorridos" data-source-line="13" data-uid="lnk5" id="link_.start.listarRecorridos_CargandoRecorridos"><path d="M67.5,175.5269 C67.5,191.2369 67.5,217.6569 67.5,240.1669" fill="none" id="*start*listarRecorridos-to-CargandoRecorridos" style="stroke:#008000;stroke-width:1;"/><polygon fill="#008000" points="67.5,246.1669,71.5,237.1669,67.5,241.1669,63.5,237.1669,67.5,246.1669" style="stroke:#008000;stroke-width:1;"/><path d="M72.5,198.2969 L72.5,223.2969 L381.5,223.2969 L381.5,208.2969 L371.5,198.2969 L72.5,198.2969" fill="#FEFFDD" style="stroke:#181818;stroke-width:0.5;"/><path d="M371.5,198.2969 L371.5,208.2969 L381.5,208.2969 L371.5,198.2969" fill="#FEFFDD" style="stroke:#181818;stroke-width:0.5;"/><text fill="#000000" font-family="sans-serif" font-size="13" font-weight="bold" lengthAdjust="spacing" textLength="65.9839" x="78.5" y="215.3638">Visitante</text><text fill="#000000" font-family="sans-serif" font-size="13" lengthAdjust="spacing" textLength="218.2578" x="148.6162" y="215.3638">solicita ver recorridos disponibles</text></g><!--link CargandoRecorridos to MostrandoRecorridos--><g class="link" data-entity-1="CargandoRecorridos" data-entity-2="MostrandoRecorridos" data-source-line="18" data-uid="lnk6" id="link_CargandoRecorridos_MostrandoRecorridos"><path d="M67.5,296.4769 C67.5,333.7569 67.5,398.8469 67.5,436.1169" fill="none" id="CargandoRecorridos-to-MostrandoRecorridos" style="stroke:#008000;stroke-width:1;"/><polygon fill="#008000" points="67.5,442.1169,71.5,433.1169,67.5,437.1169,63.5,433.1169,67.5,442.1169" style="stroke:#008000;stroke-width:1;"/><path d="M72.5,319.2969 L72.5,419.2969 L351.5,419.2969 L351.5,329.2969 L341.5,319.2969 L72.5,319.2969" fill="#FEFFDD" style="stroke:#181818;stroke-width:0.5;"/><path d="M341.5,319.2969 L341.5,329.2969 L351.5,329.2969 L341.5,319.2969" fill="#FEFFDD" style="stroke:#181818;stroke-width:0.5;"/><text fill="#000000" font-family="sans-serif" font-size="13" font-weight="bold" lengthAdjust="spacing" textLength="58.9063" x="78.5" y="336.3638">Sistema</text><text fill="#000000" font-family="sans-serif" font-size="13" lengthAdjust="spacing" textLength="179.0991" x="141.5386" y="336.3638">presenta lista de recorridos</text><text fill="#000000" font-family="sans-serif" font-size="13" lengthAdjust="spacing" textLength="150.814" x="78.5" y="351.4966">&#8226; Nombre del recorrido</text><text fill="#000000" font-family="sans-serif" font-size="13" lengthAdjust="spacing" textLength="129.3081" x="78.5" y="366.6294">&#8226; Descripci&#243;n breve</text><text fill="#000000" font-family="sans-serif" font-size="13" lengthAdjust="spacing" textLength="206.2861" x="78.5" y="381.7622">&#8226; N&#250;mero de espacios incluidos</text><text fill="#000000" font-family="sans-serif" font-size="13" lengthAdjust="spacing" textLength="258.6099" x="78.5" y="396.895">&#8226; Permite solicitar seleccionar recorrido</text><text fill="#000000" font-family="sans-serif" font-size="13" lengthAdjust="spacing" textLength="176.7568" x="78.5" y="412.0278">&#8226; Permite solicitar regresar</text></g><!--link MostrandoRecorridos to MostrandoRecorridos--><g class="link" data-entity-1="MostrandoRecorridos" data-entity-2="MostrandoRecorridos" data-source-line="28" data-uid="lnk7" id="link_MostrandoRecorridos_MostrandoRecorridos"><path d="M92.68,454.5969 C102.41,454.0369 110.5,458.2669 110.5,467.2969 C110.5,476.3269 108.4001,480.9016 98.6701,480.3416" fill="none" id="MostrandoRecorridos-to-MostrandoRecorridos" style="stroke:#008000;stroke-width:1;"/><polygon fill="#008000" points="92.68,479.9969,101.4353,484.5074,97.6717,480.2842,101.895,476.5206,92.68,479.9969" style="stroke:#008000;stroke-width:1;"/><path d="M115.5,447.2969 L115.5,487.2969 L408.5,487.2969 L408.5,457.2969 L398.5,447.2969 L115.5,447.2969" fill="#FEFFDD" style="stroke:#181818;stroke-width:0.5;"/><path d="M398.5,447.2969 L398.5,457.2969 L408.5,457.2969 L398.5,447.2969" fill="#FEFFDD" style="stroke:#181818;stroke-width:0.5;"/><text fill="#000000" font-family="sans-serif" font-size="13" font-weight="bold" lengthAdjust="spacing" textLength="65.9839" x="121.5" y="464.3638">Visitante</text><text fill="#000000" font-family="sans-serif" font-size="13" lengthAdjust="spacing" textLength="201.9761" x="191.6162" y="464.3638">visualiza detalles de recorridos</text><text fill="#000000" font-family="sans-serif" font-size="13" font-weight="bold" lengthAdjust="spacing" textLength="58.9063" x="121.5" y="479.4966">Sistema</text><text fill="#000000" font-family="sans-serif" font-size="13" lengthAdjust="spacing" textLength="205.4419" x="184.5386" y="479.4966">permite desplazarse por la lista</text></g><!--link MostrandoRecorridos to *end*listarRecorridos--><g class="link" data-entity-1="MostrandoRecorridos" data-entity-2=".end.listarRecorridos" data-source-line="34" data-uid="lnk9" id="link_MostrandoRecorridos_.end.listarRecorridos"><path d="M67.5,492.5769 C67.5,518.8769 67.5,553.5669 67.5,572.2769" fill="none" id="MostrandoRecorridos-to-*end*listarRecorridos" style="stroke:#008000;stroke-width:1;"/><polygon fill="#008000" points="67.5,578.2769,71.5,569.2769,67.5,573.2769,63.5,569.2769,67.5,578.2769" style="stroke:#008000;stroke-width:1;"/><path d="M72.5,515.2969 L72.5,555.2969 L370.5,555.2969 L370.5,525.2969 L360.5,515.2969 L72.5,515.2969" fill="#FEFFDD" style="stroke:#181818;stroke-width:0.5;"/><path d="M360.5,515.2969 L360.5,525.2969 L370.5,525.2969 L360.5,515.2969" fill="#FEFFDD" style="stroke:#181818;stroke-width:0.5;"/><text fill="#000000" font-family="sans-serif" font-size="13" font-weight="bold" lengthAdjust="spacing" textLength="65.9839" x="78.5" y="532.3638">Visitante</text><text fill="#000000" font-family="sans-serif" font-size="13" lengthAdjust="spacing" textLength="207.3906" x="148.6162" y="532.3638">solicita seleccionar un recorrido</text><text fill="#000000" font-family="sans-serif" font-size="13" lengthAdjust="spacing" textLength="184.2598" x="78.5" y="547.4966">o regresar al men&#250; principal</text></g><g id="RECORRIDO_ABIERTO"><rect fill="#F1F1F1" height="50" rx="12.5" ry="12.5" style="stroke:#181818;stroke-width:0.5;" width="173.207" x="24.5" y="705"/><line style="stroke:#181818;stroke-width:0.5;" x1="24.5" x2="197.707" y1="731.2969" y2="731.2969"/><text fill="#000000" font-family="sans-serif" font-size="14" lengthAdjust="spacing" textLength="153.207" x="34.5" y="722.9951">RECORRIDO_ABIERTO</text></g><g id="UNIVERSIDAD_DISPONIBLE"><rect fill="#F1F1F1" height="50" rx="12.5" ry="12.5" style="stroke:#181818;stroke-width:0.5;" width="208.2617" x="233" y="705"/><line style="stroke:#181818;stroke-width:0.5;" x1="233" x2="441.2617" y1="731.2969" y2="731.2969"/><text fill="#000000" font-family="sans-serif" font-size="14" lengthAdjust="spacing" textLength="188.2617" x="243" y="722.9951">UNIVERSIDAD_DISPONIBLE</text></g><!--link in1 to listarRecorridos--><g class="link" data-entity-1="in1" data-entity-2="listarRecorridos" data-source-line="4" data-uid="lnk2" id="link_in1_listarRecorridos"><path d="M119.31,57.27 C124.48,72.37 129.7755,87.8338 138.0555,112.0038" fill="none" id="in1-to-listarRecorridos" style="stroke:#008000;stroke-width:1;"/><polygon fill="#008000" points="140,117.68,140.8674,107.8694,138.3796,112.9499,133.2991,110.4621,140,117.68" style="stroke:#008000;stroke-width:1;"/></g><!--link in2 to listarRecorridos--><g class="link" data-entity-1="in2" data-entity-2="listarRecorridos" data-source-line="6" data-uid="lnk3" id="link_in2_listarRecorridos"><path d="M328.69,57.27 C323.52,72.37 318.2245,87.8338 309.9445,112.0038" fill="none" id="in2-to-listarRecorridos" style="stroke:#008000;stroke-width:1;"/><polygon fill="#008000" points="308,117.68,314.7009,110.4621,309.6204,112.9499,307.1326,107.8694,308,117.68" style="stroke:#008000;stroke-width:1;"/></g><!--link listarRecorridos to RECORRIDO_ABIERTO--><g class="link" data-entity-1="listarRecorridos" data-entity-2="RECORRIDO_ABIERTO" data-source-line="41" data-uid="lnk11" id="link_listarRecorridos_RECORRIDO_ABIERTO"><path d="M128.65,610.05 C121.5,628.43 117,640 117,640 C117,640 114.8244,672.3436 113.0444,698.6936" fill="none" id="listarRecorridos-to-RECORRIDO_ABIERTO" style="stroke:#008000;stroke-width:1;"/><polygon fill="#008000" points="112.64,704.68,117.2375,695.9701,112.977,699.6914,109.2557,695.4309,112.64,704.68" style="stroke:#008000;stroke-width:1;"/><path d="M122,645 L122,670 L289,670 L289,655 L279,645 L122,645" fill="#FEFFDD" style="stroke:#181818;stroke-width:0.5;"/><path d="M279,645 L279,655 L289,655 L279,645" fill="#FEFFDD" style="stroke:#181818;stroke-width:0.5;"/><text fill="#000000" font-family="sans-serif" font-size="13" lengthAdjust="spacing" textLength="146.5737" x="128" y="662.0669">seleccionarRecorrido()</text></g><!--link listarRecorridos to UNIVERSIDAD_DISPONIBLE--><g class="link" data-entity-1="listarRecorridos" data-entity-2="UNIVERSIDAD_DISPONIBLE" data-source-line="46" data-uid="lnk13" id="link_listarRecorridos_UNIVERSIDAD_DISPONIBLE"><path d="M300.08,610.06 C312.11,648.83 321.0203,677.52 327.7603,699.22" fill="none" id="listarRecorridos-to-UNIVERSIDAD_DISPONIBLE" style="stroke:#0000FF;stroke-width:1;"/><polygon fill="#0000FF" points="329.54,704.95,330.6904,695.1686,328.0569,700.175,323.0504,697.5415,329.54,704.95" style="stroke:#0000FF;stroke-width:1;"/><path d="M323,645 L323,670 L516,670 L516,655 L506,645 L323,645" fill="#FEFFDD" style="stroke:#181818;stroke-width:0.5;"/><path d="M506,645 L506,655 L516,655 L506,645" fill="#FEFFDD" style="stroke:#181818;stroke-width:0.5;"/><text fill="#000000" font-family="sans-serif" font-size="13" lengthAdjust="spacing" textLength="172.1738" x="329" y="662.0669">regresar al men&#250; principal</text></g><!--SRC=[dPJFIkmm5CRtUOh3kD4B8hgM0RMpAEYCTBnkHEIqFKWmJSf9Pq15y5by1NTkvqtkazpJpjZfFmLjeP3ao-zy-PBKFsYR8sC6Hbig7dE2t9d7ig6KBx0WqFOGqCFexpIydaJpC3W9xe9mVZcRXgVdav4gn_TlTkwPoDxkZmKaypYYn37hrFaQSrHXeidPB8h2O7PtSXfEegjPIJZwdh11TFihNhTpTsy4pqg1FEjP8tb5U8PyZpPr3MnFS-5ymHrHfRhvSzjos8T1fRDEOCwMOJvK7SVn-5fxNQ0jwFWW7eDtHYVIXYKny7Pwgdtkh8uDhNsHJTSqULJz6QZRj3Na_ojRSycDCgnCvKoUh9YgmeIK6iug_R_NDvYwB6QIGRCThGS3yWdhFD6hTmiYMz9stkeZ8tObbNoEYHRJsYPcqQ9V4cTQN7xcm-39K29gYpnGiAzdaXmySYk-RNG3sVmwk_QMBhLVeD5FPN056jd1WGIxYM_ifnA9mITaNruy1hFPWrykGixfJyzXC-Q5xIJjwbG13MHaLnzoM6JtT8wcxV55gTxzR5hhtNlLCjcmKGDszrID7uJ7Pa4bU_ZNr2xmtK8-g_m7]--></g></svg>