<svg xmlns="http://www.w3.org/2000/svg" xmlns:xlink="http://www.w3.org/1999/xlink" contentStyleType="text/css" data-diagram-type="STATE" height="397px" preserveAspectRatio="none" style="width:324px;height:397px;background:#FFFFFF;" version="1.1" viewBox="0 0 324 397" width="324px" zoomAndPan="magnify"><defs/><g><g id="Inactivo"><rect fill="#F1F1F1" height="50" rx="12.5" ry="12.5" style="stroke:#181818;stroke-width:0.5;" width="75.5078" x="136.44" y="87"/><line style="stroke:#181818;stroke-width:0.5;" x1="136.44" x2="211.9478" y1="113.2969" y2="113.2969"/><text fill="#000000" font-family="sans-serif" font-size="14" lengthAdjust="spacing" textLength="55.5078" x="146.44" y="104.9951">Inactivo</text></g><g id="Explorando"><rect fill="#F1F1F1" height="50" rx="12.5" ry="12.5" style="stroke:#181818;stroke-width:0.5;" width="99.1328" x="43.63" y="214"/><line style="stroke:#181818;stroke-width:0.5;" x1="43.63" x2="142.7628" y1="240.2969" y2="240.2969"/><text fill="#000000" font-family="sans-serif" font-size="14" lengthAdjust="spacing" textLength="79.1328" x="53.63" y="231.9951">Explorando</text></g><g id="Consultando"><rect fill="#F1F1F1" height="50" rx="12.5" ry="12.5" style="stroke:#181818;stroke-width:0.5;" width="107.6641" x="39.37" y="341"/><line style="stroke:#181818;stroke-width:0.5;" x1="39.37" x2="147.0341" y1="367.2969" y2="367.2969"/><text fill="#000000" font-family="sans-serif" font-size="14" lengthAdjust="spacing" textLength="87.6641" x="49.37" y="358.9951">Consultando</text></g><ellipse cx="174.2" cy="16" fill="#222222" rx="10" ry="10" style="stroke:#222222;stroke-width:1;"/><ellipse cx="307.2" cy="239" fill="none" rx="11" ry="11" style="stroke:#222222;stroke-width:1;"/><ellipse cx="307.2" cy="239" fill="#222222" rx="6" ry="6" style="stroke:#222222;stroke-width:1;"/><!--link *start* to Inactivo--><g class="link" data-entity-1=".start." data-entity-2="Inactivo" data-source-line="1" data-uid="lnk3" id="link_.start._Inactivo"><path d="M174.2,26.36 C174.2,40.29 174.2,60.95 174.2,80.65" fill="none" id="*start*-to-Inactivo" style="stroke:#181818;stroke-width:1;"/><polygon fill="#181818" points="174.2,86.65,178.2,77.65,174.2,81.65,170.2,77.65,174.2,86.65" style="stroke:#181818;stroke-width:1;"/></g><!--link Inactivo to Explorando--><g class="link" data-entity-1="Inactivo" data-entity-2="Explorando" data-source-line="7" data-uid="lnk4" id="link_Inactivo_Explorando"><path d="M136.27,127.29 C118.93,135.95 100.08,148.89 90.2,167 C82.51,181.08 82.2877,193.2759 85.0277,207.6659" fill="none" id="Inactivo-to-Explorando" style="stroke:#181818;stroke-width:1;"/><polygon fill="#181818" points="86.15,213.56,88.396,203.9706,85.2148,208.6482,80.5372,205.467,86.15,213.56" style="stroke:#181818;stroke-width:1;"/><text fill="#000000" font-family="sans-serif" font-size="13" lengthAdjust="spacing" textLength="39.5332" x="91.2" y="180.0669">iniciar</text></g><!--link Explorando to Inactivo--><g class="link" data-entity-1="Explorando" data-entity-2="Inactivo" data-source-line="8" data-uid="lnk5" id="link_Explorando_Inactivo"><path d="M113.5,213.61 C120.68,204.54 128.61,194.02 135.2,184 C145.09,168.96 152.0703,156.5325 159.3503,142.5425" fill="none" id="Explorando-to-Inactivo" style="stroke:#181818;stroke-width:1;"/><polygon fill="#181818" points="162.12,137.22,154.4172,143.3573,159.8119,141.6554,161.5138,147.0502,162.12,137.22" style="stroke:#181818;stroke-width:1;"/><text fill="#000000" font-family="sans-serif" font-size="13" lengthAdjust="spacing" textLength="27.3076" x="147.2" y="180.0669">salir</text></g><!--link Explorando to Explorando--><g class="link" data-entity-1="Explorando" data-entity-2="Explorando" data-source-line="9" data-uid="lnk6" id="link_Explorando_Explorando"><path d="M143.13,227.13 C162.09,226.67 177.76,230.63 177.76,239 C177.76,247.37 168.0882,251.4755 149.1282,251.0155" fill="none" id="Explorando-to-Explorando" style="stroke:#181818;stroke-width:1;"/><polygon fill="#181818" points="143.13,250.87,152.0303,255.0871,148.1285,250.9913,152.2244,247.0895,143.13,250.87" style="stroke:#181818;stroke-width:1;"/><text fill="#000000" font-family="sans-serif" font-size="13" lengthAdjust="spacing" textLength="88.2261" x="183.76" y="243.5669">cambiar vista</text></g><!--link Explorando to Consultando--><g class="link" data-entity-1="Explorando" data-entity-2="Consultando" data-source-line="10" data-uid="lnk7" id="link_Explorando_Consultando"><path d="M43.33,261.97 C22.83,274.41 6,291.4 16.2,311 C22.38,322.88 27.6291,329.1865 38.5291,337.0265" fill="none" id="Explorando-to-Consultando" style="stroke:#181818;stroke-width:1;"/><polygon fill="#181818" points="43.4,340.53,38.4293,332.0275,39.3409,337.6104,33.758,338.5221,43.4,340.53" style="stroke:#181818;stroke-width:1;"/><text fill="#000000" font-family="sans-serif" font-size="13" lengthAdjust="spacing" textLength="107.1992" x="17.2" y="307.0669">seleccionar área</text></g><!--link Consultando to Explorando--><g class="link" data-entity-1="Consultando" data-entity-2="Explorando" data-source-line="11" data-uid="lnk8" id="link_Consultando_Explorando"><path d="M113.75,340.76 C119.97,331.96 126,321.57 129.2,311 C134.12,294.73 129.5621,282.5355 119.7921,269.2355" fill="none" id="Consultando-to-Explorando" style="stroke:#181818;stroke-width:1;"/><polygon fill="#181818" points="116.24,264.4,118.3445,274.0214,119.2001,268.4296,124.7919,269.2852,116.24,264.4" style="stroke:#181818;stroke-width:1;"/><text fill="#000000" font-family="sans-serif" font-size="13" lengthAdjust="spacing" textLength="55.0215" x="132.2" y="307.0669">regresar</text></g><!--link Inactivo to *end*--><g class="link" data-entity-1="Inactivo" data-entity-2=".end." data-source-line="13" data-uid="lnk10" id="link_Inactivo_.end."><path d="M200.16,137.4 C231,166.39 276.2875,208.9513 295.1875,226.7113" fill="none" id="Inactivo-to-*end*" style="stroke:#181818;stroke-width:1;"/><polygon fill="#181818" points="299.56,230.82,295.7405,221.7419,295.9163,227.3961,290.2622,227.5719,299.56,230.82" style="stroke:#181818;stroke-width:1;"/></g><!--SRC=[YzQALT3LjLFmp4jCBiaio-VYAYv9B4b5y25Srug2dFoYnBmKc81pVbvnQKu9M8GBfXXi4aAfWfL2PbvcScPY4HUI8B9jG1N5YJcP6F8ePYGdvYO1pL0eomHQZQuIoHqWmr9pKfEJC_FpWCeFBonAJUH2biSmkIWrlIYr6EWyL1z4QyK20000]--></g></svg>