<svg xmlns="http://www.w3.org/2000/svg" xmlns:xlink="http://www.w3.org/1999/xlink" contentStyleType="text/css" data-diagram-type="STATE" height="826px" preserveAspectRatio="none" style="width:380px;height:826px;background:#FFFFFF;" version="1.1" viewBox="0 0 380 826" width="380px" zoomAndPan="magnify"><defs/><g><g id="in1"><rect fill="#F1F1F1" height="50" rx="12.5" ry="12.5" style="stroke:#181818;stroke-width:0.5;" width="182.0938" x="7" y="7"/><line style="stroke:#181818;stroke-width:0.5;" x1="7" x2="189.0938" y1="33.2969" y2="33.2969"/><text fill="#000000" font-family="sans-serif" font-size="14" lengthAdjust="spacing" textLength="162.0938" x="17" y="24.9951">RECORRIDO_ABIERTOS</text></g><g id="in2"><rect fill="#F1F1F1" height="50" rx="12.5" ry="12.5" style="stroke:#181818;stroke-width:0.5;" width="149.1309" x="224.5" y="7"/><line style="stroke:#181818;stroke-width:0.5;" x1="224.5" x2="373.6309" y1="33.2969" y2="33.2969"/><text fill="#000000" font-family="sans-serif" font-size="14" lengthAdjust="spacing" textLength="129.1309" x="234.5" y="24.9951">ESPACIO_ABIERTO</text></g><path d="M49,118 L347,118 A12.5,12.5 0 0 1 359.5,130.5 L359.5,144.2969 L36.5,144.2969 L36.5,130.5 A12.5,12.5 0 0 1 49,118" fill="#F1F1F1"/><rect fill="none" height="557.2969" rx="12.5" ry="12.5" style="stroke:#181818;stroke-width:0.5;" width="323" x="36.5" y="118"/><line style="stroke:#181818;stroke-width:0.5;" x1="36.5" x2="359.5" y1="144.2969" y2="144.2969"/><text fill="#000000" font-family="sans-serif" font-size="14" lengthAdjust="spacing" textLength="87.3359" x="154.332" y="135.9951">verEspacio()</text><g id="verEspacio.olicitandoVerUbicacion"><rect fill="#F1F1F1" height="50" rx="12.5" ry="12.5" style="stroke:#181818;stroke-width:0.5;" width="50" x="104.5" y="261.2969"/><line style="stroke:#181818;stroke-width:0.5;" x1="104.5" x2="154.5" y1="287.5938" y2="287.5938"/><text fill="#000000" font-family="sans-serif" font-size="14" lengthAdjust="spacing" textLength="4.4502" x="127.2749" y="279.292">&#160;</text></g><g id="verEspacio.MostrandoUbicacion"><rect fill="#F1F1F1" height="50" rx="12.5" ry="12.5" style="stroke:#181818;stroke-width:0.5;" width="162.4131" x="48.5" y="412.2969"/><line style="stroke:#181818;stroke-width:0.5;" x1="48.5" x2="210.9131" y1="438.5938" y2="438.5938"/><text fill="#000000" font-family="sans-serif" font-size="14" lengthAdjust="spacing" textLength="142.4131" x="58.5" y="430.292">MostrandoUbicacion</text></g><g class="entity" data-entity="c" data-uid="ent0007" id="entity_c"><polygon fill="#F1F1F1" points="129.5,548.2969,141.5,560.2969,129.5,572.2969,117.5,560.2969,129.5,548.2969" style="stroke:#181818;stroke-width:0.5;"/></g><ellipse cx="129.5" cy="165.2969" fill="#222222" rx="10" ry="10" style="stroke:#222222;stroke-width:1;"/><ellipse cx="129.5" cy="654.2969" fill="none" rx="11" ry="11" style="stroke:#222222;stroke-width:1;"/><ellipse cx="129.5" cy="654.2969" fill="#222222" rx="6" ry="6" style="stroke:#222222;stroke-width:1;"/><!--link *start*verEspacio to olicitandoVerUbicacion--><g class="link" data-entity-1=".start.verEspacio" data-entity-2="olicitandoVerUbicacion" data-source-line="15" data-uid="lnk5" id="link_.start.verEspacio_olicitandoVerUbicacion"><path d="M129.5,175.6369 C129.5,193.8269 129.5,228.5369 129.5,254.9069" fill="none" id="*start*verEspacio-to-olicitandoVerUbicacion" style="stroke:#008000;stroke-width:1;"/><polygon fill="#008000" points="129.5,260.9069,133.5,251.9069,129.5,255.9069,125.5,251.9069,129.5,260.9069" style="stroke:#008000;stroke-width:1;"/><path d="M134.5,198.2969 L134.5,238.2969 L350.5,238.2969 L350.5,208.2969 L340.5,198.2969 L134.5,198.2969" fill="#FEFFDD" style="stroke:#181818;stroke-width:0.5;"/><path d="M340.5,198.2969 L340.5,208.2969 L350.5,208.2969 L340.5,198.2969" fill="#FEFFDD" style="stroke:#181818;stroke-width:0.5;"/><text fill="#000000" font-family="sans-serif" font-size="13" font-weight="bold" lengthAdjust="spacing" textLength="65.9839" x="140.5" y="215.3638">Visitante</text><text fill="#000000" font-family="sans-serif" font-size="13" lengthAdjust="spacing" textLength="70.9414" x="210.6162" y="215.3638">solicita ver</text><text fill="#000000" font-family="sans-serif" font-size="13" lengthAdjust="spacing" textLength="125.4741" x="210.7495" y="230.4966">su ubicaci&#243;n actual</text></g><!--link olicitandoVerUbicacion to MostrandoUbicacion--><g class="link" data-entity-1="olicitandoVerUbicacion" data-entity-2="MostrandoUbicacion" data-source-line="21" data-uid="lnk6" id="link_olicitandoVerUbicacion_MostrandoUbicacion"><path d="M129.5,311.5669 C129.5,339.2769 129.5,378.3369 129.5,406.0369" fill="none" id="olicitandoVerUbicacion-to-MostrandoUbicacion" style="stroke:#008000;stroke-width:1;"/><polygon fill="#008000" points="129.5,412.0369,133.5,403.0369,129.5,407.0369,125.5,403.0369,129.5,412.0369" style="stroke:#008000;stroke-width:1;"/><path d="M134.5,334.2969 L134.5,389.2969 L335.5,389.2969 L335.5,344.2969 L325.5,334.2969 L134.5,334.2969" fill="#FEFFDD" style="stroke:#181818;stroke-width:0.5;"/><path d="M325.5,334.2969 L325.5,344.2969 L335.5,344.2969 L325.5,334.2969" fill="#FEFFDD" style="stroke:#181818;stroke-width:0.5;"/><text fill="#000000" font-family="sans-serif" font-size="13" font-weight="bold" lengthAdjust="spacing" textLength="58.9063" x="140.5" y="351.3638">Sistema</text><text fill="#000000" font-family="sans-serif" font-size="13" lengthAdjust="spacing" textLength="57.6685" x="203.5386" y="351.3638">presenta</text><text fill="#000000" font-family="sans-serif" font-size="13" lengthAdjust="spacing" textLength="180.7559" x="140.5" y="366.4966">&#8226; Ubicaci&#243;n actual en mapa</text><text fill="#000000" font-family="sans-serif" font-size="13" lengthAdjust="spacing" textLength="167.2607" x="140.5" y="381.6294">&#8226; Detalles de la ubicaci&#243;n</text></g><!--link MostrandoUbicacion to c--><g class="link" data-entity-1="MostrandoUbicacion" data-entity-2="c" data-source-line="28" data-uid="lnk7" id="link_MostrandoUbicacion_c"><path d="M129.5,462.4969 C129.5,488.5569 129.5,522.9069 129.5,542.2369" fill="none" id="MostrandoUbicacion-to-c" style="stroke:#008000;stroke-width:1;"/><polygon fill="#008000" points="129.5,548.2369,133.5,539.2369,129.5,543.2369,125.5,539.2369,129.5,548.2369" style="stroke:#008000;stroke-width:1;"/><path d="M134.5,485.2969 L134.5,525.2969 L270.5,525.2969 L270.5,495.2969 L260.5,485.2969 L134.5,485.2969" fill="#FEFFDD" style="stroke:#181818;stroke-width:0.5;"/><path d="M260.5,485.2969 L260.5,495.2969 L270.5,495.2969 L260.5,485.2969" fill="#FEFFDD" style="stroke:#181818;stroke-width:0.5;"/><text fill="#000000" font-family="sans-serif" font-size="13" font-weight="bold" lengthAdjust="spacing" textLength="65.9839" x="140.5" y="502.3638">Visitante</text><text fill="#000000" font-family="sans-serif" font-size="13" lengthAdjust="spacing" textLength="45.7729" x="210.6162" y="502.3638">solicita</text><text fill="#000000" font-family="sans-serif" font-size="13" lengthAdjust="spacing" textLength="94.7642" x="140.5" y="517.4966">&#8226; salir de vista</text></g><!--link c to *end*verEspacio--><g class="link" data-entity-1="c" data-entity-2=".end.verEspacio" data-source-line="34" data-uid="lnk9" id="link_c_.end.verEspacio"><path d="M129.5,572.5769 C129.5,590.6169 129.5,619.6969 129.5,637.0569" fill="none" id="c-to-*end*verEspacio" style="stroke:#008000;stroke-width:1;"/><polygon fill="#008000" points="129.5,643.0569,133.5,634.0569,129.5,638.0569,125.5,634.0569,129.5,643.0569" style="stroke:#008000;stroke-width:1;"/><path d="M134.5,595.2969 L134.5,620.2969 L182.5,620.2969 L182.5,605.2969 L172.5,595.2969 L134.5,595.2969" fill="#FEFFDD" style="stroke:#181818;stroke-width:0.5;"/><path d="M172.5,595.2969 L172.5,605.2969 L182.5,605.2969 L172.5,595.2969" fill="#FEFFDD" style="stroke:#181818;stroke-width:0.5;"/><text fill="#000000" font-family="sans-serif" font-size="13" lengthAdjust="spacing" textLength="27.3076" x="140.5" y="612.3638">salir</text></g><g id="ESPACIO_ABIERTO"><rect fill="#F1F1F1" height="50" rx="12.5" ry="12.5" style="stroke:#181818;stroke-width:0.5;" width="149.1309" x="123.5" y="770"/><line style="stroke:#181818;stroke-width:0.5;" x1="123.5" x2="272.6309" y1="796.2969" y2="796.2969"/><text fill="#000000" font-family="sans-serif" font-size="14" lengthAdjust="spacing" textLength="129.1309" x="133.5" y="787.9951">ESPACIO_ABIERTO</text></g><!--link in1 to verEspacio--><g class="link" data-entity-1="in1" data-entity-2="verEspacio" data-source-line="5" data-uid="lnk2" id="link_in1_verEspacio"><path d="M104.64,57.07 C108.8,72.17 113.064,87.6262 119.844,112.1962" fill="none" id="in1-to-verEspacio" style="stroke:#008000;stroke-width:1;"/><polygon fill="#008000" points="121.44,117.98,122.9018,108.2402,120.11,113.1601,115.1901,110.3683,121.44,117.98" style="stroke:#008000;stroke-width:1;"/></g><!--link in2 to verEspacio--><g class="link" data-entity-1="in2" data-entity-2="verEspacio" data-source-line="7" data-uid="lnk3" id="link_in2_verEspacio"><path d="M292.29,57.07 C288.09,72.17 283.7813,87.6304 276.9313,112.2004" fill="none" id="in2-to-verEspacio" style="stroke:#008000;stroke-width:1;"/><polygon fill="#008000" points="275.32,117.98,281.59,110.3848,276.6628,113.1637,273.8839,108.2364,275.32,117.98" style="stroke:#008000;stroke-width:1;"/></g><!--link verEspacio to ESPACIO_ABIERTO--><g class="link" data-entity-1="verEspacio" data-entity-2="ESPACIO_ABIERTO" data-source-line="40" data-uid="lnk11" id="link_verEspacio_ESPACIO_ABIERTO"><path d="M198,675.04 C198,714.08 198,742.21 198,763.78" fill="none" id="verEspacio-to-ESPACIO_ABIERTO" style="stroke:#008000;stroke-width:1;"/><polygon fill="#008000" points="198,769.78,202,760.78,198,764.78,194,760.78,198,769.78" style="stroke:#008000;stroke-width:1;"/><path d="M203,710 L203,735 L273,735 L273,720 L263,710 L203,710" fill="#FEFFDD" style="stroke:#181818;stroke-width:0.5;"/><path d="M263,710 L263,720 L273,720 L263,710" fill="#FEFFDD" style="stroke:#181818;stroke-width:0.5;"/><text fill="#000000" font-family="sans-serif" font-size="13" lengthAdjust="spacing" textLength="49.6768" x="209" y="727.0669">regresa</text></g><!--SRC=[bLBDIWCn4BxdAORrea8HUruMQhk77gIojRsK8jDqqD0qkoHfeOZWi_WAFe9lufEOP7L_skx12IpCpFTzyqqsPYDKWHgt88KYUoW8YbmUVC8OCnOjWL2tW0QYB1rEicmycZmDxiPfzZYPHiptUekBPqsabhq4zgHJKo0NUKNk1t8wVHWCnnNLC_jTp5zgNGaATNfv5S4hO-2YH4RkE4Wk1HSMrJgVavwj1FTWrSJTvyPg3wYwWNXQRf0un35_oGMd92c7BgwNBUldvqB0gjn9kCJTw2OKubKo5yR3BSKtgmJCBztlMt9EmknWLyf-VIf0RdSe0vBKkfpWWbMV3ZzDonqRdtCx5SRI5eFNGfCXPJ7qljy_O7Piorc2BHOrOaGMfIG3QmA9ZJrQ2zJcJvsrZFD_tchbmw0KsflOktsmOpXlpNB_-VoqeDMMU6EiyLwRAaSldxNKD3cSGVQdymC0]--></g></svg>