<svg xmlns="http://www.w3.org/2000/svg" xmlns:xlink="http://www.w3.org/1999/xlink" contentStyleType="text/css" data-diagram-type="CLASS" height="494px" preserveAspectRatio="none" style="width:315px;height:494px;background:#FFFFFF;" version="1.1" viewBox="0 0 315 494" width="315px" zoomAndPan="magnify"><defs/><g><!--class Tipo--><g class="entity" data-entity="Tipo" data-source-line="1" data-uid="ent0002" id="entity_Tipo"><rect fill="#F1F1F1" height="48" rx="2.5" ry="2.5" style="stroke:#181818;stroke-width:0.5;" width="61.8936" x="124.5" y="439"/><ellipse cx="139.5" cy="455" fill="#EB937F" rx="11" ry="11" style="stroke:#181818;stroke-width:1;"/><path d="M143.6094,461 L135.8906,461 L135.8906,448.6094 L143.6094,448.6094 L143.6094,450.7656 L138.3438,450.7656 L138.3438,453.4375 L143.1094,453.4375 L143.1094,455.5938 L138.3438,455.5938 L138.3438,458.8438 L143.6094,458.8438 L143.6094,461 Z " fill="#000000"/><text fill="#000000" font-family="sans-serif" font-size="14" lengthAdjust="spacing" textLength="29.8936" x="153.5" y="459.8467">Tipo</text><line style="stroke:#181818;stroke-width:0.5;" x1="125.5" x2="185.3936" y1="471" y2="471"/><line style="stroke:#181818;stroke-width:0.5;" x1="125.5" x2="185.3936" y1="479" y2="479"/></g><!--class Universidad--><g class="entity" data-entity="Universidad" data-source-line="3" data-uid="ent0003" id="entity_Universidad"><rect fill="#F1F1F1" height="48" rx="2.5" ry="2.5" style="stroke:#181818;stroke-width:0.5;" width="115.2002" x="7" y="7"/><ellipse cx="22" cy="23" fill="#ADD1B2" rx="11" ry="11" style="stroke:#181818;stroke-width:1;"/><path d="M24.9688,28.6406 Q24.3906,28.9375 23.75,29.0781 Q23.1094,29.2344 22.4063,29.2344 Q19.9063,29.2344 18.5781,27.5938 Q17.2656,25.9375 17.2656,22.8125 Q17.2656,19.6875 18.5781,18.0313 Q19.9063,16.375 22.4063,16.375 Q23.1094,16.375 23.75,16.5313 Q24.4063,16.6875 24.9688,16.9844 L24.9688,19.7031 Q24.3438,19.125 23.75,18.8594 Q23.1563,18.5781 22.5313,18.5781 Q21.1875,18.5781 20.5,19.6563 Q19.8125,20.7188 19.8125,22.8125 Q19.8125,24.9063 20.5,25.9844 Q21.1875,27.0469 22.5313,27.0469 Q23.1563,27.0469 23.75,26.7813 Q24.3438,26.5 24.9688,25.9219 L24.9688,28.6406 Z " fill="#000000"/><text fill="#000000" font-family="sans-serif" font-size="14" lengthAdjust="spacing" textLength="83.2002" x="36" y="27.8467">Universidad</text><line style="stroke:#181818;stroke-width:0.5;" x1="8" x2="121.2002" y1="39" y2="39"/><line style="stroke:#181818;stroke-width:0.5;" x1="8" x2="121.2002" y1="47" y2="47"/></g><!--class Region--><g class="entity" data-entity="Region" data-source-line="3" data-uid="ent0004" id="entity_Region"><rect fill="#F1F1F1" height="48" rx="2.5" ry="2.5" style="stroke:#181818;stroke-width:0.5;" width="80.5557" x="24" y="115"/><ellipse cx="39" cy="131" fill="#ADD1B2" rx="11" ry="11" style="stroke:#181818;stroke-width:1;"/><path d="M41.9688,136.6406 Q41.3906,136.9375 40.75,137.0781 Q40.1094,137.2344 39.4063,137.2344 Q36.9063,137.2344 35.5781,135.5938 Q34.2656,133.9375 34.2656,130.8125 Q34.2656,127.6875 35.5781,126.0313 Q36.9063,124.375 39.4063,124.375 Q40.1094,124.375 40.75,124.5313 Q41.4063,124.6875 41.9688,124.9844 L41.9688,127.7031 Q41.3438,127.125 40.75,126.8594 Q40.1563,126.5781 39.5313,126.5781 Q38.1875,126.5781 37.5,127.6563 Q36.8125,128.7188 36.8125,130.8125 Q36.8125,132.9063 37.5,133.9844 Q38.1875,135.0469 39.5313,135.0469 Q40.1563,135.0469 40.75,134.7813 Q41.3438,134.5 41.9688,133.9219 L41.9688,136.6406 Z " fill="#000000"/><text fill="#000000" font-family="sans-serif" font-size="14" lengthAdjust="spacing" textLength="48.5557" x="53" y="135.8467">Region</text><line style="stroke:#181818;stroke-width:0.5;" x1="25" x2="103.5557" y1="147" y2="147"/><line style="stroke:#181818;stroke-width:0.5;" x1="25" x2="103.5557" y1="155" y2="155"/></g><!--class Planta--><g class="entity" data-entity="Planta" data-source-line="4" data-uid="ent0006" id="entity_Planta"><rect fill="#F1F1F1" height="48" rx="2.5" ry="2.5" style="stroke:#181818;stroke-width:0.5;" width="75.8525" x="26.5" y="223"/><ellipse cx="41.5" cy="239" fill="#ADD1B2" rx="11" ry="11" style="stroke:#181818;stroke-width:1;"/><path d="M44.4688,244.6406 Q43.8906,244.9375 43.25,245.0781 Q42.6094,245.2344 41.9063,245.2344 Q39.4063,245.2344 38.0781,243.5938 Q36.7656,241.9375 36.7656,238.8125 Q36.7656,235.6875 38.0781,234.0313 Q39.4063,232.375 41.9063,232.375 Q42.6094,232.375 43.25,232.5313 Q43.9063,232.6875 44.4688,232.9844 L44.4688,235.7031 Q43.8438,235.125 43.25,234.8594 Q42.6563,234.5781 42.0313,234.5781 Q40.6875,234.5781 40,235.6563 Q39.3125,236.7188 39.3125,238.8125 Q39.3125,240.9063 40,241.9844 Q40.6875,243.0469 42.0313,243.0469 Q42.6563,243.0469 43.25,242.7813 Q43.8438,242.5 44.4688,241.9219 L44.4688,244.6406 Z " fill="#000000"/><text fill="#000000" font-family="sans-serif" font-size="14" lengthAdjust="spacing" textLength="43.8525" x="55.5" y="243.8467">Planta</text><line style="stroke:#181818;stroke-width:0.5;" x1="27.5" x2="101.3525" y1="255" y2="255"/><line style="stroke:#181818;stroke-width:0.5;" x1="27.5" x2="101.3525" y1="263" y2="263"/></g><!--class Espacio--><g class="entity" data-entity="Espacio" data-source-line="5" data-uid="ent0008" id="entity_Espacio"><rect fill="#F1F1F1" height="48" rx="2.5" ry="2.5" style="stroke:#181818;stroke-width:0.5;" width="85.7578" x="112.5" y="331"/><ellipse cx="127.5" cy="347" fill="#ADD1B2" rx="11" ry="11" style="stroke:#181818;stroke-width:1;"/><path d="M130.4688,352.6406 Q129.8906,352.9375 129.25,353.0781 Q128.6094,353.2344 127.9063,353.2344 Q125.4063,353.2344 124.0781,351.5938 Q122.7656,349.9375 122.7656,346.8125 Q122.7656,343.6875 124.0781,342.0313 Q125.4063,340.375 127.9063,340.375 Q128.6094,340.375 129.25,340.5313 Q129.9063,340.6875 130.4688,340.9844 L130.4688,343.7031 Q129.8438,343.125 129.25,342.8594 Q128.6563,342.5781 128.0313,342.5781 Q126.6875,342.5781 126,343.6563 Q125.3125,344.7188 125.3125,346.8125 Q125.3125,348.9063 126,349.9844 Q126.6875,351.0469 128.0313,351.0469 Q128.6563,351.0469 129.25,350.7813 Q129.8438,350.5 130.4688,349.9219 L130.4688,352.6406 Z " fill="#000000"/><text fill="#000000" font-family="sans-serif" font-size="14" lengthAdjust="spacing" textLength="53.7578" x="141.5" y="351.8467">Espacio</text><line style="stroke:#181818;stroke-width:0.5;" x1="113.5" x2="197.2578" y1="363" y2="363"/><line style="stroke:#181818;stroke-width:0.5;" x1="113.5" x2="197.2578" y1="371" y2="371"/></g><!--class Visitante--><g class="entity" data-entity="Visitante" data-source-line="8" data-uid="ent0011" id="entity_Visitante"><rect fill="#F1F1F1" height="48" rx="2.5" ry="2.5" style="stroke:#181818;stroke-width:0.5;" width="93.6943" x="175.5" y="115"/><ellipse cx="190.5" cy="131" fill="#ADD1B2" rx="11" ry="11" style="stroke:#181818;stroke-width:1;"/><path d="M193.4688,136.6406 Q192.8906,136.9375 192.25,137.0781 Q191.6094,137.2344 190.9063,137.2344 Q188.4063,137.2344 187.0781,135.5938 Q185.7656,133.9375 185.7656,130.8125 Q185.7656,127.6875 187.0781,126.0313 Q188.4063,124.375 190.9063,124.375 Q191.6094,124.375 192.25,124.5313 Q192.9063,124.6875 193.4688,124.9844 L193.4688,127.7031 Q192.8438,127.125 192.25,126.8594 Q191.6563,126.5781 191.0313,126.5781 Q189.6875,126.5781 189,127.6563 Q188.3125,128.7188 188.3125,130.8125 Q188.3125,132.9063 189,133.9844 Q189.6875,135.0469 191.0313,135.0469 Q191.6563,135.0469 192.25,134.7813 Q192.8438,134.5 193.4688,133.9219 L193.4688,136.6406 Z " fill="#000000"/><text fill="#000000" font-family="sans-serif" font-size="14" lengthAdjust="spacing" textLength="61.6943" x="204.5" y="135.8467">Visitante</text><line style="stroke:#181818;stroke-width:0.5;" x1="176.5" x2="268.1943" y1="147" y2="147"/><line style="stroke:#181818;stroke-width:0.5;" x1="176.5" x2="268.1943" y1="155" y2="155"/></g><!--class Recorrido--><g class="entity" data-entity="Recorrido" data-source-line="8" data-uid="ent0012" id="entity_Recorrido"><rect fill="#F1F1F1" height="48" rx="2.5" ry="2.5" style="stroke:#181818;stroke-width:0.5;" width="99.457" x="209" y="223"/><ellipse cx="224" cy="239" fill="#ADD1B2" rx="11" ry="11" style="stroke:#181818;stroke-width:1;"/><path d="M226.9688,244.6406 Q226.3906,244.9375 225.75,245.0781 Q225.1094,245.2344 224.4063,245.2344 Q221.9063,245.2344 220.5781,243.5938 Q219.2656,241.9375 219.2656,238.8125 Q219.2656,235.6875 220.5781,234.0313 Q221.9063,232.375 224.4063,232.375 Q225.1094,232.375 225.75,232.5313 Q226.4063,232.6875 226.9688,232.9844 L226.9688,235.7031 Q226.3438,235.125 225.75,234.8594 Q225.1563,234.5781 224.5313,234.5781 Q223.1875,234.5781 222.5,235.6563 Q221.8125,236.7188 221.8125,238.8125 Q221.8125,240.9063 222.5,241.9844 Q223.1875,243.0469 224.5313,243.0469 Q225.1563,243.0469 225.75,242.7813 Q226.3438,242.5 226.9688,241.9219 L226.9688,244.6406 Z " fill="#000000"/><text fill="#000000" font-family="sans-serif" font-size="14" lengthAdjust="spacing" textLength="67.457" x="238" y="243.8467">Recorrido</text><line style="stroke:#181818;stroke-width:0.5;" x1="210" x2="307.457" y1="255" y2="255"/><line style="stroke:#181818;stroke-width:0.5;" x1="210" x2="307.457" y1="263" y2="263"/></g><!--reverse link Universidad to Region--><g class="link" data-entity-1="Universidad" data-entity-2="Region" data-source-line="3" data-uid="lnk5" id="link_Universidad_Region"><path codeLine="3" d="M64.5,67 C64.5,84.66 64.5,96.94 64.5,114.68" fill="none" id="Universidad-backto-Region" style="stroke:#181818;stroke-width:1;"/><polygon fill="#181818" points="64.5,55,60.5,61,64.5,67,68.5,61,64.5,55" style="stroke:#181818;stroke-width:1;"/></g><!--reverse link Region to Planta--><g class="link" data-entity-1="Region" data-entity-2="Planta" data-source-line="4" data-uid="lnk7" id="link_Region_Planta"><path codeLine="4" d="M64.5,175 C64.5,192.66 64.5,204.94 64.5,222.68" fill="none" id="Region-backto-Planta" style="stroke:#181818;stroke-width:1;"/><polygon fill="#181818" points="64.5,163,60.5,169,64.5,175,68.5,169,64.5,163" style="stroke:#181818;stroke-width:1;"/></g><!--reverse link Planta to Espacio--><g class="link" data-entity-1="Planta" data-entity-2="Espacio" data-source-line="5" data-uid="lnk9" id="link_Planta_Espacio"><path codeLine="5" d="M92.0633,280.1078 C107.2133,297.7678 120.25,312.94 135.48,330.68" fill="none" id="Planta-backto-Espacio" style="stroke:#181818;stroke-width:1;"/><polygon fill="#181818" points="84.25,271,85.1207,278.1583,92.0633,280.1078,91.1926,272.9495,84.25,271" style="stroke:#181818;stroke-width:1;"/></g><!--link Espacio to Tipo--><g class="link" data-entity-1="Espacio" data-entity-2="Tipo" data-source-line="6" data-uid="lnk10" id="link_Espacio_Tipo"><path codeLine="6" d="M155.5,379 C155.5,396.66 155.5,420.94 155.5,438.68" fill="none" id="Espacio-Tipo" style="stroke:#181818;stroke-width:1;"/></g><!--link Visitante to Recorrido--><g class="link" data-entity-1="Visitante" data-entity-2="Recorrido" data-source-line="8" data-uid="lnk13" id="link_Visitante_Recorrido"><path codeLine="8" d="M230.31,163 C236.31,180.66 242.6319,199.2582 248.6519,216.9982" fill="none" id="Visitante-to-Recorrido" style="stroke:#181818;stroke-width:1;"/><polygon fill="#181818" points="250.58,222.68,251.4757,212.872,248.9733,217.9452,243.9,215.4427,250.58,222.68" style="stroke:#181818;stroke-width:1;"/></g><!--reverse link Recorrido to Espacio--><g class="link" data-entity-1="Recorrido" data-entity-2="Espacio" data-source-line="9" data-uid="lnk14" id="link_Recorrido_Espacio"><path codeLine="9" d="M227.7874,279.6062 C210.6274,297.2662 195.4,312.94 178.16,330.68" fill="none" id="Recorrido-backto-Espacio" style="stroke:#181818;stroke-width:1;"/><polygon fill="none" points="236.15,271,229.1,272.5156,227.7874,279.6062,234.8375,278.0906,236.15,271" style="stroke:#181818;stroke-width:1;"/></g><!--link Visitante to Espacio--><g class="link" data-entity-1="Visitante" data-entity-2="Espacio" data-source-line="10" data-uid="lnk15" id="link_Visitante_Espacio"><path codeLine="10" d="M213.26,163.06 C206.78,179.61 198.13,202.51 191.5,223 C179.45,260.25 169.3566,298.462 162.7166,324.802" fill="none" id="Visitante-to-Espacio" style="stroke:#181818;stroke-width:1;stroke-dasharray:7,7;"/><polygon fill="#181818" points="161.25,330.62,167.3286,322.8708,162.4722,325.7717,159.5713,320.9153,161.25,330.62" style="stroke:#181818;stroke-width:1;"/></g><!--SRC=[JOpD2e0W48Jl-nHx3lGHl7MFgEwY4WlbYbhFdsX_fs_uc1ddZnqd2WmmUpfTJ6IrnKu87DrAxA6Xcc7JFcjegAPFGHjYk8b5jRE54kLISqMfScKuHh8CRqB-pR-sbEgn5m00]--></g></svg>