<svg xmlns="http://www.w3.org/2000/svg" xmlns:xlink="http://www.w3.org/1999/xlink" contentStyleType="text/css" data-diagram-type="STATE" height="826px" preserveAspectRatio="none" style="width:401px;height:826px;background:#FFFFFF;" version="1.1" viewBox="0 0 401 826" width="401px" zoomAndPan="magnify"><defs/><g><g id="in1"><rect fill="#F1F1F1" height="50" rx="12.5" ry="12.5" style="stroke:#181818;stroke-width:0.5;" width="182.0938" x="7" y="7"/><line style="stroke:#181818;stroke-width:0.5;" x1="7" x2="189.0938" y1="33.2969" y2="33.2969"/><text fill="#000000" font-family="sans-serif" font-size="14" lengthAdjust="spacing" textLength="162.0938" x="17" y="24.9951">RECORRIDO_ABIERTOS</text></g><g id="in2"><rect fill="#F1F1F1" height="50" rx="12.5" ry="12.5" style="stroke:#181818;stroke-width:0.5;" width="149.1309" x="224.5" y="7"/><line style="stroke:#181818;stroke-width:0.5;" x1="224.5" x2="373.6309" y1="33.2969" y2="33.2969"/><text fill="#000000" font-family="sans-serif" font-size="14" lengthAdjust="spacing" textLength="129.1309" x="234.5" y="24.9951">ESPACIO_ABIERTO</text></g><path d="M21,118 L375,118 A12.5,12.5 0 0 1 387.5,130.5 L387.5,144.2969 L8.5,144.2969 L8.5,130.5 A12.5,12.5 0 0 1 21,118" fill="#F1F1F1"/><rect fill="none" height="557.2969" rx="12.5" ry="12.5" style="stroke:#181818;stroke-width:0.5;" width="379" x="8.5" y="118"/><line style="stroke:#181818;stroke-width:0.5;" x1="8.5" x2="387.5" y1="144.2969" y2="144.2969"/><text fill="#000000" font-family="sans-serif" font-size="14" lengthAdjust="spacing" textLength="90.7266" x="152.6367" y="135.9951">verDetalles()</text><g id="verDetalles.SolicitandoDetalles"><rect fill="#F1F1F1" height="50" rx="12.5" ry="12.5" style="stroke:#181818;stroke-width:0.5;" width="50" x="98.5" y="261.2969"/><line style="stroke:#181818;stroke-width:0.5;" x1="98.5" x2="148.5" y1="287.5938" y2="287.5938"/><text fill="#000000" font-family="sans-serif" font-size="14" lengthAdjust="spacing" textLength="4.4502" x="121.2749" y="279.292">&#160;</text></g><g id="verDetalles.ConsultandoDetalles"><rect fill="#F1F1F1" height="50" rx="12.5" ry="12.5" style="stroke:#181818;stroke-width:0.5;" width="164.8125" x="41" y="397.2969"/><line style="stroke:#181818;stroke-width:0.5;" x1="41" x2="205.8125" y1="423.5938" y2="423.5938"/><text fill="#000000" font-family="sans-serif" font-size="14" lengthAdjust="spacing" textLength="144.8125" x="51" y="415.292">ConsultandoDetalles</text></g><g class="entity" data-entity="c" data-uid="ent0007" id="entity_c"><polygon fill="#F1F1F1" points="123.5,548.2969,135.5,560.2969,123.5,572.2969,111.5,560.2969,123.5,548.2969" style="stroke:#181818;stroke-width:0.5;"/></g><ellipse cx="123.5" cy="165.2969" fill="#222222" rx="10" ry="10" style="stroke:#222222;stroke-width:1;"/><ellipse cx="123.5" cy="654.2969" fill="none" rx="11" ry="11" style="stroke:#222222;stroke-width:1;"/><ellipse cx="123.5" cy="654.2969" fill="#222222" rx="6" ry="6" style="stroke:#222222;stroke-width:1;"/><!--link *start*verDetalles to SolicitandoDetalles--><g class="link" data-entity-1=".start.verDetalles" data-entity-2="SolicitandoDetalles" data-source-line="13" data-uid="lnk5" id="link_.start.verDetalles_SolicitandoDetalles"><path d="M123.5,175.6369 C123.5,193.8269 123.5,228.5369 123.5,254.9069" fill="none" id="*start*verDetalles-to-SolicitandoDetalles" style="stroke:#008000;stroke-width:1;"/><polygon fill="#008000" points="123.5,260.9069,127.5,251.9069,123.5,255.9069,119.5,251.9069,123.5,260.9069" style="stroke:#008000;stroke-width:1;"/><path d="M128.5,198.2969 L128.5,238.2969 L342.5,238.2969 L342.5,208.2969 L332.5,198.2969 L128.5,198.2969" fill="#FEFFDD" style="stroke:#181818;stroke-width:0.5;"/><path d="M332.5,198.2969 L332.5,208.2969 L342.5,208.2969 L332.5,198.2969" fill="#FEFFDD" style="stroke:#181818;stroke-width:0.5;"/><text fill="#000000" font-family="sans-serif" font-size="13" font-weight="bold" lengthAdjust="spacing" textLength="65.9839" x="134.5" y="215.3638">Visitante</text><text fill="#000000" font-family="sans-serif" font-size="13" lengthAdjust="spacing" textLength="119.6089" x="204.6162" y="215.3638">solicita ver detalle</text><text fill="#000000" font-family="sans-serif" font-size="13" lengthAdjust="spacing" textLength="90.6953" x="204.7495" y="230.4966">de un espacio</text></g><!--link SolicitandoDetalles to ConsultandoDetalles--><g class="link" data-entity-1="SolicitandoDetalles" data-entity-2="ConsultandoDetalles" data-source-line="19" data-uid="lnk6" id="link_SolicitandoDetalles_ConsultandoDetalles"><path d="M123.5,311.5669 C123.5,335.8469 123.5,366.9869 123.5,391.2069" fill="none" id="SolicitandoDetalles-to-ConsultandoDetalles" style="stroke:#008000;stroke-width:1;"/><polygon fill="#008000" points="123.5,397.2069,127.5,388.2069,123.5,392.2069,119.5,388.2069,123.5,397.2069" style="stroke:#008000;stroke-width:1;"/><path d="M128.5,334.2969 L128.5,374.2969 L291.5,374.2969 L291.5,344.2969 L281.5,334.2969 L128.5,334.2969" fill="#FEFFDD" style="stroke:#181818;stroke-width:0.5;"/><path d="M281.5,334.2969 L281.5,344.2969 L291.5,344.2969 L281.5,334.2969" fill="#FEFFDD" style="stroke:#181818;stroke-width:0.5;"/><text fill="#000000" font-family="sans-serif" font-size="13" font-weight="bold" lengthAdjust="spacing" textLength="58.9063" x="134.5" y="351.3638">Sistema</text><text fill="#000000" font-family="sans-serif" font-size="13" lengthAdjust="spacing" textLength="57.6685" x="197.5386" y="351.3638">presenta</text><text fill="#000000" font-family="sans-serif" font-size="13" lengthAdjust="spacing" textLength="142.6953" x="134.5" y="366.4966">&#8226; Detalles del espacio</text></g><!--link ConsultandoDetalles to c--><g class="link" data-entity-1="ConsultandoDetalles" data-entity-2="c" data-source-line="25" data-uid="lnk7" id="link_ConsultandoDetalles_c"><path d="M63.91,447.3669 C40.67,456.7469 19.5,465.2969 19.5,465.2969 C19.5,465.2969 19.5,530.2969 19.5,530.2969 C19.5,530.2969 83.7009,548.1938 108.8509,555.2138" fill="none" id="ConsultandoDetalles-to-c" style="stroke:#008000;stroke-width:1;"/><polygon fill="#008000" points="114.63,556.8269,107.0368,550.5545,109.8141,555.4826,104.886,558.26,114.63,556.8269" style="stroke:#008000;stroke-width:1;"/><path d="M24.5,470.2969 L24.5,525.2969 L202.5,525.2969 L202.5,480.2969 L192.5,470.2969 L24.5,470.2969" fill="#FEFFDD" style="stroke:#181818;stroke-width:0.5;"/><path d="M192.5,470.2969 L192.5,480.2969 L202.5,480.2969 L192.5,470.2969" fill="#FEFFDD" style="stroke:#181818;stroke-width:0.5;"/><text fill="#000000" font-family="sans-serif" font-size="13" font-weight="bold" lengthAdjust="spacing" textLength="65.9839" x="30.5" y="487.3638">Visitante</text><text fill="#000000" font-family="sans-serif" font-size="13" lengthAdjust="spacing" textLength="45.7729" x="100.6162" y="487.3638">solicita</text><text fill="#000000" font-family="sans-serif" font-size="13" lengthAdjust="spacing" textLength="157.2441" x="30.5" y="502.4966">&#8226; continuar consultando</text><text fill="#000000" font-family="sans-serif" font-size="13" lengthAdjust="spacing" textLength="114.9307" x="30.5" y="517.6294">&#8226; salir de detalles</text></g><!--link c to ConsultandoDetalles--><g class="link" data-entity-1="c" data-entity-2="ConsultandoDetalles" data-source-line="32" data-uid="lnk8" id="link_c_ConsultandoDetalles"><path d="M131.86,556.4069 C153.11,549.0769 207.5,530.2969 207.5,530.2969 C207.5,530.2969 207.5,465.2969 207.5,465.2969 C207.5,465.2969 195.9171,459.499 177.2471,450.169" fill="none" id="c-to-ConsultandoDetalles" style="stroke:#008000;stroke-width:1;"/><polygon fill="#008000" points="171.88,447.4869,178.1426,455.0882,176.3526,449.722,181.7188,447.932,171.88,447.4869" style="stroke:#008000;stroke-width:1;"/><path d="M212.5,485.2969 L212.5,510.2969 L378.5,510.2969 L378.5,495.2969 L368.5,485.2969 L212.5,485.2969" fill="#FEFFDD" style="stroke:#181818;stroke-width:0.5;"/><path d="M368.5,485.2969 L368.5,495.2969 L378.5,495.2969 L368.5,485.2969" fill="#FEFFDD" style="stroke:#181818;stroke-width:0.5;"/><text fill="#000000" font-family="sans-serif" font-size="13" lengthAdjust="spacing" textLength="145.4438" x="218.5" y="502.3638">continuar consultando</text></g><!--link c to *end*verDetalles--><g class="link" data-entity-1="c" data-entity-2=".end.verDetalles" data-source-line="37" data-uid="lnk10" id="link_c_.end.verDetalles"><path d="M123.5,572.5769 C123.5,590.6169 123.5,619.6969 123.5,637.0569" fill="none" id="c-to-*end*verDetalles" style="stroke:#008000;stroke-width:1;"/><polygon fill="#008000" points="123.5,643.0569,127.5,634.0569,123.5,638.0569,119.5,634.0569,123.5,643.0569" style="stroke:#008000;stroke-width:1;"/><path d="M128.5,595.2969 L128.5,620.2969 L252.5,620.2969 L252.5,605.2969 L242.5,595.2969 L128.5,595.2969" fill="#FEFFDD" style="stroke:#181818;stroke-width:0.5;"/><path d="M242.5,595.2969 L242.5,605.2969 L252.5,605.2969 L242.5,595.2969" fill="#FEFFDD" style="stroke:#181818;stroke-width:0.5;"/><text fill="#000000" font-family="sans-serif" font-size="13" lengthAdjust="spacing" textLength="103.1304" x="134.5" y="612.3638">salir de detalles</text></g><g id="ESPACIO_ABIERTO"><rect fill="#F1F1F1" height="50" rx="12.5" ry="12.5" style="stroke:#181818;stroke-width:0.5;" width="149.1309" x="123.5" y="770"/><line style="stroke:#181818;stroke-width:0.5;" x1="123.5" x2="272.6309" y1="796.2969" y2="796.2969"/><text fill="#000000" font-family="sans-serif" font-size="14" lengthAdjust="spacing" textLength="129.1309" x="133.5" y="787.9951">ESPACIO_ABIERTO</text></g><!--link in1 to verDetalles--><g class="link" data-entity-1="in1" data-entity-2="verDetalles" data-source-line="4" data-uid="lnk2" id="link_in1_verDetalles"><path d="M104.64,57.07 C108.8,72.17 113.064,87.6262 119.844,112.1962" fill="none" id="in1-to-verDetalles" style="stroke:#008000;stroke-width:1;"/><polygon fill="#008000" points="121.44,117.98,122.9018,108.2402,120.11,113.1601,115.1901,110.3683,121.44,117.98" style="stroke:#008000;stroke-width:1;"/></g><!--link in2 to verDetalles--><g class="link" data-entity-1="in2" data-entity-2="verDetalles" data-source-line="6" data-uid="lnk3" id="link_in2_verDetalles"><path d="M292.29,57.07 C288.09,72.17 283.7813,87.6304 276.9313,112.2004" fill="none" id="in2-to-verDetalles" style="stroke:#008000;stroke-width:1;"/><polygon fill="#008000" points="275.32,117.98,281.59,110.3848,276.6628,113.1637,273.8839,108.2364,275.32,117.98" style="stroke:#008000;stroke-width:1;"/></g><!--link verDetalles to ESPACIO_ABIERTO--><g class="link" data-entity-1="verDetalles" data-entity-2="ESPACIO_ABIERTO" data-source-line="43" data-uid="lnk12" id="link_verDetalles_ESPACIO_ABIERTO"><path d="M198,675.04 C198,714.08 198,742.21 198,763.78" fill="none" id="verDetalles-to-ESPACIO_ABIERTO" style="stroke:#008000;stroke-width:1;"/><polygon fill="#008000" points="198,769.78,202,760.78,198,764.78,194,760.78,198,769.78" style="stroke:#008000;stroke-width:1;"/><path d="M203,710 L203,735 L273,735 L273,720 L263,710 L203,710" fill="#FEFFDD" style="stroke:#181818;stroke-width:0.5;"/><path d="M263,710 L263,720 L273,720 L263,710" fill="#FEFFDD" style="stroke:#181818;stroke-width:0.5;"/><text fill="#000000" font-family="sans-serif" font-size="13" lengthAdjust="spacing" textLength="49.6768" x="209" y="727.0669">regresa</text></g><!--SRC=[dLFHIiCm57tFLrpgYmf3t7Cfp6qFUwgquiiOagKN3SkIqgJ24C5lyTFy4fDqoxgP8de3eRdtd7DFBgdUS5dJXcv1S8bcLoFKIkpSWH1jg47WyXQeXgIOJ_EYMCpofydTObuyv6L2N6sql7Xk4ELgbC4hDZCqL0ZKWJtsx7bvFvak0jTHnuFKFRUNyXgzy-LL0cy4R7JGn2uBAPNWZ1igAnN4Zg2faheLGrK6QSfU56UOPSJdbzUh4uiHTV10gInVIJV3ZK-aw-oHQmSrcDwiCz1xghiJL1svu_w82g6LWBgcZ2iFGLbrBMoGiCNSzDqEtJPcjkJQu9PwgtM36gMXllRryGb1lK8HzNNq5EbvuedzSLp10rFISDdIndqTMeIgfeAxiHucgmViiVyDQBXvQ16HjwydBlUBstT2-W-_Btds4v4JwGOjJbDo4Fe6]--></g></svg>