<svg xmlns="http://www.w3.org/2000/svg" xmlns:xlink="http://www.w3.org/1999/xlink" contentStyleType="text/css" data-diagram-type="STATE" height="811px" preserveAspectRatio="none" style="width:448px;height:811px;background:#FFFFFF;" version="1.1" viewBox="0 0 448 811" width="448px" zoomAndPan="magnify"><defs/><g><g id="in1"><rect fill="#F1F1F1" height="50" rx="12.5" ry="12.5" style="stroke:#181818;stroke-width:0.5;" width="182.0938" x="30" y="7"/><line style="stroke:#181818;stroke-width:0.5;" x1="30" x2="212.0938" y1="33.2969" y2="33.2969"/><text fill="#000000" font-family="sans-serif" font-size="14" lengthAdjust="spacing" textLength="162.0938" x="40" y="24.9951">RECORRIDO_ABIERTOS</text></g><g id="in2"><rect fill="#F1F1F1" height="50" rx="12.5" ry="12.5" style="stroke:#181818;stroke-width:0.5;" width="149.1309" x="247.5" y="7"/><line style="stroke:#181818;stroke-width:0.5;" x1="247.5" x2="396.6309" y1="33.2969" y2="33.2969"/><text fill="#000000" font-family="sans-serif" font-size="14" lengthAdjust="spacing" textLength="129.1309" x="257.5" y="24.9951">ESPACIO_ABIERTO</text></g><path d="M19.5,118 L422.5,118 A12.5,12.5 0 0 1 435,130.5 L435,144.2969 L7,144.2969 L7,130.5 A12.5,12.5 0 0 1 19.5,118" fill="#F1F1F1"/><rect fill="none" height="542.2969" rx="12.5" ry="12.5" style="stroke:#181818;stroke-width:0.5;" width="428" x="7" y="118"/><line style="stroke:#181818;stroke-width:0.5;" x1="7" x2="435" y1="144.2969" y2="144.2969"/><text fill="#000000" font-family="sans-serif" font-size="14" lengthAdjust="spacing" textLength="159.7832" x="141.1084" y="135.9951">verEspaciosCercanos()</text><g id="verEspaciosCercanos.SolicitandoEspaciosCercanos"><rect fill="#F1F1F1" height="50" rx="12.5" ry="12.5" style="stroke:#181818;stroke-width:0.5;" width="50" x="111" y="246.2969"/><line style="stroke:#181818;stroke-width:0.5;" x1="111" x2="161" y1="272.5938" y2="272.5938"/><text fill="#000000" font-family="sans-serif" font-size="14" lengthAdjust="spacing" textLength="4.4502" x="133.7749" y="264.292">&#160;</text></g><g id="verEspaciosCercanos.ConsultandoEspaciosCercanos"><rect fill="#F1F1F1" height="50" rx="12.5" ry="12.5" style="stroke:#181818;stroke-width:0.5;" width="233.8691" x="19" y="382.2969"/><line style="stroke:#181818;stroke-width:0.5;" x1="19" x2="252.8691" y1="408.5938" y2="408.5938"/><text fill="#000000" font-family="sans-serif" font-size="14" lengthAdjust="spacing" textLength="213.8691" x="29" y="400.292">ConsultandoEspaciosCercanos</text></g><g class="entity" data-entity="c" data-uid="ent0007" id="entity_c"><polygon fill="#F1F1F1" points="136,533.2969,148,545.2969,136,557.2969,124,545.2969,136,533.2969" style="stroke:#181818;stroke-width:0.5;"/></g><ellipse cx="136" cy="165.2969" fill="#222222" rx="10" ry="10" style="stroke:#222222;stroke-width:1;"/><ellipse cx="136" cy="639.2969" fill="none" rx="11" ry="11" style="stroke:#222222;stroke-width:1;"/><ellipse cx="136" cy="639.2969" fill="#222222" rx="6" ry="6" style="stroke:#222222;stroke-width:1;"/><!--link *start*verEspaciosCercanos to SolicitandoEspaciosCercanos--><g class="link" data-entity-1=".start.verEspaciosCercanos" data-entity-2="SolicitandoEspaciosCercanos" data-source-line="13" data-uid="lnk5" id="link_.start.verEspaciosCercanos_SolicitandoEspaciosCercanos"><path d="M136,175.5269 C136,191.2369 136,217.6569 136,240.1669" fill="none" id="*start*verEspaciosCercanos-to-SolicitandoEspaciosCercanos" style="stroke:#008000;stroke-width:1;"/><polygon fill="#008000" points="136,246.1669,140,237.1669,136,241.1669,132,237.1669,136,246.1669" style="stroke:#008000;stroke-width:1;"/><path d="M141,198.2969 L141,223.2969 L426,223.2969 L426,208.2969 L416,198.2969 L141,198.2969" fill="#FEFFDD" style="stroke:#181818;stroke-width:0.5;"/><path d="M416,198.2969 L416,208.2969 L426,208.2969 L416,198.2969" fill="#FEFFDD" style="stroke:#181818;stroke-width:0.5;"/><text fill="#000000" font-family="sans-serif" font-size="13" font-weight="bold" lengthAdjust="spacing" textLength="65.9839" x="147" y="215.3638">Visitante</text><text fill="#000000" font-family="sans-serif" font-size="13" lengthAdjust="spacing" textLength="194.251" x="217.1162" y="215.3638">solicita ver espacios cercanos</text></g><!--link SolicitandoEspaciosCercanos to ConsultandoEspaciosCercanos--><g class="link" data-entity-1="SolicitandoEspaciosCercanos" data-entity-2="ConsultandoEspaciosCercanos" data-source-line="18" data-uid="lnk6" id="link_SolicitandoEspaciosCercanos_ConsultandoEspaciosCercanos"><path d="M136,296.5669 C136,320.8469 136,351.9869 136,376.2069" fill="none" id="SolicitandoEspaciosCercanos-to-ConsultandoEspaciosCercanos" style="stroke:#008000;stroke-width:1;"/><polygon fill="#008000" points="136,382.2069,140,373.2069,136,377.2069,132,373.2069,136,382.2069" style="stroke:#008000;stroke-width:1;"/><path d="M141,319.2969 L141,359.2969 L344,359.2969 L344,329.2969 L334,319.2969 L141,319.2969" fill="#FEFFDD" style="stroke:#181818;stroke-width:0.5;"/><path d="M334,319.2969 L334,329.2969 L344,329.2969 L334,319.2969" fill="#FEFFDD" style="stroke:#181818;stroke-width:0.5;"/><text fill="#000000" font-family="sans-serif" font-size="13" font-weight="bold" lengthAdjust="spacing" textLength="58.9063" x="147" y="336.3638">Sistema</text><text fill="#000000" font-family="sans-serif" font-size="13" lengthAdjust="spacing" textLength="57.6685" x="210.0386" y="336.3638">presenta</text><text fill="#000000" font-family="sans-serif" font-size="13" lengthAdjust="spacing" textLength="182.5522" x="147" y="351.4966">&#8226; lista de espacios cercanos</text></g><!--link ConsultandoEspaciosCercanos to c--><g class="link" data-entity-1="ConsultandoEspaciosCercanos" data-entity-2="c" data-source-line="24" data-uid="lnk7" id="link_ConsultandoEspaciosCercanos_c"><path d="M68.96,432.3669 C42.82,441.7469 19,450.2969 19,450.2969 C19,450.2969 19,515.2969 19,515.2969 C19,515.2969 93.4159,533.7446 120.9959,540.5746" fill="none" id="ConsultandoEspaciosCercanos-to-c" style="stroke:#008000;stroke-width:1;"/><polygon fill="#008000" points="126.82,542.0169,119.0454,535.9707,121.9666,540.815,117.1224,543.7362,126.82,542.0169" style="stroke:#008000;stroke-width:1;"/><path d="M24,455.2969 L24,510.2969 L227,510.2969 L227,465.2969 L217,455.2969 L24,455.2969" fill="#FEFFDD" style="stroke:#181818;stroke-width:0.5;"/><path d="M217,455.2969 L217,465.2969 L227,465.2969 L217,455.2969" fill="#FEFFDD" style="stroke:#181818;stroke-width:0.5;"/><text fill="#000000" font-family="sans-serif" font-size="13" font-weight="bold" lengthAdjust="spacing" textLength="65.9839" x="30" y="472.3638">Visitante</text><text fill="#000000" font-family="sans-serif" font-size="13" lengthAdjust="spacing" textLength="45.7729" x="100.1162" y="472.3638">solicita</text><text fill="#000000" font-family="sans-serif" font-size="13" lengthAdjust="spacing" textLength="157.2441" x="30" y="487.4966">&#8226; continuar consultando</text><text fill="#000000" font-family="sans-serif" font-size="13" lengthAdjust="spacing" textLength="182.7998" x="30" y="502.6294">&#8226; salir de espacios cercanos</text></g><!--link c to ConsultandoEspaciosCercanos--><g class="link" data-entity-1="c" data-entity-2="ConsultandoEspaciosCercanos" data-source-line="31" data-uid="lnk8" id="link_c_ConsultandoEspaciosCercanos"><path d="M144.52,541.7269 C168.01,534.6269 232,515.2969 232,515.2969 C232,515.2969 232,450.2969 232,450.2969 C232,450.2969 217.9574,444.1508 196.5074,434.7708" fill="none" id="c-to-ConsultandoEspaciosCercanos" style="stroke:#008000;stroke-width:1;"/><polygon fill="#008000" points="191.01,432.3669,197.6534,439.6377,195.5911,434.3702,200.8587,432.3079,191.01,432.3669" style="stroke:#008000;stroke-width:1;"/><path d="M237,470.2969 L237,495.2969 L403,495.2969 L403,480.2969 L393,470.2969 L237,470.2969" fill="#FEFFDD" style="stroke:#181818;stroke-width:0.5;"/><path d="M393,470.2969 L393,480.2969 L403,480.2969 L393,470.2969" fill="#FEFFDD" style="stroke:#181818;stroke-width:0.5;"/><text fill="#000000" font-family="sans-serif" font-size="13" lengthAdjust="spacing" textLength="145.4438" x="243" y="487.3638">continuar consultando</text></g><!--link c to *end*verEspaciosCercanos--><g class="link" data-entity-1="c" data-entity-2=".end.verEspaciosCercanos" data-source-line="36" data-uid="lnk10" id="link_c_.end.verEspaciosCercanos"><path d="M136,557.5769 C136,575.6169 136,604.6969 136,622.0569" fill="none" id="c-to-*end*verEspaciosCercanos" style="stroke:#008000;stroke-width:1;"/><polygon fill="#008000" points="136,628.0569,140,619.0569,136,623.0569,132,619.0569,136,628.0569" style="stroke:#008000;stroke-width:1;"/><path d="M141,580.2969 L141,605.2969 L332,605.2969 L332,590.2969 L322,580.2969 L141,580.2969" fill="#FEFFDD" style="stroke:#181818;stroke-width:0.5;"/><path d="M322,580.2969 L322,590.2969 L332,590.2969 L322,580.2969" fill="#FEFFDD" style="stroke:#181818;stroke-width:0.5;"/><text fill="#000000" font-family="sans-serif" font-size="13" lengthAdjust="spacing" textLength="170.9995" x="147" y="597.3638">salir de espacios cercanos</text></g><g id="ESPACIO_ABIERTO"><rect fill="#F1F1F1" height="50" rx="12.5" ry="12.5" style="stroke:#181818;stroke-width:0.5;" width="149.1309" x="146.5" y="755"/><line style="stroke:#181818;stroke-width:0.5;" x1="146.5" x2="295.6309" y1="781.2969" y2="781.2969"/><text fill="#000000" font-family="sans-serif" font-size="14" lengthAdjust="spacing" textLength="129.1309" x="156.5" y="772.9951">ESPACIO_ABIERTO</text></g><!--link in1 to verEspaciosCercanos--><g class="link" data-entity-1="in1" data-entity-2="verEspaciosCercanos" data-source-line="4" data-uid="lnk2" id="link_in1_verEspaciosCercanos"><path d="M127.79,57.12 C132.04,72.18 136.3633,87.5447 143.2333,111.9347" fill="none" id="in1-to-verEspaciosCercanos" style="stroke:#008000;stroke-width:1;"/><polygon fill="#008000" points="144.86,117.71,146.2701,107.9626,143.5044,112.8973,138.5697,110.1316,144.86,117.71" style="stroke:#008000;stroke-width:1;"/></g><!--link in2 to verEspaciosCercanos--><g class="link" data-entity-1="in2" data-entity-2="verEspaciosCercanos" data-source-line="6" data-uid="lnk3" id="link_in2_verEspaciosCercanos"><path d="M315.14,57.12 C310.85,72.18 306.4821,87.5491 299.5421,111.9391" fill="none" id="in2-to-verEspaciosCercanos" style="stroke:#008000;stroke-width:1;"/><polygon fill="#008000" points="297.9,117.71,304.2104,110.1483,299.2684,112.9009,296.5158,107.9589,297.9,117.71" style="stroke:#008000;stroke-width:1;"/></g><!--link verEspaciosCercanos to ESPACIO_ABIERTO--><g class="link" data-entity-1="verEspaciosCercanos" data-entity-2="ESPACIO_ABIERTO" data-source-line="42" data-uid="lnk12" id="link_verEspaciosCercanos_ESPACIO_ABIERTO"><path d="M221,660.17 C221,699.07 221,727.18 221,748.76" fill="none" id="verEspaciosCercanos-to-ESPACIO_ABIERTO" style="stroke:#008000;stroke-width:1;"/><polygon fill="#008000" points="221,754.76,225,745.76,221,749.76,217,745.76,221,754.76" style="stroke:#008000;stroke-width:1;"/><path d="M226,695 L226,720 L296,720 L296,705 L286,695 L226,695" fill="#FEFFDD" style="stroke:#181818;stroke-width:0.5;"/><path d="M286,695 L286,705 L296,705 L286,695" fill="#FEFFDD" style="stroke:#181818;stroke-width:0.5;"/><text fill="#000000" font-family="sans-serif" font-size="13" lengthAdjust="spacing" textLength="49.6768" x="232" y="712.0669">regresa</text></g><!--SRC=[fPDHIyCm4CVVyocE-gB24FTS2hFsOK-LLdmPGxBqqB3kKf9C62BuMVneVXAJREishQl354gQk_lz_tSqPYwfuPele9Q4TjKWDAfU-G_6ZEKMGT8rS0DHaQLvKOnlyyVHpJWhxlCoOZusc9mzQKIQ3X9uGPsPXWkfJ8fQS5AcfGm39IllHkcuPNZ4i1UnONI40hFZ_FmYWbS6RgrB8_Uur5BLKaZBgL8_H7R9gIAphFko1CInU5PIO9AmS3wvd1wqSaGDGW4fnr7aPpyF1_4iUP36brYChsO9c0t2zmwuWO3OTuDKhK5kiVPrJ7lVOr-lNHPBQImkU33OQ3H8beVOv_k7ItJZWGfxtEwS7d5mu5ISEBBMaL1a9IsvzhkjL1irl9Rw5B_YV_FxtKqhrI7ZVgrkt5_jlp7MTNtsDRvTJNQWfT7b6Swsm2y0]--></g></svg>