<svg xmlns="http://www.w3.org/2000/svg" xmlns:xlink="http://www.w3.org/1999/xlink" contentStyleType="text/css" data-diagram-type="STATE" height="731px" preserveAspectRatio="none" style="width:486px;height:731px;background:#FFFFFF;" version="1.1" viewBox="0 0 486 731" width="486px" zoomAndPan="magnify"><defs/><g><g id="in1"><rect fill="#F1F1F1" height="50" rx="12.5" ry="12.5" style="stroke:#181818;stroke-width:0.5;" width="158.0176" x="152.5" y="7"/><line style="stroke:#181818;stroke-width:0.5;" x1="152.5" x2="310.5176" y1="33.2969" y2="33.2969"/><text fill="#000000" font-family="sans-serif" font-size="14" lengthAdjust="spacing" textLength="138.0176" x="162.5" y="24.9951">ESPACIOS_ABIERTO</text></g><path d="M19.5,118 L443.5,118 A12.5,12.5 0 0 1 456,130.5 L456,144.2969 L7,144.2969 L7,130.5 A12.5,12.5 0 0 1 19.5,118" fill="#F1F1F1"/><rect fill="none" height="462.2969" rx="12.5" ry="12.5" style="stroke:#181818;stroke-width:0.5;" width="449" x="7" y="118"/><line style="stroke:#181818;stroke-width:0.5;" x1="7" x2="456" y1="144.2969" y2="144.2969"/><text fill="#000000" font-family="sans-serif" font-size="14" lengthAdjust="spacing" textLength="101.083" x="180.9585" y="135.9951">crearEspacio()</text><g id="crearEspacio.SolicitandoDatos"><rect fill="#F1F1F1" height="50" rx="12.5" ry="12.5" style="stroke:#181818;stroke-width:0.5;" width="50" x="19" y="246.2969"/><line style="stroke:#181818;stroke-width:0.5;" x1="19" x2="69" y1="272.5938" y2="272.5938"/><text fill="#000000" font-family="sans-serif" font-size="14" lengthAdjust="spacing" textLength="4.4502" x="41.7749" y="264.292">&#160;</text></g><g id="crearEspacio.CreandoEspacio"><rect fill="#F1F1F1" height="50" rx="12.5" ry="12.5" style="stroke:#181818;stroke-width:0.5;" width="50" x="19" y="412.2969"/><line style="stroke:#181818;stroke-width:0.5;" x1="19" x2="69" y1="438.5938" y2="438.5938"/><text fill="#000000" font-family="sans-serif" font-size="14" lengthAdjust="spacing" textLength="4.4502" x="41.7749" y="430.292">&#160;</text></g><ellipse cx="44" cy="165.2969" fill="#222222" rx="10" ry="10" style="stroke:#222222;stroke-width:1;"/><ellipse cx="44" cy="559.2969" fill="none" rx="11" ry="11" style="stroke:#222222;stroke-width:1;"/><ellipse cx="44" cy="559.2969" fill="#222222" rx="6" ry="6" style="stroke:#222222;stroke-width:1;"/><!--link *start*crearEspacio to SolicitandoDatos--><g class="link" data-entity-1=".start.crearEspacio" data-entity-2="SolicitandoDatos" data-source-line="11" data-uid="lnk4" id="link_.start.crearEspacio_SolicitandoDatos"><path d="M44,175.5269 C44,191.2369 44,217.6569 44,240.1669" fill="none" id="*start*crearEspacio-to-SolicitandoDatos" style="stroke:#008000;stroke-width:1;"/><polygon fill="#008000" points="44,246.1669,48,237.1669,44,241.1669,40,237.1669,44,246.1669" style="stroke:#008000;stroke-width:1;"/><path d="M49,198.2969 L49,223.2969 L360,223.2969 L360,208.2969 L350,198.2969 L49,198.2969" fill="#FEFFDD" style="stroke:#181818;stroke-width:0.5;"/><path d="M350,198.2969 L350,208.2969 L360,208.2969 L350,198.2969" fill="#FEFFDD" style="stroke:#181818;stroke-width:0.5;"/><text fill="#000000" font-family="sans-serif" font-size="13" font-weight="bold" lengthAdjust="spacing" textLength="104.8633" x="55" y="215.3638">Administrador</text><text fill="#000000" font-family="sans-serif" font-size="13" lengthAdjust="spacing" textLength="181.7969" x="163.9956" y="215.3638">solicita crear espacio nuevo</text></g><!--link SolicitandoDatos to CreandoEspacio--><g class="link" data-entity-1="SolicitandoDatos" data-entity-2="CreandoEspacio" data-source-line="16" data-uid="lnk5" id="link_SolicitandoDatos_CreandoEspacio"><path d="M44,296.4969 C44,327.5869 44,375.2469 44,406.2669" fill="none" id="SolicitandoDatos-to-CreandoEspacio" style="stroke:#008000;stroke-width:1;"/><polygon fill="#008000" points="44,412.2669,48,403.2669,44,407.2669,40,403.2669,44,412.2669" style="stroke:#008000;stroke-width:1;"/><path d="M49,319.2969 L49,389.2969 L447,389.2969 L447,329.2969 L437,319.2969 L49,319.2969" fill="#FEFFDD" style="stroke:#181818;stroke-width:0.5;"/><path d="M437,319.2969 L437,329.2969 L447,329.2969 L437,319.2969" fill="#FEFFDD" style="stroke:#181818;stroke-width:0.5;"/><text fill="#000000" font-family="sans-serif" font-size="13" font-weight="bold" lengthAdjust="spacing" textLength="58.9063" x="55" y="336.3638">Sistema</text><text fill="#000000" font-family="sans-serif" font-size="13" lengthAdjust="spacing" textLength="314.1328" x="118.0386" y="336.3638">presenta solicitud de datos m&#237;nimos del espacio</text><text fill="#000000" font-family="sans-serif" font-size="13" lengthAdjust="spacing" textLength="225.4497" x="55" y="351.4966">&#8226; Nombre del espacio (obligatorio)</text><text fill="#000000" font-family="sans-serif" font-size="13" lengthAdjust="spacing" textLength="209.3711" x="55" y="366.6294">&#8226; Permite solicitar crear espacio</text><text fill="#000000" font-family="sans-serif" font-size="13" lengthAdjust="spacing" textLength="236.6978" x="55" y="381.7622">&#8226; Permite solicitar cancelar creaci&#243;n</text></g><!--link CreandoEspacio to *end*crearEspacio--><g class="link" data-entity-1="CreandoEspacio" data-entity-2=".end.crearEspacio" data-source-line="24" data-uid="lnk7" id="link_CreandoEspacio_.end.crearEspacio"><path d="M44,462.5769 C44,488.8769 44,523.5669 44,542.2769" fill="none" id="CreandoEspacio-to-*end*crearEspacio" style="stroke:#008000;stroke-width:1;"/><polygon fill="#008000" points="44,548.2769,48,539.2769,44,543.2769,40,539.2769,44,548.2769" style="stroke:#008000;stroke-width:1;"/><path d="M49,485.2969 L49,525.2969 L395,525.2969 L395,495.2969 L385,485.2969 L49,485.2969" fill="#FEFFDD" style="stroke:#181818;stroke-width:0.5;"/><path d="M385,485.2969 L385,495.2969 L395,495.2969 L385,485.2969" fill="#FEFFDD" style="stroke:#181818;stroke-width:0.5;"/><text fill="#000000" font-family="sans-serif" font-size="13" font-weight="bold" lengthAdjust="spacing" textLength="104.8633" x="55" y="502.3638">Administrador</text><text fill="#000000" font-family="sans-serif" font-size="13" lengthAdjust="spacing" textLength="177.8423" x="163.9956" y="502.3638">proporciona datos m&#237;nimos</text><text fill="#000000" font-family="sans-serif" font-size="13" font-weight="bold" lengthAdjust="spacing" textLength="58.9063" x="55" y="517.4966">Sistema</text><text fill="#000000" font-family="sans-serif" font-size="13" lengthAdjust="spacing" textLength="262.812" x="118.0386" y="517.4966">crea espacio y transfiere a actualizaci&#243;n</text></g><g id="ESPACIO_ABIERTO"><rect fill="#F1F1F1" height="50" rx="12.5" ry="12.5" style="stroke:#181818;stroke-width:0.5;" width="149.1309" x="27" y="675"/><line style="stroke:#181818;stroke-width:0.5;" x1="27" x2="176.1309" y1="701.2969" y2="701.2969"/><text fill="#000000" font-family="sans-serif" font-size="14" lengthAdjust="spacing" textLength="129.1309" x="37" y="692.9951">ESPACIO_ABIERTO</text></g><g id="ESPACIOS_ABIERTO"><rect fill="#F1F1F1" height="50" rx="12.5" ry="12.5" style="stroke:#181818;stroke-width:0.5;" width="158.0176" x="282.5" y="675"/><line style="stroke:#181818;stroke-width:0.5;" x1="282.5" x2="440.5176" y1="701.2969" y2="701.2969"/><text fill="#000000" font-family="sans-serif" font-size="14" lengthAdjust="spacing" textLength="138.0176" x="292.5" y="692.9951">ESPACIOS_ABIERTO</text></g><!--link in1 to crearEspacio--><g class="link" data-entity-1="in1" data-entity-2="crearEspacio" data-source-line="4" data-uid="lnk2" id="link_in1_crearEspacio"><path d="M231.5,57.19 C231.5,72.39 231.5,87.68 231.5,111.89" fill="none" id="in1-to-crearEspacio" style="stroke:#008000;stroke-width:1;"/><polygon fill="#008000" points="231.5,117.89,235.5,108.89,231.5,112.89,227.5,108.89,231.5,117.89" style="stroke:#008000;stroke-width:1;"/></g><!--link crearEspacio to ESPACIO_ABIERTO--><g class="link" data-entity-1="crearEspacio" data-entity-2="ESPACIO_ABIERTO" data-source-line="31" data-uid="lnk9" id="link_crearEspacio_ESPACIO_ABIERTO"><path d="M113.76,580.17 C104.42,598.43 98.5,610 98.5,610 C98.5,610 98.5,645 98.5,645 C98.5,645 99.0265,654.4793 99.8265,668.8493" fill="none" id="crearEspacio-to-ESPACIO_ABIERTO" style="stroke:#008000;stroke-width:1;"/><polygon fill="#008000" points="100.16,674.84,103.6535,665.6316,99.8821,669.8477,95.6659,666.0763,100.16,674.84" style="stroke:#008000;stroke-width:1;"/><path d="M103.5,615 L103.5,640 L313.5,640 L313.5,625 L303.5,615 L103.5,615" fill="#FEFFDD" style="stroke:#181818;stroke-width:0.5;"/><path d="M303.5,615 L303.5,625 L313.5,625 L303.5,615" fill="#FEFFDD" style="stroke:#181818;stroke-width:0.5;"/><text fill="#000000" font-family="sans-serif" font-size="13" lengthAdjust="spacing" textLength="189.6426" x="109.5" y="632.0669">editarEspacio(espacioNuevo)</text></g><!--link crearEspacio to ESPACIOS_ABIERTO--><g class="link" data-entity-1="crearEspacio" data-entity-2="ESPACIOS_ABIERTO" data-source-line="36" data-uid="lnk11" id="link_crearEspacio_ESPACIOS_ABIERTO"><path d="M317.31,580.36 C331.61,618.77 342.3243,647.5279 350.4243,669.2579" fill="none" id="crearEspacio-to-ESPACIOS_ABIERTO" style="stroke:#0000FF;stroke-width:1;"/><polygon fill="#0000FF" points="352.52,674.88,353.1246,665.0497,350.7736,670.1949,345.6284,667.844,352.52,674.88" style="stroke:#0000FF;stroke-width:1;"/><path d="M344.5,615 L344.5,640 L479.5,640 L479.5,625 L469.5,615 L344.5,615" fill="#FEFFDD" style="stroke:#181818;stroke-width:0.5;"/><path d="M469.5,615 L469.5,625 L479.5,625 L469.5,615" fill="#FEFFDD" style="stroke:#181818;stroke-width:0.5;"/><text fill="#000000" font-family="sans-serif" font-size="13" lengthAdjust="spacing" textLength="114.9624" x="350.5" y="632.0669">cancelar creaci&#243;n</text></g><!--SRC=[bPF1IiD048Rl-nH3lRH24U-bK6iFlRJ5U2j5DjcnBDtCXjr4g2BuBDuz-GXz4v_4IPh4f8s26mZ9xio_t_mxwtUQ4kba34OJfli48R5cd_y8uLEP8cYw1kcXDmjMa-by6JnCRkQpk_jbJ-Ghm_N5rY7IPZY6oA5qCv_8IDigkpbNo3Gd-eCUl0W1F8xHFNuuAB16HpgLfEojJAq_ZvYo2g_Mc-K1wyjD2-TK1OeeignYAQztLqoCml54nPgqJvrKreskmZ7uClV83rWMG1a-sI8BIHsbU8ZwTRPba-U4-JUOW44mbWL6uj0ZCKR9aobG2AgGZWyVf6F-K6Wgm4BZw-qT5ZOE7JQNe6z3exUSwhGTr84hTB5cYAfWrwxuhpX94Peo8TA7JsePysDAk-wM9Nna_pYKnDd4EjOWUU91btSvLbty7bY7_AD6TaM2ZD9C6ltSnVqgHAjfcxpb7QYkW6XneyfzgLgxt7cHTyn0rEfdsg79i24TT6jtc5r9VWC0]--></g></svg>